<?xml version="1.0" standalone="no"?>
<!DOCTYPE svg PUBLIC "-//W3C//DTD SVG 1.1//EN" "http://www.w3.org/Graphics/SVG/1.1/DTD/svg11.dtd" >
<svg xmlns="http://www.w3.org/2000/svg" xmlns:xlink="http://www.w3.org/1999/xlink" version="1.1">
<metadata>
Created by FontForge 20200427 at Mon Oct  1 01:27:10 2012
 By www
Copyright 2012 (c) Okay Type Foundry. All rights reserved.
</metadata>
<defs>
<font id="HarrietDisplay-Light" horiz-adv-x="600" >
  <font-face 
    font-family="Harriet Display Light"
    font-weight="300"
    font-stretch="normal"
    units-per-em="1000"
    panose-1="2 0 0 0 0 0 0 0 0 0"
    ascent="800"
    descent="-200"
    x-height="480"
    cap-height="679"
    bbox="-100 -337 1216 1045"
    underline-thickness="0"
    underline-position="0"
    unicode-range="U+0020-FB06"
  />
<missing-glyph horiz-adv-x="500" 
d="M10 -230v995h480v-995h-480zM193 84h115q20 0 26.5 7t6.5 26q0 35 11.5 50.5t42.5 21.5q29 5 29 39q0 13 -3.5 23t-3.5 15q0 26 7 37q26 42 26 78q0 78 -53.5 123.5t-142.5 45.5q-95 0 -149.5 -47.5t-54.5 -130.5q0 -8 1.5 -15.5t2.5 -12t4.5 -11.5t4.5 -9.5t6.5 -11
t6.5 -9.5q7 -11 7 -37q0 -5 -3.5 -15t-3.5 -23q0 -34 28 -39q32 -6 43.5 -21t11.5 -51q0 -19 7 -26t27 -7zM335 222q-10 0 -17 4t-12.5 11.5t-6.5 8.5q-2 2 -6.5 6t-8 7t-6 6.5t-2.5 5.5q0 18 12 28.5t31 10.5q20 0 38 -18.5t18 -33.5q0 -12 -13.5 -24t-26.5 -12zM166 222
q-13 0 -26.5 12t-13.5 24q0 15 18 33.5t38 18.5q19 0 31 -10.5t12 -28.5q0 -5 -23 -25q-1 -1 -6.5 -8.5t-12.5 -11.5t-17 -4zM275 182q0 -4 -0.5 -7t-2 -5t-3 -3t-4.5 -1.5t-4.5 -0.5h-5.5h-5h-5h-5.5t-4.5 0.5t-4.5 1.5t-3 3t-2 5t-0.5 7q0 16 7 31.5t18 15.5t18 -15.5
t7 -31.5z" />
    <glyph glyph-name="ff" unicode="ff" horiz-adv-x="652" 
d="M180 480h243v85l1 21v7l-6 -1q-22 0 -36 13t-14 33q0 25 17 41t17 25q0 17 -21.5 32.5t-61.5 15.5q-139 0 -139 -183v-89zM595 0q-22 0 -68.5 0.5t-68.5 0.5q-23 0 -65 -0.5t-64 -0.5v14l39 5q34 5 44.5 17.5t10.5 45.5v372l-243 -3v-366q0 -35 12 -48.5t48 -17.5l42 -5
v-14q-23 0 -69.5 0.5t-68.5 0.5t-64 -0.5t-65 -0.5v14l39 5q34 5 44.5 17.5t10.5 45.5v364l-95 11v16l95 11v60q0 112 60.5 167.5t149.5 55.5q100 0 139 -63q46 73 141 73q57 0 91.5 -26.5t34.5 -65.5q0 -27 -15 -43.5t-39 -16.5q-23 0 -37.5 13t-14.5 34q0 24 19 39t19 22
q0 11 -14.5 20t-42.5 9q-55 0 -81 -40.5t-26 -125.5v-116h131v-24l-131 -1v-370q0 -35 12 -48.5t49 -17.5l41 -5v-14z" />
    <glyph glyph-name="fi" unicode="fi" horiz-adv-x="595" 
d="M583 0q-22 0 -65 0.5t-65 0.5t-64 -0.5t-65 -0.5v14l39 5q34 5 44.5 17t10.5 45v311q0 34 -12 49t-56 15q-87 0 -170 -5v-366q0 -35 12 -48.5t48 -17.5l42 -5v-14q-23 0 -69.5 0.5t-68.5 0.5t-64 -0.5t-65 -0.5v14l39 5q34 5 44.5 17t10.5 45v365l-95 11v16l95 11v77
q0 109 57.5 162.5t146.5 53.5q69 0 111.5 -30t42.5 -77q0 -28 -16 -44.5t-42 -16.5q-22 0 -37 14t-15 34q0 21 16.5 39.5t16.5 27.5q0 16 -19 27t-59 11q-132 0 -132 -170v-112h229l70 9l16 -6q-6 -49 -6 -105v-297q0 -33 10.5 -45t44.5 -17l39 -5v-14z" />
    <glyph glyph-name="fl" unicode="fl" horiz-adv-x="603" 
d="M423 480v135q-9 -3 -19 -3q-22 0 -36.5 13t-14.5 33q0 24 17.5 39.5t17.5 24.5q0 14 -21.5 27t-56.5 13q-67 0 -98.5 -41.5t-31.5 -133.5v-107h243zM423 460l-243 -9v-366q0 -35 12 -48.5t48 -17.5l42 -5v-14q-23 0 -69.5 0.5t-68.5 0.5t-64 -0.5t-65 -0.5v14l39 5
q34 5 44.5 17.5t10.5 45.5v364l-95 11v16l95 11v74q0 113 57 166t144 53q92 0 131 -55l49 50l12 -4q-9 -56 -9 -106v-581q0 -32 11 -44.5t45 -17.5l39 -5v-14q-23 0 -65.5 0.5t-64.5 0.5q-23 0 -65 -0.5t-64 -0.5v14l39 5q34 5 44.5 17t10.5 45v379z" />
    <glyph glyph-name="ffi" unicode="ffi" horiz-adv-x="909" 
d="M180 480h243v81l1 20l1 12l-7 -1q-22 0 -36 13t-14 33q0 25 17 41t17 25q0 17 -21.5 32.5t-61.5 15.5q-139 0 -139 -183v-89zM897 0q-23 0 -65.5 0.5t-64.5 0.5t-64.5 -0.5t-64.5 -0.5v14l39 5q34 5 44.5 17t10.5 45v311q0 34 -12 49t-56 15q-94 0 -171 -1v-370
q0 -35 12 -48.5t49 -17.5l41 -5v-14q-22 0 -68.5 0.5t-68.5 0.5q-23 0 -65 -0.5t-64 -0.5v14l39 5q34 5 44.5 17.5t10.5 45.5v372q-202 -2 -243 -3v-366q0 -35 12 -48.5t48 -17.5l42 -5v-14q-23 0 -69.5 0.5t-68.5 0.5t-64 -0.5t-65 -0.5v14l39 5q34 5 44.5 17.5t10.5 45.5
v364l-95 11v16l95 11v60q0 112 60.5 167.5t149.5 55.5q49 0 86.5 -18t54.5 -49q53 77 166 77q69 0 112 -30t43 -77q0 -28 -16 -44.5t-42 -16.5q-22 0 -37 14t-15 34q0 21 16 39.5t16 27.5q0 16 -18.5 27t-58.5 11q-133 0 -133 -170v-112h230l70 9l16 -6q-7 -46 -7 -105v-297
q0 -32 11 -44.5t45 -17.5l39 -5v-14z" />
    <glyph glyph-name="ffl" unicode="ffl" horiz-adv-x="916" 
d="M180 480h243v73l1 21l1 19l-7 -1q-22 0 -36 13t-14 33q0 25 17 41t17 25q0 17 -21.5 32.5t-61.5 15.5q-139 0 -139 -183v-89zM737 480v135q-9 -3 -19 -3q-22 0 -36.5 13t-14.5 33q0 24 17 39.5t17 24.5q0 14 -21 27t-56 13q-67 0 -99 -43t-32 -137v-102h244zM737 461
l-244 -4v-372q0 -35 12 -48.5t49 -17.5l41 -5v-14q-22 0 -68.5 0.5t-68.5 0.5q-23 0 -65 -0.5t-64 -0.5v14l39 5q34 5 44.5 17.5t10.5 45.5v374l-243 -4v-367q0 -35 12 -48.5t48 -17.5l42 -5v-14q-23 0 -69.5 0.5t-68.5 0.5t-64 -0.5t-65 -0.5v14l39 5q34 5 44.5 17.5
t10.5 45.5v364l-95 11v16l95 11v60q0 112 60.5 167.5t149.5 55.5q49 0 87 -18.5t55 -49.5q52 78 163 78q92 0 130 -55l50 50l12 -4q-9 -56 -9 -106v-581q0 -32 11 -44.5t45 -17.5l38 -5v-14q-22 0 -64.5 0.5t-64.5 0.5q-23 0 -65 -0.5t-64 -0.5v14l39 5q34 5 44.5 17.5
t10.5 44.5v380z" />
    <glyph glyph-name=".notdef" horiz-adv-x="500" 
d="M10 -230v995h480v-995h-480zM193 84h115q20 0 26.5 7t6.5 26q0 35 11.5 50.5t42.5 21.5q29 5 29 39q0 13 -3.5 23t-3.5 15q0 26 7 37q26 42 26 78q0 78 -53.5 123.5t-142.5 45.5q-95 0 -149.5 -47.5t-54.5 -130.5q0 -8 1.5 -15.5t2.5 -12t4.5 -11.5t4.5 -9.5t6.5 -11
t6.5 -9.5q7 -11 7 -37q0 -5 -3.5 -15t-3.5 -23q0 -34 28 -39q32 -6 43.5 -21t11.5 -51q0 -19 7 -26t27 -7zM335 222q-10 0 -17 4t-12.5 11.5t-6.5 8.5q-2 2 -6.5 6t-8 7t-6 6.5t-2.5 5.5q0 18 12 28.5t31 10.5q20 0 38 -18.5t18 -33.5q0 -12 -13.5 -24t-26.5 -12zM166 222
q-13 0 -26.5 12t-13.5 24q0 15 18 33.5t38 18.5q19 0 31 -10.5t12 -28.5q0 -5 -23 -25q-1 -1 -6.5 -8.5t-12.5 -11.5t-17 -4zM275 182q0 -4 -0.5 -7t-2 -5t-3 -3t-4.5 -1.5t-4.5 -0.5h-5.5h-5h-5h-5.5t-4.5 0.5t-4.5 1.5t-3 3t-2 5t-0.5 7q0 16 7 31.5t18 15.5t18 -15.5
t7 -31.5z" />
    <glyph glyph-name=".null" horiz-adv-x="0" 
 />
    <glyph glyph-name="nonmarkingreturn" horiz-adv-x="333" 
 />
    <glyph glyph-name="space" unicode=" " horiz-adv-x="195" 
 />
    <glyph glyph-name="exclam" unicode="!" horiz-adv-x="296" 
d="M154 190h-12q-1 144 -14 247q-7 53 -22 107.5t-15 80.5q0 32 16 50t41 18t41 -18t16 -50q0 -26 -15 -80t-21 -108q-12 -100 -15 -247zM148 -7q-23 0 -40.5 16.5t-17.5 41.5q0 26 17 42t41 16t41 -16t17 -42t-17 -42t-41 -16z" />
    <glyph glyph-name="quotedbl" unicode="&#x22;" horiz-adv-x="386" 
d="M269 488h-12q-6 60 -13.5 115.5t-12 84.5t-4.5 39q0 17 9.5 27.5t26.5 10.5t26.5 -10.5t9.5 -27.5q0 -13 -4 -41.5t-12 -84t-14 -113.5zM129 488h-12q-6 60 -13.5 115.5t-12 84.5t-4.5 39q0 17 9.5 27.5t26.5 10.5t26.5 -10.5t9.5 -27.5q0 -13 -4 -41.5t-12 -84
t-14 -113.5z" />
    <glyph glyph-name="numbersign" unicode="#" horiz-adv-x="518" 
d="M326 230l19 173h-150l-19 -173h150zM170 171l-19 -171h-23l19 171h-94l-13 59h113l19 173h-115l-13 58h134l18 165h23l-18 -165h150l18 165h23l-18 -165h91l12 -58h-110l-19 -173h113l13 -59h-132l-19 -171h-22l19 171h-150z" />
    <glyph glyph-name="dollar" unicode="$" horiz-adv-x="509" 
d="M254 364l38 261l-13 1q-77 0 -118.5 -37t-41.5 -89q0 -53 33.5 -81.5t101.5 -54.5zM236 3q83 0 126 38t43 92q0 58 -35 88t-107 55l-39 -273h12zM460 165q0 -77 -63 -127t-161 -50h-14l-16 -109h-22l16 111q-80 7 -127 46.5t-47 94.5q0 30 15.5 48.5t39.5 18.5
q21 0 33.5 -13t12.5 -32q0 -15 -6 -25.5t-13.5 -15t-13.5 -10.5t-6 -14q0 -26 30.5 -51t83.5 -32l40 279q-91 31 -135 71.5t-44 110.5q0 78 61 126t155 48h15l10 70h21l-10 -72q70 -8 112 -43.5t42 -82.5q0 -29 -15 -46t-39 -17q-21 0 -34 13t-13 31q0 25 20 40.5t20 25.5
q0 19 -25.5 39t-69.5 26l-39 -267l14 -5q87 -32 129.5 -71t42.5 -116z" />
    <glyph glyph-name="percent" unicode="%" horiz-adv-x="657" 
d="M337 496q0 -66 -43 -105.5t-108 -39.5q-66 0 -109 39t-43 105q0 67 43 106.5t108 39.5q66 0 109 -39t43 -106zM46 0l267 318l253 308h34l-271 -322l-249 -304h-34zM186 368q43 0 68 34t25 94t-25.5 94t-68.5 34t-68.5 -34t-25.5 -95q0 -59 26 -93t69 -34zM471 -10
q-66 0 -108.5 39t-42.5 106q0 66 42.5 105.5t107.5 39.5q66 0 109.5 -39t43.5 -105q0 -67 -43 -106.5t-109 -39.5zM471 7q43 0 68.5 34t25.5 95q0 60 -25.5 93.5t-69.5 33.5q-43 0 -68 -33.5t-25 -94.5q0 -60 25.5 -94t68.5 -34z" />
    <glyph glyph-name="ampersand" unicode="&#x26;" horiz-adv-x="725" 
d="M701 147q-13 -90 -48 -126t-99 -36q-74 0 -143 73q-63 -73 -174 -73q-94 0 -155.5 51t-61.5 136q0 84 52 136t144 86q-33 88 -33 140q0 77 44 119t110 42q57 0 95 -31t38 -84q0 -34 -16.5 -63t-46.5 -50.5t-57.5 -34.5t-63.5 -27q24 -61 63 -135q45 -82 86 -140
q12 27 21 57l6 21q11 38 17 58t18 52.5t24 49.5t29.5 36.5t39.5 27.5t49 8q36 0 56 -18t20 -45q0 -26 -14.5 -40.5t-36.5 -14.5q-21 0 -34 12t-13 32q0 7 1.5 16t1.5 11q0 12 -15 12q-16 0 -30 -7.5t-26.5 -25t-21.5 -34.5t-19.5 -47.5t-17 -51.5t-17.5 -58t-25 -67
q73 -96 134 -96q43 0 67.5 28.5t37.5 102.5zM281 417l5 2q133 54 133 158q0 102 -83 102q-47 0 -70 -31t-23 -81t38 -150zM256 9q90 0 143 63q-47 55 -108 164q-39 68 -69 145q-63 -27 -95 -74t-32 -125q0 -79 42 -126t119 -47z" />
    <glyph glyph-name="quotesingle" unicode="'" horiz-adv-x="246" 
d="M129 488h-12q-6 60 -13.5 115.5t-12 84.5t-4.5 39q0 17 9.5 27.5t26.5 10.5t26.5 -10.5t9.5 -27.5q0 -13 -4 -41.5t-12 -84t-14 -113.5z" />
    <glyph glyph-name="parenleft" unicode="(" horiz-adv-x="357" 
d="M338 -173l-9 -10q-36 27 -70.5 63.5t-77.5 95.5t-69.5 141.5t-26.5 172.5v5q0 90 26.5 172.5t69.5 142t78 96t70 63.5l9 -10q-30 -28 -58 -66t-58 -95t-48 -136t-18 -167v-5q0 -88 18 -167t48 -135.5t58 -94.5t58 -66z" />
    <glyph glyph-name="parenright" unicode=")" horiz-adv-x="357" 
d="M28 -183l-9 10q30 28 58 66t58 94.5t48 135.5t18 167v5q0 88 -18 167t-48 136t-58 95t-58 66l9 10q35 -27 70 -63.5t78 -96t69.5 -142t26.5 -172.5v-5q0 -90 -26.5 -172.5t-69.5 -141.5t-77.5 -95.5t-70.5 -63.5z" />
    <glyph glyph-name="asterisk" unicode="*" horiz-adv-x="421" 
d="M207 424q-8 -33 -40 -25q-13 4 -19 15t-2 26q3 10 24 39.5t36 76.5q-45 -14 -74.5 -37t-39.5 -26q-15 -4 -27 2t-16 20q-8 32 25 40q9 3 46.5 -0.5t84.5 7.5q-34 32 -69 48t-42 23q-10 10 -10.5 23.5t9.5 23.5q23 22 48 -3q6 -7 21 -41t47 -69q10 49 6 84t-1 45
q10 33 40 25q14 -3 20 -14.5t2 -26.5q-3 -10 -24.5 -39.5t-36.5 -75.5q45 14 75.5 36.5t39.5 25.5q14 4 26 -2t16 -19q4 -14 -3 -25.5t-22 -15.5q-9 -2 -46.5 1t-83.5 -8q34 -32 68.5 -48t41.5 -23q24 -22 1 -47q-10 -10 -23.5 -9t-23.5 12q-7 7 -22 41.5t-47 69.5
q-9 -51 -5.5 -85.5t0.5 -44.5z" />
    <glyph glyph-name="plus" unicode="+" horiz-adv-x="550" 
d="M290 226v-204h-30v204h-204v30h204v202h30v-202h204v-30h-204z" />
    <glyph glyph-name="comma" unicode="," horiz-adv-x="254" 
d="M69 -174l-9 16q49 26 76.5 66t27.5 79q0 17 -12 17q-5 0 -15.5 -4t-20.5 -4q-24 0 -38.5 14.5t-14.5 40.5q0 27 17.5 43.5t43.5 16.5q33 0 53 -23.5t20 -71.5q0 -63 -34.5 -112t-93.5 -78z" />
    <glyph glyph-name="hyphen" unicode="-" horiz-adv-x="288" 
d="M25 225v31h238v-31h-238z" />
    <glyph glyph-name="period" unicode="." horiz-adv-x="234" 
d="M177 52q0 -27 -18 -43t-42 -16t-41.5 16.5t-17.5 42.5q0 27 17.5 43t41.5 16q25 0 42.5 -16.5t17.5 -42.5z" />
    <glyph glyph-name="slash" unicode="/" horiz-adv-x="316" 
d="M15 -50l258 779h28l-258 -779h-28z" />
    <glyph glyph-name="zero" unicode="0" horiz-adv-x="613" 
d="M566 261q0 -121 -74.5 -198.5t-184.5 -77.5t-185.5 77.5t-75.5 198.5t75 198.5t186 77.5q110 0 184.5 -77.5t74.5 -198.5zM131 261q0 -113 46.5 -187t129.5 -74q82 0 128 74t46 187q0 114 -46 187.5t-128 73.5q-83 0 -129.5 -73.5t-46.5 -187.5z" />
    <glyph glyph-name="one" unicode="1" horiz-adv-x="454" 
d="M77 0v14l55 7q42 6 56 22t14 52v291q0 48 -14 63.5t-64 19.5l-53 3v15l50 3q125 8 140 32h15q-4 -59 -4 -136v-291q0 -37 13 -52.5t56 -21.5l55 -7v-14q-29 0 -81 0.5t-78 0.5q-25 0 -78 -0.5t-82 -0.5z" />
    <glyph glyph-name="two" unicode="2" horiz-adv-x="525" 
d="M444 -71h-15v26q0 26 -11 35.5t-38 9.5h-336v24q150 96 222 159q114 100 114 206q0 59 -28 96t-87 37q-66 0 -105.5 -44.5t-39.5 -99.5q0 -38 15 -59t40 -21q50 0 62 82l13 -2q-7 -56 -34.5 -86t-69.5 -30q-40 0 -66 27.5t-26 72.5q0 72 59.5 123.5t152.5 51.5
q83 0 138 -42.5t55 -112.5q0 -64 -40.5 -111t-127.5 -105q-48 -31 -166 -106q30 5 55 5h288z" />
    <glyph glyph-name="three" unicode="3" horiz-adv-x="509" 
d="M479 61q0 -71 -44.5 -126t-107 -81t-127.5 -26q-84 0 -131 33.5t-47 83.5q0 28 16 47.5t44 19.5q21 0 34.5 -12.5t13.5 -33.5q0 -26 -20.5 -41t-20.5 -25q0 -20 28.5 -38.5t81.5 -18.5q87 0 144.5 60.5t57.5 151.5q0 155 -114 155q-32 0 -59 -15t-47 -29.5t-35 -14.5
q-31 0 -31 34q15 8 69 23t81 31q102 62 102 165q0 118 -112 118q-66 0 -103.5 -40.5t-37.5 -92.5q0 -69 52 -69q44 0 58 75l13 -2q-17 -109 -101 -109q-37 0 -62 25.5t-25 66.5q0 69 59.5 115t147.5 46q80 0 134 -34t54 -99q0 -64 -54 -106t-171 -94q45 21 96 21
q29 0 55.5 -8t52 -25.5t41 -51t15.5 -79.5z" />
    <glyph glyph-name="four" unicode="4" horiz-adv-x="536" 
d="M472 -143v-14q-24 0 -69 0.5t-70 0.5t-72 -0.5t-71 -0.5v14l53 7q33 4 44 17t11 44v135h-277l-7 23l22 1h262v213q0 113 5 175l-267 -388l-22 -1l302 439h53v-438h31q38 0 55.5 14.5t33.5 63.5l15 45h13l-23 -150q-93 3 -101 3h-24v-137q0 -30 10.5 -42.5t44.5 -16.5z
" />
    <glyph glyph-name="five" unicode="5" horiz-adv-x="523" 
d="M206 -172q-82 0 -129.5 32.5t-47.5 85.5q0 29 16.5 47.5t43.5 18.5q21 0 34.5 -12.5t13.5 -33.5q0 -16 -6.5 -26t-14 -14.5t-14 -11t-6.5 -14.5q0 -21 28 -39t82 -18q85 0 138.5 60t53.5 152q0 194 -138 194q-44 0 -80 -21t-58 -59l-42 4l32 352h23q70 -24 172 -24
q53 0 99.5 9.5t63.5 24.5l6 -3q-20 -38 -61 -62.5t-92 -32.5t-101 -7.5t-98 9.5l-23 -236q67 62 162 62q90 0 151.5 -50.5t61.5 -153.5q0 -71 -42 -126t-102.5 -81t-125.5 -26z" />
    <glyph glyph-name="six" unicode="6" horiz-adv-x="560" 
d="M119 208q0 95 52 155t137 60q92 0 151.5 -57.5t59.5 -154.5q0 -95 -69.5 -160.5t-164.5 -65.5q-106 0 -172.5 76.5t-66.5 226.5q0 190 83.5 298t212.5 108q77 0 121.5 -32.5t44.5 -79.5q0 -29 -15.5 -47t-42.5 -18q-21 0 -35 12.5t-14 33.5q0 24 19.5 40t19.5 27
q0 18 -24.5 33.5t-72.5 15.5q-114 0 -169 -116t-55 -355zM132 208q0 -89 39.5 -148.5t113.5 -59.5q76 0 114.5 60t38.5 150q0 88 -35.5 139.5t-107.5 51.5t-117.5 -55.5t-45.5 -137.5z" />
    <glyph glyph-name="seven" unicode="7" horiz-adv-x="498" 
d="M219 -168q-49 0 -49 53q0 146 140 384q57 97 123 192h-277q-40 0 -59 -15t-34 -62l-12 -34h-16l29 194h13q1 -13 5.5 -17.5t18.5 -4.5h372v-27q-3 -4 -17 -24.5t-17.5 -26.5t-16 -24.5t-17.5 -27t-16 -25t-16.5 -28t-14 -26.5t-15 -29t-12.5 -29q-64 -151 -64 -367
q0 -26 -13 -41t-35 -15z" />
    <glyph glyph-name="eight" unicode="8" horiz-adv-x="576" 
d="M288 -15q-103 0 -173.5 49t-70.5 141q0 76 56.5 126t142.5 62q-68 12 -115.5 55t-47.5 106q0 80 60 125t148 45t148 -45t60 -125q0 -63 -47.5 -106t-115.5 -55q86 -12 143 -62t57 -126q0 -92 -71 -141t-174 -49zM157 525q0 -71 36 -112t95 -41t95 41t36 112
q0 72 -36.5 113t-94.5 41t-94.5 -41t-36.5 -113zM127 174q0 -82 44.5 -128t116.5 -46t116.5 46t44.5 128t-44.5 129.5t-116.5 47.5q-73 0 -117 -47t-44 -130z" />
    <glyph glyph-name="nine" unicode="9" horiz-adv-x="565" 
d="M433 315q0 89 -39.5 148t-113.5 59q-76 0 -114.5 -60t-38.5 -149t35 -140.5t108 -51.5q72 0 117.5 56t45.5 138zM446 315q0 -95 -52 -155.5t-137 -60.5q-92 0 -151.5 58t-59.5 154q0 95 69.5 160.5t164.5 65.5q106 0 172.5 -76.5t66.5 -226.5q0 -190 -83.5 -298
t-212.5 -108q-77 0 -121.5 32.5t-44.5 80.5q0 29 15.5 46.5t42.5 17.5q21 0 35 -12.5t14 -33.5q0 -24 -19.5 -39.5t-19.5 -26.5q0 -19 24.5 -34.5t72.5 -15.5q114 0 169 116.5t55 355.5z" />
    <glyph glyph-name="colon" unicode=":" horiz-adv-x="244" 
d="M182 430q0 -27 -18 -43t-42 -16t-41.5 16.5t-17.5 42.5q0 27 17.5 43t41.5 16q25 0 42.5 -16.5t17.5 -42.5zM182 52q0 -27 -18 -43t-42 -16t-41.5 16.5t-17.5 42.5q0 27 17.5 43t41.5 16q25 0 42.5 -16.5t17.5 -42.5z" />
    <glyph glyph-name="semicolon" unicode=";" horiz-adv-x="266" 
d="M184 430q0 -27 -18 -43t-42 -16t-41.5 16.5t-17.5 42.5q0 27 17.5 43t41.5 16q25 0 42.5 -16.5t17.5 -42.5zM76 -174l-9 16q49 26 76.5 66t27.5 79q0 17 -12 17q-5 0 -15.5 -4t-20.5 -4q-24 0 -38.5 14.5t-14.5 40.5q0 27 17.5 43.5t43.5 16.5q33 0 53 -23.5t20 -71.5
q0 -63 -34.5 -112t-93.5 -78z" />
    <glyph glyph-name="less" unicode="&#x3c;" horiz-adv-x="550" 
d="M462 21l-401 203v31l401 204l13 -26l-386 -193l386 -194z" />
    <glyph glyph-name="equal" unicode="=" horiz-adv-x="550" 
d="M56 320v30h438v-30h-438zM494 130h-438v30h438v-30z" />
    <glyph glyph-name="greater" unicode="&#x3e;" horiz-adv-x="550" 
d="M489 225l-401 -204l-13 26l386 194l-386 193l13 25l401 -203v-31z" />
    <glyph glyph-name="question" unicode="?" horiz-adv-x="511" 
d="M484 507q0 -63 -37 -108t-84.5 -63t-95.5 -18q-21 0 -42 3l-16 -131h-11l-15 152l15 6q28 -14 66 -14q57 0 96.5 43.5t39.5 130.5q0 82 -38.5 126.5t-100.5 44.5q-74 0 -112.5 -42t-38.5 -98q0 -37 15 -57.5t40 -20.5q50 0 67 87l13 -2q-19 -119 -106 -119
q-42 0 -69.5 27.5t-27.5 73.5q0 70 61.5 118t157.5 48q89 0 156 -48.5t67 -138.5zM264 51q0 -26 -17 -42t-41 -16t-41 16t-17 42t17 42t41 16q25 0 41.5 -16t16.5 -42z" />
    <glyph glyph-name="at" unicode="@" horiz-adv-x="892" 
d="M459 -229q-177 0 -290.5 111.5t-113.5 282.5q0 97 37 184.5t98 149.5t143 98.5t170 36.5q147 0 243 -85t96 -226q0 -126 -78.5 -215.5t-175.5 -89.5q-49 0 -75 22t-26 62q0 25 16 69q-29 -82 -60 -116.5t-74 -34.5q-46 0 -74 33t-28 90q0 106 68 194.5t165 88.5
q64 0 96 -43l49 43h12l-42 -93l-58 -175q-13 -36 -13 -56q2 -63 65 -63q66 0 126.5 68.5t60.5 186.5q0 136 -87 222.5t-229 86.5q-169 0 -271.5 -109t-102.5 -290q0 -165 106 -270.5t270 -105.5q167 0 243 77l8 -7q-98 -127 -274 -127zM388 46q57 0 99 122l70 204
q-16 39 -54 39q-48 0 -87.5 -50.5t-58 -114t-18.5 -118.5q0 -82 49 -82z" />
    <glyph glyph-name="A" unicode="A" horiz-adv-x="707" 
d="M715 14v-14q-26 0 -74.5 0.5t-74.5 0.5t-75 -0.5t-74 -0.5v14l54 7q39 4 48.5 23t-5.5 54l-47 125h-284l-24 -64q-29 -76 -22 -103.5t59 -34.5l44 -7v-14q-21 0 -61 0.5t-61 0.5t-63 -0.5t-63 -0.5v14l26 6q45 9 66.5 35t53.5 111l163 426l32 91h41l220 -570
q20 -52 35 -69.5t48 -23.5zM325 601l-134 -357h268z" />
    <glyph glyph-name="B" unicode="B" horiz-adv-x="640" 
d="M23 0v14l57 7q39 5 51 19t12 45v509q0 31 -12 45t-51 19l-57 7v14h286q258 0 258 -155q0 -70 -56.5 -113t-148.5 -53v-2q239 -12 239 -167q0 -92 -74.5 -140.5t-202.5 -48.5h-301zM220 365h83q93 0 135.5 40t42.5 118q0 81 -42.5 109.5t-133.5 28.5h-85v-296zM220 347
v-264q0 -34 15.5 -49.5t51.5 -15.5h36q95 0 141.5 41t46.5 131q0 84 -52 120.5t-157 36.5h-82z" />
    <glyph glyph-name="C" unicode="C" horiz-adv-x="694" 
d="M606 -10l-34 85q-74 -90 -207 -90q-136 0 -229.5 97.5t-93.5 256.5t94 257t230 98q133 0 206 -89l34 84h10v-277h-19q-37 149 -94 208t-136 59q-109 0 -171.5 -90.5t-62.5 -248.5q0 -156 62 -248t171 -92q84 0 139 60.5t92 193.5h19v-264h-10z" />
    <glyph glyph-name="D" unicode="D" horiz-adv-x="715" 
d="M23 0v14l57 7q39 5 51 19t12 45v509q0 31 -12 45t-51 19l-57 7v14h299q156 0 255 -89t99 -250q0 -163 -98.5 -251.5t-255.5 -88.5h-299zM287 18h34q264 0 264 322q0 157 -66.5 239t-196.5 82h-102v-578q0 -34 15.5 -49.5t51.5 -15.5z" />
    <glyph glyph-name="E" unicode="E" horiz-adv-x="630" 
d="M220 359h93q49 0 69 29.5t39 119.5h15q-1 -52 -1 -158q0 -105 1 -158h-15q-20 91 -39.5 120t-68.5 29h-93v-258q0 -34 15.5 -49.5t51.5 -15.5h106q84 0 114.5 37.5t67.5 181.5h18l-14 -237h-556v14l57 7q39 5 51 19t12 45v509q0 31 -12 45t-51 19l-57 7v14h525l13 -217
h-18q-34 131 -61.5 165t-104.5 34h-157v-302z" />
    <glyph glyph-name="F" unicode="F" horiz-adv-x="594" 
d="M348 14v-14q-28 0 -82 0.5t-82 0.5t-81 -0.5t-80 -0.5v14l57 7q39 5 51 18.5t12 44.5v510q0 31 -12 45t-51 19l-57 7v14h526l13 -222h-18q-20 72 -31.5 105.5t-30 59.5t-41 32.5t-63.5 6.5h-158v-304h87q49 0 69 29.5t39 119.5h16q-1 -52 -1 -158q0 -105 1 -158h-16
q-19 91 -38.5 120t-69.5 29h-87v-248q0 -34 13.5 -49.5t54.5 -20.5z" />
    <glyph glyph-name="G" unicode="G" horiz-adv-x="728" 
d="M610 -13l-37 90q-71 -92 -212 -92q-138 0 -228.5 97.5t-90.5 256.5t95.5 257t231.5 98q131 0 203 -90l34 85h10v-277h-19q-37 149 -93 208t-134 59q-110 0 -173.5 -90.5t-63.5 -248.5q0 -159 60.5 -249.5t171.5 -90.5q80 0 129 45t49 114v59q0 32 -14.5 47.5t-52.5 20.5
l-62 8v14q54 -1 158 -1q107 0 161 1v-14l-60 -8q-34 -5 -45.5 -19t-11.5 -43v-103l3 -134h-9z" />
    <glyph glyph-name="H" unicode="H" horiz-adv-x="793" 
d="M770 0q-27 0 -79 0.5t-79 0.5t-79 -0.5t-79 -0.5v14l57 7q38 5 50 19t12 45v252h-353v-252q0 -31 12 -45t50 -19l57 -7v-14q-27 0 -79 0.5t-79 0.5t-79 -0.5t-79 -0.5v14l57 7q39 5 51 19t12 45v509q0 31 -12 45t-51 19l-57 7v14q54 -1 158 -1t158 1v-14l-57 -7
q-38 -5 -50 -19t-12 -45v-236h353v236q0 31 -12 45t-50 19l-57 7v14q54 -1 158 -1t158 1v-14l-57 -7q-39 -5 -51 -19t-12 -45v-509q0 -31 12 -45t51 -19l57 -7v-14z" />
    <glyph glyph-name="I" unicode="I" horiz-adv-x="362" 
d="M23 0v14l57 7q39 5 51 19t12 45v509q0 31 -12 45t-51 19l-57 7v14q54 -1 159 -1q104 0 158 1v-14l-58 -7q-38 -5 -50 -19t-12 -45v-509q0 -31 12 -45t50 -19l58 -7v-14q-27 0 -79 0.5t-79 0.5q-28 0 -80 -0.5t-79 -0.5z" />
    <glyph glyph-name="J" unicode="J" horiz-adv-x="516" 
d="M386 225q0 -118 -60 -179t-159 -61q-74 0 -117.5 38.5t-43.5 98.5q0 33 17 53.5t45 20.5q22 0 35.5 -13t13.5 -34q0 -43 -47 -48q-18 -1 -18 -20q0 -28 30 -54t83 -26q76 0 111.5 45.5t35.5 138.5v403q0 34 -14 49.5t-55 20.5l-60 7v14q55 -1 161 -1q107 0 162 1v-14
l-58 -7q-38 -5 -50 -19t-12 -45v-369z" />
    <glyph glyph-name="K" unicode="K" horiz-adv-x="724" 
d="M720 0q-28 0 -81 0.5t-81 0.5t-82 -0.5t-82 -0.5v14l38 5q54 7 54 27q0 11 -8 22.5t-36 42.5l-217 239l202 195q40 39 52.5 55.5t12.5 29.5q0 22 -51 29l-39 6v14q48 -1 144 -1t145 1v-14l-33 -5q-55 -9 -100.5 -35t-115.5 -93l-149 -143l239 -263q55 -61 82 -79.5
t74 -26.5l32 -6v-14zM23 0v14l57 7q39 5 51 19t12 45v509q0 31 -12 45t-51 19l-57 7v14q54 -1 159 -1q104 0 158 1v-14l-58 -7q-38 -5 -50 -19t-12 -45v-509q0 -31 12 -45t50 -19l58 -7v-14q-27 0 -79 0.5t-79 0.5q-28 0 -80 -0.5t-79 -0.5z" />
    <glyph glyph-name="L" unicode="L" horiz-adv-x="628" 
d="M23 0v14l57 7q39 5 51 19t12 45v509q0 31 -12 45t-51 19l-57 7v14q55 -1 161 -1t162 1v-14l-61 -7q-41 -5 -53 -19t-12 -48v-508q0 -34 15.5 -49.5t51.5 -15.5h115q75 0 109 44t68 190h17l-13 -252h-560z" />
    <glyph glyph-name="M" unicode="M" horiz-adv-x="939" 
d="M428 -3l-261 641v-496q0 -68 15 -90.5t63 -30.5l41 -7v-14q-22 0 -65 0.5t-66 0.5t-66.5 -0.5t-65.5 -0.5v14l40 7q49 8 64.5 31t15.5 90v452q0 31 -12 45t-51 19l-57 7v14h210l238 -588l239 588h207v-14l-58 -7q-38 -5 -50 -19t-12 -45v-509q0 -31 12 -45t50 -19l58 -7
v-14q-27 0 -79 0.5t-80 0.5q-27 0 -79 -0.5t-79 -0.5v14l57 7q38 5 50 19t12 45v558l-263 -646h-28z" />
    <glyph glyph-name="N" unicode="N" horiz-adv-x="768" 
d="M587 -3l-420 619v-474q0 -68 15 -90.5t63 -30.5l41 -7v-14q-22 0 -65 0.5t-66 0.5t-66.5 -0.5t-65.5 -0.5v14l40 7q49 8 64.5 31t15.5 90v452q0 31 -12 45t-51 19l-57 7v14h195l393 -578v436q0 67 -15.5 90t-63.5 31l-41 7v14q45 -1 132 -1q86 0 131 1v-14l-40 -7
q-48 -8 -63.5 -30.5t-15.5 -90.5v-540h-48z" />
    <glyph glyph-name="O" unicode="O" horiz-adv-x="744" 
d="M702 340q0 -158 -94 -256.5t-236 -98.5t-236 98.5t-94 256.5t94 256t236 98t236 -98.5t94 -255.5zM132 340q0 -151 62 -245.5t178 -94.5q115 0 177.5 94.5t62.5 245.5q0 150 -62.5 244.5t-177.5 94.5q-116 0 -178 -94.5t-62 -244.5z" />
    <glyph glyph-name="P" unicode="P" horiz-adv-x="612" 
d="M220 661v-331q36 -4 88 -4q89 0 139 42t50 125q0 88 -48.5 128t-150.5 40h-78zM348 14v-14q-28 0 -82 0.5t-82 0.5t-81 -0.5t-80 -0.5v14l57 7q39 5 51 18.5t12 44.5v510q0 31 -12 45t-51 19l-57 7v14h274q286 0 286 -186q0 -91 -75.5 -138t-195.5 -47q-55 0 -92 4v-221
q0 -34 13.5 -49.5t54.5 -20.5z" />
    <glyph glyph-name="Q" unicode="Q" horiz-adv-x="744" 
d="M755 -269q-48 0 -91.5 18.5t-77.5 45.5t-67.5 54t-75 45.5t-86.5 18.5q-41 0 -76.5 -17t-67 -39.5t-49.5 -29.5q-43 -15 -61 21q49 45 157 66q46 26 196 90q-49 -17 -94 -17q-135 0 -227.5 99t-92.5 254t91.5 254.5t238.5 99.5t238.5 -99.5t91.5 -254.5
q0 -112 -49 -194.5t-129 -123.5q-35 -18 -114 -51.5t-129 -60.5q53 19 106 19q57 0 114.5 -19.5t97 -43.5t89.5 -43.5t93 -19.5q64 0 98 28.5t46 92.5h14q-11 -90 -58 -141.5t-126 -51.5zM132 340q0 -151 62 -245.5t178 -94.5q115 0 177.5 94.5t62.5 245.5
q0 150 -62.5 244.5t-177.5 94.5q-116 0 -178 -94.5t-62 -244.5z" />
    <glyph glyph-name="R" unicode="R" horiz-adv-x="676" 
d="M681 0h-120q-33 0 -45 8.5t-26 35.5l-138 277q-24 -3 -51 -3q-36 0 -81 3v-234q0 -33 12 -47t52 -19l59 -7v-14q-27 0 -80 0.5t-80 0.5t-79.5 -0.5t-80.5 -0.5v14l57 7q39 5 51 19t12 45v509q0 31 -12 45t-51 19l-57 7v14h276q282 0 282 -179q0 -65 -46.5 -106
t-116.5 -57q19 -24 39 -61l90 -172q24 -47 41 -62t57 -22l36 -6v-14zM220 662v-322q39 -4 82 -4q192 0 192 164q0 90 -46 126t-148 36h-80z" />
    <glyph glyph-name="S" unicode="S" horiz-adv-x="570" 
d="M515 174q0 -89 -62.5 -139t-151.5 -50q-125 0 -196 77l-30 -74h-10v275h19q26 -143 79 -203t138 -60q70 0 111 38.5t41 103.5q0 66 -43.5 101t-133.5 67q-96 34 -147 80.5t-51 121.5q0 84 58.5 133t145.5 49q109 0 170 -72l28 69h10v-264h-19q-27 135 -70.5 193.5
t-117.5 58.5q-67 0 -106 -36.5t-39 -94.5q0 -64 45 -100.5t137 -68.5q97 -34 146 -78t49 -127z" />
    <glyph glyph-name="T" unicode="T" horiz-adv-x="660" 
d="M494 14v-14q-28 0 -82 0.5t-82 0.5t-82 -0.5t-82 -0.5v14l60 7q40 5 52.5 19.5t12.5 47.5v573h-89q-73 0 -99.5 -36t-59.5 -175h-15l8 229h588l8 -229h-15q-32 138 -59.5 174.5t-100.5 36.5h-88v-573q0 -33 12.5 -47.5t52.5 -19.5z" />
    <glyph glyph-name="U" unicode="U" horiz-adv-x="772" 
d="M642 236q0 -119 -64 -184.5t-192 -65.5q-55 0 -97.5 11.5t-78.5 38.5t-55.5 77.5t-19.5 123.5v357q0 31 -12 45t-51 19l-57 7v14q55 -1 159 -1t158 1v-14l-57 -7q-39 -5 -51 -19t-12 -45v-357q0 -122 52.5 -170.5t147.5 -48.5q102 0 154 57t52 161v301q0 68 -15.5 90.5
t-63.5 30.5l-41 7v14q46 -1 132 -1q87 0 132 1v-14l-40 -7q-49 -8 -64.5 -31t-15.5 -90v-301z" />
    <glyph glyph-name="V" unicode="V" horiz-adv-x="706" 
d="M334 -4l-217 570q-19 51 -36.5 69t-51.5 24l-39 6v14q51 -1 155 -1q102 0 153 1v-14l-53 -7q-40 -4 -51.5 -23.5t2.5 -53.5l185 -503l164 441q28 77 19.5 104.5t-61.5 34.5l-44 7v14q43 -1 129 -1t129 1v-14l-29 -6q-46 -9 -68 -36t-54 -110l-161 -425l-32 -92h-39z" />
    <glyph glyph-name="W" unicode="W" horiz-adv-x="1007" 
d="M292 -5l-177 569q-16 51 -34 70t-56 25l-35 6v14q51 -1 155 -1q102 0 153 1v-14l-55 -7q-40 -5 -51 -25.5t1 -52.5l143 -485l166 587h43l182 -587l125 426q21 78 9 103.5t-68 34.5l-37 6v14q44 -1 131 -1t130 1v-14l-29 -6q-49 -9 -69.5 -36t-44.5 -108l-129 -428
l-25 -92h-38l-185 590l-142 -494l-25 -96h-38z" />
    <glyph glyph-name="X" unicode="X" horiz-adv-x="763" 
d="M760 0q-27 0 -80.5 0.5t-80.5 0.5t-80.5 -0.5t-80.5 -0.5v14l55 7q38 5 44.5 22.5t-16.5 48.5l-159 224l-129 -170q-47 -62 -47 -89q0 -28 70 -38l36 -5v-14q-25 0 -72.5 0.5t-71.5 0.5q-25 0 -73 -0.5t-72 -0.5v14l26 5q58 10 91.5 35t96.5 105l134 172l-166 228
q-42 57 -64.5 75.5t-56.5 24.5l-38 6v14q52 -1 156 -1q103 0 155 1v-14l-52 -7q-37 -4 -42 -22.5t18 -48.5l143 -201l111 147q49 64 49 88q0 16 -14.5 25t-53.5 14l-36 5v14q47 -1 141 -1t141 1v-14l-26 -5q-55 -9 -88.5 -34.5t-96.5 -105.5l-116 -150l180 -246
q43 -59 68 -79t61 -25l36 -6v-14z" />
    <glyph glyph-name="Y" unicode="Y" horiz-adv-x="679" 
d="M501 0q-28 0 -82.5 0.5t-81.5 0.5q-29 0 -83 -0.5t-82 -0.5v14l60 7q41 5 53.5 19.5t12.5 47.5v177l-179 315q-25 44 -44 59.5t-53 20.5l-32 5v14q51 -1 154 -1t154 1v-14l-57 -7q-71 -9 -37 -71l162 -292l126 221q41 72 41 100q0 19 -14.5 28.5t-50.5 14.5l-35 6v14
q43 -1 128 -1t128 1v-14l-27 -5q-43 -8 -72 -37.5t-79 -114.5l-136 -234v-186q0 -33 12.5 -47.5t53.5 -19.5l60 -7v-14z" />
    <glyph glyph-name="Z" unicode="Z" horiz-adv-x="626" 
d="M575 0h-540v18l447 643h-239q-52 0 -79 -14.5t-48 -58t-44 -138.5h-19l12 229h511v-18l-447 -643h256q55 0 85 17.5t52 64t47 144.5h18z" />
    <glyph glyph-name="bracketleft" unicode="[" horiz-adv-x="383" 
d="M120 -186v957l243 -7v-16l-177 -10v-891l177 -11v-15z" />
    <glyph glyph-name="backslash" unicode="\" horiz-adv-x="318" 
d="M45 729l258 -779h-28l-258 779h28z" />
    <glyph glyph-name="bracketright" unicode="]" horiz-adv-x="383" 
d="M263 771v-957l-243 7v15l177 11v891l-177 10v16z" />
    <glyph glyph-name="asciicircum" unicode="^" horiz-adv-x="531" 
d="M266 724l-189 -269h-25l183 310h62l182 -310h-25z" />
    <glyph glyph-name="underscore" unicode="_" horiz-adv-x="518" 
d="M0 -53v30h518v-30h-518z" />
    <glyph glyph-name="grave" unicode="`" horiz-adv-x="511" 
d="M304 578h-6q-105 75 -165 169v3h80q29 -77 91 -172z" />
    <glyph glyph-name="a" unicode="a" horiz-adv-x="495" 
d="M197 14q53 0 88.5 31.5t35.5 101.5v97q-107 -13 -159.5 -43.5t-52.5 -98.5q0 -40 24 -64t64 -24zM491 108q-2 -64 -21 -91.5t-60 -27.5q-38 0 -57 21.5t-23 75.5q-18 -46 -60 -73t-99 -27q-63 0 -100 28t-37 80q0 136 288 165v89q1 69 -23.5 100t-80.5 31
q-42 0 -70 -17.5t-28 -36.5q0 -11 10.5 -18t21 -17.5t10.5 -29.5q0 -20 -14 -33t-36 -13q-26 0 -40 17t-14 45q0 49 48 83.5t113 34.5q171 0 171 -162l-1 -254q0 -64 39 -64q43 0 49 94h14z" />
    <glyph glyph-name="b" unicode="b" horiz-adv-x="525" 
d="M498 243q0 -118 -66.5 -188t-164.5 -70q-100 0 -157 66l-36 -62h-10l8 133v547q0 32 -9.5 42.5t-42.5 14.5l-53 5v10l167 32l15 -6q-7 -43 -7 -105v-136q0 -47 -6.5 -134.5t-6.5 -136.5q0 112 45 176t123 64q91 0 146 -71t55 -181zM267 0q78 0 114.5 65t36.5 177
q0 103 -32 167t-99 64q-65 0 -105 -57.5t-40 -160.5v-176q42 -79 125 -79z" />
    <glyph glyph-name="c" unicode="c" horiz-adv-x="484" 
d="M433 106q-65 -120 -185 -120q-94 0 -157.5 69t-63.5 184q0 117 73 186.5t173 69.5q68 0 110.5 -31.5t42.5 -78.5q0 -28 -15.5 -45t-41.5 -17q-22 0 -36 12.5t-14 33.5q0 19 9.5 30.5t19.5 18.5t10 15q0 18 -23.5 32.5t-61.5 14.5q-75 0 -120.5 -62t-45.5 -178
q0 -102 41 -163t119 -61q96 0 153 97z" />
    <glyph glyph-name="d" unicode="d" horiz-adv-x="563" 
d="M244 7q61 0 100 54t39 152v191q-39 76 -123 76q-73 0 -113 -64.5t-40 -177.5q0 -107 34.5 -169t102.5 -62zM396 213q0 -111 -44 -169.5t-123 -58.5q-88 0 -145 69t-57 184q0 121 71 189t162 68q73 0 123 -35v207q0 32 -11 43t-46 15l-55 5v11l174 32l15 -6
q-7 -54 -7 -105v-580q0 -33 11 -45.5t45 -17.5l39 -5v-14h-145l-11 9q0 20 2 103.5t2 100.5z" />
    <glyph glyph-name="e" unicode="e" horiz-adv-x="477" 
d="M355 295l1 13v10q9 162 -100 162q-63 0 -101 -52t-46 -144zM437 109q-68 -123 -189 -123q-95 0 -158 69t-63 184q0 113 66 184.5t162 71.5q83 0 130.5 -47.5t47.5 -125.5q0 -21 -5 -54l-320 2q-1 -10 -1 -30q0 -102 40.5 -163t119.5 -61q98 0 157 100z" />
    <glyph glyph-name="f" unicode="f" horiz-adv-x="339" 
d="M282 0q-23 0 -69.5 0.5t-68.5 0.5t-64 -0.5t-65 -0.5v14l39 5q34 5 44.5 17t10.5 45v365l-95 11v16l95 11v86q0 107 51 157t126 50q57 0 91.5 -26.5t34.5 -65.5q0 -26 -15 -43t-40 -17q-23 0 -37 13t-14 34q0 24 19 39t19 22q0 11 -15 20t-43 9q-55 0 -81 -38.5
t-26 -122.5q0 -19 0.5 -61t0.5 -60h130v-24l-130 -5v-366q0 -35 12 -48.5t48 -17.5l42 -5v-14z" />
    <glyph glyph-name="g" unicode="g" horiz-adv-x="501" 
d="M109 330q0 -67 26.5 -108.5t76.5 -41.5q51 0 77 42t26 108q0 69 -26 109.5t-78 40.5q-50 0 -76 -40.5t-26 -109.5zM236 -243q-100 0 -163.5 36t-63.5 100q0 40 22.5 65t56.5 25q20 0 28.5 -9t6.5 -25q-31 0 -49 -17t-18 -47q0 -51 47 -82t133 -31q89 0 143 32.5t54 89.5
q0 46 -46.5 67.5t-144.5 24.5q-181 5 -181 103q0 84 140 84q-71 0 -119 44t-48 115t49 117t127 46q72 0 121 -41q49 45 101 45q30 0 47 -15t17 -41q0 -23 -13.5 -35.5t-34.5 -12.5q-19 0 -30.5 11.5t-11.5 28.5q0 6 2 14.5t2 11.5q0 10 -14 10q-24 0 -54 -27q47 -47 47 -116
q0 -73 -50 -119t-132 -46q-108 -3 -108 -50q0 -28 35 -39t118 -13q116 -4 170 -39t54 -110q0 -73 -68 -114t-172 -41z" />
    <glyph glyph-name="h" unicode="h" horiz-adv-x="598" 
d="M15 0v14l39 5q34 5 44.5 17.5t10.5 45.5v588q0 31 -9.5 41.5t-42.5 14.5l-52 5v10l167 32l15 -6q-7 -43 -7 -105v-127q0 -62 -6.5 -154.5t-6.5 -153.5q0 117 47 192.5t137 75.5q67 0 105 -38t38 -111v-264q0 -33 10.5 -45.5t44.5 -17.5l39 -5v-14q-22 0 -64 0.5t-64 0.5
t-64.5 -0.5t-64.5 -0.5v14l36 5q34 5 45.5 17.5t11.5 45.5v264q0 123 -92 123q-69 0 -110.5 -69.5t-41.5 -172.5v-145q0 -33 11 -45.5t46 -17.5l35 -5v-14q-22 0 -64 0.5t-64 0.5t-64 -0.5t-65 -0.5z" />
    <glyph glyph-name="i" unicode="i" horiz-adv-x="288" 
d="M193 679q0 -26 -16.5 -41.5t-42.5 -15.5q-24 0 -41 16t-17 41t17 41t41 16q26 0 42.5 -16t16.5 -41zM18 0v14l38 5q34 5 45 17.5t11 45.5v299q0 35 -12.5 46.5t-53.5 14.5l-39 2v12l166 37l16 -6q-7 -46 -7 -107v-299q0 -32 10.5 -44.5t44.5 -17.5l39 -5v-14
q-22 0 -64.5 0.5t-65.5 0.5q-22 0 -64 -0.5t-64 -0.5z" />
    <glyph glyph-name="j" unicode="j" horiz-adv-x="304" 
d="M220 679q0 -26 -17 -41.5t-42 -15.5q-24 0 -41 16t-17 41t16.5 41t41.5 16t42 -16t17 -41zM210 -49q0 -53 -16 -92.5t-43 -61t-55 -31.5t-58 -10q-57 0 -90 25t-33 62q0 26 15.5 43.5t41.5 17.5q22 0 36 -13t14 -33q0 -24 -17.5 -38.5t-17.5 -22.5q0 -11 14 -18.5
t37 -7.5q102 0 102 162v446q0 35 -14 47.5t-56 15.5l-41 2v12l171 37l16 -6q-6 -49 -6 -108v-428z" />
    <glyph glyph-name="k" unicode="k" horiz-adv-x="553" 
d="M15 0v14l39 5q34 5 44.5 17.5t10.5 45.5v587q0 32 -9.5 42.5t-42.5 14.5l-52 5v10l167 32l15 -6q-7 -43 -7 -105v-581q0 -33 10 -45t43 -17l36 -5v-14q-22 0 -62.5 0.5t-62.5 0.5t-64 -0.5t-65 -0.5zM243 287l172 -188q42 -46 62.5 -61t50.5 -20l21 -4v-14
q-21 0 -60.5 0.5t-61.5 0.5q-21 0 -62 -0.5t-62 -0.5v14l27 3q36 5 36 22q0 10 -24 38l-157 175l131 129q34 33 34 53t-46 27l-34 5v14q43 -1 126 -1q84 0 127 1v-14l-33 -5q-79 -14 -161 -92z" />
    <glyph glyph-name="l" unicode="l" horiz-adv-x="289" 
d="M15 0v14l39 5q34 5 44.5 17.5t10.5 45.5v587q0 32 -9.5 42.5t-42.5 14.5l-52 5v10l167 32l15 -6q-7 -43 -7 -105v-580q0 -33 10.5 -45.5t44.5 -17.5l39 -5v-14q-23 0 -65.5 0.5t-64.5 0.5t-64 -0.5t-65 -0.5z" />
    <glyph glyph-name="m" unicode="m" horiz-adv-x="888" 
d="M878 0q-22 0 -64 0.5t-64 0.5t-64 -0.5t-65 -0.5v14l36 5q33 5 45 18t12 41v268q0 123 -85 123q-67 0 -107 -72t-40 -173v-146q0 -28 12 -41t45 -18l36 -5v-14q-22 0 -63.5 0.5t-63.5 0.5q-23 0 -65 -0.5t-64 -0.5v14l36 5q33 5 45 18t12 41v268q0 123 -84 123
q-66 0 -107 -71.5t-41 -173.5v-146q0 -28 12 -41t45 -18l36 -5v-14q-22 0 -64 0.5t-64 0.5q-23 0 -64.5 -0.5t-64.5 -0.5v14l38 5q33 5 44.5 18t11.5 41v303q0 34 -12.5 46t-52.5 15l-40 2v12l156 36l16 -6q-9 -113 -9 -262q0 117 45.5 194t130.5 77q63 0 97 -36.5
t34 -106.5q0 -17 -3 -86q8 102 53.5 165.5t121.5 63.5q65 0 101 -38.5t36 -110.5v-268q0 -28 11.5 -41t44.5 -18l38 -5v-14zM470 224v12v-12z" />
    <glyph glyph-name="n" unicode="n" horiz-adv-x="597" 
d="M16 0v14l38 5q34 5 45 17.5t11 45.5v299q0 34 -12.5 46t-52.5 15l-40 2v12l156 36l16 -6q-9 -113 -9 -265q0 116 47 195t136 79q67 0 105 -38t38 -111v-264q0 -33 11.5 -45.5t45.5 -17.5l36 -5v-14q-22 0 -64 0.5t-64 0.5q-23 0 -65 -0.5t-64 -0.5v14l39 5
q34 5 44.5 17.5t10.5 45.5v264q0 123 -92 123q-69 0 -110.5 -73.5t-41.5 -174.5v-140q0 -32 11.5 -44.5t45.5 -17.5l36 -5v-14q-23 0 -65 0.5t-64 0.5t-64 -0.5t-64 -0.5z" />
    <glyph glyph-name="o" unicode="o" horiz-adv-x="505" 
d="M478 240q0 -113 -63 -184t-162 -71t-162.5 71t-63.5 184t63.5 184t162.5 71t162 -70.5t63 -184.5zM107 240q0 -107 35.5 -173.5t110.5 -66.5q74 0 109.5 66.5t35.5 173.5q0 108 -35.5 174t-109.5 66q-75 0 -110.5 -66t-35.5 -174z" />
    <glyph glyph-name="p" unicode="p" horiz-adv-x="552" 
d="M295 0q72 0 110.5 63.5t38.5 178.5q0 104 -32 167.5t-100 63.5q-67 0 -106.5 -58t-39.5 -160v-173q42 -82 129 -82zM263 -216v-14q-22 0 -66 0.5t-66 0.5q-23 0 -65 -0.5t-64 -0.5v14l39 5q34 5 44.5 17.5t10.5 45.5v529q0 34 -12.5 46t-51.5 15l-41 2v12l156 36l16 -6
q-10 -157 -10 -231q0 110 44 175t127 65q88 0 144.5 -70t56.5 -183q0 -120 -69 -188.5t-161 -68.5q-75 0 -129 38v-169q0 -34 11.5 -47t46.5 -18z" />
    <glyph glyph-name="q" unicode="q" horiz-adv-x="540" 
d="M548 -230q-22 0 -64 0.5t-65 0.5q-22 0 -66 -0.5t-67 -0.5v14l39 5q36 5 47 18t11 47v78q0 56 6.5 147t6.5 134q0 -113 -43.5 -170.5t-122.5 -57.5q-88 0 -145.5 68.5t-57.5 184.5q0 119 69.5 188t163.5 69q102 0 156 -63l35 65h11l-9 -129v-516q0 -33 11 -45.5t45 -17.5
l39 -5v-14zM244 7q62 0 100.5 52.5t38.5 153.5v191q-42 76 -123 76q-73 0 -113 -64.5t-40 -177.5q0 -107 34.5 -169t102.5 -62z" />
    <glyph glyph-name="r" unicode="r" horiz-adv-x="411" 
d="M16 0v14l38 5q34 5 45 17.5t11 45.5v301q0 33 -12.5 44.5t-52.5 14.5l-40 3v12l156 35l16 -6q-10 -126 -10 -303q0 83 25 178q37 136 135 136q33 0 52 -18.5t19 -45.5q0 -26 -16 -41t-39 -15t-35.5 13t-12.5 34q0 4 0.5 11t0.5 9q0 12 -11 12q-23 0 -44 -26.5t-36 -74.5
q-26 -88 -26 -172v-98q0 -35 11.5 -48.5t47.5 -17.5l42 -5v-14q-22 0 -67.5 0.5t-68.5 0.5q-22 0 -64 -0.5t-64 -0.5z" />
    <glyph glyph-name="s" unicode="s" horiz-adv-x="417" 
d="M374 128q0 -65 -45.5 -104t-116.5 -39q-90 0 -143 53l-25 -52h-8v204h19q20 -96 56.5 -143t100.5 -47q48 0 77 25.5t29 69.5q0 46 -30.5 72t-99.5 50q-67 24 -103 56t-36 89t45.5 95t111.5 38q75 0 120 -46l24 45h8v-183h-18q-18 84 -49 126.5t-85 42.5q-47 0 -73.5 -25
t-26.5 -63q0 -42 29.5 -65t96.5 -47q68 -24 105 -58t37 -94z" />
    <glyph glyph-name="t" unicode="t" horiz-adv-x="358" 
d="M333 116q-16 -67 -46 -97.5t-82 -30.5q-115 0 -115 122v336l-95 11v15l47 7q40 4 55 19t23 56l12 73h35l-6 -147h167v-23l-167 -6v-342q0 -52 16 -73.5t50 -21.5q64 0 90 105z" />
    <glyph glyph-name="u" unicode="u" horiz-adv-x="556" 
d="M393 223q0 -107 -40.5 -172.5t-126.5 -65.5q-66 0 -104.5 40t-38.5 117v257q0 31 -10 44.5t-42 17.5l-42 5v14h168l-4 -81v-259q0 -129 93 -129q64 0 99 58t35 154v176q0 32 -9.5 45t-41.5 17l-43 5v14h168l-3 -83v-315q0 -32 10 -45.5t42 -17.5l42 -5v-14h-145l-10 9
q0 21 1.5 109t1.5 105z" />
    <glyph glyph-name="v" unicode="v" horiz-adv-x="542" 
d="M249 -8l-149 392q-16 42 -32 58.5t-48 20.5l-25 3v14q43 -1 129 -1t129 1v-14l-42 -5q-36 -4 -43 -24t7 -56l114 -318l116 291q18 43 18 68q0 33 -59 40l-30 4v14q36 -1 107 -1q70 0 106 1v-14l-19 -3q-39 -7 -59 -29.5t-48 -88.5l-144 -353h-28z" />
    <glyph glyph-name="w" unicode="w" horiz-adv-x="768" 
d="M230 -8l-131 391q-14 42 -31 59t-47 21l-26 3v14q43 -1 129 -1t129 1v-14l-45 -5q-33 -4 -40 -23.5t6 -56.5l94 -302l118 405h36l125 -405l86 265q14 44 14 67q0 24 -14.5 35t-47.5 16l-29 4v14q37 -1 109 -1t108 1v-14l-21 -4q-37 -6 -57.5 -31t-43.5 -95l-116 -344h-29
l-128 405l-119 -405h-29z" />
    <glyph glyph-name="x" unicode="x" horiz-adv-x="550" 
d="M550 0q-22 0 -66 0.5t-67 0.5t-67 -0.5t-66 -0.5v14l33 4q38 4 42 23.5t-21 56.5l-82 128l-85 -116q-29 -40 -29 -61q0 -24 46 -31l30 -4v-14q-18 0 -54 0.5t-54 0.5t-55 -0.5t-55 -0.5v14l22 4q38 6 66 27t68 74l91 121l-98 143q-31 45 -50 59.5t-51 19.5l-25 4v14
q43 -1 128 -1t128 1v-14l-34 -4q-62 -7 -14 -80l67 -103l66 91q31 43 31 65q0 21 -43 27l-28 4v14q35 -1 105 -1t105 1v-14l-22 -4q-39 -7 -66.5 -28t-68.5 -75l-71 -93l114 -169q29 -42 49.5 -58t54.5 -21l26 -4v-14z" />
    <glyph glyph-name="y" unicode="y" horiz-adv-x="537" 
d="M296 28q-33 -87 -62.5 -143t-55.5 -82t-46.5 -35t-46.5 -9q-37 0 -60.5 21t-23.5 54q0 25 15.5 42t42.5 17q22 0 35 -13t13 -32q0 -21 -14.5 -35t-14.5 -20q0 -14 21 -14q80 0 160 206l5 13l-164 385q-18 44 -33.5 59.5t-45.5 19.5l-26 4v14q43 -1 129 -1q82 0 126 1v-14
l-45 -5q-34 -4 -39.5 -23.5t10.5 -54.5l121 -305l104 276q17 45 17 67q0 18 -13 27.5t-45 13.5l-29 4v14q36 -1 106 -1q69 0 105 1v-14l-20 -3q-38 -6 -59 -30t-45 -86z" />
    <glyph glyph-name="z" unicode="z" horiz-adv-x="479" 
d="M35 0v19l313 443h-145q-56 0 -84 -34.5t-53 -140.5h-16l9 193h371v-19l-311 -444h153q63 0 91.5 35t58.5 149h17l-11 -201h-393z" />
    <glyph glyph-name="braceleft" unicode="{" horiz-adv-x="416" 
d="M396 -180h-82q-76 0 -116 36t-40 103q0 27 10.5 97.5t10.5 90.5q0 71 -32.5 98.5t-121.5 29.5v35q89 2 121.5 29.5t32.5 98.5q0 20 -10.5 90.5t-10.5 97.5q0 67 40 103t116 36h82v-16l-80 -5q-49 -3 -69 -29.5t-20 -81.5q0 -24 6 -98t6 -91q0 -72 -41.5 -105t-114.5 -41
v-11q73 -8 114.5 -41t41.5 -105q0 -17 -6 -91t-6 -98q0 -55 20 -81.5t69 -29.5l80 -5v-16z" />
    <glyph glyph-name="bar" unicode="|" horiz-adv-x="261" 
d="M113 -100v829h36v-829h-36z" />
    <glyph glyph-name="braceright" unicode="}" horiz-adv-x="416" 
d="M102 -180h-82v16l80 5q49 3 69 29.5t20 81.5q0 24 -6 98t-6 91q0 72 41.5 105t114.5 41v11q-73 8 -114.5 41t-41.5 105q0 17 6 91t6 98q0 55 -20 81.5t-69 29.5l-80 5v16h82q76 0 116 -36t40 -103q0 -27 -10.5 -97.5t-10.5 -90.5q0 -71 32.5 -98.5t121.5 -29.5v-35
q-89 -2 -121.5 -29.5t-32.5 -98.5q0 -20 10.5 -90.5t10.5 -97.5q0 -67 -40 -103t-116 -36z" />
    <glyph glyph-name="asciitilde" unicode="~" horiz-adv-x="533" 
d="M89 180h-21q-2 22 -2 26q1 45 24.5 71.5t68.5 26.5q42 0 117 -39t104 -39q64 0 64 67h23q0 -107 -94 -107q-43 0 -116.5 39t-104.5 39q-64 0 -63 -84z" />
    <glyph glyph-name="nbspace" unicode="&#xa0;" horiz-adv-x="500" 
 />
    <glyph glyph-name="exclamdown" unicode="&#xa1;" horiz-adv-x="296" 
d="M148 490q24 0 41 -16t17 -42t-17 -42t-41 -16t-41 16t-17 42q0 25 17.5 41.5t40.5 16.5zM142 293h12q3 -147 15 -247q6 -54 21 -108t15 -80q0 -32 -16 -50t-41 -18t-41 18t-16 50q0 26 15 80.5t22 107.5q13 103 14 247z" />
    <glyph glyph-name="cent" unicode="&#xa2;" horiz-adv-x="517" 
d="M206 63l97 417h-1q-79 0 -132 -63.5t-53 -164.5q0 -130 89 -189zM468 92q-31 -49 -80.5 -77.5t-110.5 -28.5q-34 0 -64 10l-34 -147h-22l36 154q-62 26 -101 84.5t-39 143.5q0 119 75.5 191.5t174.5 72.5h3l27 115h21l-27 -116q63 -5 102.5 -36t39.5 -75
q0 -25 -15.5 -42.5t-40.5 -17.5q-22 0 -36.5 12.5t-14.5 33.5q0 19 9.5 30t19 18t9.5 15q0 15 -21 29t-55 18l-98 -427q36 -18 75 -18q107 0 157 66z" />
    <glyph glyph-name="sterling" unicode="&#xa3;" horiz-adv-x="580" 
d="M106 0q81 0 113 87q-68 48 -117 48q-32 0 -51 -19t-19 -49q0 -32 21.5 -49.5t52.5 -17.5zM497 177q28 -78 2 -132.5t-90 -54.5q-30 0 -63 13.5t-48 24t-52 39.5q-7 5 -11 8q-45 -90 -127 -90q-40 0 -67 22t-27 62q0 42 31 69.5t82 27.5q44 0 105 -28q6 34 6 82
q0 29 -6 87l-135 9v14l131 9q-7 79 -7 102q0 97 49.5 149.5t132.5 52.5q52 0 86 -25.5t34 -66.5q0 -26 -14.5 -43t-38.5 -17q-21 0 -34.5 13t-13.5 31t9 29.5t18.5 18.5t9.5 15q0 30 -53 30q-29 0 -49.5 -15.5t-32.5 -45.5t-18 -62.5t-9 -77.5q0 -4 -2.5 -37.5t-4.5 -52.5
h148v-20l-151 -5q-8 -73 -13 -101q-9 -50 -19 -84q8 -4 43 -22.5t48.5 -25t38.5 -14t44 -7.5q39 0 54.5 31t0.5 88h13z" />
    <glyph glyph-name="currency" unicode="&#xa4;" horiz-adv-x="524" 
d="M465 24l-82 83q-50 -48 -121 -48t-121 48l-82 -83l-17 17l84 83q-40 50 -40 116t40 117l-84 82l17 17l82 -83q51 49 121 49t121 -49l82 83l17 -17l-84 -82q40 -51 40 -117t-40 -116l84 -83zM127 240q0 -60 38 -102t97 -42q58 0 96.5 42t38.5 102q0 61 -38 102.5t-97 41.5
t-97 -41.5t-38 -102.5z" />
    <glyph glyph-name="yen" unicode="&#xa5;" horiz-adv-x="679" 
d="M502 14v-14q-28 0 -82 0.5t-82 0.5t-82 -0.5t-83 -0.5v14l60 7q41 5 53.5 19.5t12.5 47.5v70h-190v24h190v64l-7 11h-183v25h168l-147 246q-26 43 -45 58.5t-51 20.5l-30 5v14q51 -1 150 -1q103 0 154 1v-14l-57 -7q-72 -9 -36 -71l149 -252h2l114 182q45 71 45 100
q0 32 -67 42l-35 6v14q42 -1 128 -1q81 0 123 1v-14l-23 -5q-41 -9 -70 -38t-82 -113l-109 -174h159v-25h-173v-75h173v-24h-173v-70q0 -33 12.5 -47.5t53.5 -19.5z" />
    <glyph glyph-name="brokenbar" unicode="&#xa6;" horiz-adv-x="261" 
d="M113 385v344h36v-344h-36zM113 -100v345h36v-345h-36z" />
    <glyph glyph-name="section" unicode="&#xa7;" horiz-adv-x="513" 
d="M366 95l-7 9q51 37 51 96q0 41 -31.5 75.5t-76.5 61t-90 54t-76.5 67t-31.5 86.5q0 67 50 108.5t132 41.5q67 0 114 -31.5t47 -79.5q0 -28 -15 -46t-41 -18q-21 0 -35.5 13t-14.5 33q0 25 20 41t20 25q0 18 -28 33t-66 15q-66 0 -99 -29.5t-33 -73.5t30.5 -79t73.5 -60.5
t86.5 -51.5t74 -65.5t30.5 -89.5q0 -81 -84 -135zM408 -45q0 -68 -49.5 -109.5t-131.5 -41.5q-68 0 -115 31.5t-47 80.5q0 28 15.5 45.5t40.5 17.5q22 0 36 -12t14 -33q0 -25 -20 -41.5t-20 -25.5q0 -17 28.5 -32.5t66.5 -15.5q66 0 99 29.5t33 74.5q0 44 -30.5 79t-74 60
t-87 51t-74 66t-30.5 90q0 78 85 135l7 -10q-52 -36 -52 -95q0 -41 31.5 -76t76.5 -61.5t90 -54t76.5 -66.5t31.5 -86z" />
    <glyph glyph-name="dieresis" unicode="&#xa8;" horiz-adv-x="511" 
d="M404 667q0 -22 -14.5 -36.5t-35.5 -14.5t-36 14.5t-15 36.5q0 21 15 35.5t36 14.5t35.5 -14t14.5 -36zM211 667q0 -22 -14.5 -36.5t-35.5 -14.5t-36 14.5t-15 36.5q0 21 15 35.5t36 14.5t35.5 -14t14.5 -36z" />
    <glyph glyph-name="copyright" unicode="&#xa9;" horiz-adv-x="829" 
d="M761 249q0 -145 -101.5 -245t-245.5 -100t-245.5 100t-101.5 245t101.5 245t245.5 100t245.5 -100t101.5 -245zM94 249q0 -137 92.5 -229t227.5 -92t228 92t93 229t-93 229.5t-228 92.5t-227.5 -92.5t-92.5 -229.5zM551 52l-15 50q-47 -52 -119 -52q-86 0 -141 54.5
t-55 144.5q0 91 55 147.5t140 56.5q79 0 121 -50l14 47h14v-154h-18l-15 42q-34 94 -113 94q-59 0 -92.5 -51.5t-33.5 -130.5t33 -129t93 -50q77 0 112 91l16 42h18v-152h-14z" />
    <glyph glyph-name="ordfeminine" unicode="&#xaa;" horiz-adv-x="371" 
d="M245 532q-71 -9 -107.5 -33.5t-36.5 -77.5q0 -32 16 -49t45 -17q37 0 60 27.5t23 65.5v84zM380 418q-5 -40 -20 -59.5t-44 -19.5q-53 0 -62 56q-36 -60 -114 -60q-46 0 -73.5 22.5t-27.5 58.5q0 33 17 57.5t48.5 38.5t64 22t76.5 13v55q0 78 -72 78q-54 0 -79 -42l7 2
q13 0 22 -9.5t9 -23.5q0 -16 -11 -26.5t-29 -10.5q-16 0 -26.5 11t-10.5 31q0 33 34 58.5t89 25.5q125 0 125 -107v-181q0 -45 26 -45q27 0 35 56zM55 228v25h287v-25h-287z" />
    <glyph glyph-name="guillemotleft" unicode="&#xab;" horiz-adv-x="474" 
d="M391 49l-180 182v18l180 183h16l-120 -192l120 -191h-16zM233 49l-180 182v18l180 183h16l-120 -192l120 -191h-16z" />
    <glyph glyph-name="logicalnot" unicode="&#xac;" horiz-adv-x="550" 
d="M464 302h-408v30h438v-194h-30v164z" />
    <glyph glyph-name="registered" unicode="&#xae;" horiz-adv-x="829" 
d="M761 249q0 -145 -101.5 -245t-245.5 -100t-245.5 100t-101.5 245t101.5 245t245.5 100t245.5 -100t101.5 -245zM94 249q0 -137 92.5 -229t227.5 -92t228 92t93 229t-93 229.5t-228 92.5t-227.5 -92.5t-92.5 -229.5zM405 251q45 0 68 23.5t23 62.5q0 89 -92 89
q-17 0 -43 -2v-172q20 -1 44 -1zM426 70v-11h-191v11l51 11q11 1 11 13v314q0 11 -11 14l-51 10v11h22q25 0 75.5 1t70.5 1q77 0 118.5 -27t41.5 -79q0 -36 -24.5 -60.5t-66.5 -33.5q12 -14 21 -34l51 -108q9 -20 25 -24l30 -9v-11h-103l-73 175q-7 -1 -21 -1q-7 0 -41 2
v-141q0 -12 10 -13z" />
    <glyph glyph-name="macron" unicode="&#xaf;" horiz-adv-x="511" 
d="M117 650v32q72 -4 139 -4q69 0 139 4v-32q-70 4 -138 4t-140 -4z" />
    <glyph glyph-name="degree" unicode="&#xb0;" horiz-adv-x="339" 
d="M170 468q-51 0 -84.5 32t-33.5 83q0 52 33.5 84t84.5 32q50 0 83.5 -32t33.5 -84q0 -51 -33.5 -83t-83.5 -32zM170 493q38 0 63 25.5t25 64.5q0 40 -25 65.5t-63 26.5q-38 0 -63.5 -26t-25.5 -66q0 -39 25.5 -64.5t63.5 -25.5z" />
    <glyph glyph-name="plusminus" unicode="&#xb1;" horiz-adv-x="550" 
d="M494 0h-438v30h204v196h-204v30h204v202h30v-202h204v-30h-204v-196h204v-30z" />
    <glyph glyph-name="two.sups" unicode="&#xb2;" horiz-adv-x="341" 
d="M288 500h-243l-2 26q94 79 128 120q59 70 59 129q0 76 -70 76q-30 0 -53.5 -15.5t-31.5 -38.5l13 4q14 0 22.5 -8t8.5 -21q0 -15 -10 -24t-25 -9q-16 0 -26 10.5t-10 28.5q0 36 33.5 62t87.5 26t90 -24t36 -71q0 -37 -26 -70t-75 -70q-85 -64 -106 -81h151q16 0 23 4
t11 17l12 34h13z" />
    <glyph glyph-name="three.sups" unicode="&#xb3;" horiz-adv-x="347" 
d="M140 491q-49 0 -77.5 18.5t-28.5 46.5q0 16 10.5 27t26.5 11t25.5 -9.5t9.5 -23.5t-9 -22.5t-21 -8.5q20 -24 61 -24q46 0 76 28t30 76q0 79 -62 79q-21 0 -43 -13t-32 -13q-19 0 -21 23q29 12 78 16q64 30 64 89q0 60 -64 60q-55 0 -74 -38l5 2q13 0 22 -8.5t9 -21.5
q0 -14 -10 -23.5t-24 -9.5q-17 0 -27.5 10.5t-10.5 28.5q0 31 33 53t83 22q53 0 86.5 -20t33.5 -55t-29.5 -54.5t-86.5 -37.5h8h-2q4 0 12 0.5t12 0.5q45 0 75 -22.5t30 -66.5q0 -55 -52.5 -87.5t-115.5 -32.5z" />
    <glyph glyph-name="acute" unicode="&#xb4;" horiz-adv-x="511" 
d="M220 578h-6q64 99 92 172h79v-3q-59 -94 -165 -169z" />
    <glyph glyph-name="mu" unicode="&#xb5;" horiz-adv-x="582" 
d="M153 -197v-33h-70v629q0 31 -10 44.5t-42 17.5l-42 5v14h168l-4 -81v-259q0 -129 93 -129q64 0 99 58t35 154v176q0 32 -9.5 45t-41.5 17l-43 5v14h168l-3 -83v-315q0 -32 10 -45.5t42 -17.5l42 -5v-14h-145l-10 9q0 27 1.5 106.5t1.5 107.5q0 -106 -39.5 -172
t-118.5 -66q-69 0 -98 53q16 -181 16 -235z" />
    <glyph glyph-name="paragraph" unicode="&#xb6;" horiz-adv-x="622" 
d="M345 -180h-27v464q-36 -12 -75 -12q-91 0 -147 51t-56 147q0 92 56.5 151.5t167.5 59.5q7 0 35.5 -1t45.5 -1v-859zM429 -180v859h160v-14l-64 -8q-39 -5 -54 -20.5t-15 -46.5v-770h-27z" />
    <glyph glyph-name="periodcentered" unicode="&#xb7;" horiz-adv-x="279" 
d="M199 241q0 -27 -18 -43t-42 -16t-41.5 16.5t-17.5 42.5q0 27 17.5 43t41.5 16q25 0 42.5 -16.5t17.5 -42.5z" />
    <glyph glyph-name="cedilla" unicode="&#xb8;" horiz-adv-x="480" 
d="M247 -242q-52 0 -93 25l8 12q32 -16 65 -16q35 0 54 19t19 55q0 59 -52 59q-18 0 -38 -8l-10 7l27 84h15l-15 -74q21 8 47 8q36 0 62 -20.5t26 -58.5q0 -45 -34 -68.5t-81 -23.5z" />
    <glyph glyph-name="one.sups" unicode="&#xb9;" horiz-adv-x="307" 
d="M55 500v14l67 9q9 1 9 10v262q0 13 -6 18t-25 7l-46 5v11l55 5q52 6 65 19h20q-3 -42 -3 -63v-264q0 -9 10 -10l64 -9v-14h-210z" />
    <glyph glyph-name="ordmasculine" unicode="&#xba;" horiz-adv-x="385" 
d="M357 515q0 -82 -44 -131.5t-116 -49.5q-71 0 -115.5 49.5t-44.5 131.5t44 131t116 49t116 -49t44 -131zM104 515q0 -165 93 -165t93 165q0 164 -93 164t-93 -164zM57 228v25h282v-25h-282z" />
    <glyph glyph-name="guillemotright" unicode="&#xbb;" horiz-adv-x="474" 
d="M421 231l-180 -182h-16l120 191l-120 192h16l180 -183v-18zM263 231l-180 -182h-16l120 191l-120 192h16l180 -183v-18z" />
    <glyph glyph-name="onequarter" unicode="&#xbc;" horiz-adv-x="847" 
d="M192 -15l-29 19l250 341l234 349l30 -19l-251 -340zM83 323v14l67 9q9 1 9 10v262q0 13 -6 18t-25 7l-46 5v11l55 5q52 6 65 19h20q-3 -42 -3 -63v-264q0 -9 10 -10l64 -9v-14h-210zM754 0h-243l-2 26q94 79 128 120q59 70 59 129q0 76 -70 76q-30 0 -53.5 -15.5
t-31.5 -38.5l13 4q14 0 22.5 -8t8.5 -21q0 -15 -10 -24t-25 -9q-16 0 -26 10.5t-10 28.5q0 36 33.5 62t87.5 26t90 -24t36 -71q0 -37 -26 -70t-75 -70q-85 -64 -106 -81h151q16 0 23 4t11 17l12 34h13z" />
    <glyph glyph-name="onehalf" unicode="&#xbd;" horiz-adv-x="853" 
d="M195 -15l-29 19l250 341l234 349l30 -19l-251 -340zM83 323v14l67 9q9 1 9 10v262q0 13 -6 18t-25 7l-46 5v11l55 5q52 6 65 19h20q-3 -42 -3 -63v-264q0 -9 10 -10l64 -9v-14h-210zM630 127v126l2 61l-136 -186zM749 14v-14h-181v13l52 10q10 1 10 10v76h-152l-5 17
l168 230h49v-230h25q20 0 30 23l12 37h13l-10 -77h-70v-76q0 -9 10 -10z" />
    <glyph glyph-name="threequarters" unicode="&#xbe;" horiz-adv-x="895" 
d="M231 -15l-29 19l250 341l234 349l30 -19l-251 -340zM186 314q-49 0 -77.5 18.5t-28.5 46.5q0 16 10.5 27t26.5 11t25.5 -9.5t9.5 -23.5t-9 -22.5t-21 -8.5q20 -24 61 -24q46 0 76 28t30 76q0 79 -62 79q-21 0 -43 -13t-32 -13q-19 0 -21 23q29 12 78 16q64 30 64 89
q0 60 -64 60q-55 0 -74 -38l5 2q13 0 22 -8.5t9 -21.5q0 -14 -10 -23.5t-24 -9.5q-17 0 -27.5 10.5t-10.5 28.5q0 31 33 53t83 22q53 0 86.5 -20t33.5 -55t-29.5 -54.5t-86.5 -37.5h6l24 1q45 0 75 -22.5t30 -66.5q0 -55 -52.5 -87.5t-115.5 -32.5zM539 128l134 -1v126l2 61
zM792 14v-14h-181v13l52 10q10 1 10 10v76h-152l-5 17l168 230h49v-230h25q20 0 30 23l12 37h13l-10 -77h-70v-76q0 -9 10 -10z" />
    <glyph glyph-name="questiondown" unicode="&#xbf;" horiz-adv-x="527" 
d="M260 433q0 26 17 42t41 16t41 -16t17 -42t-17 -42t-41 -16q-25 0 -41.5 16t-16.5 42zM482 -44q0 -70 -61.5 -118t-157.5 -48q-89 0 -156 48.5t-67 138.5q0 63 37 108t84.5 63t95.5 18q21 0 42 -3l16 131h11l15 -152l-15 -6q-28 14 -66 14q-57 0 -96.5 -43.5t-39.5 -130.5
q0 -82 38.5 -126.5t100.5 -44.5q74 0 112.5 42t38.5 98q0 37 -15 57.5t-40 20.5q-50 0 -67 -87l-13 2q19 119 106 119q42 0 69.5 -27.5t27.5 -73.5z" />
    <glyph glyph-name="Agrave" unicode="&#xc0;" horiz-adv-x="707" 
d="M416 747h-7q-123 61 -180 123v2h88q39 -61 99 -125zM715 14v-14q-26 0 -74.5 0.5t-74.5 0.5t-75 -0.5t-74 -0.5v14l54 7q39 4 48.5 23t-5.5 54l-47 125h-284l-24 -64q-29 -76 -22 -103.5t59 -34.5l44 -7v-14q-21 0 -61 0.5t-61 0.5t-63 -0.5t-63 -0.5v14l26 6
q45 9 66.5 35t53.5 111l163 426l32 91h41l220 -570q20 -52 35 -69.5t48 -23.5zM325 601l-134 -357h268z" />
    <glyph glyph-name="Aacute" unicode="&#xc1;" horiz-adv-x="707" 
d="M298 747h-7q62 64 99 125h88v-2q-59 -64 -180 -123zM715 14v-14q-26 0 -74.5 0.5t-74.5 0.5t-75 -0.5t-74 -0.5v14l54 7q39 4 48.5 23t-5.5 54l-47 125h-284l-24 -64q-29 -76 -22 -103.5t59 -34.5l44 -7v-14q-21 0 -61 0.5t-61 0.5t-63 -0.5t-63 -0.5v14l26 6
q45 9 66.5 35t53.5 111l163 426l32 91h41l220 -570q20 -52 35 -69.5t48 -23.5zM325 601l-134 -357h268z" />
    <glyph glyph-name="Acircumflex" unicode="&#xc2;" horiz-adv-x="707" 
d="M343 830l-129 -83h-6l118 125h63l111 -125h-9zM715 14v-14q-26 0 -74.5 0.5t-74.5 0.5t-75 -0.5t-74 -0.5v14l54 7q39 4 48.5 23t-5.5 54l-47 125h-284l-24 -64q-29 -76 -22 -103.5t59 -34.5l44 -7v-14q-21 0 -61 0.5t-61 0.5t-63 -0.5t-63 -0.5v14l26 6q45 9 66.5 35
t53.5 111l163 426l32 91h41l220 -570q20 -52 35 -69.5t48 -23.5zM325 601l-134 -357h268z" />
    <glyph glyph-name="Atilde" unicode="&#xc3;" horiz-adv-x="707" 
d="M249 749l-4 -1q-16 30 -16 55q0 26 16.5 43.5t45.5 17.5t79.5 -31t67.5 -31q20 0 30.5 11t14.5 40h4q0 -102 -68 -102q-29 0 -77.5 30.5t-66.5 30.5q-31 0 -31 -33q0 -12 5 -30zM715 14v-14q-26 0 -74.5 0.5t-74.5 0.5t-75 -0.5t-74 -0.5v14l54 7q39 4 48.5 23t-5.5 54
l-47 125h-284l-24 -64q-29 -76 -22 -103.5t59 -34.5l44 -7v-14q-21 0 -61 0.5t-61 0.5t-63 -0.5t-63 -0.5v14l26 6q45 9 66.5 35t53.5 111l163 426l32 91h41l220 -570q20 -52 35 -69.5t48 -23.5zM325 601l-134 -357h268z" />
    <glyph glyph-name="Adieresis" unicode="&#xc4;" horiz-adv-x="707" 
d="M501 798q0 -22 -14.5 -36.5t-36.5 -14.5q-21 0 -35.5 14.5t-14.5 36.5q0 21 14.5 35.5t35.5 14.5q22 0 36.5 -14.5t14.5 -35.5zM308 798q0 -22 -14.5 -36.5t-36.5 -14.5q-21 0 -35.5 14.5t-14.5 36.5q0 21 14.5 35.5t35.5 14.5q22 0 36.5 -14.5t14.5 -35.5zM715 14v-14
q-26 0 -74.5 0.5t-74.5 0.5t-75 -0.5t-74 -0.5v14l54 7q39 4 48.5 23t-5.5 54l-47 125h-284l-24 -64q-29 -76 -22 -103.5t59 -34.5l44 -7v-14q-21 0 -61 0.5t-61 0.5t-63 -0.5t-63 -0.5v14l26 6q45 9 66.5 35t53.5 111l163 426l32 91h41l220 -570q20 -52 35 -69.5t48 -23.5z
M325 601l-134 -357h268z" />
    <glyph glyph-name="Aring" unicode="&#xc5;" horiz-adv-x="707" 
d="M452 822q0 -40 -27.5 -67t-71.5 -28q-43 0 -71 27.5t-28 67.5t28 67t71 27q44 0 71.5 -27t27.5 -67zM283 822q0 -34 18.5 -57.5t51.5 -23.5q34 0 52 23.5t18 57.5q0 33 -18 56.5t-52 23.5q-33 0 -51.5 -23.5t-18.5 -56.5zM715 14v-14q-26 0 -74.5 0.5t-74.5 0.5t-75 -0.5
t-74 -0.5v14l54 7q39 4 48.5 23t-5.5 54l-47 125h-284l-24 -64q-29 -76 -22 -103.5t59 -34.5l44 -7v-14q-21 0 -61 0.5t-61 0.5t-63 -0.5t-63 -0.5v14l26 6q45 9 66.5 35t53.5 111l163 426l32 91h41l220 -570q20 -52 35 -69.5t48 -23.5zM325 601l-134 -357h268z" />
    <glyph glyph-name="AE" unicode="&#xc6;" horiz-adv-x="943" 
d="M455 279v380l-210 -380h210zM532 359h94q49 0 68.5 29.5t38.5 119.5h16q-1 -52 -1 -158q0 -105 1 -158h-16q-19 90 -38.5 119.5t-68.5 29.5h-94v-258q0 -34 15.5 -49.5t51.5 -15.5h106q85 0 115.5 37.5t67.5 181.5h17l-13 -237h-561v14l63 8q36 5 48.5 19t12.5 43v174
h-222l-72 -131q-33 -59 -27 -80.5t57 -27.5l42 -5v-14q-21 0 -64 0.5t-65 0.5t-64.5 -0.5t-64.5 -0.5v14l26 4q45 7 75 30.5t65 86.5l225 403q31 56 31 82q0 17 -11 25t-39 12l-64 8v14h578l13 -217h-18q-34 131 -62 165t-105 34h-157v-302z" />
    <glyph glyph-name="Ccedilla" unicode="&#xc7;" horiz-adv-x="694" 
d="M327 -242q-52 0 -93 25l8 12q32 -16 65 -16q35 0 54 19t19 55q0 59 -52 59q-18 0 -38 -8l-10 7l26 79q-115 22 -189.5 115.5t-74.5 233.5q0 159 94 257t230 98q133 0 206 -89l34 84h10v-277h-19q-37 149 -94 208t-136 59q-109 0 -171.5 -90.5t-62.5 -248.5
q0 -156 62 -248t171 -92q84 0 139 60.5t92 193.5h19v-264h-10l-34 85q-74 -90 -207 -90q-23 0 -44 3l-14 -67q21 8 47 8q36 0 62 -20.5t26 -58.5q0 -45 -34 -68.5t-81 -23.5z" />
    <glyph glyph-name="Egrave" unicode="&#xc8;" horiz-adv-x="630" 
d="M379 747h-7q-123 61 -180 123v2h88q39 -61 99 -125zM593 237l-14 -237h-556v14l57 7q39 5 51 19t12 45v509q0 31 -12 45t-51 19l-57 7v14h525l13 -217h-18q-34 131 -61.5 165t-104.5 34h-157v-302h93q49 0 69 29.5t39 119.5h15q-1 -52 -1 -158q0 -105 1 -158h-15
q-20 91 -39.5 120t-68.5 29h-93v-258q0 -34 15.5 -49.5t51.5 -15.5h106q84 0 114.5 37.5t67.5 181.5h18z" />
    <glyph glyph-name="Eacute" unicode="&#xc9;" horiz-adv-x="630" 
d="M307 747h-7q62 64 99 125h88v-2q-59 -64 -180 -123zM220 359h93q49 0 69 29.5t39 119.5h15q-1 -52 -1 -158q0 -105 1 -158h-15q-20 91 -39.5 120t-68.5 29h-93v-258q0 -34 15.5 -49.5t51.5 -15.5h106q84 0 114.5 37.5t67.5 181.5h18l-14 -237h-556v14l57 7q39 5 51 19
t12 45v509q0 31 -12 45t-51 19l-57 7v14h525l13 -217h-18q-34 131 -61.5 165t-104.5 34h-157v-302z" />
    <glyph glyph-name="Ecircumflex" unicode="&#xca;" horiz-adv-x="630" 
d="M309 830l-129 -83h-6l118 125h63l111 -125h-9zM593 237l-14 -237h-556v14l57 7q39 5 51 19t12 45v509q0 31 -12 45t-51 19l-57 7v14h525l13 -217h-18q-34 131 -61.5 165t-104.5 34h-157v-302h93q49 0 69 29.5t39 119.5h15q-1 -52 -1 -158q0 -105 1 -158h-15
q-20 91 -39.5 120t-68.5 29h-93v-258q0 -34 15.5 -49.5t51.5 -15.5h106q84 0 114.5 37.5t67.5 181.5h18z" />
    <glyph glyph-name="Edieresis" unicode="&#xcb;" horiz-adv-x="630" 
d="M290 798q0 -22 -14.5 -36.5t-36.5 -14.5q-21 0 -35.5 14.5t-14.5 36.5q0 21 14.5 35.5t35.5 14.5q22 0 36.5 -14.5t14.5 -35.5zM483 798q0 -22 -14.5 -36.5t-36.5 -14.5q-21 0 -35.5 14.5t-14.5 36.5q0 21 14.5 35.5t35.5 14.5q22 0 36.5 -14.5t14.5 -35.5zM220 359h93
q49 0 69 29.5t39 119.5h15q-1 -52 -1 -158q0 -105 1 -158h-15q-20 91 -39.5 120t-68.5 29h-93v-258q0 -34 15.5 -49.5t51.5 -15.5h106q84 0 114.5 37.5t67.5 181.5h18l-14 -237h-556v14l57 7q39 5 51 19t12 45v509q0 31 -12 45t-51 19l-57 7v14h525l13 -217h-18
q-34 131 -61.5 165t-104.5 34h-157v-302z" />
    <glyph glyph-name="Igrave" unicode="&#xcc;" horiz-adv-x="362" 
d="M250 747h-7q-123 61 -180 123v2h88q39 -61 99 -125zM23 0v14l57 7q39 5 51 19t12 45v509q0 31 -12 45t-51 19l-57 7v14q54 -1 159 -1q104 0 158 1v-14l-58 -7q-38 -5 -50 -19t-12 -45v-509q0 -31 12 -45t50 -19l58 -7v-14q-27 0 -79 0.5t-79 0.5q-28 0 -80 -0.5t-79 -0.5
z" />
    <glyph glyph-name="Iacute" unicode="&#xcd;" horiz-adv-x="362" 
d="M121 747h-7q62 64 99 125h88v-2q-59 -64 -180 -123zM23 0v14l57 7q39 5 51 19t12 45v509q0 31 -12 45t-51 19l-57 7v14q54 -1 159 -1q104 0 158 1v-14l-58 -7q-38 -5 -50 -19t-12 -45v-509q0 -31 12 -45t50 -19l58 -7v-14q-27 0 -79 0.5t-79 0.5q-28 0 -80 -0.5t-79 -0.5
z" />
    <glyph glyph-name="Icircumflex" unicode="&#xce;" horiz-adv-x="362" 
d="M170 830l-129 -83h-6l118 125h63l111 -125h-9zM23 0v14l57 7q39 5 51 19t12 45v509q0 31 -12 45t-51 19l-57 7v14q54 -1 159 -1q104 0 158 1v-14l-58 -7q-38 -5 -50 -19t-12 -45v-509q0 -31 12 -45t50 -19l58 -7v-14q-27 0 -79 0.5t-79 0.5q-28 0 -80 -0.5t-79 -0.5z" />
    <glyph glyph-name="Idieresis" unicode="&#xcf;" horiz-adv-x="362" 
d="M330 798q0 -22 -14.5 -36.5t-36.5 -14.5q-21 0 -35.5 14.5t-14.5 36.5q0 21 14.5 35.5t35.5 14.5q22 0 36.5 -14.5t14.5 -35.5zM137 798q0 -22 -14.5 -36.5t-36.5 -14.5q-21 0 -35.5 14.5t-14.5 36.5q0 21 14.5 35.5t35.5 14.5q22 0 36.5 -14.5t14.5 -35.5zM23 0v14l57 7
q39 5 51 19t12 45v509q0 31 -12 45t-51 19l-57 7v14q54 -1 159 -1q104 0 158 1v-14l-58 -7q-38 -5 -50 -19t-12 -45v-509q0 -31 12 -45t50 -19l58 -7v-14q-27 0 -79 0.5t-79 0.5q-28 0 -80 -0.5t-79 -0.5z" />
    <glyph glyph-name="Eth" unicode="&#xd0;" horiz-adv-x="715" 
d="M143 351v243q0 31 -12 45t-51 19l-57 7v14h299q156 0 255 -89t99 -250q0 -163 -98.5 -251.5t-255.5 -88.5h-299v14l57 7q39 5 51 19t12 45v245h-108v21h108zM287 18h34q264 0 264 322q0 157 -66.5 239t-196.5 82h-102v-310h171v-21h-171v-247q0 -34 15.5 -49.5
t51.5 -15.5z" />
    <glyph glyph-name="Ntilde" unicode="&#xd1;" horiz-adv-x="768" 
d="M300 749l-4 -1q-16 30 -16 55q0 26 16.5 43.5t45.5 17.5q30 0 80 -31t67 -31q20 0 30.5 11t14.5 40h4q0 -102 -68 -102q-29 0 -77.5 30.5t-66.5 30.5q-31 0 -31 -33q0 -12 5 -30zM635 -3h-48l-420 619v-474q0 -68 15 -90.5t63 -30.5l41 -7v-14q-22 0 -65 0.5t-66 0.5
t-66.5 -0.5t-65.5 -0.5v14l40 7q49 8 64.5 31t15.5 90v452q0 31 -12 45t-51 19l-57 7v14h195l393 -578v436q0 67 -15.5 90t-63.5 31l-41 7v14q45 -1 132 -1q86 0 131 1v-14l-40 -7q-48 -8 -63.5 -30.5t-15.5 -90.5v-540z" />
    <glyph glyph-name="Ograve" unicode="&#xd2;" horiz-adv-x="744" 
d="M445 747h-7q-123 61 -180 123v2h88q39 -61 99 -125zM372 -15q-142 0 -236 98.5t-94 256.5t94 256t236 98t236 -98.5t94 -255.5q0 -158 -94 -256.5t-236 -98.5zM372 0q115 0 177.5 94.5t62.5 245.5q0 150 -62.5 244.5t-177.5 94.5q-116 0 -178 -94.5t-62 -244.5
q0 -151 62 -245.5t178 -94.5z" />
    <glyph glyph-name="Oacute" unicode="&#xd3;" horiz-adv-x="744" 
d="M311 747h-7q62 64 99 125h88v-2q-59 -64 -180 -123zM372 -15q-142 0 -236 98.5t-94 256.5t94 256t236 98t236 -98.5t94 -255.5q0 -158 -94 -256.5t-236 -98.5zM372 0q115 0 177.5 94.5t62.5 245.5q0 150 -62.5 244.5t-177.5 94.5q-116 0 -178 -94.5t-62 -244.5
q0 -151 62 -245.5t178 -94.5z" />
    <glyph glyph-name="Ocircumflex" unicode="&#xd4;" horiz-adv-x="744" 
d="M363 830l-129 -83h-6l118 125h63l111 -125h-9zM372 -15q-142 0 -236 98.5t-94 256.5t94 256t236 98t236 -98.5t94 -255.5q0 -158 -94 -256.5t-236 -98.5zM372 0q115 0 177.5 94.5t62.5 245.5q0 150 -62.5 244.5t-177.5 94.5q-116 0 -178 -94.5t-62 -244.5
q0 -151 62 -245.5t178 -94.5z" />
    <glyph glyph-name="Otilde" unicode="&#xd5;" horiz-adv-x="744" 
d="M271 749l-4 -1q-16 30 -16 55q0 26 16.5 43.5t45.5 17.5t79 -31t68 -31q20 0 30.5 11t14.5 40h4q0 -102 -68 -102q-29 0 -77.5 30.5t-66.5 30.5q-31 0 -31 -33q0 -12 5 -30zM702 340q0 -158 -94 -256.5t-236 -98.5t-236 98.5t-94 256.5t94 256t236 98t236 -98.5
t94 -255.5zM132 340q0 -151 62 -245.5t178 -94.5q115 0 177.5 94.5t62.5 245.5q0 150 -62.5 244.5t-177.5 94.5q-116 0 -178 -94.5t-62 -244.5z" />
    <glyph glyph-name="Odieresis" unicode="&#xd6;" horiz-adv-x="744" 
d="M520 798q0 -22 -14.5 -36.5t-36.5 -14.5q-21 0 -35.5 14.5t-14.5 36.5q0 21 14.5 35.5t35.5 14.5q22 0 36.5 -14.5t14.5 -35.5zM327 798q0 -22 -14.5 -36.5t-36.5 -14.5q-21 0 -35.5 14.5t-14.5 36.5q0 21 14.5 35.5t35.5 14.5q22 0 36.5 -14.5t14.5 -35.5zM702 340
q0 -158 -94 -256.5t-236 -98.5t-236 98.5t-94 256.5t94 256t236 98t236 -98.5t94 -255.5zM132 340q0 -151 62 -245.5t178 -94.5q115 0 177.5 94.5t62.5 245.5q0 150 -62.5 244.5t-177.5 94.5q-116 0 -178 -94.5t-62 -244.5z" />
    <glyph glyph-name="multiply" unicode="&#xd7;" horiz-adv-x="550" 
d="M419 75l-144 144l-144 -144l-20 21l144 144l-144 143l20 21l144 -144l144 144l20 -21l-143 -143l143 -144z" />
    <glyph glyph-name="Oslash" unicode="&#xd8;" horiz-adv-x="744" 
d="M702 340q0 -158 -94 -256.5t-236 -98.5q-128 0 -217 80l-63 -75l-18 14l64 77q-96 99 -96 259q0 158 94 256t236 98q125 0 214 -78l61 73l17 -14l-61 -74q99 -101 99 -261zM372 679q-116 0 -178 -94.5t-62 -244.5q0 -128 44 -214l378 452q-64 101 -182 101zM372 0
q115 0 177.5 94.5t62.5 245.5q0 129 -47 218l-378 -452q64 -106 185 -106z" />
    <glyph glyph-name="Ugrave" unicode="&#xd9;" horiz-adv-x="772" 
d="M448 747h-7q-123 61 -180 123v2h88q39 -61 99 -125zM386 -14q-55 0 -97.5 11.5t-78.5 38.5t-55.5 77.5t-19.5 123.5v357q0 31 -12 45t-51 19l-57 7v14q55 -1 159 -1t158 1v-14l-57 -7q-39 -5 -51 -19t-12 -45v-357q0 -122 52.5 -170.5t147.5 -48.5q102 0 154 57t52 161
v301q0 68 -15.5 90.5t-63.5 30.5l-41 7v14q46 -1 132 -1q87 0 132 1v-14l-40 -7q-49 -8 -64.5 -31t-15.5 -90v-301q0 -119 -64 -184.5t-192 -65.5z" />
    <glyph glyph-name="Uacute" unicode="&#xda;" horiz-adv-x="772" 
d="M381 747h-7q62 64 99 125h88v-2q-59 -64 -180 -123zM642 236q0 -119 -64 -184.5t-192 -65.5q-55 0 -97.5 11.5t-78.5 38.5t-55.5 77.5t-19.5 123.5v357q0 31 -12 45t-51 19l-57 7v14q55 -1 159 -1t158 1v-14l-57 -7q-39 -5 -51 -19t-12 -45v-357q0 -122 52.5 -170.5
t147.5 -48.5q102 0 154 57t52 161v301q0 68 -15.5 90.5t-63.5 30.5l-41 7v14q46 -1 132 -1q87 0 132 1v-14l-40 -7q-49 -8 -64.5 -31t-15.5 -90v-301z" />
    <glyph glyph-name="Ucircumflex" unicode="&#xdb;" horiz-adv-x="772" 
d="M387 830l-129 -83h-6l118 125h63l111 -125h-9zM386 -14q-55 0 -97.5 11.5t-78.5 38.5t-55.5 77.5t-19.5 123.5v357q0 31 -12 45t-51 19l-57 7v14q55 -1 159 -1t158 1v-14l-57 -7q-39 -5 -51 -19t-12 -45v-357q0 -122 52.5 -170.5t147.5 -48.5q102 0 154 57t52 161v301
q0 68 -15.5 90.5t-63.5 30.5l-41 7v14q46 -1 132 -1q87 0 132 1v-14l-40 -7q-49 -8 -64.5 -31t-15.5 -90v-301q0 -119 -64 -184.5t-192 -65.5z" />
    <glyph glyph-name="Udieresis" unicode="&#xdc;" horiz-adv-x="772" 
d="M362 798q0 -22 -14.5 -36.5t-36.5 -14.5q-21 0 -35.5 14.5t-14.5 36.5q0 21 14.5 35.5t35.5 14.5q22 0 36.5 -14.5t14.5 -35.5zM555 798q0 -22 -14.5 -36.5t-36.5 -14.5q-21 0 -35.5 14.5t-14.5 36.5q0 21 14.5 35.5t35.5 14.5q22 0 36.5 -14.5t14.5 -35.5zM642 236
q0 -119 -64 -184.5t-192 -65.5q-55 0 -97.5 11.5t-78.5 38.5t-55.5 77.5t-19.5 123.5v357q0 31 -12 45t-51 19l-57 7v14q55 -1 159 -1t158 1v-14l-57 -7q-39 -5 -51 -19t-12 -45v-357q0 -122 52.5 -170.5t147.5 -48.5q102 0 154 57t52 161v301q0 68 -15.5 90.5t-63.5 30.5
l-41 7v14q46 -1 132 -1q87 0 132 1v-14l-40 -7q-49 -8 -64.5 -31t-15.5 -90v-301z" />
    <glyph glyph-name="Yacute" unicode="&#xdd;" horiz-adv-x="679" 
d="M325 747h-7q62 64 99 125h88v-2q-59 -64 -180 -123zM501 0q-28 0 -82.5 0.5t-81.5 0.5q-29 0 -83 -0.5t-82 -0.5v14l60 7q41 5 53.5 19.5t12.5 47.5v177l-179 315q-25 44 -44 59.5t-53 20.5l-32 5v14q51 -1 154 -1t154 1v-14l-57 -7q-71 -9 -37 -71l162 -292l126 221
q41 72 41 100q0 19 -14.5 28.5t-50.5 14.5l-35 6v14q43 -1 128 -1t128 1v-14l-27 -5q-43 -8 -72 -37.5t-79 -114.5l-136 -234v-186q0 -33 12.5 -47.5t53.5 -19.5l60 -7v-14z" />
    <glyph glyph-name="Thorn" unicode="&#xde;" horiz-adv-x="612" 
d="M220 511v-331q54 -4 88 -4q89 0 139 42t50 125q0 89 -48 128.5t-151 39.5h-78zM340 14v-14q-27 0 -79 0.5t-79 0.5q-28 0 -80 -0.5t-79 -0.5v14l57 7q39 5 51 19t12 45v509q0 31 -12 45t-51 19l-57 7v14q54 -1 159 -1q104 0 158 1v-14l-58 -7q-38 -5 -50 -19t-12 -45v-65
h77q286 0 286 -186q0 -91 -75.5 -138t-195.5 -47q-45 0 -92 5v-78q0 -31 12 -45t50 -19z" />
    <glyph glyph-name="germandbls" unicode="&#xdf;" horiz-adv-x="571" 
d="M376 -15q-61 0 -97 27.5t-36 67.5q0 27 14.5 43.5t38.5 16.5q22 0 35 -12.5t13 -32.5q0 -23 -19 -37.5t-19 -22.5q0 -12 17 -23.5t51 -11.5q48 0 80 27.5t32 79.5q0 32 -16 59.5t-33.5 43.5t-56.5 46q-51 40 -75 69.5t-24 66.5q0 33 16 56.5t59 64.5q36 34 49.5 63.5
t13.5 73.5q0 49 -29 80.5t-82 31.5q-128 0 -128 -195v-567h-165v14l39 5q34 5 44.5 17t10.5 45v365l-95 11v16l95 11v57q0 63 18 111t48 74t63.5 38.5t69.5 12.5q72 0 117 -36.5t45 -94.5q0 -35 -17.5 -61.5t-57.5 -62.5q-27 -25 -36.5 -35t-19 -26t-9.5 -32
q0 -25 19.5 -47.5t76.5 -67.5q58 -47 86 -85.5t28 -91.5q0 -73 -50 -112.5t-114 -39.5z" />
    <glyph glyph-name="agrave" unicode="&#xe0;" horiz-adv-x="495" 
d="M282 578h-6q-105 75 -165 169v3h80q29 -77 91 -172zM197 14q53 0 88.5 31.5t35.5 101.5v97q-107 -13 -159.5 -43.5t-52.5 -98.5q0 -40 24 -64t64 -24zM330 86q-18 -46 -60 -73t-99 -27q-63 0 -100 28t-37 80q0 136 288 165v89q1 69 -23.5 100t-80.5 31q-42 0 -70 -17.5
t-28 -36.5q0 -11 10.5 -18t21 -17.5t10.5 -29.5q0 -20 -14 -33t-36 -13q-26 0 -40 17t-14 45q0 49 48 83.5t113 34.5q171 0 171 -162l-1 -254q0 -64 39 -64q43 0 49 94h14q-2 -64 -21 -91.5t-60 -27.5q-38 0 -57 21.5t-23 75.5z" />
    <glyph glyph-name="aacute" unicode="&#xe1;" horiz-adv-x="495" 
d="M190 578h-6q64 99 92 172h79v-3q-59 -94 -165 -169zM197 14q53 0 88.5 31.5t35.5 101.5v97q-107 -13 -159.5 -43.5t-52.5 -98.5q0 -40 24 -64t64 -24zM330 86q-18 -46 -60 -73t-99 -27q-63 0 -100 28t-37 80q0 136 288 165v89q1 69 -23.5 100t-80.5 31q-42 0 -70 -17.5
t-28 -36.5q0 -11 10.5 -18t21 -17.5t10.5 -29.5q0 -20 -14 -33t-36 -13q-26 0 -40 17t-14 45q0 49 48 83.5t113 34.5q171 0 171 -162l-1 -254q0 -64 39 -64q43 0 49 94h14q-2 -64 -21 -91.5t-60 -27.5q-38 0 -57 21.5t-23 75.5z" />
    <glyph glyph-name="acircumflex" unicode="&#xe2;" horiz-adv-x="495" 
d="M365 578l-139 121l-129 -121h-7l120 172h52l112 -172h-9zM197 14q53 0 88.5 31.5t35.5 101.5v97q-107 -13 -159.5 -43.5t-52.5 -98.5q0 -40 24 -64t64 -24zM491 108q-2 -64 -21 -91.5t-60 -27.5q-38 0 -57 21.5t-23 75.5q-18 -46 -60 -73t-99 -27q-63 0 -100 28t-37 80
q0 136 288 165v89q1 69 -23.5 100t-80.5 31q-42 0 -70 -17.5t-28 -36.5q0 -11 10.5 -18t21 -17.5t10.5 -29.5q0 -20 -14 -33t-36 -13q-26 0 -40 17t-14 45q0 49 48 83.5t113 34.5q171 0 171 -162l-1 -254q0 -64 39 -64q43 0 49 94h14z" />
    <glyph glyph-name="atilde" unicode="&#xe3;" horiz-adv-x="495" 
d="M117 609l-4 -2q-15 28 -15 55q0 26 16 43.5t45 17.5q30 0 80 -31t67 -31q20 0 30.5 11t14.5 40h4q0 -102 -68 -102q-29 0 -77 31t-66 31q-32 0 -32 -33q0 -13 5 -30zM197 14q53 0 88.5 31.5t35.5 101.5v97q-107 -13 -159.5 -43.5t-52.5 -98.5q0 -40 24 -64t64 -24z
M330 86q-18 -46 -60 -73t-99 -27q-63 0 -100 28t-37 80q0 136 288 165v89q1 69 -23.5 100t-80.5 31q-42 0 -70 -17.5t-28 -36.5q0 -11 10.5 -18t21 -17.5t10.5 -29.5q0 -20 -14 -33t-36 -13q-26 0 -40 17t-14 45q0 49 48 83.5t113 34.5q171 0 171 -162l-1 -254q0 -64 39 -64
q43 0 49 94h14q-2 -64 -21 -91.5t-60 -27.5q-38 0 -57 21.5t-23 75.5z" />
    <glyph glyph-name="adieresis" unicode="&#xe4;" horiz-adv-x="495" 
d="M382 667q0 -22 -14.5 -36.5t-35.5 -14.5t-36 14.5t-15 36.5q0 21 15 35.5t36 14.5t35.5 -14t14.5 -36zM189 667q0 -22 -14.5 -36.5t-35.5 -14.5t-36 14.5t-15 36.5q0 21 15 35.5t36 14.5t35.5 -14t14.5 -36zM197 14q53 0 88.5 31.5t35.5 101.5v97q-107 -13 -159.5 -43.5
t-52.5 -98.5q0 -40 24 -64t64 -24zM330 86q-18 -46 -60 -73t-99 -27q-63 0 -100 28t-37 80q0 136 288 165v89q1 69 -23.5 100t-80.5 31q-42 0 -70 -17.5t-28 -36.5q0 -11 10.5 -18t21 -17.5t10.5 -29.5q0 -20 -14 -33t-36 -13q-26 0 -40 17t-14 45q0 49 48 83.5t113 34.5
q171 0 171 -162l-1 -254q0 -64 39 -64q43 0 49 94h14q-2 -64 -21 -91.5t-60 -27.5q-38 0 -57 21.5t-23 75.5z" />
    <glyph glyph-name="aring" unicode="&#xe5;" horiz-adv-x="495" 
d="M322 653q0 -40 -28 -67t-72 -28q-43 0 -70.5 27.5t-27.5 67.5t27.5 67t70.5 27q44 0 72 -27t28 -67zM153 653q0 -34 18 -57.5t51 -23.5q34 0 52.5 23.5t18.5 57.5q0 33 -18.5 56.5t-52.5 23.5q-33 0 -51 -23.5t-18 -56.5zM197 14q53 0 88.5 31.5t35.5 101.5v97
q-107 -13 -159.5 -43.5t-52.5 -98.5q0 -40 24 -64t64 -24zM491 108q-2 -64 -21 -91.5t-60 -27.5q-38 0 -57 21.5t-23 75.5q-18 -46 -60 -73t-99 -27q-63 0 -100 28t-37 80q0 136 288 165v89q1 69 -23.5 100t-80.5 31q-42 0 -70 -17.5t-28 -36.5q0 -11 10.5 -18t21 -17.5
t10.5 -29.5q0 -20 -14 -33t-36 -13q-26 0 -40 17t-14 45q0 49 48 83.5t113 34.5q171 0 171 -162l-1 -254q0 -64 39 -64q43 0 49 94h14z" />
    <glyph glyph-name="ae" unicode="&#xe6;" horiz-adv-x="766" 
d="M643 295l2 13v10q9 162 -100 162q-63 0 -101 -52t-46 -144zM726 109q-68 -123 -189 -123q-63 0 -113.5 32t-77.5 91q-19 -52 -65 -87.5t-110 -35.5q-63 0 -100 28t-37 80q0 136 288 165v89q0 69 -24 100t-80 31q-43 0 -71 -17.5t-28 -36.5q0 -11 10.5 -18t21.5 -17.5
t11 -29.5q0 -20 -14.5 -33t-36.5 -13q-25 0 -39.5 17t-14.5 44q0 50 48 84.5t114 34.5q122 0 155 -94q60 95 170 95q83 0 130 -47.5t47 -125.5q0 -27 -4 -54l-320 2q-1 -10 -1 -30q0 -101 40 -162.5t119 -61.5q99 0 157 100zM197 14q53 0 88.5 31.5t35.5 101.5v97
q-108 -13 -160 -43t-52 -99q0 -40 24 -64t64 -24z" />
    <glyph glyph-name="ccedilla" unicode="&#xe7;" horiz-adv-x="484" 
d="M217 -242q-52 0 -93 25l8 12q32 -16 65 -16q35 0 54 19t19 55q0 59 -52 59q-18 0 -38 -8l-10 7l26 81q-75 18 -122 83.5t-47 163.5q0 117 73 186.5t173 69.5q68 0 110.5 -31.5t42.5 -78.5q0 -28 -15.5 -45t-41.5 -17q-22 0 -36 12.5t-14 33.5q0 19 9.5 30.5t19.5 18.5
t10 15q0 18 -23.5 32.5t-61.5 14.5q-75 0 -120.5 -62t-45.5 -178q0 -102 41 -163t119 -61q96 0 153 97l13 -7q-65 -120 -185 -120q-19 0 -37 3l-14 -68q21 8 47 8q36 0 62 -20.5t26 -58.5q0 -45 -34 -68.5t-81 -23.5z" />
    <glyph glyph-name="egrave" unicode="&#xe8;" horiz-adv-x="477" 
d="M305 578h-6q-105 75 -165 169v3h80q29 -77 91 -172zM355 295l1 13v10q9 162 -100 162q-63 0 -101 -52t-46 -144zM437 109q-68 -123 -189 -123q-95 0 -158 69t-63 184q0 113 66 184.5t162 71.5q83 0 130.5 -47.5t47.5 -125.5q0 -21 -5 -54l-320 2q-1 -10 -1 -30
q0 -102 40.5 -163t119.5 -61q98 0 157 100z" />
    <glyph glyph-name="eacute" unicode="&#xe9;" horiz-adv-x="477" 
d="M204 578h-6q64 99 92 172h79v-3q-59 -94 -165 -169zM109 284l246 11l1 13v10q9 162 -100 162q-63 0 -101 -52t-46 -144zM437 109q-68 -123 -189 -123q-95 0 -158 69t-63 184q0 113 66 184.5t162 71.5q83 0 130.5 -47.5t47.5 -125.5q0 -21 -5 -54l-320 2q-1 -10 -1 -30
q0 -102 40.5 -163t119.5 -61q98 0 157 100z" />
    <glyph glyph-name="ecircumflex" unicode="&#xea;" horiz-adv-x="477" 
d="M380 578l-139 121l-129 -121h-7l120 172h52l112 -172h-9zM355 295l1 13v10q9 162 -100 162q-63 0 -101 -52t-46 -144zM437 109q-68 -123 -189 -123q-95 0 -158 69t-63 184q0 113 66 184.5t162 71.5q83 0 130.5 -47.5t47.5 -125.5q0 -21 -5 -54l-320 2q-1 -10 -1 -30
q0 -102 40.5 -163t119.5 -61q98 0 157 100z" />
    <glyph glyph-name="edieresis" unicode="&#xeb;" horiz-adv-x="477" 
d="M397 667q0 -22 -14.5 -36.5t-35.5 -14.5t-36 14.5t-15 36.5q0 21 15 35.5t36 14.5t35.5 -14t14.5 -36zM204 667q0 -22 -14.5 -36.5t-35.5 -14.5t-36 14.5t-15 36.5q0 21 15 35.5t36 14.5t35.5 -14t14.5 -36zM355 295l1 13v10q9 162 -100 162q-63 0 -101 -52t-46 -144z
M437 109q-68 -123 -189 -123q-95 0 -158 69t-63 184q0 113 66 184.5t162 71.5q83 0 130.5 -47.5t47.5 -125.5q0 -21 -5 -54l-320 2q-1 -10 -1 -30q0 -102 40.5 -163t119.5 -61q98 0 157 100z" />
    <glyph glyph-name="igrave" unicode="&#xec;" horiz-adv-x="288" 
d="M185 578h-6q-105 75 -165 169v3h80q29 -77 91 -172zM18 0v14l38 5q34 5 45 17.5t11 45.5v299q0 35 -12.5 46.5t-53.5 14.5l-39 2v12l166 37l16 -6q-7 -46 -7 -107v-299q0 -32 10.5 -44.5t44.5 -17.5l39 -5v-14q-22 0 -64.5 0.5t-65.5 0.5q-22 0 -64 -0.5t-64 -0.5z" />
    <glyph glyph-name="iacute" unicode="&#xed;" horiz-adv-x="288" 
d="M83 578h-6q64 99 92 172h79v-3q-59 -94 -165 -169zM276 0q-22 0 -64.5 0.5t-65.5 0.5q-22 0 -64 -0.5t-64 -0.5v14l38 5q34 5 45 17.5t11 45.5v299q0 35 -12.5 46.5t-53.5 14.5l-39 2v12l166 37l16 -6q-7 -46 -7 -107v-299q0 -32 10.5 -44.5t44.5 -17.5l39 -5v-14z" />
    <glyph glyph-name="icircumflex" unicode="&#xee;" horiz-adv-x="288" 
d="M126 699l-129 -121h-7l120 172h52l112 -172h-9zM276 0q-22 0 -64.5 0.5t-65.5 0.5q-22 0 -64 -0.5t-64 -0.5v14l38 5q34 5 45 17.5t11 45.5v299q0 35 -12.5 46.5t-53.5 14.5l-39 2v12l166 37l16 -6q-7 -46 -7 -107v-299q0 -32 10.5 -44.5t44.5 -17.5l39 -5v-14z" />
    <glyph glyph-name="idieresis" unicode="&#xef;" horiz-adv-x="288" 
d="M272 667q0 -22 -14.5 -36.5t-35.5 -14.5t-36 14.5t-15 36.5q0 21 15 35.5t36 14.5t35.5 -14t14.5 -36zM79 667q0 -22 -14.5 -36.5t-35.5 -14.5t-36 14.5t-15 36.5q0 21 15 35.5t36 14.5t35.5 -14t14.5 -36zM276 0q-22 0 -64.5 0.5t-65.5 0.5q-22 0 -64 -0.5t-64 -0.5v14
l38 5q34 5 45 17.5t11 45.5v299q0 35 -12.5 46.5t-53.5 14.5l-39 2v12l166 37l16 -6q-7 -46 -7 -107v-299q0 -32 10.5 -44.5t44.5 -17.5l39 -5v-14z" />
    <glyph glyph-name="eth" unicode="&#xf0;" horiz-adv-x="511" 
d="M252 -15q-100 0 -161 73t-61 190q0 109 61 179.5t151 70.5q123 0 153 -147q-30 161 -148 287l-143 -61l-10 22l135 58q-65 64 -147 111l6 10q109 -47 182 -104l131 56l10 -22l-120 -51q180 -152 180 -385q0 -136 -67 -211.5t-152 -75.5zM109 244q0 -105 36 -174.5
t107 -69.5q66 0 102 70t36 174q0 101 -35.5 168.5t-107.5 67.5q-68 0 -103 -65.5t-35 -170.5zM404 249v14v-14z" />
    <glyph glyph-name="ntilde" unicode="&#xf1;" horiz-adv-x="597" 
d="M195 609l-4 -2q-15 28 -15 55q0 26 16 43.5t45 17.5q30 0 80 -31t67 -31q20 0 30.5 11t14.5 40h4q0 -102 -68 -102q-29 0 -77 31t-66 31q-32 0 -32 -33q0 -13 5 -30zM16 0v14l38 5q34 5 45 17.5t11 45.5v299q0 34 -12.5 46t-52.5 15l-40 2v12l156 36l16 -6
q-9 -113 -9 -265q0 116 47 195t136 79q67 0 105 -38t38 -111v-264q0 -33 11.5 -45.5t45.5 -17.5l36 -5v-14q-22 0 -64 0.5t-64 0.5q-23 0 -65 -0.5t-64 -0.5v14l39 5q34 5 44.5 17.5t10.5 45.5v264q0 123 -92 123q-69 0 -110.5 -73.5t-41.5 -174.5v-140q0 -32 11.5 -44.5
t45.5 -17.5l36 -5v-14q-23 0 -65 0.5t-64 0.5t-64 -0.5t-64 -0.5z" />
    <glyph glyph-name="ograve" unicode="&#xf2;" horiz-adv-x="505" 
d="M311 578h-6q-105 75 -165 169v3h80q29 -77 91 -172zM478 240q0 -113 -63 -184t-162 -71t-162.5 71t-63.5 184t63.5 184t162.5 71t162 -70.5t63 -184.5zM253 0q74 0 109.5 66.5t35.5 173.5q0 108 -35.5 174t-109.5 66q-75 0 -110.5 -66t-35.5 -174q0 -107 35.5 -173.5
t110.5 -66.5z" />
    <glyph glyph-name="oacute" unicode="&#xf3;" horiz-adv-x="505" 
d="M195 578h-6q64 99 92 172h79v-3q-59 -94 -165 -169zM253 -15q-99 0 -162.5 71t-63.5 184t63.5 184t162.5 71t162 -70.5t63 -184.5q0 -113 -63 -184t-162 -71zM253 0q74 0 109.5 66.5t35.5 173.5q0 108 -35.5 174t-109.5 66q-75 0 -110.5 -66t-35.5 -174
q0 -107 35.5 -173.5t110.5 -66.5z" />
    <glyph glyph-name="ocircumflex" unicode="&#xf4;" horiz-adv-x="505" 
d="M249 699l-129 -121h-7l120 172h52l112 -172h-9zM478 240q0 -113 -63 -184t-162 -71t-162.5 71t-63.5 184t63.5 184t162.5 71t162 -70.5t63 -184.5zM107 240q0 -107 35.5 -173.5t110.5 -66.5q74 0 109.5 66.5t35.5 173.5q0 108 -35.5 174t-109.5 66q-75 0 -110.5 -66
t-35.5 -174z" />
    <glyph glyph-name="otilde" unicode="&#xf5;" horiz-adv-x="505" 
d="M140 609l-4 -2q-15 28 -15 55q0 26 16 43.5t45 17.5q30 0 80 -31t67 -31q20 0 30.5 11t14.5 40h4q0 -102 -68 -102q-29 0 -77 31t-66 31q-32 0 -32 -33q0 -13 5 -30zM478 240q0 -113 -63 -184t-162 -71t-162.5 71t-63.5 184t63.5 184t162.5 71t162 -70.5t63 -184.5z
M253 0q74 0 109.5 66.5t35.5 173.5q0 108 -35.5 174t-109.5 66q-75 0 -110.5 -66t-35.5 -174q0 -107 35.5 -173.5t110.5 -66.5z" />
    <glyph glyph-name="odieresis" unicode="&#xf6;" horiz-adv-x="505" 
d="M401 667q0 -22 -14.5 -36.5t-35.5 -14.5t-36 14.5t-15 36.5q0 21 15 35.5t36 14.5t35.5 -14t14.5 -36zM208 667q0 -22 -14.5 -36.5t-35.5 -14.5t-36 14.5t-15 36.5q0 21 15 35.5t36 14.5t35.5 -14t14.5 -36zM253 -15q-99 0 -162.5 71t-63.5 184t63.5 184t162.5 71
t162 -70.5t63 -184.5q0 -113 -63 -184t-162 -71zM253 0q74 0 109.5 66.5t35.5 173.5q0 108 -35.5 174t-109.5 66q-75 0 -110.5 -66t-35.5 -174q0 -107 35.5 -173.5t110.5 -66.5z" />
    <glyph glyph-name="divide" unicode="&#xf7;" horiz-adv-x="550" 
d="M309 397q0 -16 -9.5 -25.5t-24.5 -9.5t-24.5 9.5t-9.5 25.5t9.5 25t24.5 9q34 0 34 -34zM56 225v30h438v-30h-438zM309 84q0 -34 -34 -34q-15 0 -24.5 9t-9.5 25q0 17 9.5 26t24.5 9q34 0 34 -35z" />
    <glyph glyph-name="oslash" unicode="&#xf8;" horiz-adv-x="505" 
d="M478 240q0 -113 -63 -184t-162 -71q-95 0 -156 64l-51 -59l-17 13l53 63q-55 69 -55 174q0 113 63.5 184t162.5 71q87 0 148 -56l46 54l18 -13l-49 -57q62 -72 62 -183zM253 480q-75 0 -110.5 -66t-35.5 -174q0 -75 16 -127l246 288q-37 79 -116 79zM253 0
q74 0 109.5 66.5t35.5 173.5q0 83 -20 139l-247 -289q38 -90 122 -90z" />
    <glyph glyph-name="ugrave" unicode="&#xf9;" horiz-adv-x="556" 
d="M280 578h-6q-105 75 -165 169v3h80q29 -77 91 -172zM393 223q0 -107 -40.5 -172.5t-126.5 -65.5q-66 0 -104.5 40t-38.5 117v257q0 31 -10 44.5t-42 17.5l-42 5v14h168l-4 -81v-259q0 -129 93 -129q64 0 99 58t35 154v176q0 32 -9.5 45t-41.5 17l-43 5v14h168l-3 -83
v-315q0 -32 10 -45.5t42 -17.5l42 -5v-14h-145l-10 9q0 21 1.5 109t1.5 105z" />
    <glyph glyph-name="uacute" unicode="&#xfa;" horiz-adv-x="556" 
d="M220 577h-6q64 99 92 172h79v-3q-59 -94 -165 -169zM393 223q0 -107 -40.5 -172.5t-126.5 -65.5q-66 0 -104.5 40t-38.5 117v257q0 31 -10 44.5t-42 17.5l-42 5v14h168l-4 -81v-259q0 -129 93 -129q64 0 99 58t35 154v176q0 32 -9.5 45t-41.5 17l-43 5v14h168l-3 -83
v-315q0 -32 10 -45.5t42 -17.5l42 -5v-14h-145l-10 9q0 21 1.5 109t1.5 105z" />
    <glyph glyph-name="ucircumflex" unicode="&#xfb;" horiz-adv-x="556" 
d="M252 699l-129 -121h-7l120 172h52l112 -172h-9zM393 223q0 -107 -40.5 -172.5t-126.5 -65.5q-66 0 -104.5 40t-38.5 117v257q0 31 -10 44.5t-42 17.5l-42 5v14h168l-4 -81v-259q0 -129 93 -129q64 0 99 58t35 154v176q0 32 -9.5 45t-41.5 17l-43 5v14h168l-3 -83v-315
q0 -32 10 -45.5t42 -17.5l42 -5v-14h-145l-10 9q0 21 1.5 109t1.5 105z" />
    <glyph glyph-name="udieresis" unicode="&#xfc;" horiz-adv-x="556" 
d="M405 667q0 -22 -14.5 -36.5t-35.5 -14.5t-36 14.5t-15 36.5q0 21 15 35.5t36 14.5t35.5 -14t14.5 -36zM212 667q0 -22 -14.5 -36.5t-35.5 -14.5t-36 14.5t-15 36.5q0 21 15 35.5t36 14.5t35.5 -14t14.5 -36zM393 223q0 -107 -40.5 -172.5t-126.5 -65.5q-66 0 -104.5 40
t-38.5 117v257q0 31 -10 44.5t-42 17.5l-42 5v14h168l-4 -81v-259q0 -129 93 -129q64 0 99 58t35 154v176q0 32 -9.5 45t-41.5 17l-43 5v14h168l-3 -83v-315q0 -32 10 -45.5t42 -17.5l42 -5v-14h-145l-10 9q0 21 1.5 109t1.5 105z" />
    <glyph glyph-name="yacute" unicode="&#xfd;" horiz-adv-x="537" 
d="M245 578h-6q64 99 92 172h79v-3q-59 -94 -165 -169zM296 28q-33 -87 -62.5 -143t-55.5 -82t-46.5 -35t-46.5 -9q-37 0 -60.5 21t-23.5 54q0 25 15.5 42t42.5 17q22 0 35 -13t13 -32q0 -21 -14.5 -35t-14.5 -20q0 -14 21 -14q80 0 160 206l5 13l-164 385
q-18 44 -33.5 59.5t-45.5 19.5l-26 4v14q43 -1 129 -1q82 0 126 1v-14l-45 -5q-34 -4 -39.5 -23.5t10.5 -54.5l121 -305l104 276q17 45 17 67q0 18 -13 27.5t-45 13.5l-29 4v14q36 -1 106 -1q69 0 105 1v-14l-20 -3q-38 -6 -59 -30t-45 -86z" />
    <glyph glyph-name="thorn" unicode="&#xfe;" horiz-adv-x="540" 
d="M284 0q72 0 110.5 63.5t38.5 178.5q0 104 -32 167.5t-100 63.5q-67 0 -106.5 -58t-39.5 -160v-175q42 -80 129 -80zM252 -216v-14q-23 0 -67 0.5t-66 0.5t-64 -0.5t-64 -0.5v14l38 5q34 5 45 17.5t11 45.5v817q0 32 -9.5 42.5t-42.5 14.5l-53 5v10l167 32l15 -6
q-7 -43 -7 -105v-141q0 -48 -6.5 -132.5t-6.5 -133.5q0 109 43.5 174.5t126.5 65.5q89 0 145 -70t56 -183q0 -120 -68.5 -188.5t-160.5 -68.5q-74 0 -129 38v-169q0 -34 11 -47t47 -18z" />
    <glyph glyph-name="ydieresis" unicode="&#xff;" horiz-adv-x="537" 
d="M427 667q0 -22 -14.5 -36.5t-35.5 -14.5t-36 14.5t-15 36.5q0 21 15 35.5t36 14.5t35.5 -14t14.5 -36zM234 667q0 -22 -14.5 -36.5t-35.5 -14.5t-36 14.5t-15 36.5q0 21 15 35.5t36 14.5t35.5 -14t14.5 -36zM296 28q-33 -87 -62.5 -143t-55.5 -82t-46.5 -35t-46.5 -9
q-37 0 -60.5 21t-23.5 54q0 25 15.5 42t42.5 17q22 0 35 -13t13 -32q0 -21 -14.5 -35t-14.5 -20q0 -14 21 -14q80 0 160 206l5 13l-164 385q-18 44 -33.5 59.5t-45.5 19.5l-26 4v14q43 -1 129 -1q82 0 126 1v-14l-45 -5q-34 -4 -39.5 -23.5t10.5 -54.5l121 -305l104 276
q17 45 17 67q0 18 -13 27.5t-45 13.5l-29 4v14q36 -1 106 -1q69 0 105 1v-14l-20 -3q-38 -6 -59 -30t-45 -86z" />
    <glyph glyph-name="Amacron" unicode="&#x100;" horiz-adv-x="707" 
d="M215 762v32q72 -4 138 -4q69 0 139 4v-32q-70 4 -138 4q-67 0 -139 -4zM715 14v-14q-26 0 -74.5 0.5t-74.5 0.5t-75 -0.5t-74 -0.5v14l54 7q39 4 48.5 23t-5.5 54l-47 125h-284l-24 -64q-29 -76 -22 -103.5t59 -34.5l44 -7v-14q-21 0 -61 0.5t-61 0.5t-63 -0.5t-63 -0.5
v14l26 6q45 9 66.5 35t53.5 111l163 426l32 91h41l220 -570q20 -52 35 -69.5t48 -23.5zM325 601l-134 -357h268z" />
    <glyph glyph-name="amacron" unicode="&#x101;" horiz-adv-x="495" 
d="M86 650v32q72 -4 139 -4q69 0 139 4v-32q-70 4 -138 4t-140 -4zM197 14q53 0 88.5 31.5t35.5 101.5v97q-107 -13 -159.5 -43.5t-52.5 -98.5q0 -40 24 -64t64 -24zM491 108q-2 -64 -21 -91.5t-60 -27.5q-38 0 -57 21.5t-23 75.5q-18 -46 -60 -73t-99 -27q-63 0 -100 28
t-37 80q0 136 288 165v89q1 69 -23.5 100t-80.5 31q-42 0 -70 -17.5t-28 -36.5q0 -11 10.5 -18t21 -17.5t10.5 -29.5q0 -20 -14 -33t-36 -13q-26 0 -40 17t-14 45q0 49 48 83.5t113 34.5q171 0 171 -162l-1 -254q0 -64 39 -64q43 0 49 94h14z" />
    <glyph glyph-name="Abreve" unicode="&#x102;" horiz-adv-x="707" 
d="M484 873q-7 -60 -40.5 -93t-88.5 -33t-88 33t-41 93h4q11 -31 43 -51t82 -20t82 19.5t43 51.5h4zM715 14v-14q-26 0 -74.5 0.5t-74.5 0.5t-75 -0.5t-74 -0.5v14l54 7q39 4 48.5 23t-5.5 54l-47 125h-284l-24 -64q-29 -76 -22 -103.5t59 -34.5l44 -7v-14q-21 0 -61 0.5
t-61 0.5t-63 -0.5t-63 -0.5v14l26 6q45 9 66.5 35t53.5 111l163 426l32 91h41l220 -570q20 -52 35 -69.5t48 -23.5zM325 601l-134 -357h268z" />
    <glyph glyph-name="abreve" unicode="&#x103;" horiz-adv-x="495" 
d="M364 733q-7 -64 -40 -98t-89 -34t-88.5 34t-40.5 98h4q10 -34 42 -55.5t83 -21.5t83 21.5t42 55.5h4zM197 14q53 0 88.5 31.5t35.5 101.5v97q-107 -13 -159.5 -43.5t-52.5 -98.5q0 -40 24 -64t64 -24zM330 86q-18 -46 -60 -73t-99 -27q-63 0 -100 28t-37 80
q0 136 288 165v89q1 69 -23.5 100t-80.5 31q-42 0 -70 -17.5t-28 -36.5q0 -11 10.5 -18t21 -17.5t10.5 -29.5q0 -20 -14 -33t-36 -13q-26 0 -40 17t-14 45q0 49 48 83.5t113 34.5q171 0 171 -162l-1 -254q0 -64 39 -64q43 0 49 94h14q-2 -64 -21 -91.5t-60 -27.5
q-38 0 -57 21.5t-23 75.5z" />
    <glyph glyph-name="Aogonek" unicode="&#x104;" horiz-adv-x="707" 
d="M325 601l-134 -357h268zM560 -144q-27 -49 -57.5 -73.5t-75.5 -24.5q-46 0 -73.5 23t-27.5 64q0 66 87 120q18 11 44.5 25.5t37.5 21t20 17.5t9 25q0 17 -10 44l-47 125h-284l-24 -64q-29 -76 -22 -103.5t59 -34.5l44 -7v-14q-21 0 -61 0.5t-61 0.5t-63 -0.5t-63 -0.5v14
l26 6q45 9 66.5 35.5t53.5 110.5l163 426l32 91h41l220 -570q20 -52 35 -69.5t48 -23.5l38 -6v-14q-26 0 -74.5 0.5t-74.5 0.5q-74 0 -129.5 -41.5t-55.5 -105.5q0 -30 17 -49t47 -19q55 0 102 77z" />
    <glyph glyph-name="aogonek" unicode="&#x105;" horiz-adv-x="495" 
d="M360 -242q-46 0 -73 23t-27 63q0 48 46 90.5t103 61.5q-38 0 -56.5 19t-22.5 71q-18 -46 -60 -73t-99 -27q-63 0 -100 28t-37 80q0 136 288 165v89q1 69 -23.5 100t-80.5 31q-42 0 -70 -17.5t-28 -36.5q0 -11 10.5 -18t21 -17.5t10.5 -29.5q0 -20 -14 -33t-36 -13
q-26 0 -40 16.5t-14 44.5q0 50 48 84.5t113 34.5q171 0 171 -162l-1 -254q0 -64 39 -64q43 0 49 94h14q-3 -72 -29 -98q-9 -9 -45.5 -23t-63.5 -41q-39 -39 -39 -90q0 -30 17 -50t47 -20q55 0 102 77l13 -7q-52 -98 -133 -98zM197 14q53 0 88.5 31.5t35.5 101.5v97
q-107 -13 -159.5 -43.5t-52.5 -98.5q0 -40 24 -64t64 -24z" />
    <glyph glyph-name="Cacute" unicode="&#x106;" horiz-adv-x="694" 
d="M300 747h-7q62 64 99 125h88v-2q-59 -64 -180 -123zM606 -10l-34 85q-74 -90 -207 -90q-136 0 -229.5 97.5t-93.5 256.5t94 257t230 98q133 0 206 -89l34 84h10v-277h-19q-37 149 -94 208t-136 59q-109 0 -171.5 -90.5t-62.5 -248.5q0 -156 62 -248t171 -92
q84 0 139 60.5t92 193.5h19v-264h-10z" />
    <glyph glyph-name="cacute" unicode="&#x107;" horiz-adv-x="484" 
d="M204 578h-6q64 99 92 172h79v-3q-59 -94 -165 -169zM433 106q-65 -120 -185 -120q-94 0 -157.5 69t-63.5 184q0 117 73 186.5t173 69.5q68 0 110.5 -31.5t42.5 -78.5q0 -28 -15.5 -45t-41.5 -17q-22 0 -36 12.5t-14 33.5q0 19 9.5 30.5t19.5 18.5t10 15q0 18 -23.5 32.5
t-61.5 14.5q-75 0 -120.5 -62t-45.5 -178q0 -102 41 -163t119 -61q96 0 153 97z" />
    <glyph glyph-name="Ccircumflex" unicode="&#x108;" horiz-adv-x="694" 
d="M350 831l-129 -83h-6l118 125h63l111 -125h-9zM606 -10l-34 85q-74 -90 -207 -90q-136 0 -229.5 97.5t-93.5 256.5t94 257t230 98q133 0 206 -89l34 84h10v-277h-19q-37 149 -94 208t-136 59q-109 0 -171.5 -90.5t-62.5 -248.5q0 -156 62 -248t171 -92q84 0 139 60.5
t92 193.5h19v-264h-10z" />
    <glyph glyph-name="ccircumflex" unicode="&#x109;" horiz-adv-x="484" 
d="M246 699l-129 -121h-7l120 172h52l112 -172h-9zM433 106q-65 -120 -185 -120q-94 0 -157.5 69t-63.5 184q0 117 73 186.5t173 69.5q68 0 110.5 -31.5t42.5 -78.5q0 -28 -15.5 -45t-41.5 -17q-22 0 -36 12.5t-14 33.5q0 19 9.5 30.5t19.5 18.5t10 15q0 18 -23.5 32.5
t-61.5 14.5q-75 0 -120.5 -62t-45.5 -178q0 -102 41 -163t119 -61q96 0 153 97z" />
    <glyph glyph-name="Cdotaccent" unicode="&#x10a;" horiz-adv-x="694" 
d="M415 798q0 -22 -14.5 -36.5t-36.5 -14.5q-21 0 -35.5 14.5t-14.5 36.5q0 21 14.5 35.5t35.5 14.5q22 0 36.5 -14.5t14.5 -35.5zM606 -10l-34 85q-74 -90 -207 -90q-136 0 -229.5 97.5t-93.5 256.5t94 257t230 98q133 0 206 -89l34 84h10v-277h-19q-37 149 -94 208
t-136 59q-109 0 -171.5 -90.5t-62.5 -248.5q0 -156 62 -248t171 -92q84 0 139 60.5t92 193.5h19v-264h-10z" />
    <glyph glyph-name="cdotaccent" unicode="&#x10b;" horiz-adv-x="484" 
d="M314 667q0 -22 -14.5 -36.5t-35.5 -14.5q-22 0 -36.5 14.5t-14.5 36.5q0 21 14.5 35.5t36.5 14.5q21 0 35.5 -14t14.5 -36zM433 106q-65 -120 -185 -120q-94 0 -157.5 69t-63.5 184q0 117 73 186.5t173 69.5q68 0 110.5 -31.5t42.5 -78.5q0 -28 -15.5 -45t-41.5 -17
q-22 0 -36 12.5t-14 33.5q0 19 9.5 30.5t19.5 18.5t10 15q0 18 -23.5 32.5t-61.5 14.5q-75 0 -120.5 -62t-45.5 -178q0 -102 41 -163t119 -61q96 0 153 97z" />
    <glyph glyph-name="Ccaron" unicode="&#x10c;" horiz-adv-x="694" 
d="M397 747h-63l-110 125h9l147 -83l129 83h6zM606 -10l-34 85q-74 -90 -207 -90q-136 0 -229.5 97.5t-93.5 256.5t94 257t230 98q133 0 206 -89l34 84h10v-277h-19q-37 149 -94 208t-136 59q-109 0 -171.5 -90.5t-62.5 -248.5q0 -156 62 -248t171 -92q84 0 139 60.5
t92 193.5h19v-264h-10z" />
    <glyph glyph-name="ccaron" unicode="&#x10d;" horiz-adv-x="484" 
d="M284 578h-51l-111 172h9l138 -120l130 120h7zM433 106q-65 -120 -185 -120q-94 0 -157.5 69t-63.5 184q0 117 73 186.5t173 69.5q68 0 110.5 -31.5t42.5 -78.5q0 -28 -15.5 -45t-41.5 -17q-22 0 -36 12.5t-14 33.5q0 19 9.5 30.5t19.5 18.5t10 15q0 18 -23.5 32.5
t-61.5 14.5q-75 0 -120.5 -62t-45.5 -178q0 -102 41 -163t119 -61q96 0 153 97z" />
    <glyph glyph-name="Dcaron" unicode="&#x10e;" horiz-adv-x="715" 
d="M403 747h-63l-110 125h9l147 -83l129 83h6zM23 0v14l57 7q39 5 51 19t12 45v509q0 31 -12 45t-51 19l-57 7v14h299q156 0 255 -89t99 -250q0 -163 -98.5 -251.5t-255.5 -88.5h-299zM287 18h34q264 0 264 322q0 157 -66.5 239t-196.5 82h-102v-578q0 -34 15.5 -49.5
t51.5 -15.5z" />
    <glyph glyph-name="dcaron" unicode="&#x10f;" horiz-adv-x="571" 
d="M525 484l-9 14q74 39 74 104q-10 -21 -36 -21q-19 0 -32.5 13t-13.5 33q0 21 14.5 36t36.5 15q27 0 41.5 -17.5t14.5 -46.5q0 -83 -90 -130zM244 7q61 0 100 54t39 152v191q-39 76 -123 76q-73 0 -113 -64.5t-40 -177.5q0 -107 34.5 -169t102.5 -62zM396 213
q0 -111 -44 -169.5t-123 -58.5q-88 0 -145 69t-57 184q0 121 71 189t162 68q73 0 123 -35v207q0 32 -11 43t-46 15l-55 5v11l174 32l15 -6q-7 -54 -7 -105v-580q0 -33 11 -45.5t45 -17.5l39 -5v-14h-145l-11 9q0 20 2 103.5t2 100.5z" />
    <glyph glyph-name="Dcroat" unicode="&#x110;" horiz-adv-x="715" 
d="M143 351v243q0 31 -12 45t-51 19l-57 7v14h299q156 0 255 -89t99 -250q0 -163 -98.5 -251.5t-255.5 -88.5h-299v14l57 7q39 5 51 19t12 45v245h-108v21h108zM287 18h34q264 0 264 322q0 157 -66.5 239t-196.5 82h-102v-310h171v-21h-171v-247q0 -34 15.5 -49.5
t51.5 -15.5z" />
    <glyph glyph-name="dcroat" unicode="&#x111;" horiz-adv-x="563" 
d="M453 621h87v-22h-87v-517q0 -33 11 -45.5t45 -17.5l39 -5v-14h-145l-11 9q0 20 2 103.5t2 100.5q0 -111 -44 -169.5t-123 -58.5q-88 0 -145 69t-57 184q0 121 71 189t162 68q73 0 123 -35v139h-157v22h157v46q0 32 -11 43t-46 15l-55 5v11l174 32l15 -6q-7 -54 -7 -105
v-41zM244 7q61 0 100 54t39 152v191q-39 76 -123 76q-73 0 -113 -64.5t-40 -177.5q0 -107 34.5 -169t102.5 -62z" />
    <glyph glyph-name="Emacron" unicode="&#x112;" horiz-adv-x="630" 
d="M182 762v32q72 -4 138 -4q69 0 139 4v-32q-70 4 -138 4q-67 0 -139 -4zM220 359h93q49 0 69 29.5t39 119.5h15q-1 -52 -1 -158q0 -105 1 -158h-15q-20 91 -39.5 120t-68.5 29h-93v-258q0 -34 15.5 -49.5t51.5 -15.5h106q84 0 114.5 37.5t67.5 181.5h18l-14 -237h-556v14
l57 7q39 5 51 19t12 45v509q0 31 -12 45t-51 19l-57 7v14h525l13 -217h-18q-34 131 -61.5 165t-104.5 34h-157v-302z" />
    <glyph glyph-name="emacron" unicode="&#x113;" horiz-adv-x="477" 
d="M117 650v32q72 -4 139 -4q69 0 139 4v-32q-70 4 -138 4t-140 -4zM355 295l1 13v10q9 162 -100 162q-63 0 -101 -52t-46 -144zM437 109q-68 -123 -189 -123q-95 0 -158 69t-63 184q0 113 66 184.5t162 71.5q83 0 130.5 -47.5t47.5 -125.5q0 -21 -5 -54l-320 2
q-1 -10 -1 -30q0 -102 40.5 -163t119.5 -61q98 0 157 100z" />
    <glyph glyph-name="Ebreve" unicode="&#x114;" horiz-adv-x="630" 
d="M466 873q-7 -60 -40.5 -93t-88.5 -33t-88 33t-41 93h4q11 -31 43 -51t82 -20t82 19.5t43 51.5h4zM220 359h93q49 0 69 29.5t39 119.5h15q-1 -52 -1 -158q0 -105 1 -158h-15q-20 91 -39.5 120t-68.5 29h-93v-258q0 -34 15.5 -49.5t51.5 -15.5h106q84 0 114.5 37.5
t67.5 181.5h18l-14 -237h-556v14l57 7q39 5 51 19t12 45v509q0 31 -12 45t-51 19l-57 7v14h525l13 -217h-18q-34 131 -61.5 165t-104.5 34h-157v-302z" />
    <glyph glyph-name="ebreve" unicode="&#x115;" horiz-adv-x="477" 
d="M379 733q-7 -64 -40 -98t-89 -34t-88.5 34t-40.5 98h4q10 -34 42 -55.5t83 -21.5t83 21.5t42 55.5h4zM355 295l1 13v10q9 162 -100 162q-63 0 -101 -52t-46 -144zM437 109q-68 -123 -189 -123q-95 0 -158 69t-63 184q0 113 66 184.5t162 71.5q83 0 130.5 -47.5
t47.5 -125.5q0 -21 -5 -54l-320 2q-1 -10 -1 -30q0 -102 40.5 -163t119.5 -61q98 0 157 100z" />
    <glyph glyph-name="Edotaccent" unicode="&#x116;" horiz-adv-x="630" 
d="M394 798q0 -22 -14.5 -36.5t-36.5 -14.5q-21 0 -35.5 14.5t-14.5 36.5q0 21 14.5 35.5t35.5 14.5q22 0 36.5 -14.5t14.5 -35.5zM220 359h93q49 0 69 29.5t39 119.5h15q-1 -52 -1 -158q0 -105 1 -158h-15q-20 91 -39.5 120t-68.5 29h-93v-258q0 -34 15.5 -49.5t51.5 -15.5
h106q84 0 114.5 37.5t67.5 181.5h18l-14 -237h-556v14l57 7q39 5 51 19t12 45v509q0 31 -12 45t-51 19l-57 7v14h525l13 -217h-18q-34 131 -61.5 165t-104.5 34h-157v-302z" />
    <glyph glyph-name="edotaccent" unicode="&#x117;" horiz-adv-x="477" 
d="M304 667q0 -22 -14.5 -36.5t-35.5 -14.5q-22 0 -36.5 14.5t-14.5 36.5q0 21 14.5 35.5t36.5 14.5q21 0 35.5 -14t14.5 -36zM355 295l1 13v10q9 162 -100 162q-63 0 -101 -52t-46 -144zM437 109q-68 -123 -189 -123q-95 0 -158 69t-63 184q0 113 66 184.5t162 71.5
q83 0 130.5 -47.5t47.5 -125.5q0 -21 -5 -54l-320 2q-1 -10 -1 -30q0 -102 40.5 -163t119.5 -61q98 0 157 100z" />
    <glyph glyph-name="Eogonek" unicode="&#x118;" horiz-adv-x="630" 
d="M220 359h93q49 0 69 29.5t39 119.5h15q-1 -52 -1 -158q0 -105 1 -158h-15q-20 91 -39.5 120t-68.5 29h-93v-258q0 -34 15.5 -49.5t51.5 -15.5h106q84 0 114.5 37.5t67.5 181.5h18l-14 -237q-67 -1 -120 -42.5t-53 -103.5q0 -30 17 -49t47 -19q55 0 102 77l13 -7
q-52 -98 -133 -98q-46 0 -73.5 23t-27.5 64q0 67 81 118q53 33 111 43q-78 -6 -137 -6h-383v14l57 7q39 5 51 19t12 45v509q0 31 -12 45t-51 19l-57 7v14h525l13 -217h-18q-34 131 -61.5 165t-104.5 34h-157v-302z" />
    <glyph glyph-name="eogonek" unicode="&#x119;" horiz-adv-x="477" 
d="M355 295l1 13v10q9 162 -100 162q-63 0 -101 -52t-46 -144zM428 -144q-27 -49 -58 -73.5t-76 -24.5q-46 0 -73 23t-27 64q0 36 23 64t64 59q6 5 29.5 23.5t36.5 28.5q-47 -33 -100 -33q-96 0 -158 69t-62 183q0 113 66 184.5t162 71.5q83 0 130.5 -47.5t47.5 -125.5
q0 -21 -5 -54l-320 2q-1 -10 -1 -30q0 -102 40.5 -163t119.5 -61q98 0 157 100l13 -7q-22 -39 -49 -66q-15 -15 -45 -40.5t-47 -41.5t-32 -44.5t-15 -60.5q0 -31 17 -50.5t47 -19.5q55 0 101 77z" />
    <glyph glyph-name="Ecaron" unicode="&#x11a;" horiz-adv-x="630" 
d="M368 747h-63l-110 125h9l147 -83l129 83h6zM220 359h93q49 0 69 29.5t39 119.5h15q-1 -52 -1 -158q0 -105 1 -158h-15q-20 91 -39.5 120t-68.5 29h-93v-258q0 -34 15.5 -49.5t51.5 -15.5h106q84 0 114.5 37.5t67.5 181.5h18l-14 -237h-556v14l57 7q39 5 51 19t12 45v509
q0 31 -12 45t-51 19l-57 7v14h525l13 -217h-18q-34 131 -61.5 165t-104.5 34h-157v-302z" />
    <glyph glyph-name="ecaron" unicode="&#x11b;" horiz-adv-x="477" 
d="M273 578h-51l-111 172h9l138 -120l130 120h7zM355 295l1 13v10q9 162 -100 162q-63 0 -101 -52t-46 -144zM437 109q-68 -123 -189 -123q-95 0 -158 69t-63 184q0 113 66 184.5t162 71.5q83 0 130.5 -47.5t47.5 -125.5q0 -21 -5 -54l-320 2q-1 -10 -1 -30
q0 -102 40.5 -163t119.5 -61q98 0 157 100z" />
    <glyph glyph-name="Gcircumflex" unicode="&#x11c;" horiz-adv-x="728" 
d="M344 830l-129 -83h-6l118 125h63l111 -125h-9zM573 77q-71 -92 -212 -92q-138 0 -228.5 97.5t-90.5 256.5t95.5 257t231.5 98q131 0 203 -90l34 85h10v-277h-19q-37 149 -93 208t-134 59q-110 0 -173.5 -90.5t-63.5 -248.5q0 -159 60.5 -249.5t171.5 -90.5q80 0 129 45
t49 114v59q0 32 -14.5 47.5t-52.5 20.5l-62 8v14q54 -1 158 -1q107 0 161 1v-14l-60 -8q-34 -5 -45.5 -19t-11.5 -43v-103l3 -134h-9z" />
    <glyph glyph-name="gcircumflex" unicode="&#x11d;" horiz-adv-x="501" 
d="M365 578l-139 121l-129 -121h-7l120 172h52l112 -172h-9zM109 330q0 -67 26.5 -108.5t76.5 -41.5q51 0 77 42t26 108q0 69 -26 109.5t-78 40.5q-50 0 -76 -40.5t-26 -109.5zM236 -243q-100 0 -163.5 36t-63.5 100q0 40 22.5 65t56.5 25q20 0 28.5 -9t6.5 -25
q-31 0 -49 -17t-18 -47q0 -51 47 -82t133 -31q89 0 143 32.5t54 89.5q0 46 -46.5 67.5t-144.5 24.5q-181 5 -181 103q0 84 140 84q-71 0 -119 44t-48 115t49 117t127 46q72 0 121 -41q49 45 101 45q30 0 47 -15t17 -41q0 -23 -13.5 -35.5t-34.5 -12.5q-19 0 -30.5 11.5
t-11.5 28.5q0 6 2 14.5t2 11.5q0 10 -14 10q-24 0 -54 -27q47 -47 47 -116q0 -73 -50 -119t-132 -46q-108 -3 -108 -50q0 -28 35 -39t118 -13q116 -4 170 -39t54 -110q0 -73 -68 -114t-172 -41z" />
    <glyph glyph-name="Gbreve" unicode="&#x11e;" horiz-adv-x="728" 
d="M483 873q-7 -60 -40.5 -93t-88.5 -33t-88 33t-41 93h4q11 -31 43 -51t82 -20t82 19.5t43 51.5h4zM610 -13l-37 90q-71 -92 -212 -92q-138 0 -228.5 97.5t-90.5 256.5t95.5 257t231.5 98q131 0 203 -90l34 85h10v-277h-19q-37 149 -93 208t-134 59q-110 0 -173.5 -90.5
t-63.5 -248.5q0 -159 60.5 -249.5t171.5 -90.5q80 0 129 45t49 114v59q0 32 -14.5 47.5t-52.5 20.5l-62 8v14q54 -1 158 -1q107 0 161 1v-14l-60 -8q-34 -5 -45.5 -19t-11.5 -43v-103l3 -134h-9z" />
    <glyph glyph-name="gbreve" unicode="&#x11f;" horiz-adv-x="501" 
d="M356 733q-7 -64 -40 -98t-89 -34t-88.5 34t-40.5 98h4q10 -34 42 -55.5t83 -21.5t83 21.5t42 55.5h4zM109 330q0 -67 26.5 -108.5t76.5 -41.5q51 0 77 42t26 108q0 69 -26 109.5t-78 40.5q-50 0 -76 -40.5t-26 -109.5zM236 -243q-100 0 -163.5 36t-63.5 100q0 40 22.5 65
t56.5 25q20 0 28.5 -9t6.5 -25q-31 0 -49 -17t-18 -47q0 -51 47 -82t133 -31q89 0 143 32.5t54 89.5q0 46 -46.5 67.5t-144.5 24.5q-181 5 -181 103q0 84 140 84q-71 0 -119 44t-48 115t49 117t127 46q72 0 121 -41q49 45 101 45q30 0 47 -15t17 -41q0 -23 -13.5 -35.5
t-34.5 -12.5q-19 0 -30.5 11.5t-11.5 28.5q0 6 2 14.5t2 11.5q0 10 -14 10q-24 0 -54 -27q47 -47 47 -116q0 -73 -50 -119t-132 -46q-108 -3 -108 -50q0 -28 35 -39t118 -13q116 -4 170 -39t54 -110q0 -73 -68 -114t-172 -41z" />
    <glyph glyph-name="Gdotaccent" unicode="&#x120;" horiz-adv-x="728" 
d="M421 798q0 -22 -14.5 -36.5t-36.5 -14.5q-21 0 -35.5 14.5t-14.5 36.5q0 21 14.5 35.5t35.5 14.5q22 0 36.5 -14.5t14.5 -35.5zM573 77q-71 -92 -212 -92q-138 0 -228.5 97.5t-90.5 256.5t95.5 257t231.5 98q131 0 203 -90l34 85h10v-277h-19q-37 149 -93 208t-134 59
q-110 0 -173.5 -90.5t-63.5 -248.5q0 -159 60.5 -249.5t171.5 -90.5q80 0 129 45t49 114v59q0 32 -14.5 47.5t-52.5 20.5l-62 8v14q54 -1 158 -1q107 0 161 1v-14l-60 -8q-34 -5 -45.5 -19t-11.5 -43v-103l3 -134h-9z" />
    <glyph glyph-name="gdotaccent" unicode="&#x121;" horiz-adv-x="501" 
d="M280 667q0 -22 -14.5 -36.5t-35.5 -14.5q-22 0 -36.5 14.5t-14.5 36.5q0 21 14.5 35.5t36.5 14.5q21 0 35.5 -14t14.5 -36zM109 330q0 -67 26.5 -108.5t76.5 -41.5q51 0 77 42t26 108q0 69 -26 109.5t-78 40.5q-50 0 -76 -40.5t-26 -109.5zM236 -243q-100 0 -163.5 36
t-63.5 100q0 40 22.5 65t56.5 25q20 0 28.5 -9t6.5 -25q-31 0 -49 -17t-18 -47q0 -51 47 -82t133 -31q89 0 143 32.5t54 89.5q0 46 -46.5 67.5t-144.5 24.5q-181 5 -181 103q0 84 140 84q-71 0 -119 44t-48 115t49 117t127 46q72 0 121 -41q49 45 101 45q30 0 47 -15t17 -41
q0 -23 -13.5 -35.5t-34.5 -12.5q-19 0 -30.5 11.5t-11.5 28.5q0 6 2 14.5t2 11.5q0 10 -14 10q-24 0 -54 -27q47 -47 47 -116q0 -73 -50 -119t-132 -46q-108 -3 -108 -50q0 -28 35 -39t118 -13q116 -4 170 -39t54 -110q0 -73 -68 -114t-172 -41z" />
    <glyph glyph-name="Gcommaaccent" unicode="&#x122;" horiz-adv-x="728" 
d="M610 -13l-37 90q-71 -92 -212 -92q-138 0 -228.5 97.5t-90.5 256.5t95.5 257t231.5 98q131 0 203 -90l34 85h10v-277h-19q-37 149 -93 208t-134 59q-110 0 -173.5 -90.5t-63.5 -248.5q0 -159 60.5 -249.5t171.5 -90.5q80 0 129 45t49 114v59q0 32 -14.5 47.5t-52.5 20.5
l-62 8v14q54 -1 158 -1q107 0 161 1v-14l-60 -8q-34 -5 -45.5 -19t-11.5 -43v-103l3 -134h-9zM327 -251l-9 14q73 39 74 107q-11 -24 -37 -24q-19 0 -32 13t-13 33q0 21 14.5 36t36.5 15q26 0 40.5 -17.5t14.5 -46.5q0 -84 -89 -130z" />
    <glyph glyph-name="gcommaaccent" unicode="&#x123;" horiz-adv-x="501" 
d="M269 762l9 -14q-74 -39 -74 -104q10 21 36 21q19 0 32.5 -13t13.5 -33q0 -21 -14.5 -36t-36.5 -15q-27 0 -41.5 17.5t-14.5 46.5q0 83 90 130zM212 180q51 0 77 42t26 108q0 69 -26 109.5t-78 40.5q-50 0 -76 -40.5t-26 -109.5q0 -67 26.5 -108.5t76.5 -41.5zM236 -243
q-100 0 -163.5 36t-63.5 100q0 40 22.5 65t56.5 25q20 0 28.5 -9t6.5 -25q-31 0 -49 -17t-18 -47q0 -51 47 -82t133 -31q89 0 143 32.5t54 89.5q0 46 -46.5 67.5t-144.5 24.5q-181 5 -181 103q0 84 140 84q-71 0 -119 44t-48 115t49 117t127 46q72 0 121 -41q49 45 101 45
q30 0 47 -15t17 -41q0 -23 -13.5 -35.5t-34.5 -12.5q-19 0 -30.5 11.5t-11.5 28.5q0 6 2 14.5t2 11.5q0 10 -14 10q-24 0 -54 -27q47 -47 47 -116q0 -73 -50 -119t-132 -46q-108 -3 -108 -50q0 -28 35 -39t118 -13q116 -4 170 -39t54 -110q0 -73 -68 -114t-172 -41z" />
    <glyph glyph-name="Hcircumflex" unicode="&#x124;" horiz-adv-x="793" 
d="M385 830l-129 -83h-6l118 125h63l111 -125h-9zM770 0q-27 0 -79 0.5t-79 0.5t-79 -0.5t-79 -0.5v14l57 7q38 5 50 19t12 45v252h-353v-252q0 -31 12 -45t50 -19l57 -7v-14q-27 0 -79 0.5t-79 0.5t-79 -0.5t-79 -0.5v14l57 7q39 5 51 19t12 45v509q0 31 -12 45t-51 19
l-57 7v14q54 -1 158 -1t158 1v-14l-57 -7q-38 -5 -50 -19t-12 -45v-236h353v236q0 31 -12 45t-50 19l-57 7v14q54 -1 158 -1t158 1v-14l-57 -7q-39 -5 -51 -19t-12 -45v-509q0 -31 12 -45t51 -19l57 -7v-14z" />
    <glyph glyph-name="hcircumflex" unicode="&#x125;" horiz-adv-x="598" 
d="M136 875l-129 -83h-6l118 125h63l111 -125h-9zM15 0v14l39 5q34 5 44.5 17.5t10.5 45.5v588q0 31 -9.5 41.5t-42.5 14.5l-52 5v10l167 32l15 -6q-7 -43 -7 -105v-127q0 -62 -6.5 -154.5t-6.5 -153.5q0 117 47 192.5t137 75.5q67 0 105 -38t38 -111v-264q0 -33 10.5 -45.5
t44.5 -17.5l39 -5v-14q-22 0 -64 0.5t-64 0.5t-64.5 -0.5t-64.5 -0.5v14l36 5q34 5 45.5 17.5t11.5 45.5v264q0 123 -92 123q-69 0 -110.5 -69.5t-41.5 -172.5v-145q0 -33 11 -45.5t46 -17.5l35 -5v-14q-22 0 -64 0.5t-64 0.5t-64 -0.5t-65 -0.5z" />
    <glyph glyph-name="Hbar" unicode="&#x126;" horiz-adv-x="793" 
d="M573 358v133h-353v-133h353zM770 14v-14q-27 0 -79 0.5t-79 0.5t-79 -0.5t-79 -0.5v14l57 7q38 5 50 19t12 45v252h-353v-252q0 -31 12 -45t50 -19l57 -7v-14q-27 0 -79 0.5t-79 0.5t-79 -0.5t-79 -0.5v14l57 7q39 5 51 19t12 45v405h-97v23h97v81q0 31 -12 45t-51 19
l-57 7v14q54 -1 158 -1t158 1v-14l-57 -7q-38 -5 -50 -19t-12 -45v-82h353v82q0 31 -12 45t-50 19l-57 7v14q54 -1 158 -1t158 1v-14l-57 -7q-39 -5 -51 -19t-12 -45v-81h96v-23h-96v-405q0 -31 12 -45t51 -19z" />
    <glyph glyph-name="hbar" unicode="&#x127;" horiz-adv-x="598" 
d="M109 620v50q0 31 -9.5 41.5t-42.5 14.5l-52 5v10l167 32l15 -6q-7 -43 -7 -105v-42h156v-22h-156v-63q0 -62 -6.5 -154.5t-6.5 -153.5q0 117 47 192.5t137 75.5q67 0 105 -38t38 -111v-264q0 -33 10.5 -45.5t44.5 -17.5l39 -5v-14q-22 0 -64 0.5t-64 0.5t-64.5 -0.5
t-64.5 -0.5v14l36 5q34 5 45.5 17.5t11.5 45.5v264q0 123 -92 123q-69 0 -110.5 -69.5t-41.5 -172.5v-145q0 -33 11 -45.5t46 -17.5l35 -5v-14q-22 0 -64 0.5t-64 0.5t-64 -0.5t-65 -0.5v14l39 5q34 5 44.5 17.5t10.5 45.5v516h-87v22h87z" />
    <glyph glyph-name="Itilde" unicode="&#x128;" horiz-adv-x="362" 
d="M75 749l-4 -1q-16 30 -16 55q0 26 16.5 43.5t45.5 17.5t79 -31t68 -31q20 0 30.5 11t14.5 40h4q0 -102 -68 -102q-29 0 -77.5 30.5t-66.5 30.5q-31 0 -31 -33q0 -12 5 -30zM23 0v14l57 7q39 5 51 19t12 45v509q0 31 -12 45t-51 19l-57 7v14q54 -1 159 -1q104 0 158 1v-14
l-58 -7q-38 -5 -50 -19t-12 -45v-509q0 -31 12 -45t50 -19l58 -7v-14q-27 0 -79 0.5t-79 0.5q-28 0 -80 -0.5t-79 -0.5z" />
    <glyph glyph-name="itilde" unicode="&#x129;" horiz-adv-x="288" 
d="M22 609l-4 -2q-15 28 -15 55q0 26 16 43.5t45 17.5q30 0 80 -31t67 -31q20 0 30.5 11t14.5 40h4q0 -102 -68 -102q-29 0 -77 31t-66 31q-32 0 -32 -33q0 -13 5 -30zM18 0v14l38 5q34 5 45 17.5t11 45.5v299q0 35 -12.5 46.5t-53.5 14.5l-39 2v12l166 37l16 -6
q-7 -46 -7 -107v-299q0 -32 10.5 -44.5t44.5 -17.5l39 -5v-14q-22 0 -64.5 0.5t-65.5 0.5q-22 0 -64 -0.5t-64 -0.5z" />
    <glyph glyph-name="Imacron" unicode="&#x12a;" horiz-adv-x="362" 
d="M43 762v32q72 -4 138 -4q69 0 139 4v-32q-70 4 -138 4q-67 0 -139 -4zM23 0v14l57 7q39 5 51 19t12 45v509q0 31 -12 45t-51 19l-57 7v14q54 -1 159 -1q104 0 158 1v-14l-58 -7q-38 -5 -50 -19t-12 -45v-509q0 -31 12 -45t50 -19l58 -7v-14q-27 0 -79 0.5t-79 0.5
q-28 0 -80 -0.5t-79 -0.5z" />
    <glyph glyph-name="imacron" unicode="&#x12b;" horiz-adv-x="288" 
d="M-9 650v32q72 -4 139 -4q69 0 139 4v-32q-70 4 -138 4t-140 -4zM18 0v14l38 5q34 5 45 17.5t11 45.5v299q0 35 -12.5 46.5t-53.5 14.5l-39 2v12l166 37l16 -6q-7 -46 -7 -107v-299q0 -32 10.5 -44.5t44.5 -17.5l39 -5v-14q-22 0 -64.5 0.5t-65.5 0.5q-22 0 -64 -0.5
t-64 -0.5z" />
    <glyph glyph-name="Ibreve" unicode="&#x12c;" horiz-adv-x="362" 
d="M312 873q-7 -60 -40.5 -93t-88.5 -33t-88 33t-41 93h4q11 -31 43 -51t82 -20t82 19.5t43 51.5h4zM23 0v14l57 7q39 5 51 19t12 45v509q0 31 -12 45t-51 19l-57 7v14q54 -1 159 -1q104 0 158 1v-14l-58 -7q-38 -5 -50 -19t-12 -45v-509q0 -31 12 -45t50 -19l58 -7v-14
q-27 0 -79 0.5t-79 0.5q-28 0 -80 -0.5t-79 -0.5z" />
    <glyph glyph-name="ibreve" unicode="&#x12d;" horiz-adv-x="288" 
d="M261 733q-7 -64 -40 -98t-89 -34t-88.5 34t-40.5 98h4q10 -34 42 -55.5t83 -21.5t83 21.5t42 55.5h4zM18 0v14l38 5q34 5 45 17.5t11 45.5v299q0 35 -12.5 46.5t-53.5 14.5l-39 2v12l166 37l16 -6q-7 -46 -7 -107v-299q0 -32 10.5 -44.5t44.5 -17.5l39 -5v-14
q-22 0 -64.5 0.5t-65.5 0.5q-22 0 -64 -0.5t-64 -0.5z" />
    <glyph glyph-name="Iogonek" unicode="&#x12e;" horiz-adv-x="362" 
d="M212 -242q-46 0 -73 23t-27 64q0 66 80 118q52 32 111 42q-72 -4 -130 -4q-26 0 -74.5 -0.5t-75.5 -0.5v14l57 7q39 5 51 19t12 45v509q0 31 -12 45t-51 19l-57 7v14q54 -1 159 -1q104 0 158 1v-14l-58 -7q-38 -5 -50 -19t-12 -45v-509q0 -31 12 -45t50 -19l58 -7v-14
q-67 -2 -120 -43t-53 -103q0 -30 17 -49t47 -19q55 0 101 77l14 -7q-27 -49 -58 -73.5t-76 -24.5z" />
    <glyph glyph-name="iogonek" unicode="&#x12f;" horiz-adv-x="288" 
d="M193 679q0 -26 -16.5 -41.5t-42.5 -15.5q-24 0 -41 16t-17 41t17 41t41 16q26 0 42.5 -16t16.5 -41zM147 -242q-46 0 -73 23t-27 64q0 66 84 119q61 37 120 43q-15 0 -52.5 -3t-57.5 -3q-23 0 -62 -0.5t-61 -0.5v14l38 5q34 5 45 17.5t11 45.5v299q0 35 -12.5 46.5
t-53.5 14.5l-39 2v12l166 37l16 -6q-7 -46 -7 -107v-299q0 -32 10.5 -44.5t44.5 -17.5l39 -5v-14q-66 -1 -120 -42.5t-54 -103.5q0 -30 16.5 -49t46.5 -19q55 0 102 77l13 -7q-52 -98 -133 -98z" />
    <glyph glyph-name="Idotaccent" unicode="&#x130;" horiz-adv-x="362" 
d="M232 798q0 -22 -14.5 -36.5t-36.5 -14.5q-21 0 -35.5 14.5t-14.5 36.5q0 21 14.5 35.5t35.5 14.5q22 0 36.5 -14.5t14.5 -35.5zM23 0v14l57 7q39 5 51 19t12 45v509q0 31 -12 45t-51 19l-57 7v14q54 -1 159 -1q104 0 158 1v-14l-58 -7q-38 -5 -50 -19t-12 -45v-509
q0 -31 12 -45t50 -19l58 -7v-14q-27 0 -79 0.5t-79 0.5q-28 0 -80 -0.5t-79 -0.5z" />
    <glyph glyph-name="dotlessi" unicode="&#x131;" horiz-adv-x="288" 
d="M18 0v14l38 5q34 5 45 17.5t11 45.5v299q0 35 -12.5 46.5t-53.5 14.5l-39 2v12l166 37l16 -6q-7 -46 -7 -107v-299q0 -32 10.5 -44.5t44.5 -17.5l39 -5v-14q-22 0 -64.5 0.5t-65.5 0.5q-22 0 -64 -0.5t-64 -0.5z" />
    <glyph glyph-name="Jcircumflex" unicode="&#x134;" horiz-adv-x="516" 
d="M327 830l-129 -83h-6l118 125h63l111 -125h-9zM386 225q0 -118 -60 -179t-159 -61q-74 0 -117.5 38.5t-43.5 98.5q0 33 17 53.5t45 20.5q22 0 35.5 -13t13.5 -34q0 -43 -47 -48q-18 -1 -18 -20q0 -28 30 -54t83 -26q76 0 111.5 45.5t35.5 138.5v403q0 34 -14 49.5
t-55 20.5l-60 7v14q55 -1 161 -1q107 0 162 1v-14l-58 -7q-38 -5 -50 -19t-12 -45v-369z" />
    <glyph glyph-name="jcircumflex" unicode="&#x135;" horiz-adv-x="304" 
d="M150 699l-129 -121h-7l120 172h52l112 -172h-9zM210 -49q0 -53 -16 -92.5t-43 -61t-55 -31.5t-58 -10q-57 0 -90 25t-33 62q0 26 15.5 43.5t41.5 17.5q22 0 36 -13t14 -33q0 -18 -9 -29t-17.5 -17.5t-8.5 -14.5q0 -11 14.5 -18.5t36.5 -7.5q102 0 102 162v446
q0 35 -14 47.5t-56 15.5l-41 2v12l171 37l16 -6q-6 -49 -6 -108v-428z" />
    <glyph glyph-name="Kcommaaccent" unicode="&#x136;" horiz-adv-x="724" 
d="M720 0q-28 0 -81 0.5t-81 0.5t-82 -0.5t-82 -0.5v14l38 5q54 7 54 27q0 11 -8 22.5t-36 42.5l-217 239l202 195q40 39 52.5 55.5t12.5 29.5q0 22 -51 29l-39 6v14q48 -1 144 -1t145 1v-14l-33 -5q-55 -9 -100.5 -35t-115.5 -93l-149 -143l239 -263q55 -61 82 -79.5
t74 -26.5l32 -6v-14zM23 0v14l57 7q39 5 51 19t12 45v509q0 31 -12 45t-51 19l-57 7v14q54 -1 159 -1q104 0 158 1v-14l-58 -7q-38 -5 -50 -19t-12 -45v-509q0 -31 12 -45t50 -19l58 -7v-14q-27 0 -79 0.5t-79 0.5q-28 0 -80 -0.5t-79 -0.5zM328 -251l-9 14q73 39 74 107
q-11 -24 -37 -24q-19 0 -32 13t-13 33q0 21 14.5 36t36.5 15q26 0 40.5 -17.5t14.5 -46.5q0 -84 -89 -130z" />
    <glyph glyph-name="kcommaaccent" unicode="&#x137;" horiz-adv-x="553" 
d="M15 0v14l39 5q34 5 44.5 17.5t10.5 45.5v587q0 32 -9.5 42.5t-42.5 14.5l-52 5v10l167 32l15 -6q-7 -43 -7 -105v-581q0 -33 10 -45t43 -17l36 -5v-14q-22 0 -62.5 0.5t-62.5 0.5t-64 -0.5t-65 -0.5zM243 287l172 -188q42 -46 62.5 -61t50.5 -20l21 -4v-14
q-21 0 -60.5 0.5t-61.5 0.5q-21 0 -62 -0.5t-62 -0.5v14l27 3q36 5 36 22q0 10 -24 38l-157 175l131 129q34 33 34 53t-46 27l-34 5v14q43 -1 126 -1q84 0 127 1v-14l-33 -5q-79 -14 -161 -92zM234 -251l-9 14q74 39 74 104q-11 -21 -36 -21q-19 0 -32.5 13t-13.5 33
q0 21 14.5 36t36.5 15q27 0 41.5 -17.5t14.5 -46.5q0 -83 -90 -130z" />
    <glyph glyph-name="Lacute" unicode="&#x139;" horiz-adv-x="628" 
d="M135 747h-7q62 64 99 125h88v-2q-59 -64 -180 -123zM583 0h-560v14l57 7q39 5 51 19t12 45v509q0 31 -12 45t-51 19l-57 7v14q55 -1 161 -1t162 1v-14l-61 -7q-41 -5 -53 -19t-12 -48v-508q0 -34 15.5 -49.5t51.5 -15.5h115q75 0 109 44t68 190h17z" />
    <glyph glyph-name="lacute" unicode="&#x13a;" horiz-adv-x="289" 
d="M70 797h-7q62 64 99 125h88v-2q-59 -64 -180 -123zM274 0q-23 0 -65.5 0.5t-64.5 0.5t-64 -0.5t-65 -0.5v14l39 5q34 5 44.5 17.5t10.5 45.5v587q0 32 -9.5 42.5t-42.5 14.5l-52 5v10l167 32l15 -6q-7 -43 -7 -105v-580q0 -33 10.5 -45.5t44.5 -17.5l39 -5v-14z" />
    <glyph glyph-name="Lcommaaccent" unicode="&#x13b;" horiz-adv-x="628" 
d="M23 0v14l57 7q39 5 51 19t12 45v509q0 31 -12 45t-51 19l-57 7v14q55 -1 161 -1t162 1v-14l-61 -7q-41 -5 -53 -19t-12 -48v-508q0 -34 15.5 -49.5t51.5 -15.5h115q75 0 109 44t68 190h17l-13 -252h-560zM301 -251l-9 14q73 39 74 107q-11 -24 -37 -24q-19 0 -32 13
t-13 33q0 21 14.5 36t36.5 15q26 0 40.5 -17.5t14.5 -46.5q0 -84 -89 -130z" />
    <glyph glyph-name="lcommaaccent" unicode="&#x13c;" horiz-adv-x="289" 
d="M15 0v14l39 5q34 5 44.5 17.5t10.5 45.5v587q0 32 -9.5 42.5t-42.5 14.5l-52 5v10l167 32l15 -6q-7 -43 -7 -105v-580q0 -33 10.5 -45.5t44.5 -17.5l39 -5v-14q-23 0 -65.5 0.5t-64.5 0.5t-64 -0.5t-65 -0.5zM103 -251l-9 14q74 39 74 104q-10 -21 -36 -21
q-19 0 -32.5 13t-13.5 33q0 21 14.5 36t36.5 15q27 0 41.5 -17.5t14.5 -46.5q0 -83 -90 -130z" />
    <glyph glyph-name="Ldot" unicode="&#x13f;" horiz-adv-x="628" 
d="M23 0v14l57 7q39 5 51 19t12 45v509q0 31 -12 45t-51 19l-57 7v14q55 -1 161 -1t162 1v-14l-61 -7q-41 -5 -53 -19t-12 -48v-508q0 -34 15.5 -49.5t51.5 -15.5h115q75 0 109 44t68 190h17l-13 -252h-560zM553 385q0 -22 -14.5 -36.5t-36.5 -14.5q-21 0 -35.5 14.5
t-14.5 36.5q0 21 14.5 35.5t35.5 14.5q22 0 36.5 -14.5t14.5 -35.5z" />
    <glyph glyph-name="ldot" unicode="&#x140;" horiz-adv-x="293" 
d="M15 0v14l39 5q34 5 44.5 17.5t10.5 45.5v587q0 32 -9.5 42.5t-42.5 14.5l-52 5v10l167 32l15 -6q-7 -43 -7 -105v-580q0 -33 10.5 -45.5t44.5 -17.5l39 -5v-14q-23 0 -65.5 0.5t-64.5 0.5t-64 -0.5t-65 -0.5zM290 331q-22 0 -36.5 14.5t-14.5 36.5q0 21 14.5 35.5
t36.5 14.5q21 0 35.5 -14t14.5 -36t-14.5 -36.5t-35.5 -14.5z" />
    <glyph glyph-name="Lslash" unicode="&#x141;" horiz-adv-x="628" 
d="M583 0h-560v14l57 7q39 5 51 19t12 45v200l-112 -66v27l112 65v283q0 31 -12 45t-51 19l-57 7v14q55 -1 161 -1t162 1v-14l-61 -7q-41 -5 -53 -19t-12 -48v-240l198 119v-27l-198 -119v-241q0 -34 15.5 -49.5t51.5 -15.5h115q75 0 109 44t68 190h17z" />
    <glyph glyph-name="lslash" unicode="&#x142;" horiz-adv-x="289" 
d="M274 0q-23 0 -65.5 0.5t-64.5 0.5t-64 -0.5t-65 -0.5v14l39 5q34 5 44.5 17.5t10.5 45.5v280l-100 -58v26l100 58v281q0 32 -9.5 42.5t-42.5 14.5l-52 5v10l167 32l15 -6q-7 -43 -7 -105v-234l95 57v-27l-95 -56v-320q0 -33 10.5 -45.5t44.5 -17.5l39 -5v-14z" />
    <glyph glyph-name="Nacute" unicode="&#x143;" horiz-adv-x="768" 
d="M363 747h-7q62 64 99 125h88v-2q-59 -64 -180 -123zM635 -3h-48l-420 619v-474q0 -68 15 -90.5t63 -30.5l41 -7v-14q-22 0 -65 0.5t-66 0.5t-66.5 -0.5t-65.5 -0.5v14l40 7q49 8 64.5 31t15.5 90v452q0 31 -12 45t-51 19l-57 7v14h195l393 -578v436q0 67 -15.5 90
t-63.5 31l-41 7v14q45 -1 132 -1q86 0 131 1v-14l-40 -7q-48 -8 -63.5 -30.5t-15.5 -90.5v-540z" />
    <glyph glyph-name="nacute" unicode="&#x144;" horiz-adv-x="597" 
d="M263 578h-6q64 99 92 172h79v-3q-59 -94 -165 -169zM587 0q-22 0 -64 0.5t-64 0.5q-23 0 -65 -0.5t-64 -0.5v14l39 5q34 5 44.5 17.5t10.5 45.5v264q0 123 -92 123q-69 0 -110.5 -73.5t-41.5 -174.5v-140q0 -32 11.5 -44.5t45.5 -17.5l36 -5v-14q-23 0 -65 0.5t-64 0.5
t-64 -0.5t-64 -0.5v14l38 5q34 5 45 17.5t11 45.5v299q0 34 -12.5 46t-52.5 15l-40 2v12l156 36l16 -6q-9 -113 -9 -265q0 116 47 195t136 79q67 0 105 -38t38 -111v-264q0 -33 11.5 -45.5t45.5 -17.5l36 -5v-14z" />
    <glyph glyph-name="Ncommaaccent" unicode="&#x145;" horiz-adv-x="768" 
d="M587 -3l-420 619v-474q0 -68 15 -90.5t63 -30.5l41 -7v-14q-22 0 -65 0.5t-66 0.5t-66.5 -0.5t-65.5 -0.5v14l40 7q49 8 64.5 31t15.5 90v452q0 31 -12 45t-51 19l-57 7v14h195l393 -578v436q0 67 -15.5 90t-63.5 31l-41 7v14q45 -1 132 -1q86 0 131 1v-14l-40 -7
q-48 -8 -63.5 -30.5t-15.5 -90.5v-540h-48zM347 -251l-9 14q73 39 74 107q-11 -24 -37 -24q-19 0 -32 13t-13 33q0 21 14.5 36t36.5 15q26 0 40.5 -17.5t14.5 -46.5q0 -84 -89 -130z" />
    <glyph glyph-name="ncommaaccent" unicode="&#x146;" horiz-adv-x="597" 
d="M16 0v14l38 5q34 5 45 17.5t11 45.5v299q0 34 -12.5 46t-52.5 15l-40 2v12l156 36l16 -6q-9 -113 -9 -265q0 116 47 195t136 79q67 0 105 -38t38 -111v-264q0 -33 11.5 -45.5t45.5 -17.5l36 -5v-14q-22 0 -64 0.5t-64 0.5q-23 0 -65 -0.5t-64 -0.5v14l39 5
q34 5 44.5 17.5t10.5 45.5v264q0 123 -92 123q-69 0 -110.5 -73.5t-41.5 -174.5v-140q0 -32 11.5 -44.5t45.5 -17.5l36 -5v-14q-23 0 -65 0.5t-64 0.5t-64 -0.5t-64 -0.5zM260 -251l-9 14q74 39 74 104q-11 -21 -36 -21q-19 0 -32.5 13t-13.5 33q0 21 14.5 36t36.5 15
q27 0 41.5 -17.5t14.5 -46.5q0 -83 -90 -130z" />
    <glyph glyph-name="Ncaron" unicode="&#x147;" horiz-adv-x="768" 
d="M433 747h-63l-110 125h9l147 -83l129 83h6zM587 -3l-420 619v-474q0 -68 15 -90.5t63 -30.5l41 -7v-14q-22 0 -65 0.5t-66 0.5t-66.5 -0.5t-65.5 -0.5v14l40 7q49 8 64.5 31t15.5 90v452q0 31 -12 45t-51 19l-57 7v14h195l393 -578v436q0 67 -15.5 90t-63.5 31l-41 7v14
q45 -1 132 -1q86 0 131 1v-14l-40 -7q-48 -8 -63.5 -30.5t-15.5 -90.5v-540h-48z" />
    <glyph glyph-name="ncaron" unicode="&#x148;" horiz-adv-x="597" 
d="M337 578h-51l-111 172h9l138 -120l130 120h7zM16 0v14l38 5q34 5 45 17.5t11 45.5v299q0 34 -12.5 46t-52.5 15l-40 2v12l156 36l16 -6q-9 -113 -9 -265q0 116 47 195t136 79q67 0 105 -38t38 -111v-264q0 -33 11.5 -45.5t45.5 -17.5l36 -5v-14q-22 0 -64 0.5t-64 0.5
q-23 0 -65 -0.5t-64 -0.5v14l39 5q34 5 44.5 17.5t10.5 45.5v264q0 123 -92 123q-69 0 -110.5 -73.5t-41.5 -174.5v-140q0 -32 11.5 -44.5t45.5 -17.5l36 -5v-14q-23 0 -65 0.5t-64 0.5t-64 -0.5t-64 -0.5z" />
    <glyph glyph-name="Omacron" unicode="&#x14c;" horiz-adv-x="744" 
d="M234 762v32q72 -4 138 -4q69 0 139 4v-32q-70 4 -138 4q-67 0 -139 -4zM702 340q0 -158 -94 -256.5t-236 -98.5t-236 98.5t-94 256.5t94 256t236 98t236 -98.5t94 -255.5zM372 0q115 0 177.5 94.5t62.5 245.5q0 150 -62.5 244.5t-177.5 94.5q-116 0 -178 -94.5
t-62 -244.5q0 -151 62 -245.5t178 -94.5z" />
    <glyph glyph-name="omacron" unicode="&#x14d;" horiz-adv-x="505" 
d="M116 650v32q72 -4 139 -4q69 0 139 4v-32q-70 4 -138 4t-140 -4zM253 -15q-99 0 -162.5 71t-63.5 184t63.5 184t162.5 71t162 -70.5t63 -184.5q0 -113 -63 -184t-162 -71zM253 0q74 0 109.5 66.5t35.5 173.5q0 108 -35.5 174t-109.5 66q-75 0 -110.5 -66t-35.5 -174
q0 -107 35.5 -173.5t110.5 -66.5z" />
    <glyph glyph-name="Obreve" unicode="&#x14e;" horiz-adv-x="744" 
d="M502 873q-7 -60 -40.5 -93t-88.5 -33t-88 33t-41 93h4q11 -31 43 -51t82 -20t82 19.5t43 51.5h4zM702 340q0 -158 -94 -256.5t-236 -98.5t-236 98.5t-94 256.5t94 256t236 98t236 -98.5t94 -255.5zM132 340q0 -151 62 -245.5t178 -94.5q115 0 177.5 94.5t62.5 245.5
q0 150 -62.5 244.5t-177.5 94.5q-116 0 -178 -94.5t-62 -244.5z" />
    <glyph glyph-name="obreve" unicode="&#x14f;" horiz-adv-x="505" 
d="M383 733q-7 -64 -40 -98t-89 -34t-88.5 34t-40.5 98h4q10 -34 42 -55.5t83 -21.5t83 21.5t42 55.5h4zM478 240q0 -113 -63 -184t-162 -71t-162.5 71t-63.5 184t63.5 184t162.5 71t162 -70.5t63 -184.5zM107 240q0 -107 35.5 -173.5t110.5 -66.5q74 0 109.5 66.5
t35.5 173.5q0 108 -35.5 174t-109.5 66q-75 0 -110.5 -66t-35.5 -174z" />
    <glyph glyph-name="Ohungarumlaut" unicode="&#x150;" horiz-adv-x="744" 
d="M412 747h-6q60 61 98 125h89v-3q-62 -66 -181 -122zM261 747h-6q60 64 99 125h88v-2q-60 -64 -181 -123zM372 -15q-142 0 -236 98.5t-94 256.5t94 256t236 98t236 -98.5t94 -255.5q0 -158 -94 -256.5t-236 -98.5zM372 0q115 0 177.5 94.5t62.5 245.5q0 150 -62.5 244.5
t-177.5 94.5q-116 0 -178 -94.5t-62 -244.5q0 -151 62 -245.5t178 -94.5z" />
    <glyph glyph-name="ohungarumlaut" unicode="&#x151;" horiz-adv-x="505" 
d="M301 578h-6q65 101 91 172h80v-3q-60 -94 -165 -169zM154 578h-6q64 99 92 172h79v-3q-59 -94 -165 -169zM253 -15q-99 0 -162.5 71t-63.5 184t63.5 184t162.5 71t162 -70.5t63 -184.5q0 -113 -63 -184t-162 -71zM253 0q74 0 109.5 66.5t35.5 173.5q0 108 -35.5 174
t-109.5 66q-75 0 -110.5 -66t-35.5 -174q0 -107 35.5 -173.5t110.5 -66.5z" />
    <glyph glyph-name="OE" unicode="&#x152;" horiz-adv-x="1006" 
d="M130 340q0 -151 64 -246t183 -95q73 0 107.5 35.5t34.5 124.5v361q0 89 -34.5 124.5t-107.5 35.5q-119 0 -183 -95t-64 -245zM596 359h93q49 0 69 29.5t39 119.5h15q-1 -52 -1 -158q0 -105 1 -158h-15q-20 91 -39.5 120t-68.5 29h-93v-258q0 -34 15.5 -49.5t51.5 -15.5
h106q84 0 114.5 37.5t67.5 181.5h18l-14 -237h-468q-53 -17 -110 -17q-145 0 -241 100.5t-96 256.5q0 155 96.5 255.5t240.5 100.5q59 0 110 -17h437l13 -217h-17q-34 130 -62 164.5t-106 34.5h-156v-302z" />
    <glyph glyph-name="oe" unicode="&#x153;" horiz-adv-x="848" 
d="M107 240q0 -107 35.5 -173.5t110.5 -66.5q74 0 109.5 66.5t35.5 173.5q0 108 -35.5 174t-109.5 66q-75 0 -110.5 -66t-35.5 -174zM726 295l1 13v10q11 162 -99 162q-63 0 -101 -52t-46 -144zM808 109q-68 -123 -188 -123q-59 0 -107 30.5t-75 85.5q-27 -55 -75.5 -86
t-109.5 -31q-99 0 -162.5 71t-63.5 184t63.5 184t162.5 71q62 0 111 -31.5t76 -88.5q28 56 77.5 88t109.5 32q83 0 130 -47.5t47 -125.5q0 -27 -4 -54l-320 2q-1 -10 -1 -30q0 -101 40 -162.5t119 -61.5q98 0 157 100z" />
    <glyph glyph-name="Racute" unicode="&#x154;" horiz-adv-x="676" 
d="M293 747h-7q62 64 99 125h88v-2q-59 -64 -180 -123zM681 0h-120q-33 0 -45 8.5t-26 35.5l-138 277q-24 -3 -51 -3q-36 0 -81 3v-234q0 -33 12 -47t52 -19l59 -7v-14q-27 0 -80 0.5t-80 0.5t-79.5 -0.5t-80.5 -0.5v14l57 7q39 5 51 19t12 45v509q0 31 -12 45t-51 19l-57 7
v14h276q282 0 282 -179q0 -65 -46.5 -106t-116.5 -57q19 -24 39 -61l90 -172q24 -47 41 -62t57 -22l36 -6v-14zM302 336q192 0 192 164q0 90 -46 126t-148 36h-80v-322q39 -4 82 -4z" />
    <glyph glyph-name="racute" unicode="&#x155;" horiz-adv-x="411" 
d="M195 578h-6q64 99 92 172h79v-3q-59 -94 -165 -169zM280 0q-22 0 -67.5 0.5t-68.5 0.5q-22 0 -64 -0.5t-64 -0.5v14l38 5q34 5 45 17.5t11 45.5v301q0 33 -12.5 44.5t-52.5 14.5l-40 3v12l156 35l16 -6q-10 -126 -10 -303q0 83 25 178q37 136 135 136q33 0 52 -18.5
t19 -45.5q0 -26 -16 -41t-39 -15t-35.5 13t-12.5 34q0 4 0.5 11t0.5 9q0 12 -11 12q-23 0 -44 -26.5t-36 -74.5q-26 -88 -26 -172v-98q0 -35 11.5 -48.5t47.5 -17.5l42 -5v-14z" />
    <glyph glyph-name="Rcommaaccent" unicode="&#x156;" horiz-adv-x="676" 
d="M681 0h-120q-33 0 -45 8.5t-26 35.5l-138 277q-24 -3 -51 -3q-36 0 -81 3v-234q0 -33 12 -47t52 -19l59 -7v-14q-27 0 -80 0.5t-80 0.5t-79.5 -0.5t-80.5 -0.5v14l57 7q39 5 51 19t12 45v509q0 31 -12 45t-51 19l-57 7v14h276q282 0 282 -179q0 -65 -46.5 -106
t-116.5 -57q19 -24 39 -61l90 -172q24 -47 41 -62t57 -22l36 -6v-14zM220 662v-322q39 -4 82 -4q192 0 192 164q0 90 -46 126t-148 36h-80zM330 -251l-9 14q73 39 74 107q-11 -24 -37 -24q-19 0 -32 13t-13 33q0 21 14.5 36t36.5 15q26 0 40.5 -17.5t14.5 -46.5
q0 -84 -89 -130z" />
    <glyph glyph-name="rcommaaccent" unicode="&#x157;" horiz-adv-x="411" 
d="M16 0v14l38 5q34 5 45 17.5t11 45.5v301q0 33 -12.5 44.5t-52.5 14.5l-40 3v12l156 35l16 -6q-10 -126 -10 -303q0 83 25 178q37 136 135 136q33 0 52 -18.5t19 -45.5q0 -26 -16 -41t-39 -15t-35.5 13t-12.5 34q0 4 0.5 11t0.5 9q0 12 -11 12q-23 0 -44 -26.5t-36 -74.5
q-26 -88 -26 -172v-98q0 -35 11.5 -48.5t47.5 -17.5l42 -5v-14q-22 0 -67.5 0.5t-68.5 0.5q-22 0 -64 -0.5t-64 -0.5zM105 -251l-9 14q74 39 74 104q-10 -21 -36 -21q-19 0 -32.5 13t-13.5 33q0 21 14.5 36t36.5 15q27 0 41.5 -17.5t14.5 -46.5q0 -83 -90 -130z" />
    <glyph glyph-name="Rcaron" unicode="&#x158;" horiz-adv-x="676" 
d="M375 747h-63l-110 125h9l147 -83l129 83h6zM681 0h-120q-33 0 -45 8.5t-26 35.5l-138 277q-24 -3 -51 -3q-36 0 -81 3v-234q0 -33 12 -47t52 -19l59 -7v-14q-27 0 -80 0.5t-80 0.5t-79.5 -0.5t-80.5 -0.5v14l57 7q39 5 51 19t12 45v509q0 31 -12 45t-51 19l-57 7v14h276
q282 0 282 -179q0 -65 -46.5 -106t-116.5 -57q19 -24 39 -61l90 -172q24 -47 41 -62t57 -22l36 -6v-14zM220 662v-322q39 -4 82 -4q192 0 192 164q0 90 -46 126t-148 36h-80z" />
    <glyph glyph-name="rcaron" unicode="&#x159;" horiz-adv-x="411" 
d="M253 578h-51l-111 172h9l138 -120l130 120h7zM16 0v14l38 5q34 5 45 17.5t11 45.5v301q0 33 -12.5 44.5t-52.5 14.5l-40 3v12l156 35l16 -6q-10 -126 -10 -303q0 83 25 178q37 136 135 136q33 0 52 -18.5t19 -45.5q0 -26 -16 -41t-39 -15t-35.5 13t-12.5 34q0 4 0.5 11
t0.5 9q0 12 -11 12q-23 0 -44 -26.5t-36 -74.5q-26 -88 -26 -172v-98q0 -35 11.5 -48.5t47.5 -17.5l42 -5v-14q-22 0 -67.5 0.5t-68.5 0.5q-22 0 -64 -0.5t-64 -0.5z" />
    <glyph glyph-name="Sacute" unicode="&#x15a;" horiz-adv-x="570" 
d="M244 747h-7q62 64 99 125h88v-2q-59 -64 -180 -123zM515 174q0 -89 -62.5 -139t-151.5 -50q-125 0 -196 77l-30 -74h-10v275h19q26 -143 79 -203t138 -60q70 0 111 38.5t41 103.5q0 66 -43.5 101t-133.5 67q-96 34 -147 80.5t-51 121.5q0 84 58.5 133t145.5 49
q109 0 170 -72l28 69h10v-264h-19q-27 135 -70.5 193.5t-117.5 58.5q-67 0 -106 -36.5t-39 -94.5q0 -64 45 -100.5t137 -68.5q97 -34 146 -78t49 -127z" />
    <glyph glyph-name="sacute" unicode="&#x15b;" horiz-adv-x="417" 
d="M177 578h-6q64 99 92 172h79v-3q-59 -94 -165 -169zM374 128q0 -65 -45.5 -104t-116.5 -39q-90 0 -143 53l-25 -52h-8v204h19q20 -96 56.5 -143t100.5 -47q48 0 77 25.5t29 69.5q0 46 -30.5 72t-99.5 50q-67 24 -103 56t-36 89t45.5 95t111.5 38q75 0 120 -46l24 45h8
v-183h-18q-18 84 -49 126.5t-85 42.5q-47 0 -73.5 -25t-26.5 -63q0 -42 29.5 -65t96.5 -47q68 -24 105 -58t37 -94z" />
    <glyph glyph-name="Scircumflex" unicode="&#x15c;" horiz-adv-x="570" 
d="M286 830l-129 -83h-6l118 125h63l111 -125h-9zM515 174q0 -89 -62.5 -139t-151.5 -50q-125 0 -196 77l-30 -74h-10v275h19q26 -143 79 -203t138 -60q70 0 111 38.5t41 103.5q0 66 -43.5 101t-133.5 67q-96 34 -147 80.5t-51 121.5q0 84 58.5 133t145.5 49q109 0 170 -72
l28 69h10v-264h-19q-27 135 -70.5 193.5t-117.5 58.5q-67 0 -106 -36.5t-39 -94.5q0 -64 45 -100.5t137 -68.5q97 -34 146 -78t49 -127z" />
    <glyph glyph-name="scircumflex" unicode="&#x15d;" horiz-adv-x="417" 
d="M210 699l-129 -121h-7l120 172h52l112 -172h-9zM212 -15q-90 0 -143 53l-25 -52h-8v204h19q20 -96 56.5 -143t100.5 -47q48 0 77 25.5t29 69.5q0 46 -30.5 72t-99.5 50q-67 24 -103 56t-36 89t45.5 95t111.5 38q75 0 120 -46l24 45h8v-183h-18q-18 84 -49 126.5t-85 42.5
q-47 0 -73.5 -25t-26.5 -63q0 -42 29.5 -65t96.5 -47q68 -24 105 -58t37 -94q0 -65 -45.5 -104t-116.5 -39z" />
    <glyph glyph-name="Scedilla" unicode="&#x15e;" horiz-adv-x="570" 
d="M246 -242q-52 0 -93 25l8 12q32 -16 65 -16q35 0 54 19t19 55q0 59 -52 59q-18 0 -38 -8l-10 7l26 82q-72 16 -120 69l-30 -74h-10v275h19q26 -143 79 -203t138 -60q70 0 111 38.5t41 103.5q0 66 -43.5 101t-133.5 67q-96 34 -147 80.5t-51 121.5q0 84 58.5 133t145.5 49
q109 0 170 -72l28 69h10v-264h-19q-27 135 -70.5 193.5t-117.5 58.5q-67 0 -106 -36.5t-39 -94.5q0 -64 45 -100.5t137 -68.5q97 -34 146 -78t49 -127q0 -89 -62.5 -139t-151.5 -50q-29 0 -61 5l-14 -69q21 8 47 8q36 0 62 -20.5t26 -58.5q0 -45 -34 -68.5t-81 -23.5z" />
    <glyph glyph-name="scedilla" unicode="&#x15f;" horiz-adv-x="417" 
d="M174 -242q-52 0 -93 25l8 12q32 -16 65 -16q35 0 54 19t19 55q0 59 -52 59q-18 0 -38 -8l-10 7l26 80q-48 11 -84 47l-25 -52h-8v204h19q20 -96 56.5 -143t100.5 -47q48 0 77 25.5t29 69.5q0 46 -30.5 72t-99.5 50q-67 24 -103 56t-36 89t45.5 95t111.5 38q75 0 120 -46
l24 45h8v-183h-18q-18 84 -49 126.5t-85 42.5q-47 0 -73.5 -25t-26.5 -63q0 -42 29.5 -65t96.5 -47q68 -24 105 -58t37 -94q0 -65 -45.5 -104t-116.5 -39q-24 0 -44 3l-14 -67q21 8 47 8q36 0 62 -20.5t26 -58.5q0 -45 -34 -68.5t-81 -23.5z" />
    <glyph glyph-name="Scaron" unicode="&#x160;" horiz-adv-x="570" 
d="M325 747h-63l-110 125h9l147 -83l129 83h6zM515 174q0 -89 -62.5 -139t-151.5 -50q-125 0 -196 77l-30 -74h-10v275h19q26 -143 79 -203t138 -60q70 0 111 38.5t41 103.5q0 66 -43.5 101t-133.5 67q-96 34 -147 80.5t-51 121.5q0 84 58.5 133t145.5 49q109 0 170 -72
l28 69h10v-264h-19q-27 135 -70.5 193.5t-117.5 58.5q-67 0 -106 -36.5t-39 -94.5q0 -64 45 -100.5t137 -68.5q97 -34 146 -78t49 -127z" />
    <glyph glyph-name="scaron" unicode="&#x161;" horiz-adv-x="417" 
d="M235 578h-51l-111 172h9l138 -120l130 120h7zM374 128q0 -65 -45.5 -104t-116.5 -39q-90 0 -143 53l-25 -52h-8v204h19q20 -96 56.5 -143t100.5 -47q48 0 77 25.5t29 69.5q0 46 -30.5 72t-99.5 50q-67 24 -103 56t-36 89t45.5 95t111.5 38q75 0 120 -46l24 45h8v-183h-18
q-18 84 -49 126.5t-85 42.5q-47 0 -73.5 -25t-26.5 -63q0 -42 29.5 -65t96.5 -47q68 -24 105 -58t37 -94z" />
    <glyph glyph-name="Tcommaaccent" unicode="&#x162;" horiz-adv-x="660" 
d="M494 14v-14q-28 0 -82 0.5t-82 0.5t-82 -0.5t-82 -0.5v14l60 7q40 5 52.5 19.5t12.5 47.5v573h-89q-73 0 -99.5 -36t-59.5 -175h-15l8 229h588l8 -229h-15q-32 138 -59.5 174.5t-100.5 36.5h-88v-573q0 -33 12.5 -47.5t52.5 -19.5zM295 -251l-9 14q73 39 74 107
q-11 -24 -37 -24q-19 0 -32 13t-13 33q0 21 14.5 36t36.5 15q26 0 40.5 -17.5t14.5 -46.5q0 -84 -89 -130z" />
    <glyph glyph-name="tcommaaccent" unicode="&#x163;" horiz-adv-x="358" 
d="M333 116q-16 -67 -46 -97.5t-82 -30.5q-115 0 -115 122v336l-95 11v15l47 7q40 4 55 19t23 56l12 73h35l-6 -147h167v-23l-167 -6v-342q0 -52 16 -73.5t50 -21.5q64 0 90 105zM158 -251l-9 14q74 39 74 104q-11 -21 -36 -21q-19 0 -32.5 13t-13.5 33q0 21 14.5 36
t36.5 15q27 0 41.5 -17.5t14.5 -46.5q0 -83 -90 -130z" />
    <glyph glyph-name="Tcaron" unicode="&#x164;" horiz-adv-x="660" 
d="M361 747h-63l-110 125h9l147 -83l129 83h6zM494 14v-14q-28 0 -82 0.5t-82 0.5t-82 -0.5t-82 -0.5v14l60 7q40 5 52.5 19.5t12.5 47.5v573h-89q-73 0 -99.5 -36t-59.5 -175h-15l8 229h588l8 -229h-15q-32 138 -59.5 174.5t-100.5 36.5h-88v-573q0 -33 12.5 -47.5
t52.5 -19.5z" />
    <glyph glyph-name="tcaron" unicode="&#x165;" horiz-adv-x="358" 
d="M256 547l-9 14q74 39 74 104q-11 -21 -36 -21q-19 0 -32.5 13t-13.5 33q0 21 14.5 36t36.5 15q27 0 41.5 -17.5t14.5 -46.5q0 -83 -90 -130zM205 -12q-115 0 -115 122v336l-95 11v15l47 7q40 4 55 19t23 56l12 73h35l-6 -147h167v-23l-167 -6v-342q0 -52 16 -73.5
t50 -21.5q64 0 90 105l16 -3q-16 -67 -46 -97.5t-82 -30.5z" />
    <glyph glyph-name="Tbar" unicode="&#x166;" horiz-adv-x="660" 
d="M494 14v-14q-28 0 -82 0.5t-82 0.5t-82 -0.5t-82 -0.5v14l60 7q40 5 52.5 19.5t12.5 47.5v237h-135v27h135v309h-89q-73 0 -99.5 -36t-59.5 -175h-15l8 229h588l8 -229h-15q-32 138 -59.5 174.5t-100.5 36.5h-88v-309h135v-27h-135v-237q0 -33 12.5 -47.5t52.5 -19.5z
" />
    <glyph glyph-name="tbar" unicode="&#x167;" horiz-adv-x="358" 
d="M333 116q-16 -67 -46 -97.5t-82 -30.5q-115 0 -115 122v147h-80v22h80v167l-95 11v15l47 7q40 4 55 19t23 56l12 73h35l-6 -147h167v-23l-167 -6v-172h141v-22h-141v-148q0 -52 16 -73.5t50 -21.5q64 0 90 105z" />
    <glyph glyph-name="Utilde" unicode="&#x168;" horiz-adv-x="772" 
d="M293 749l-4 -1q-16 30 -16 55q0 26 16.5 43.5t45.5 17.5t79 -31t68 -31q20 0 30.5 11t14.5 40h4q0 -102 -68 -102q-29 0 -77.5 30.5t-66.5 30.5q-31 0 -31 -33q0 -12 5 -30zM642 236q0 -119 -64 -184.5t-192 -65.5q-55 0 -97.5 11.5t-78.5 38.5t-55.5 77.5t-19.5 123.5
v357q0 31 -12 45t-51 19l-57 7v14q55 -1 159 -1t158 1v-14l-57 -7q-39 -5 -51 -19t-12 -45v-357q0 -122 52.5 -170.5t147.5 -48.5q102 0 154 57t52 161v301q0 68 -15.5 90.5t-63.5 30.5l-41 7v14q46 -1 132 -1q87 0 132 1v-14l-40 -7q-49 -8 -64.5 -31t-15.5 -90v-301z" />
    <glyph glyph-name="utilde" unicode="&#x169;" horiz-adv-x="556" 
d="M142 609l-4 -2q-15 28 -15 55q0 26 16 43.5t45 17.5q30 0 80 -31t67 -31q20 0 30.5 11t14.5 40h4q0 -102 -68 -102q-29 0 -77 31t-66 31q-32 0 -32 -33q0 -13 5 -30zM393 223q0 -107 -40.5 -172.5t-126.5 -65.5q-66 0 -104.5 40t-38.5 117v257q0 31 -10 44.5t-42 17.5
l-42 5v14h168l-4 -81v-259q0 -129 93 -129q64 0 99 58t35 154v176q0 32 -9.5 45t-41.5 17l-43 5v14h168l-3 -83v-315q0 -32 10 -45.5t42 -17.5l42 -5v-14h-145l-10 9q0 21 1.5 109t1.5 105z" />
    <glyph glyph-name="Umacron" unicode="&#x16a;" horiz-adv-x="772" 
d="M263 762v32q72 -4 138 -4q69 0 139 4v-32q-70 4 -138 4q-67 0 -139 -4zM642 236q0 -119 -64 -184.5t-192 -65.5q-55 0 -97.5 11.5t-78.5 38.5t-55.5 77.5t-19.5 123.5v357q0 31 -12 45t-51 19l-57 7v14q55 -1 159 -1t158 1v-14l-57 -7q-39 -5 -51 -19t-12 -45v-357
q0 -122 52.5 -170.5t147.5 -48.5q102 0 154 57t52 161v301q0 68 -15.5 90.5t-63.5 30.5l-41 7v14q46 -1 132 -1q87 0 132 1v-14l-40 -7q-49 -8 -64.5 -31t-15.5 -90v-301z" />
    <glyph glyph-name="umacron" unicode="&#x16b;" horiz-adv-x="556" 
d="M116 650v32q72 -4 139 -4q69 0 139 4v-32q-70 4 -138 4t-140 -4zM393 223q0 -107 -40.5 -172.5t-126.5 -65.5q-66 0 -104.5 40t-38.5 117v257q0 31 -10 44.5t-42 17.5l-42 5v14h168l-4 -81v-259q0 -129 93 -129q64 0 99 58t35 154v176q0 32 -9.5 45t-41.5 17l-43 5v14
h168l-3 -83v-315q0 -32 10 -45.5t42 -17.5l42 -5v-14h-145l-10 9q0 21 1.5 109t1.5 105z" />
    <glyph glyph-name="Ubreve" unicode="&#x16c;" horiz-adv-x="772" 
d="M537 873q-7 -60 -40.5 -93t-88.5 -33t-88 33t-41 93h4q11 -31 43 -51t82 -20t82 19.5t43 51.5h4zM642 236q0 -119 -64 -184.5t-192 -65.5q-55 0 -97.5 11.5t-78.5 38.5t-55.5 77.5t-19.5 123.5v357q0 31 -12 45t-51 19l-57 7v14q55 -1 159 -1t158 1v-14l-57 -7
q-39 -5 -51 -19t-12 -45v-357q0 -122 52.5 -170.5t147.5 -48.5q102 0 154 57t52 161v301q0 68 -15.5 90.5t-63.5 30.5l-41 7v14q46 -1 132 -1q87 0 132 1v-14l-40 -7q-49 -8 -64.5 -31t-15.5 -90v-301z" />
    <glyph glyph-name="ubreve" unicode="&#x16d;" horiz-adv-x="556" 
d="M390 733q-7 -64 -40 -98t-89 -34t-88.5 34t-40.5 98h4q10 -34 42 -55.5t83 -21.5t83 21.5t42 55.5h4zM393 223q0 -107 -40.5 -172.5t-126.5 -65.5q-66 0 -104.5 40t-38.5 117v257q0 31 -10 44.5t-42 17.5l-42 5v14h168l-4 -81v-259q0 -129 93 -129q64 0 99 58t35 154v176
q0 32 -9.5 45t-41.5 17l-43 5v14h168l-3 -83v-315q0 -32 10 -45.5t42 -17.5l42 -5v-14h-145l-10 9q0 21 1.5 109t1.5 105z" />
    <glyph glyph-name="Uring" unicode="&#x16e;" horiz-adv-x="772" 
d="M499 822q0 -40 -27.5 -67t-71.5 -28q-43 0 -71 27.5t-28 67.5t28 67t71 27q44 0 71.5 -27t27.5 -67zM400 741q34 0 52 23.5t18 57.5q0 33 -18 56.5t-52 23.5q-33 0 -51.5 -23.5t-18.5 -56.5q0 -34 18.5 -57.5t51.5 -23.5zM386 -14q-55 0 -97.5 11.5t-78.5 38.5
t-55.5 77.5t-19.5 123.5v357q0 31 -12 45t-51 19l-57 7v14q55 -1 159 -1t158 1v-14l-57 -7q-39 -5 -51 -19t-12 -45v-357q0 -122 52.5 -170.5t147.5 -48.5q102 0 154 57t52 161v301q0 68 -15.5 90.5t-63.5 30.5l-41 7v14q46 -1 132 -1q87 0 132 1v-14l-40 -7
q-49 -8 -64.5 -31t-15.5 -90v-301q0 -119 -64 -184.5t-192 -65.5z" />
    <glyph glyph-name="uring" unicode="&#x16f;" horiz-adv-x="556" 
d="M356 653q0 -40 -28 -67t-72 -28q-43 0 -70.5 27.5t-27.5 67.5t27.5 67t70.5 27q44 0 72 -27t28 -67zM256 572q34 0 52.5 23.5t18.5 57.5q0 33 -18.5 56.5t-52.5 23.5q-33 0 -51 -23.5t-18 -56.5q0 -34 18 -57.5t51 -23.5zM393 223q0 -107 -40.5 -172.5t-126.5 -65.5
q-66 0 -104.5 40t-38.5 117v257q0 31 -10 44.5t-42 17.5l-42 5v14h168l-4 -81v-259q0 -129 93 -129q64 0 99 58t35 154v176q0 32 -9.5 45t-41.5 17l-43 5v14h168l-3 -83v-315q0 -32 10 -45.5t42 -17.5l42 -5v-14h-145l-10 9q0 21 1.5 109t1.5 105z" />
    <glyph glyph-name="Uhungarumlaut" unicode="&#x170;" horiz-adv-x="772" 
d="M457 747h-6q60 61 98 125h89v-3q-62 -66 -181 -122zM306 747h-6q60 64 99 125h88v-2q-60 -64 -181 -123zM386 -14q-55 0 -97.5 11.5t-78.5 38.5t-55.5 77.5t-19.5 123.5v357q0 31 -12 45t-51 19l-57 7v14q55 -1 159 -1t158 1v-14l-57 -7q-39 -5 -51 -19t-12 -45v-357
q0 -122 52.5 -170.5t147.5 -48.5q102 0 154 57t52 161v301q0 68 -15.5 90.5t-63.5 30.5l-41 7v14q46 -1 132 -1q87 0 132 1v-14l-40 -7q-49 -8 -64.5 -31t-15.5 -90v-301q0 -119 -64 -184.5t-192 -65.5z" />
    <glyph glyph-name="uhungarumlaut" unicode="&#x171;" horiz-adv-x="556" 
d="M301 578h-6q65 101 91 172h80v-3q-60 -94 -165 -169zM154 578h-6q64 99 92 172h79v-3q-59 -94 -165 -169zM393 223q0 -107 -40.5 -172.5t-126.5 -65.5q-66 0 -104.5 40t-38.5 117v257q0 31 -10 44.5t-42 17.5l-42 5v14h168l-4 -81v-259q0 -129 93 -129q64 0 99 58t35 154
v176q0 32 -9.5 45t-41.5 17l-43 5v14h168l-3 -83v-315q0 -32 10 -45.5t42 -17.5l42 -5v-14h-145l-10 9q0 21 1.5 109t1.5 105z" />
    <glyph glyph-name="Uogonek" unicode="&#x172;" horiz-adv-x="772" 
d="M477 -242q-46 0 -73.5 23t-27.5 64q0 25 14 49t29 38.5t41 35.5q77 61 80 63q-62 -45 -154 -45q-55 0 -97.5 11.5t-78.5 38.5t-55.5 77.5t-19.5 123.5v357q0 31 -12 45t-51 19l-57 7v14q55 -1 159 -1t158 1v-14l-57 -7q-39 -5 -51 -19t-12 -45v-357q0 -122 52.5 -170.5
t147.5 -48.5q102 0 154 57t52 161v301q0 68 -15.5 90.5t-63.5 30.5l-41 7v14q46 -1 132 -1q87 0 132 1v-14l-40 -7q-49 -8 -64.5 -31t-15.5 -90v-301q0 -123 -71 -191q-13 -13 -45 -39.5t-48.5 -43t-31.5 -45.5t-15 -61q0 -31 17 -50.5t47 -19.5q55 0 102 77l13 -7
q-27 -49 -57.5 -73.5t-75.5 -24.5z" />
    <glyph glyph-name="uogonek" unicode="&#x173;" horiz-adv-x="556" 
d="M415 -242q-46 0 -73 23t-27 64q0 68 83 119q53 32 110 42q-102 -6 -108 -6l-10 9q0 21 1.5 109t1.5 105q0 -107 -40.5 -172.5t-126.5 -65.5q-66 0 -104.5 40t-38.5 117v257q0 31 -10 44.5t-42 17.5l-42 5v14h168l-4 -81v-259q0 -129 93 -129q64 0 99 58t35 154v176
q0 32 -9.5 45t-41.5 17l-43 5v14h168l-3 -83v-315q0 -32 10 -45.5t42 -17.5l42 -5v-14q-66 -1 -120.5 -42.5t-54.5 -103.5q0 -30 16.5 -49t47.5 -19q54 0 101 77l13 -7q-52 -98 -133 -98z" />
    <glyph glyph-name="Wcircumflex" unicode="&#x174;" horiz-adv-x="1007" 
d="M513 830l-129 -83h-6l118 125h63l111 -125h-9zM355 91l-25 -96h-38l-177 569q-16 51 -34 70t-56 25l-35 6v14q51 -1 155 -1q102 0 153 1v-14l-55 -7q-40 -5 -51 -25.5t1 -52.5l143 -485l166 587h43l182 -587l125 426q21 78 9 103.5t-68 34.5l-37 6v14q44 -1 131 -1t130 1
v-14l-29 -6q-49 -9 -69.5 -36t-44.5 -108l-129 -428l-25 -92h-38l-185 590z" />
    <glyph glyph-name="wcircumflex" unicode="&#x175;" horiz-adv-x="768" 
d="M390 699l-129 -121h-7l120 172h52l112 -172h-9zM378 397l-119 -405h-29l-131 391q-14 42 -31 59t-47 21l-26 3v14q43 -1 129 -1t129 1v-14l-45 -5q-33 -4 -40 -23.5t6 -56.5l94 -302l118 405h36l125 -405l86 265q14 44 14 67q0 24 -14.5 35t-47.5 16l-29 4v14
q37 -1 109 -1t108 1v-14l-21 -4q-37 -6 -57.5 -31t-43.5 -95l-116 -344h-29z" />
    <glyph glyph-name="Ycircumflex" unicode="&#x176;" horiz-adv-x="679" 
d="M339 830l-129 -83h-6l118 125h63l111 -125h-9zM501 0q-28 0 -82.5 0.5t-81.5 0.5q-29 0 -83 -0.5t-82 -0.5v14l60 7q41 5 53.5 19.5t12.5 47.5v177l-179 315q-25 44 -44 59.5t-53 20.5l-32 5v14q51 -1 154 -1t154 1v-14l-57 -7q-71 -9 -37 -71l162 -292l126 221
q41 72 41 100q0 19 -14.5 28.5t-50.5 14.5l-35 6v14q43 -1 128 -1t128 1v-14l-27 -5q-43 -8 -72 -37.5t-79 -114.5l-136 -234v-186q0 -33 12.5 -47.5t53.5 -19.5l60 -7v-14z" />
    <glyph glyph-name="ycircumflex" unicode="&#x177;" horiz-adv-x="537" 
d="M274 699l-129 -121h-7l120 172h52l112 -172h-9zM296 28q-33 -87 -62.5 -143t-55.5 -82t-46.5 -35t-46.5 -9q-37 0 -60.5 21t-23.5 54q0 25 15.5 42t42.5 17q22 0 35 -13t13 -32q0 -21 -14.5 -35t-14.5 -20q0 -14 21 -14q80 0 160 206l5 13l-164 385q-18 44 -33.5 59.5
t-45.5 19.5l-26 4v14q43 -1 129 -1q82 0 126 1v-14l-45 -5q-34 -4 -39.5 -23.5t10.5 -54.5l121 -305l104 276q17 45 17 67q0 18 -13 27.5t-45 13.5l-29 4v14q36 -1 106 -1q69 0 105 1v-14l-20 -3q-38 -6 -59 -30t-45 -86z" />
    <glyph glyph-name="Ydieresis" unicode="&#x178;" horiz-adv-x="679" 
d="M511 798q0 -22 -14.5 -36.5t-36.5 -14.5q-21 0 -35.5 14.5t-14.5 36.5q0 21 14.5 35.5t35.5 14.5q22 0 36.5 -14.5t14.5 -35.5zM318 798q0 -22 -14.5 -36.5t-36.5 -14.5q-21 0 -35.5 14.5t-14.5 36.5q0 21 14.5 35.5t35.5 14.5q22 0 36.5 -14.5t14.5 -35.5zM501 0
q-28 0 -82.5 0.5t-81.5 0.5q-29 0 -83 -0.5t-82 -0.5v14l60 7q41 5 53.5 19.5t12.5 47.5v177l-179 315q-25 44 -44 59.5t-53 20.5l-32 5v14q51 -1 154 -1t154 1v-14l-57 -7q-71 -9 -37 -71l162 -292l126 221q41 72 41 100q0 19 -14.5 28.5t-50.5 14.5l-35 6v14q43 -1 128 -1
t128 1v-14l-27 -5q-43 -8 -72 -37.5t-79 -114.5l-136 -234v-186q0 -33 12.5 -47.5t53.5 -19.5l60 -7v-14z" />
    <glyph glyph-name="Zacute" unicode="&#x179;" horiz-adv-x="626" 
d="M285 747h-7q62 64 99 125h88v-2q-59 -64 -180 -123zM575 0h-540v18l447 643h-239q-52 0 -79 -14.5t-48 -58t-44 -138.5h-19l12 229h511v-18l-447 -643h256q55 0 85 17.5t52 64t47 144.5h18z" />
    <glyph glyph-name="zacute" unicode="&#x17a;" horiz-adv-x="479" 
d="M207 578h-6q64 99 92 172h79v-3q-59 -94 -165 -169zM428 0h-393v19l313 443h-145q-56 0 -84 -34.5t-53 -140.5h-16l9 193h371v-19l-311 -444h153q63 0 91.5 35t58.5 149h17z" />
    <glyph glyph-name="Zdotaccent" unicode="&#x17b;" horiz-adv-x="626" 
d="M378 798q0 -22 -14.5 -36.5t-36.5 -14.5q-21 0 -35.5 14.5t-14.5 36.5q0 21 14.5 35.5t35.5 14.5q22 0 36.5 -14.5t14.5 -35.5zM575 0h-540v18l447 643h-239q-52 0 -79 -14.5t-48 -58t-44 -138.5h-19l12 229h511v-18l-447 -643h256q55 0 85 17.5t52 64t47 144.5h18z" />
    <glyph glyph-name="zdotaccent" unicode="&#x17c;" horiz-adv-x="479" 
d="M296 667q0 -22 -14.5 -36.5t-35.5 -14.5q-22 0 -36.5 14.5t-14.5 36.5q0 21 14.5 35.5t36.5 14.5q21 0 35.5 -14t14.5 -36zM35 0v19l313 443h-145q-56 0 -84 -34.5t-53 -140.5h-16l9 193h371v-19l-311 -444h153q63 0 91.5 35t58.5 149h17l-11 -201h-393z" />
    <glyph glyph-name="Zcaron" unicode="&#x17d;" horiz-adv-x="626" 
d="M351 747h-63l-110 125h9l147 -83l129 83h6zM575 0h-540v18l447 643h-239q-52 0 -79 -14.5t-48 -58t-44 -138.5h-19l12 229h511v-18l-447 -643h256q55 0 85 17.5t52 64t47 144.5h18z" />
    <glyph glyph-name="zcaron" unicode="&#x17e;" horiz-adv-x="479" 
d="M272 578h-51l-111 172h9l138 -120l130 120h7zM35 0v19l313 443h-145q-56 0 -84 -34.5t-53 -140.5h-16l9 193h371v-19l-311 -444h153q63 0 91.5 35t58.5 149h17l-11 -201h-393z" />
    <glyph glyph-name="florin" unicode="&#x192;" horiz-adv-x="412" 
d="M22 -244q-57 0 -89.5 25t-32.5 62q0 26 15.5 43.5t41.5 17.5q22 0 35.5 -13t13.5 -33q0 -18 -9 -29t-17.5 -17.5t-8.5 -14.5q0 -11 14.5 -18.5t37.5 -7.5q46 0 70 36t24 126v388l-97 11v15l97 11v81q0 107 51 156.5t126 49.5q57 0 91.5 -26.5t34.5 -65.5q0 -26 -15 -42.5
t-40 -16.5q-22 0 -36.5 13t-14.5 33q0 24 19 39t19 22q0 12 -15 20.5t-43 8.5q-55 0 -81 -38.5t-26 -122.5q0 -19 0.5 -58t0.5 -57h130v-23l-130 -5v-375q0 -101 -50 -148t-116 -47z" />
    <glyph glyph-name="Gcaron" unicode="&#x1e6;" horiz-adv-x="728" 
d="M396 747h-63l-110 125h9l147 -83l129 83h6zM610 -13l-37 90q-71 -92 -212 -92q-138 0 -228.5 97.5t-90.5 256.5t95.5 257t231.5 98q131 0 203 -90l34 85h10v-277h-19q-37 149 -93 208t-134 59q-110 0 -173.5 -90.5t-63.5 -248.5q0 -159 60.5 -249.5t171.5 -90.5
q80 0 129 45t49 114v59q0 32 -14.5 47.5t-52.5 20.5l-62 8v14q54 -1 158 -1q107 0 161 1v-14l-60 -8q-34 -5 -45.5 -19t-11.5 -43v-103l3 -134h-9z" />
    <glyph glyph-name="gcaron" unicode="&#x1e7;" horiz-adv-x="501" 
d="M249 578h-51l-111 172h9l138 -120l130 120h7zM109 330q0 -67 26.5 -108.5t76.5 -41.5q51 0 77 42t26 108q0 69 -26 109.5t-78 40.5q-50 0 -76 -40.5t-26 -109.5zM236 -243q-100 0 -163.5 36t-63.5 100q0 40 22.5 65t56.5 25q20 0 28.5 -9t6.5 -25q-31 0 -49 -17t-18 -47
q0 -51 47 -82t133 -31q89 0 143 32.5t54 89.5q0 46 -46.5 67.5t-144.5 24.5q-181 5 -181 103q0 84 140 84q-71 0 -119 44t-48 115t49 117t127 46q72 0 121 -41q49 45 101 45q30 0 47 -15t17 -41q0 -23 -13.5 -35.5t-34.5 -12.5q-19 0 -30.5 11.5t-11.5 28.5q0 6 2 14.5
t2 11.5q0 10 -14 10q-24 0 -54 -27q47 -47 47 -116q0 -73 -50 -119t-132 -46q-108 -3 -108 -50q0 -28 35 -39t118 -13q116 -4 170 -39t54 -110q0 -73 -68 -114t-172 -41z" />
    <glyph glyph-name="Aringacute" unicode="&#x1fa;" horiz-adv-x="707" 
d="M285 921h-7q65 60 99 112h88v-2q-61 -59 -180 -110zM446 811q0 -38 -26 -63.5t-68 -26.5q-41 0 -67.5 26t-26.5 64q0 37 26.5 63t67.5 26t67.5 -26t26.5 -63zM352 734q33 0 50 22.5t17 54.5t-17 54t-50 22q-31 0 -48.5 -22.5t-17.5 -53.5q0 -32 17.5 -54.5t48.5 -22.5z
M715 14v-14q-26 0 -74.5 0.5t-74.5 0.5t-75 -0.5t-74 -0.5v14l54 7q39 4 48.5 23t-5.5 54l-47 125h-284l-24 -64q-29 -76 -22 -103.5t59 -34.5l44 -7v-14q-21 0 -61 0.5t-61 0.5t-63 -0.5t-63 -0.5v14l26 6q45 9 66.5 35t53.5 111l163 426l32 91h41l220 -570
q20 -52 35 -69.5t48 -23.5zM325 601l-134 -357h268z" />
    <glyph glyph-name="aringacute" unicode="&#x1fb;" horiz-adv-x="495" 
d="M163 758h-7q63 65 99 126h88v-2q-58 -65 -180 -124zM320 638q0 -39 -26.5 -64.5t-68.5 -26.5q-41 0 -67.5 26t-26.5 65q0 38 26.5 64t67.5 26t68 -26.5t27 -63.5zM225 560q32 0 49.5 23t17.5 55t-17.5 54t-49.5 22t-49 -22t-17 -54t17 -55t49 -23zM197 14q53 0 88.5 31.5
t35.5 101.5v97q-107 -13 -159.5 -43.5t-52.5 -98.5q0 -40 24 -64t64 -24zM330 86q-18 -46 -60 -73t-99 -27q-63 0 -100 28t-37 80q0 136 288 165v89q1 69 -23.5 100t-80.5 31q-42 0 -70 -17.5t-28 -36.5q0 -11 10.5 -18t21 -17.5t10.5 -29.5q0 -20 -14 -33t-36 -13
q-26 0 -40 17t-14 45q0 49 48 83.5t113 34.5q171 0 171 -162l-1 -254q0 -64 39 -64q43 0 49 94h14q-2 -64 -21 -91.5t-60 -27.5q-38 0 -57 21.5t-23 75.5z" />
    <glyph glyph-name="AEacute" unicode="&#x1fc;" horiz-adv-x="943" 
d="M432 747h-7q62 64 99 125h88v-2q-59 -64 -180 -123zM455 279v380l-210 -380h210zM532 359h94q49 0 68.5 29.5t38.5 119.5h16q-1 -52 -1 -158q0 -105 1 -158h-16q-19 90 -38.5 119.5t-68.5 29.5h-94v-258q0 -34 15.5 -49.5t51.5 -15.5h106q85 0 115.5 37.5t67.5 181.5h17
l-13 -237h-561v14l63 8q36 5 48.5 19t12.5 43v174h-222l-72 -131q-33 -59 -27 -80.5t57 -27.5l42 -5v-14q-21 0 -64 0.5t-65 0.5t-64.5 -0.5t-64.5 -0.5v14l26 4q45 7 75 30.5t65 86.5l225 403q31 56 31 82q0 17 -11 25t-39 12l-64 8v14h578l13 -217h-18q-34 131 -62 165
t-105 34h-157v-302z" />
    <glyph glyph-name="aeacute" unicode="&#x1fd;" horiz-adv-x="766" 
d="M342 578h-6q64 99 92 172h79v-3q-59 -94 -165 -169zM643 295l2 13v10q9 162 -100 162q-63 0 -101 -52t-46 -144zM726 109q-68 -123 -189 -123q-63 0 -113.5 32t-77.5 91q-19 -52 -65 -87.5t-110 -35.5q-63 0 -100 28t-37 80q0 136 288 165v89q0 69 -24 100t-80 31
q-43 0 -71 -17.5t-28 -36.5q0 -11 10.5 -18t21.5 -17.5t11 -29.5q0 -20 -14.5 -33t-36.5 -13q-25 0 -39.5 17t-14.5 44q0 50 48 84.5t114 34.5q122 0 155 -94q60 95 170 95q83 0 130 -47.5t47 -125.5q0 -27 -4 -54l-320 2q-1 -10 -1 -30q0 -101 40 -162.5t119 -61.5
q99 0 157 100zM197 14q53 0 88.5 31.5t35.5 101.5v97q-108 -13 -160 -43t-52 -99q0 -40 24 -64t64 -24z" />
    <glyph glyph-name="Oslashacute" unicode="&#x1fe;" horiz-adv-x="744" 
d="M311 747h-7q62 64 99 125h88v-2q-59 -64 -180 -123zM702 340q0 -158 -94 -256.5t-236 -98.5q-128 0 -217 80l-63 -75l-18 14l64 77q-96 99 -96 259q0 158 94 256t236 98q125 0 214 -78l61 73l17 -14l-61 -74q99 -101 99 -261zM372 679q-116 0 -178 -94.5t-62 -244.5
q0 -128 44 -214l378 452q-64 101 -182 101zM372 0q115 0 177.5 94.5t62.5 245.5q0 129 -47 218l-378 -452q64 -106 185 -106z" />
    <glyph glyph-name="oslashacute" unicode="&#x1ff;" horiz-adv-x="505" 
d="M201 578h-6q64 99 92 172h79v-3q-59 -94 -165 -169zM478 240q0 -113 -63 -184t-162 -71q-95 0 -156 64l-51 -59l-17 13l53 63q-55 69 -55 174q0 113 63.5 184t162.5 71q87 0 148 -56l46 54l18 -13l-49 -57q62 -72 62 -183zM123 113l246 288q-37 79 -116 79
q-75 0 -110.5 -66t-35.5 -174q0 -75 16 -127zM253 0q74 0 109.5 66.5t35.5 173.5q0 83 -20 139l-247 -289q38 -90 122 -90z" />
    <glyph glyph-name="Scommaaccent" unicode="&#x218;" horiz-adv-x="570" 
d="M515 174q0 -89 -62.5 -139t-151.5 -50q-125 0 -196 77l-30 -74h-10v275h19q26 -143 79 -203t138 -60q70 0 111 38.5t41 103.5q0 66 -43.5 101t-133.5 67q-96 34 -147 80.5t-51 121.5q0 84 58.5 133t145.5 49q109 0 170 -72l28 69h10v-264h-19q-27 135 -70.5 193.5
t-117.5 58.5q-67 0 -106 -36.5t-39 -94.5q0 -64 45 -100.5t137 -68.5q97 -34 146 -78t49 -127zM248 -251l-9 14q73 39 74 107q-11 -24 -37 -24q-19 0 -32 13t-13 33q0 21 14.5 36t36.5 15q26 0 40.5 -17.5t14.5 -46.5q0 -84 -89 -130z" />
    <glyph glyph-name="scommaaccent" unicode="&#x219;" horiz-adv-x="417" 
d="M374 128q0 -65 -45.5 -104t-116.5 -39q-90 0 -143 53l-25 -52h-8v204h19q20 -96 56.5 -143t100.5 -47q48 0 77 25.5t29 69.5q0 46 -30.5 72t-99.5 50q-67 24 -103 56t-36 89t45.5 95t111.5 38q75 0 120 -46l24 45h8v-183h-18q-18 84 -49 126.5t-85 42.5q-47 0 -73.5 -25
t-26.5 -63q0 -42 29.5 -65t96.5 -47q68 -24 105 -58t37 -94zM160 -251l-9 14q74 39 74 104q-11 -21 -36 -21q-19 0 -32.5 13t-13.5 33q0 21 14.5 36t36.5 15q27 0 41.5 -17.5t14.5 -46.5q0 -83 -90 -130z" />
    <glyph glyph-name="dotlessj" unicode="&#x237;" horiz-adv-x="304" 
d="M210 -49q0 -53 -16 -92.5t-43 -61t-55 -31.5t-58 -10q-57 0 -90 25t-33 62q0 26 15.5 43.5t41.5 17.5q22 0 36 -13t14 -33q0 -18 -9 -29t-17.5 -17.5t-8.5 -14.5q0 -11 14.5 -18.5t36.5 -7.5q102 0 102 162v446q0 35 -14 47.5t-56 15.5l-41 2v12l171 37l16 -6
q-6 -49 -6 -108v-428z" />
    <glyph glyph-name="circumflex" unicode="&#x2c6;" horiz-adv-x="511" 
d="M258 699l-129 -121h-7l120 172h52l112 -172h-9z" />
    <glyph glyph-name="caron" unicode="&#x2c7;" horiz-adv-x="511" 
d="M285 578h-51l-111 172h9l138 -120l130 120h7z" />
    <glyph glyph-name="breve" unicode="&#x2d8;" horiz-adv-x="511" 
d="M387 733q-7 -64 -40 -98t-89 -34t-88.5 34t-40.5 98h4q10 -34 42 -55.5t83 -21.5t83 21.5t42 55.5h4z" />
    <glyph glyph-name="dotaccent" unicode="&#x2d9;" horiz-adv-x="537" 
d="M315 667q0 -22 -14.5 -36.5t-35.5 -14.5q-22 0 -36.5 14.5t-14.5 36.5q0 21 14.5 35.5t36.5 14.5q21 0 35.5 -14t14.5 -36z" />
    <glyph glyph-name="ring" unicode="&#x2da;" horiz-adv-x="511" 
d="M355 653q0 -40 -28 -67t-72 -28q-43 0 -70.5 27.5t-27.5 67.5t27.5 67t70.5 27q44 0 72 -27t28 -67zM186 653q0 -34 18 -57.5t51 -23.5q34 0 52.5 23.5t18.5 57.5q0 33 -18.5 56.5t-52.5 23.5q-33 0 -51 -23.5t-18 -56.5z" />
    <glyph glyph-name="ogonek" unicode="&#x2db;" horiz-adv-x="479" 
d="M424 -144q-52 -98 -133 -98q-46 0 -73 23t-27 64q0 36 22.5 64t61.5 58q63 49 101 84l7 -7q-14 -15 -44 -40t-47 -41.5t-32 -45t-15 -61.5q0 -31 17 -50.5t47 -19.5q55 0 102 77z" />
    <glyph glyph-name="tilde" unicode="&#x2dc;" horiz-adv-x="511" 
d="M154 609l-4 -2q-15 28 -15 55q0 26 16 43.5t45 17.5q30 0 80 -31t67 -31q20 0 30.5 11t14.5 40h4q0 -102 -68 -102q-29 0 -77 31t-66 31q-32 0 -32 -33q0 -13 5 -30z" />
    <glyph glyph-name="hungarumlaut" unicode="&#x2dd;" horiz-adv-x="511" 
d="M296 578h-6q65 101 91 172h80v-3q-60 -94 -165 -169zM149 578h-6q64 99 92 172h79v-3q-59 -94 -165 -169z" />
    <glyph glyph-name="pi" unicode="&#x3c0;" horiz-adv-x="662" 
d="M572 -2q-21 -3 -44 -3q-52 0 -80.5 29.5t-28.5 101.5v277h-173q0 -214 -40 -403h-39q49 163 49 403h-143l20 77h488v-77h-132v-276q0 -59 19 -83t61 -24q22 0 40 3z" />
    <glyph glyph-name="Wgrave" unicode="&#x1e80;" horiz-adv-x="1007" 
d="M586 747h-7q-123 61 -180 123v2h88q39 -61 99 -125zM355 91l-25 -96h-38l-177 569q-16 51 -34 70t-56 25l-35 6v14q51 -1 155 -1q102 0 153 1v-14l-55 -7q-40 -5 -51 -25.5t1 -52.5l143 -485l166 587h43l182 -587l125 426q21 78 9 103.5t-68 34.5l-37 6v14q44 -1 131 -1
t130 1v-14l-29 -6q-49 -9 -69.5 -36t-44.5 -108l-129 -428l-25 -92h-38l-185 590z" />
    <glyph glyph-name="wgrave" unicode="&#x1e81;" horiz-adv-x="768" 
d="M459 578h-6q-105 75 -165 169v3h80q29 -77 91 -172zM230 -8l-131 391q-14 42 -31 59t-47 21l-26 3v14q43 -1 129 -1t129 1v-14l-45 -5q-33 -4 -40 -23.5t6 -56.5l94 -302l118 405h36l125 -405l86 265q14 44 14 67q0 24 -14.5 35t-47.5 16l-29 4v14q37 -1 109 -1t108 1
v-14l-21 -4q-37 -6 -57.5 -31t-43.5 -95l-116 -344h-29l-128 405l-119 -405h-29z" />
    <glyph glyph-name="Wacute" unicode="&#x1e82;" horiz-adv-x="1007" 
d="M465 747h-7q62 64 99 125h88v-2q-59 -64 -180 -123zM355 91l-25 -96h-38l-177 569q-16 51 -34 70t-56 25l-35 6v14q51 -1 155 -1q102 0 153 1v-14l-55 -7q-40 -5 -51 -25.5t1 -52.5l143 -485l166 587h43l182 -587l125 426q21 78 9 103.5t-68 34.5l-37 6v14q44 -1 131 -1
t130 1v-14l-29 -6q-49 -9 -69.5 -36t-44.5 -108l-129 -428l-25 -92h-38l-185 590z" />
    <glyph glyph-name="wacute" unicode="&#x1e83;" horiz-adv-x="768" 
d="M352 578h-6q64 99 92 172h79v-3q-59 -94 -165 -169zM378 397l-119 -405h-29l-131 391q-14 42 -31 59t-47 21l-26 3v14q43 -1 129 -1t129 1v-14l-45 -5q-33 -4 -40 -23.5t6 -56.5l94 -302l118 405h36l125 -405l86 265q14 44 14 67q0 24 -14.5 35t-47.5 16l-29 4v14
q37 -1 109 -1t108 1v-14l-21 -4q-37 -6 -57.5 -31t-43.5 -95l-116 -344h-29z" />
    <glyph glyph-name="Wdieresis" unicode="&#x1e84;" horiz-adv-x="1007" 
d="M478 798q0 -22 -14.5 -36.5t-36.5 -14.5q-21 0 -35.5 14.5t-14.5 36.5q0 21 14.5 35.5t35.5 14.5q22 0 36.5 -14.5t14.5 -35.5zM671 798q0 -22 -14.5 -36.5t-36.5 -14.5q-21 0 -35.5 14.5t-14.5 36.5q0 21 14.5 35.5t35.5 14.5q22 0 36.5 -14.5t14.5 -35.5zM292 -5
l-177 569q-16 51 -34 70t-56 25l-35 6v14q51 -1 155 -1q102 0 153 1v-14l-55 -7q-40 -5 -51 -25.5t1 -52.5l143 -485l166 587h43l182 -587l125 426q21 78 9 103.5t-68 34.5l-37 6v14q44 -1 131 -1t130 1v-14l-29 -6q-49 -9 -69.5 -36t-44.5 -108l-129 -428l-25 -92h-38
l-185 590l-142 -494l-25 -96h-38z" />
    <glyph glyph-name="wdieresis" unicode="&#x1e85;" horiz-adv-x="768" 
d="M348 667q0 -22 -14.5 -36.5t-35.5 -14.5t-36 14.5t-15 36.5q0 21 15 35.5t36 14.5t35.5 -14t14.5 -36zM541 667q0 -22 -14.5 -36.5t-35.5 -14.5t-36 14.5t-15 36.5q0 21 15 35.5t36 14.5t35.5 -14t14.5 -36zM378 397l-119 -405h-29l-131 391q-14 42 -31 59t-47 21l-26 3
v14q43 -1 129 -1t129 1v-14l-45 -5q-33 -4 -40 -23.5t6 -56.5l94 -302l118 405h36l125 -405l86 265q14 44 14 67q0 24 -14.5 35t-47.5 16l-29 4v14q37 -1 109 -1t108 1v-14l-21 -4q-37 -6 -57.5 -31t-43.5 -95l-116 -344h-29z" />
    <glyph glyph-name="Ygrave" unicode="&#x1ef2;" horiz-adv-x="679" 
d="M403 747h-7q-123 61 -180 123v2h88q39 -61 99 -125zM501 0q-28 0 -82.5 0.5t-81.5 0.5q-29 0 -83 -0.5t-82 -0.5v14l60 7q41 5 53.5 19.5t12.5 47.5v177l-179 315q-25 44 -44 59.5t-53 20.5l-32 5v14q51 -1 154 -1t154 1v-14l-57 -7q-71 -9 -37 -71l162 -292l126 221
q41 72 41 100q0 19 -14.5 28.5t-50.5 14.5l-35 6v14q43 -1 128 -1t128 1v-14l-27 -5q-43 -8 -72 -37.5t-79 -114.5l-136 -234v-186q0 -33 12.5 -47.5t53.5 -19.5l60 -7v-14z" />
    <glyph glyph-name="ygrave" unicode="&#x1ef3;" horiz-adv-x="537" 
d="M322 578h-6q-105 75 -165 169v3h80q29 -77 91 -172zM296 28q-33 -87 -62.5 -143t-55.5 -82t-46.5 -35t-46.5 -9q-37 0 -60.5 21t-23.5 54q0 25 15.5 42t42.5 17q22 0 35 -13t13 -32q0 -21 -14.5 -35t-14.5 -20q0 -14 21 -14q80 0 160 206l5 13l-164 385
q-18 44 -33.5 59.5t-45.5 19.5l-26 4v14q43 -1 129 -1q82 0 126 1v-14l-45 -5q-34 -4 -39.5 -23.5t10.5 -54.5l121 -305l104 276q17 45 17 67q0 18 -13 27.5t-45 13.5l-29 4v14q36 -1 106 -1q69 0 105 1v-14l-20 -3q-38 -6 -59 -30t-45 -86z" />
    <glyph glyph-name="endash" unicode="&#x2013;" horiz-adv-x="499" 
d="M25 225v31h449v-31h-449z" />
    <glyph glyph-name="emdash" unicode="&#x2014;" horiz-adv-x="917" 
d="M25 225v31h867v-31h-867z" />
    <glyph glyph-name="quoteleft" unicode="&#x2018;" horiz-adv-x="239" 
d="M174 738l9 -14q-42 -26 -66 -61.5t-24 -69.5q0 -15 12 -15q5 0 15.5 3.5t19.5 3.5q22 0 35.5 -13t13.5 -36q0 -24 -16.5 -39.5t-42.5 -15.5q-32 0 -50 23.5t-18 63.5q0 52 30.5 96t81.5 74z" />
    <glyph glyph-name="quoteright" unicode="&#x2019;" horiz-adv-x="246" 
d="M70 473l-9 14q42 26 66 61.5t24 69.5q0 15 -12 15q-5 0 -15.5 -3.5t-19.5 -3.5q-22 0 -35.5 13t-13.5 36q0 24 16.5 39.5t42.5 15.5q32 0 50 -23.5t18 -63.5q0 -103 -112 -170z" />
    <glyph glyph-name="quotesinglbase" unicode="&#x201a;" horiz-adv-x="246" 
d="M73 -162l-9 14q42 26 66 61.5t24 69.5q0 15 -12 15q-5 0 -15.5 -3.5t-19.5 -3.5q-22 0 -35.5 13t-13.5 36q0 24 16.5 39.5t42.5 15.5q32 0 50 -23.5t18 -63.5q0 -52 -30.5 -96t-81.5 -74z" />
    <glyph glyph-name="quotedblleft" unicode="&#x201c;" horiz-adv-x="404" 
d="M339 738l9 -14q-42 -26 -66 -61.5t-24 -69.5q0 -15 12 -15q5 0 15.5 3.5t19.5 3.5q22 0 35.5 -13t13.5 -36q0 -24 -16.5 -39.5t-42.5 -15.5q-32 0 -50 23.5t-18 63.5q0 52 30.5 96t81.5 74zM174 738l9 -14q-42 -26 -66 -61.5t-24 -69.5q0 -15 12 -15q5 0 15.5 3.5
t19.5 3.5q22 0 35.5 -13t13.5 -36q0 -24 -16.5 -39.5t-42.5 -15.5q-32 0 -50 23.5t-18 63.5q0 52 30.5 96t81.5 74z" />
    <glyph glyph-name="quotedblright" unicode="&#x201d;" horiz-adv-x="411" 
d="M235 473l-9 14q42 26 66 61.5t24 69.5q0 15 -12 15q-5 0 -15.5 -3.5t-19.5 -3.5q-22 0 -35.5 13t-13.5 36q0 24 16.5 39.5t42.5 15.5q32 0 50 -23.5t18 -63.5q0 -103 -112 -170zM70 473l-9 14q42 26 66 61.5t24 69.5q0 15 -12 15q-5 0 -15.5 -3.5t-19.5 -3.5
q-22 0 -35.5 13t-13.5 36q0 24 16.5 39.5t42.5 15.5q32 0 50 -23.5t18 -63.5q0 -103 -112 -170z" />
    <glyph glyph-name="quotedblbase" unicode="&#x201e;" horiz-adv-x="411" 
d="M238 -162l-9 14q42 26 66 61.5t24 69.5q0 15 -12 15q-5 0 -15.5 -3.5t-19.5 -3.5q-22 0 -35.5 13t-13.5 36q0 24 16.5 39.5t42.5 15.5q32 0 50 -23.5t18 -63.5q0 -52 -30.5 -96t-81.5 -74zM73 -162l-9 14q42 26 66 61.5t24 69.5q0 15 -12 15q-5 0 -15.5 -3.5t-19.5 -3.5
q-22 0 -35.5 13t-13.5 36q0 24 16.5 39.5t42.5 15.5q32 0 50 -23.5t18 -63.5q0 -52 -30.5 -96t-81.5 -74z" />
    <glyph glyph-name="dagger" unicode="&#x2020;" horiz-adv-x="457" 
d="M232 149h-7q-2 113 -16.5 189.5t-14.5 87.5q0 27 14.5 65t16.5 62q-35 -2 -71.5 -19t-52.5 -17q-21 0 -32 11.5t-11 28.5t11 29t32 12q16 0 52.5 -17t71.5 -19q-2 34 -19.5 71t-17.5 53q0 21 11.5 32t28.5 11q18 0 29.5 -11t11.5 -32q0 -16 -17 -53t-19 -71q35 2 71 19
t53 17q20 0 31.5 -11.5t11.5 -28.5q0 -18 -11 -29.5t-32 -11.5q-17 0 -53 17t-71 19q1 -25 15.5 -62.5t14.5 -64.5q0 -11 -14.5 -87.5t-16.5 -189.5z" />
    <glyph glyph-name="daggerdbl" unicode="&#x2021;" horiz-adv-x="457" 
d="M232 23h-7q-2 107 -16.5 181.5t-14.5 83.5q0 23 15 54.5t16 53.5q-35 -2 -71.5 -19.5t-52.5 -17.5q-21 0 -32 12t-11 29t11 28.5t32 11.5q16 0 52.5 -17t71.5 -19q-2 20 -14 44.5t-12 39.5q0 16 12 40.5t14 44.5q-35 -2 -71.5 -19.5t-52.5 -17.5q-21 0 -32 11.5t-11 29.5
q0 17 11 28.5t32 11.5q16 0 52.5 -17t71.5 -19q-2 29 -19.5 60.5t-17.5 45.5q0 21 11.5 31.5t28.5 10.5q18 0 29.5 -10.5t11.5 -31.5q0 -13 -17 -45t-19 -61q35 2 71 19.5t53 17.5q20 0 31.5 -12t11.5 -29t-11 -28.5t-32 -11.5q-17 0 -53 17t-71 19q1 -21 13 -45t12 -40
t-12 -39.5t-13 -44.5q35 2 71 19t53 17q20 0 31.5 -12t11.5 -29t-11 -28.5t-32 -11.5q-17 0 -53 17.5t-71 19.5q1 -22 15.5 -54t14.5 -54q0 -9 -14.5 -83.5t-16.5 -181.5z" />
    <glyph glyph-name="bullet" unicode="&#x2022;" horiz-adv-x="423" 
d="M342 241q0 -55 -38.5 -93t-93.5 -38t-92.5 38t-37.5 93t37.5 93t92.5 38t93.5 -38t38.5 -93z" />
    <glyph glyph-name="ellipsis" unicode="&#x2026;" horiz-adv-x="655" 
d="M177 52q0 -27 -18 -43t-42 -16t-41.5 16.5t-17.5 42.5q0 27 17.5 43t41.5 16q25 0 42.5 -16.5t17.5 -42.5zM375 52q0 -27 -18 -43t-42 -16t-41.5 16.5t-17.5 42.5q0 27 17.5 43t41.5 16q25 0 42.5 -16.5t17.5 -42.5zM574 52q0 -27 -18 -43t-42 -16t-41.5 16.5t-17.5 42.5
q0 27 17.5 43t41.5 16q25 0 42.5 -16.5t17.5 -42.5z" />
    <glyph glyph-name="perthousand" unicode="&#x2030;" horiz-adv-x="992" 
d="M337 496q0 -66 -43 -106t-108 -40q-66 0 -109 39.5t-43 105.5t43 106t108 40q66 0 109 -39.5t43 -105.5zM46 0l267 318l253 308h34l-271 -322l-249 -304h-34zM186 367q43 0 68 34t25 95q0 60 -25.5 94t-68.5 34t-68.5 -34t-25.5 -95q0 -60 26 -94t69 -34zM806 -10
q-66 0 -108.5 39t-42.5 106t42.5 106t107.5 39q66 0 109.5 -38.5t43.5 -105.5t-43 -106.5t-109 -39.5zM471 -10q-66 0 -108.5 39t-42.5 106t42.5 106t107.5 39q66 0 109.5 -38.5t43.5 -105.5t-43 -106.5t-109 -39.5zM806 7q43 0 68.5 34t25.5 95q0 60 -25.5 93.5t-69.5 33.5
q-43 0 -68 -33.5t-25 -94.5q0 -60 25.5 -94t68.5 -34zM471 7q43 0 68.5 34t25.5 95q0 60 -25.5 93.5t-69.5 33.5q-43 0 -68 -33.5t-25 -94.5q0 -60 25.5 -94t68.5 -34z" />
    <glyph glyph-name="guilsinglleft" unicode="&#x2039;" horiz-adv-x="316" 
d="M233 49l-180 182v18l180 183h16l-120 -192l120 -191h-16z" />
    <glyph glyph-name="guilsinglright" unicode="&#x203a;" horiz-adv-x="316" 
d="M263 231l-180 -182h-16l120 191l-120 192h16l180 -183v-18z" />
    <glyph glyph-name="asterism" unicode="&#x2042;" horiz-adv-x="750" 
d="M298 424q-8 -33 -40 -25q-13 4 -19 15t-2 26q3 10 24 39.5t36 76.5q-45 -14 -74.5 -37t-39.5 -26q-15 -4 -27 2t-16 20q-8 32 25 40q9 3 46.5 -0.5t84.5 7.5q-34 32 -69 48t-42 23q-10 10 -10.5 23.5t9.5 23.5q22 22 48 -3q6 -7 21 -41t47 -69q10 49 6 84t-1 45
q10 33 40 25q14 -3 20 -14.5t2 -26.5q-3 -10 -24.5 -39.5t-36.5 -75.5q45 14 75.5 36.5t39.5 25.5q14 4 26 -2t16 -19q4 -14 -3 -25.5t-22 -15.5q-9 -2 -46.5 1t-83.5 -8q34 -32 68.5 -48t41.5 -23q24 -22 1 -47q-10 -10 -23.5 -9t-23.5 12q-7 7 -22 41.5t-47 69.5
q-9 -51 -5.5 -85.5t0.5 -44.5zM581 128q-8 -33 -40 -25q-13 4 -19 15t-2 26q3 10 24 39.5t36 76.5q-45 -14 -74.5 -37t-39.5 -26q-15 -4 -27 2t-16 20q-8 32 25 40q9 3 46.5 -0.5t84.5 7.5q-34 32 -69 48t-42 23q-10 10 -10.5 23.5t9.5 23.5q23 22 48 -3q6 -7 21 -41t47 -69
q10 49 6 84t-1 45q10 33 40 25q14 -3 20 -14.5t2 -26.5q-3 -10 -24.5 -39.5t-36.5 -75.5q45 14 75.5 36.5t39.5 25.5q14 4 26 -2t16 -19q4 -14 -3 -25.5t-22 -15.5q-9 -2 -46.5 1t-83.5 -8q34 -32 68.5 -48t41.5 -23q24 -22 1 -47q-10 -10 -23.5 -9t-23.5 12q-7 7 -22 41.5
t-47 69.5q-9 -51 -5.5 -85.5t0.5 -44.5zM182 22q-8 -33 -40 -25q-13 4 -19 15t-2 26q3 10 24 39.5t36 76.5q-45 -14 -74.5 -37t-39.5 -26q-15 -4 -27 2t-16 20q-8 32 25 40q9 3 46.5 -0.5t84.5 7.5q-34 32 -69 48t-42 23q-10 10 -10.5 23.5t9.5 23.5q22 22 48 -3
q6 -7 21 -41t47 -69q10 49 6 84t-1 45q10 33 40 25q14 -3 20 -14.5t2 -26.5q-3 -10 -24.5 -39.5t-36.5 -75.5q45 14 75.5 36.5t39.5 25.5q14 4 26 -2t16 -19q4 -14 -3 -25.5t-22 -15.5q-9 -2 -46.5 1t-83.5 -8q34 -32 68.5 -48t41.5 -23q24 -22 1 -47q-10 -10 -23.5 -9
t-23.5 12q-7 7 -22 41.5t-47 69.5q-9 -51 -5.5 -85.5t0.5 -44.5z" />
    <glyph glyph-name="fraction" unicode="&#x2044;" horiz-adv-x="673" 
d="M109 -15l-29 19l250 341l234 349l30 -19l-251 -340z" />
    <glyph glyph-name="zero.sups" unicode="&#x2070;" horiz-adv-x="393" 
d="M352 678q0 -83 -43 -135t-112 -52t-112 52t-43 135t43 135.5t112 52.5t112 -52.5t43 -135.5zM108 678q0 -172 89 -172t89 172q0 173 -89 173t-89 -173z" />
    <glyph glyph-name="four.sups" unicode="&#x2074;" horiz-adv-x="345" 
d="M184 627v126l2 61l-136 -186zM303 514v-14h-181v13l52 10q10 1 10 10v76h-152l-5 17l168 230h49v-230h25q20 0 30 23l12 37h13l-10 -77h-70v-76q0 -9 10 -10z" />
    <glyph glyph-name="five.sups" unicode="&#x2075;" horiz-adv-x="332" 
d="M141 491q-47 0 -76 18.5t-29 46.5q0 16 11 27t27 11q15 0 24.5 -9t9.5 -23q0 -15 -8.5 -23t-20.5 -8q17 -25 61 -25q42 0 66 27.5t24 76.5q0 90 -72 90q-37 0 -72 -37l-29 3l26 190h18q42 -16 96 -16q61 0 86 21l10 -6q-28 -66 -114 -66q-53 0 -86 10l-15 -110
q37 27 91 27t90.5 -25t36.5 -79q0 -57 -45.5 -89t-109.5 -32z" />
    <glyph glyph-name="six.sups" unicode="&#x2076;" horiz-adv-x="364" 
d="M326 612q0 -55 -40.5 -88t-99.5 -33q-62 0 -101 40.5t-39 122.5q0 99 49 155.5t125 56.5q45 0 72 -17t27 -44q0 -16 -10 -26t-25 -10t-24.5 9t-9.5 23q0 13 8.5 22t20.5 9q-17 19 -56 19q-116 0 -117 -209q18 80 101 80q52 0 85.5 -28.5t33.5 -81.5zM115 607
q0 -46 19 -73.5t54 -27.5q73 0 73 103q0 94 -67 94q-37 0 -58 -26t-21 -70z" />
    <glyph glyph-name="seven.sups" unicode="&#x2077;" horiz-adv-x="312" 
d="M144 496q-36 0 -36 35q0 29 23.5 82.5t56.5 102.5q19 28 69 91h-158q-16 0 -23.5 -4.5t-12.5 -18.5l-12 -35h-14l18 121h13q0 -14 16 -14h209v-20q-61 -84 -78 -127q-25 -62 -31 -169q-3 -44 -40 -44z" />
    <glyph glyph-name="eight.sups" unicode="&#x2078;" horiz-adv-x="363" 
d="M180 491q-62 0 -99.5 23.5t-37.5 67.5q0 35 24.5 59t63.5 33q-72 34 -72 95q0 43 35 70t91 27q57 0 89.5 -22t32.5 -62q0 -28 -21.5 -48t-54.5 -29q90 -36 90 -106q0 -50 -39 -79t-102 -29zM217 710l1 1q41 23 41 74q0 31 -18.5 48.5t-54.5 17.5t-57 -17.5t-21 -42.5
q0 -20 15.5 -35.5t33 -23t49.5 -18.5l9 -3zM180 506q42 0 64.5 18.5t22.5 48.5q0 33 -25 51.5t-75 35.5l-21 8q-52 -28 -52 -87q0 -35 22.5 -55t63.5 -20z" />
    <glyph glyph-name="nine.sups" unicode="&#x2079;" horiz-adv-x="363" 
d="M251 750q0 46 -18.5 73.5t-53.5 27.5q-73 0 -73 -103q0 -94 67 -94q36 0 57 26t21 70zM147 491q-45 0 -72.5 17t-27.5 44q0 16 10.5 26t25.5 10t24.5 -9t9.5 -23q0 -13 -8.5 -22t-20.5 -9q17 -19 55 -19q115 0 116 208q-17 -79 -99 -79q-52 0 -85.5 28.5t-33.5 81.5
q0 55 40 88t100 33q61 0 100 -40.5t39 -122.5q0 -100 -49 -156t-124 -56z" />
    <glyph glyph-name="plus.sups" unicode="&#x207a;" horiz-adv-x="371" 
d="M199 666v-124h-27v124h-124v27h124v124h27v-124h125v-27h-125z" />
    <glyph glyph-name="minus.sups" unicode="&#x207b;" horiz-adv-x="371" 
d="M48 666v27h276v-27h-276z" />
    <glyph glyph-name="equal.sups" unicode="&#x207c;" horiz-adv-x="371" 
d="M48 725v27h276v-27h-276zM48 606v26h276v-26h-276z" />
    <glyph glyph-name="parenleft.sups" unicode="&#x207d;" horiz-adv-x="264" 
d="M238 415l-10 -10q-152 112 -152 273v4q0 161 152 273l10 -11q-42 -32 -71.5 -101t-29.5 -161v-4q0 -92 29.5 -161.5t71.5 -101.5z" />
    <glyph glyph-name="parenright.sups" unicode="&#x207e;" horiz-adv-x="264" 
d="M36 405l-10 10q42 32 71.5 101.5t29.5 161.5v4q0 92 -29.5 161t-71.5 101l10 11q152 -112 152 -273v-4q0 -161 -152 -273z" />
    <glyph glyph-name="n.sups" unicode="&#x207f;" horiz-adv-x="469" 
d="M221 514v-14h-181v14l50 11q12 2 12 15v251q0 14 -14 15l-52 4v13l101 23l20 -5l-6 -125q10 59 43.5 96t86.5 37q49 0 75 -27.5t26 -79.5v-202q0 -13 11 -15l50 -11v-14h-180v14l48 11q11 2 11 15v202q0 85 -59 85q-45 0 -73.5 -49.5t-28.5 -121.5v-116q0 -13 12 -15z
" />
    <glyph glyph-name="zero.sinf" unicode="&#x2080;" horiz-adv-x="393" 
d="M352 14q0 -83 -43 -135t-112 -52t-112 52t-43 135t43 135.5t112 52.5t112 -52.5t43 -135.5zM108 14q0 -172 89 -172t89 172q0 173 -89 173t-89 -173z" />
    <glyph glyph-name="one.sinf" unicode="&#x2081;" horiz-adv-x="307" 
d="M55 -164v14l67 9q9 1 9 10v262q0 13 -6 18t-25 7l-46 5v11l55 5q52 6 65 19h20q-3 -42 -3 -63v-264q0 -9 10 -10l64 -9v-14h-210z" />
    <glyph glyph-name="two.sinf" unicode="&#x2082;" horiz-adv-x="341" 
d="M288 -164h-243l-2 26q94 79 128 120q59 70 59 129q0 76 -70 76q-30 0 -53.5 -15.5t-31.5 -38.5l13 4q14 0 22.5 -8t8.5 -21q0 -15 -10 -24t-25 -9q-16 0 -26 10.5t-10 28.5q0 36 33.5 62t87.5 26t90 -24t36 -71q0 -37 -26 -70t-75 -70q-85 -64 -106 -81h151q16 0 23 4
t11 17l12 34h13z" />
    <glyph glyph-name="three.sinf" unicode="&#x2083;" horiz-adv-x="347" 
d="M140 -173q-49 0 -77.5 18.5t-28.5 46.5q0 16 10.5 27t26.5 11t25.5 -9.5t9.5 -23.5t-9 -22.5t-21 -8.5q20 -24 61 -24q46 0 76 28t30 76q0 79 -62 79q-21 0 -43 -13t-32 -13q-19 0 -21 23q29 12 78 16q64 30 64 89q0 60 -64 60q-55 0 -74 -38l5 2q13 0 22 -8.5t9 -21.5
q0 -14 -10 -23.5t-24 -9.5q-17 0 -27.5 10.5t-10.5 28.5q0 31 33 53t83 22q53 0 86.5 -20t33.5 -55t-29.5 -54.5t-86.5 -37.5h6l24 1q45 0 75 -22.5t30 -66.5q0 -55 -52.5 -87.5t-115.5 -32.5z" />
    <glyph glyph-name="four.sinf" unicode="&#x2084;" horiz-adv-x="345" 
d="M184 -37v126l2 61l-136 -186zM303 -150v-14h-181v13l52 10q10 1 10 10v76h-152l-5 17l168 230h49v-230h25q20 0 30 23l12 37h13l-10 -77h-70v-76q0 -9 10 -10z" />
    <glyph glyph-name="five.sinf" unicode="&#x2085;" horiz-adv-x="332" 
d="M141 -173q-47 0 -76 18.5t-29 46.5q0 16 11 27t27 11q15 0 24.5 -9t9.5 -23q0 -15 -8.5 -23t-20.5 -8q17 -25 61 -25q42 0 66 27.5t24 76.5q0 90 -72 90q-37 0 -72 -37l-29 3l26 190h18q42 -16 96 -16q61 0 86 21l10 -6q-28 -66 -114 -66q-53 0 -86 10l-15 -110
q37 27 91 27t90.5 -25t36.5 -79q0 -57 -45.5 -89t-109.5 -32z" />
    <glyph glyph-name="six.sinf" unicode="&#x2086;" horiz-adv-x="364" 
d="M326 -52q0 -55 -40.5 -88t-99.5 -33q-62 0 -101 40.5t-39 122.5q0 99 49 155.5t125 56.5q45 0 72 -17t27 -44q0 -16 -10 -26t-25 -10t-24.5 9t-9.5 23q0 13 8.5 22t20.5 9q-17 19 -56 19q-116 0 -117 -209q18 80 101 80q52 0 85.5 -28.5t33.5 -81.5zM115 -57
q0 -46 19 -73.5t54 -27.5q73 0 73 103q0 94 -67 94q-37 0 -58 -26t-21 -70z" />
    <glyph glyph-name="seven.sinf" unicode="&#x2087;" horiz-adv-x="312" 
d="M144 -168q-36 0 -36 35q0 29 23.5 82.5t56.5 102.5q19 28 69 91h-158q-16 0 -23.5 -4.5t-12.5 -18.5l-12 -35h-14l18 121h13q0 -14 16 -14h209v-20q-61 -84 -78 -127q-25 -62 -31 -169q-3 -44 -40 -44z" />
    <glyph glyph-name="eight.sinf" unicode="&#x2088;" horiz-adv-x="363" 
d="M180 -173q-62 0 -99.5 23.5t-37.5 67.5q0 35 24.5 59t63.5 33q-72 34 -72 95q0 43 35 70t91 27q57 0 89.5 -22t32.5 -62q0 -28 -21.5 -48t-54.5 -29q90 -36 90 -106q0 -50 -39 -79t-102 -29zM217 46l1 1q41 23 41 74q0 31 -18.5 48.5t-54.5 17.5t-57 -17.5t-21 -42.5
q0 -20 15.5 -35.5t33 -23t49.5 -18.5l9 -3zM180 -158q42 0 64.5 18.5t22.5 48.5q0 33 -25 51.5t-75 35.5l-21 8q-52 -28 -52 -87q0 -35 22.5 -55t63.5 -20z" />
    <glyph glyph-name="nine.sinf" unicode="&#x2089;" horiz-adv-x="363" 
d="M251 86q0 46 -18.5 73.5t-53.5 27.5q-73 0 -73 -103q0 -94 67 -94q36 0 57 26t21 70zM147 -173q-45 0 -72.5 17t-27.5 44q0 16 10.5 26t25.5 10t24.5 -9t9.5 -23q0 -13 -8.5 -22t-20.5 -9q17 -19 55 -19q115 0 116 208q-17 -79 -99 -79q-52 0 -85.5 28.5t-33.5 81.5
q0 55 40 88t100 33q61 0 100 -40.5t39 -122.5q0 -100 -49 -156t-124 -56z" />
    <glyph glyph-name="parenleft.sinf" unicode="&#x208d;" horiz-adv-x="264" 
d="M238 -249l-10 -10q-152 112 -152 273v4q0 161 152 273l10 -11q-42 -32 -71.5 -101t-29.5 -161v-4q0 -92 29.5 -161.5t71.5 -101.5z" />
    <glyph glyph-name="parenright.sinf" unicode="&#x208e;" horiz-adv-x="264" 
d="M36 -259l-10 10q42 32 71.5 101.5t29.5 161.5v4q0 92 -29.5 161t-71.5 101l10 11q152 -112 152 -273v-4q0 -161 -152 -273z" />
    <glyph glyph-name="franc" unicode="&#x20a3;" horiz-adv-x="590" 
d="M347 14v-14q-27 0 -82 0.5t-82 0.5q-28 0 -81.5 -0.5t-80.5 -0.5v14l58 7q38 5 50 18.5t12 44.5v457q0 31 -12 45t-50 19l-58 7v14h515l13 -221h-18q-13 48 -21.5 75t-19.5 53.5t-21 38t-25.5 21.5t-34 12.5t-45.5 2.5h-146v-281h78q49 0 69 29.5t39 119.5h15
q-1 -52 -1 -158q0 -105 1 -158h-15q-19 90 -39 119.5t-69 29.5h-78v-218q0 -34 13.5 -49.5t54.5 -20.5z" />
    <glyph glyph-name="Euro" unicode="&#x20ac;" horiz-adv-x="578" 
d="M510 -11l-28 66q-57 -71 -156 -71q-92 0 -155 63t-82 175l-76 14v12l71 13q-2 32 -2 49q0 19 2 47l-72 13v12l76 16q18 118 82 181.5t155 63.5q100 0 157 -71l28 66h10v-246h-17q-30 133 -72.5 184.5t-104.5 51.5q-137 0 -156 -234h199l-7 -25l-194 -6q-1 -17 -1 -53
t1 -52h169l-7 -24l-160 -7q20 -228 157 -228q64 0 103.5 51.5t72.5 172.5h17v-234h-10z" />
    <glyph glyph-name="litre" unicode="&#x2113;" horiz-adv-x="457" 
d="M255 -12q-122 0 -122 123v110q-43 -27 -82 -47l-8 16q53 27 90 52v331q0 55 31.5 86.5t83.5 31.5q53 0 82.5 -33t29.5 -97q0 -153 -149 -282v-170q0 -52 16 -73.5t50 -21.5q64 0 91 105l15 -3q-16 -67 -46 -97.5t-82 -30.5zM211 303l11 10q116 113 116 246q0 99 -71 99
q-56 0 -56 -76v-279z" />
    <glyph glyph-name="servicemark" unicode="&#x2120;" horiz-adv-x="816" 
d="M519 365l-87 201l-23 60h-2v-223q0 -12 12 -15l41 -9v-13h-128v13l42 9q12 3 12 15v244q0 9 -9 11l-45 8v13h101l83 -194l25 -68h2l115 262h98v-8l-40 -8q-9 -1 -9 -11v-254q0 -10 9 -11l40 -8v-13h-149v13l44 8q9 1 9 11v232h-2l-118 -265h-21zM285 450q0 -46 -30.5 -70
t-78.5 -24q-61 0 -93 39l-11 -36h-12v125h15l13 -37q13 -37 33.5 -55.5t56.5 -18.5q34 0 55.5 16.5t21.5 44.5q0 31 -19.5 44t-70.5 27q-51 15 -75 36.5t-24 57.5q0 42 29.5 66t73.5 24q55 0 83 -35l11 32h11v-109h-16l-8 27q-21 68 -81 68q-34 0 -52.5 -16.5t-18.5 -41.5
q0 -29 20 -41.5t72 -27.5q51 -15 73 -36.5t22 -58.5z" />
    <glyph glyph-name="trademark" unicode="&#x2122;" horiz-adv-x="871" 
d="M281 379v-13h-162v13l47 8q10 1 10 11v262h-54q-17 0 -24.5 -5.5t-11.5 -20.5l-14 -58h-16l4 103h280l3 -103h-15l-15 58q-7 26 -37 26h-53v-262q0 -10 10 -11zM574 365l-87 201l-23 60h-2v-223q0 -12 12 -15l41 -9v-13h-128v13l42 9q12 3 12 15v244q0 9 -9 11l-45 8v13
h101l83 -194l25 -68h2l115 262h98v-8l-40 -8q-9 -1 -9 -11v-254q0 -10 9 -11l40 -8v-13h-149v13l44 8q9 1 9 11v232h-2l-118 -265h-21z" />
    <glyph glyph-name="ohm" unicode="&#x2126;" horiz-adv-x="742" 
d="M75 0v30h224q-93 61 -158.5 150.5t-65.5 201.5q0 77 25.5 138t68 98t94 56.5t108.5 19.5t108.5 -19.5t94 -56.5t68 -98t25.5 -138q0 -112 -65.5 -201.5t-158.5 -150.5h224v-30h-251v33q172 152 172 350q0 140 -62 218t-155 78t-155 -78t-62 -218q0 -198 172 -350v-33
h-251z" />
    <glyph glyph-name="estimated" unicode="&#x212e;" horiz-adv-x="755" 
d="M595 351v247q-79 76 -212 76q-137 0 -225 -94v-229h437zM662 144q-98 -158 -290 -158q-146 0 -239 97.5t-93 256.5q0 156 98 254t245 98q149 0 239.5 -88t90.5 -243q0 -21 -1 -31h-554v-239q84 -87 217 -87q175 0 270 152z" />
    <glyph glyph-name="arrowleft" unicode="&#x2190;" horiz-adv-x="900" 
d="M438 12l-6 -6q-130 127 -320 222q-12 6 -12 12t12 12q190 95 320 222l6 -7q-43 -62 -113.5 -124t-132.5 -91q237 0 608 14v-52q-345 13 -608 13q62 -29 132.5 -91t113.5 -124z" />
    <glyph glyph-name="arrowup" unicode="&#x2191;" horiz-adv-x="900" 
d="M476 -108h-52q14 371 14 608q-29 -62 -91.5 -133t-124.5 -114l-6 7q128 131 222 319q6 13 12 13t12 -13q94 -188 222 -319l-6 -7q-62 43 -124.5 114t-91.5 133q0 -237 14 -608z" />
    <glyph glyph-name="arrowright" unicode="&#x2192;" horiz-adv-x="900" 
d="M468 6l-6 6q43 62 113.5 124t132.5 91q-264 0 -608 -13v52q371 -14 608 -14q-62 29 -132.5 91t-113.5 124l6 7q130 -127 320 -222q12 -6 12 -12t-12 -12q-190 -95 -320 -222z" />
    <glyph glyph-name="arrowdown" unicode="&#x2193;" horiz-adv-x="900" 
d="M462 -100q-6 -12 -12 -12t-12 12q-95 190 -222 320l6 6q62 -43 124.5 -114t91.5 -132q0 237 -14 608h52q-14 -371 -14 -608q29 61 91.5 132t124.5 114l6 -6q-127 -130 -222 -320z" />
    <glyph glyph-name="arrownorthwest" unicode="&#x2196;" horiz-adv-x="900" 
d="M708 14l-37 -37q-257 276 -420 439q23 -64 29.5 -158.5t-7.5 -167.5h-9q-3 187 -69 383q-5 13 0 17q4 4 17 0q201 -68 383 -69v-9q-74 -14 -168 -7.5t-158 29.5q173 -175 439 -420z" />
    <glyph glyph-name="arrownortheast" unicode="&#x2197;" horiz-adv-x="900" 
d="M230 -23l-38 37q260 240 440 420q-64 -23 -158.5 -29.5t-167.5 7.5v9q182 2 383 69q12 5 17 0q3 -3 0 -17q-68 -201 -69 -383h-10q-13 72 -7 167.5t30 158.5q-147 -146 -420 -439z" />
    <glyph glyph-name="arrowsoutheast" unicode="&#x2198;" horiz-adv-x="900" 
d="M705 -24q-3 -4 -17 1q-196 66 -383 69v9q74 14 168 7.5t158 -29.5q-192 192 -439 420l37 37q220 -239 420 -440q-23 65 -29.5 159t7.5 168h9q3 -187 69 -383q5 -14 0 -18z" />
    <glyph glyph-name="arrowsouthwest" unicode="&#x2199;" horiz-adv-x="900" 
d="M212 -23q-13 -5 -17 -1q-5 4 0 18q66 196 69 383h9q14 -74 7.5 -168t-29.5 -159q200 201 420 440l37 -37q-247 -228 -439 -420q64 23 158 29.5t168 -7.5v-9q-187 -3 -383 -69z" />
    <glyph glyph-name="partialdiff" unicode="&#x2202;" horiz-adv-x="607" 
d="M327 -15q-99 0 -159.5 66.5t-60.5 172.5q0 105 61.5 172t154.5 67q76 0 137 -41q-33 246 -186 246q-58 0 -129 -33l-8 13q80 41 152 41q126 0 191.5 -99.5t65.5 -289.5q0 -152 -63 -233.5t-156 -81.5zM325 0q72 0 107 78.5t35 213.5q0 48 -3 90q-54 64 -136 64
q-71 0 -106.5 -63t-35.5 -162q0 -95 35 -158t104 -63z" />
    <glyph glyph-name="increment" unicode="&#x2206;" horiz-adv-x="724" 
d="M25 0l310 679h54l310 -679h-674zM73 30h527l-262 580z" />
    <glyph glyph-name="product" unicode="&#x220f;" horiz-adv-x="771" 
d="M224 -115v717h-164v77h651v-77h-164v-717h-30v717h-263v-717h-30z" />
    <glyph glyph-name="summation" unicode="&#x2211;" horiz-adv-x="549" 
d="M499 -85v-30h-457v28l282 366l-268 375v25h438v-30h-338l236 -332l-312 -402h419z" />
    <glyph glyph-name="minus" unicode="&#x2212;" horiz-adv-x="550" 
d="M56 225v30h438v-30h-438z" />
    <glyph glyph-name="radical" unicode="&#x221a;" horiz-adv-x="618" 
d="M314 -12h-36l-130 492l-112 -49l-12 28l188 81l111 -439l235 664h32z" />
    <glyph glyph-name="infinity" unicode="&#x221e;" horiz-adv-x="583" 
d="M439 117q44 0 76.5 35.5t32.5 93.5t-33 91.5t-83 33.5q-77 0 -126 -84q12 -26 13 -30q26 -71 51.5 -105.5t68.5 -34.5zM151 110q74 0 126 84q-6 11 -13 30q-14 35 -23.5 55.5t-24 42.5t-32 32t-40.5 10q-44 0 -76.5 -35.5t-32.5 -93.5t33 -91.5t83 -33.5zM572 246
q0 -67 -41.5 -111.5t-106.5 -44.5q-90 0 -138 85q-53 -86 -134 -86q-62 0 -101.5 39.5t-39.5 106.5q0 68 41 112t107 44q89 0 137 -85q54 86 135 86q62 0 101.5 -39.5t39.5 -106.5z" />
    <glyph glyph-name="integral" unicode="&#x222b;" horiz-adv-x="440" 
d="M63 -237v25q54 0 79 26.5t25 86.5v729q0 71 37.5 107t107.5 36q45 0 82 -13l-8 -21q-32 10 -62 10q-42 0 -61 -28.5t-19 -89.5v-718q0 -80 -45 -115t-136 -35z" />
    <glyph glyph-name="approxequal" unicode="&#x2248;" horiz-adv-x="527" 
d="M86 280h-24q0 46 24.5 72.5t71.5 26.5q42 0 119.5 -35.5t115.5 -35.5q67 0 70 72h25q0 -47 -24.5 -73t-71.5 -26q-43 0 -120 35.5t-115 35.5q-68 0 -71 -72zM86 101h-24q0 47 24.5 73.5t71.5 26.5q42 0 119.5 -35.5t115.5 -35.5q34 0 51.5 16.5t18.5 54.5h25
q0 -46 -24.5 -72.5t-71.5 -26.5q-43 0 -120 36t-115 36q-68 0 -71 -73z" />
    <glyph glyph-name="notequal" unicode="&#x2260;" horiz-adv-x="550" 
d="M217 130l-87 -127l-25 16l76 111h-125v30h145l110 160h-255v30h275l88 128l24 -17l-76 -111h127v-30h-147l-110 -160h257v-30h-277z" />
    <glyph glyph-name="lessequal" unicode="&#x2264;" horiz-adv-x="550" 
d="M475 0h-415v29h389l-388 195v31l401 204l13 -26l-386 -193l386 -194v-46z" />
    <glyph glyph-name="greaterequal" unicode="&#x2265;" horiz-adv-x="550" 
d="M490 0h-415v46l386 194l-386 193l13 26l401 -204v-31l-388 -195h389v-29z" />
    <glyph glyph-name="blackuppointingtriangle" unicode="&#x25b2;" 
d="M60 47l240 415l240 -415h-480z" />
    <glyph glyph-name="blackrightpointingtriangle" unicode="&#x25b6;" 
d="M116 0v480l415 -240z" />
    <glyph glyph-name="blackdownpointingtriangle" unicode="&#x25bc;" 
d="M299 18l-239 415h480z" />
    <glyph glyph-name="blackleftpointingtriangle" unicode="&#x25c0;" 
d="M484 0l-415 240l415 240v-480z" />
    <glyph glyph-name="lozenge" unicode="&#x25ca;" horiz-adv-x="631" 
d="M294 0l-243 340l243 339h34l244 -339l-244 -340h-34zM311 28l224 312l-224 313l-223 -313z" />
    <glyph glyph-name="blacklowerrighttriangle" unicode="&#x25e2;" 
d="M192 8l-124 464l464 -124z" />
    <glyph glyph-name="blacklowerlefttriangle" unicode="&#x25e3;" 
d="M68 8l124 464l340 -340z" />
    <glyph glyph-name="blackupperlefttriangle" unicode="&#x25e4;" 
d="M532 8l-463 124l339 340z" />
    <glyph glyph-name="blackupperrighttriangle" unicode="&#x25e5;" 
d="M408 8l-339 340l463 124z" />
    <glyph glyph-name="heart" unicode="&#x2665;" horiz-adv-x="793" 
d="M396 509q26 185 167 185q81 0 127 -52t46 -136q0 -56 -38 -122t-88 -120.5t-114 -132t-100 -141.5q-36 64 -99.5 141.5t-113.5 132t-88 120.5t-38 122q0 84 46 136t127 52q144 0 166 -185z" />
    <glyph glyph-name="Rcedilla" unicode="&#xe001;" horiz-adv-x="676" 
d="M681 0h-120q-33 0 -45 8.5t-26 35.5l-138 277q-24 -3 -51 -3q-36 0 -81 3v-234q0 -33 12 -47t52 -19l59 -7v-14q-27 0 -80 0.5t-80 0.5t-79.5 -0.5t-80.5 -0.5v14l57 7q39 5 51 19t12 45v509q0 31 -12 45t-51 19l-57 7v14h276q282 0 282 -179q0 -65 -46.5 -106
t-116.5 -57q19 -24 39 -61l90 -172q24 -47 41 -62t57 -22l36 -6v-14zM220 662v-322q39 -4 82 -4q192 0 192 164q0 90 -46 126t-148 36h-80zM460 -150q0 -45 -34 -68.5t-81 -23.5q-52 0 -93 25l8 12q32 -16 65 -16q35 0 54 19t19 55q0 59 -52 59q-18 0 -38 -8l-4 8
q34 17 68 17q36 0 62 -20.5t26 -58.5z" />
    <glyph glyph-name="rcedilla" unicode="&#xe002;" horiz-adv-x="411" 
d="M16 0v14l38 5q34 5 45 17.5t11 45.5v301q0 33 -12.5 44.5t-52.5 14.5l-40 3v12l156 35l16 -6q-10 -126 -10 -303q0 83 25 178q37 136 135 136q33 0 52 -18.5t19 -45.5q0 -26 -16 -41t-39 -15t-35.5 13t-12.5 34q0 4 0.5 11t0.5 9q0 12 -11 12q-23 0 -44 -26.5t-36 -74.5
q-26 -88 -26 -172v-98q0 -35 11.5 -48.5t47.5 -17.5l42 -5v-14q-22 0 -67.5 0.5t-68.5 0.5q-22 0 -64 -0.5t-64 -0.5zM124 -242q-52 0 -93 25l8 12q32 -16 65 -16q35 0 54 19t19 55q0 59 -52 59q-18 0 -38 -8l-4 8q34 17 68 17q36 0 62 -20.5t26 -58.5q0 -45 -34 -68.5
t-81 -23.5z" />
    <glyph glyph-name="Tcedilla" unicode="&#xe003;" horiz-adv-x="660" 
d="M494 14v-14q-28 0 -82 0.5t-82 0.5t-82 -0.5t-82 -0.5v14l60 7q40 5 52.5 19.5t12.5 47.5v573h-89q-73 0 -99.5 -36t-59.5 -175h-15l8 229h588l8 -229h-15q-32 138 -59.5 174.5t-100.5 36.5h-88v-573q0 -33 12.5 -47.5t52.5 -19.5zM421 -150q0 -45 -34 -68.5t-81 -23.5
q-52 0 -93 25l8 12q32 -16 65 -16q35 0 54 19t19 55q0 59 -52 59q-18 0 -38 -8l-4 8q34 17 68 17q36 0 62 -20.5t26 -58.5z" />
    <glyph glyph-name="tcedilla" unicode="&#xe004;" horiz-adv-x="358" 
d="M333 116q-16 -67 -46 -97.5t-82 -30.5q-115 0 -115 122v336l-95 11v15l47 7q40 4 55 19t23 56l12 73h35l-6 -147h167v-23l-167 -6v-342q0 -52 16 -73.5t50 -21.5q64 0 90 105zM276 -150q0 -45 -34 -68.5t-81 -23.5q-52 0 -93 25l8 12q32 -16 65 -16q35 0 54 19t19 55
q0 59 -52 59q-18 0 -38 -8l-4 8q34 17 68 17q36 0 62 -20.5t26 -58.5z" />
    <glyph glyph-name="commaaccent" unicode="&#xf6c3;" horiz-adv-x="406" 
d="M174 -251l-9 14q74 39 74 104q-11 -21 -36 -21q-19 0 -32.5 13t-13.5 33q0 21 14.5 36t36.5 15q27 0 41.5 -17.5t14.5 -46.5q0 -83 -90 -130z" />
    <glyph glyph-name="s_t" unicode="&#xfb06;" horiz-adv-x="785" 
d="M374 128q0 -65 -45.5 -104t-116.5 -39q-90 0 -143 53l-25 -52h-8v204h19q20 -96 56.5 -143t100.5 -47q48 0 77 25.5t29 69.5q0 46 -30.5 72t-99.5 50q-67 24 -103 56t-36 89q0 56 44 94.5t101 38.5q50 0 80 -24q-38 58 -38 131q0 74 51 127t137 53q78 0 123 -49.5
t45 -126.5q0 -14 -5 -126h168v-23l-168 -6v-342q0 -52 16.5 -73.5t50.5 -21.5q64 0 90 105l16 -3q-16 -67 -46.5 -97.5t-82.5 -30.5q-114 0 -114 122v336l-95 11v15l55 8q38 4 55 30q24 36 24 102q0 69 -33.5 111.5t-98.5 42.5q-78 0 -124 -48.5t-46 -116.5t32.5 -117
t91.5 -101q-6 -28 -30 -28q-10 0 -17.5 6.5t-11.5 13t-12 23t-12 24.5q-32 58 -93 58q-43 0 -69.5 -24.5t-26.5 -63.5q0 -42 29.5 -65t96.5 -47q68 -24 105 -58t37 -94z" />
    <glyph glyph-name="A.small" horiz-adv-x="576" 
d="M578 14v-14q-22 0 -62 0.5t-61 0.5t-61.5 -0.5t-61.5 -0.5v14l41 5q32 4 39 17.5t-5 41.5l-35 89h-222l-16 -40q-23 -59 -18 -79.5t45 -27.5l37 -6v-14q-17 0 -49 0.5t-49 0.5t-51 -0.5t-51 -0.5v14l24 5q33 7 50 27t43 85l127 318l27 76h39l173 -435q16 -41 29 -54
t39 -17zM261 452l-104 -267h208z" />
    <glyph glyph-name="B.small" horiz-adv-x="527" 
d="M21 0v14l44 6q31 4 40.5 13.5t9.5 34.5v387q0 24 -9.5 34t-40.5 14l-44 5v14h237q207 0 207 -120q0 -53 -45 -85.5t-120 -40.5v-2q192 -9 192 -129q0 -71 -59.5 -108t-162.5 -37h-249zM187 282h63q72 0 104 30t32 90q0 61 -32 81.5t-102 20.5h-65v-222zM187 265v-203
q0 -24 12 -34t40 -10h27q73 0 108 30t35 99q0 64 -39.5 91t-119.5 27h-63z" />
    <glyph glyph-name="C.small" horiz-adv-x="563" 
d="M489 -9l-29 63q-60 -67 -162 -67q-110 0 -186 75.5t-76 198.5t76.5 199t186.5 76q102 0 162 -68l28 63h8v-215h-15q-31 112 -75.5 157.5t-106.5 45.5q-85 0 -132.5 -67.5t-47.5 -190.5q0 -121 47 -189t132 -68q66 0 109.5 46t73.5 147h15v-206h-8z" />
    <glyph glyph-name="D.small" horiz-adv-x="586" 
d="M21 0v14l44 6q31 4 40.5 13.5t9.5 34.5v387q0 24 -9.5 34t-40.5 14l-44 5v14h244q126 0 205.5 -67.5t79.5 -193.5t-79 -193.5t-206 -67.5h-244zM239 18h26q202 0 202 243t-202 243h-78v-442q0 -24 12 -34t40 -10z" />
    <glyph glyph-name="E.small" horiz-adv-x="516" 
d="M481 184l-10 -184h-450v14l44 6q31 4 40.5 13.5t9.5 34.5v387q0 24 -9.5 34t-40.5 14l-44 5v14h426l10 -169h-15q-29 98 -52.5 124.5t-84.5 26.5h-118v-226h68q39 0 56 22.5t33 91.5h12q-1 -41 -1 -123t1 -123h-12q-16 69 -32.5 91.5t-56.5 22.5h-68v-198q0 -24 12 -34
t40 -10h77q67 0 93.5 29t57.5 137h14z" />
    <glyph glyph-name="F.small" horiz-adv-x="488" 
d="M288 14v-14q-22 0 -66.5 0.5t-67.5 0.5t-67 -0.5t-66 -0.5v14l44 6q31 4 40.5 13.5t9.5 33.5v388q0 24 -9.5 34t-40.5 14l-44 5v14h427l9 -174h-14q-30 100 -54 128t-84 28h-118v-228h64q39 0 56 22.5t33 91.5h12q-1 -41 -1 -122q0 -82 1 -124h-12q-16 70 -32.5 92
t-56.5 22h-64v-186q0 -26 11 -37t44 -15z" />
    <glyph glyph-name="G.small" horiz-adv-x="591" 
d="M494 -11l-33 68q-57 -70 -167 -70q-111 0 -184.5 76t-73.5 198t77.5 198.5t187.5 76.5q102 0 160 -68l29 62h7v-214h-14q-31 112 -75 157t-106 45q-85 0 -133.5 -67.5t-48.5 -189.5q0 -123 45.5 -190t131.5 -67q62 0 98.5 31t36.5 81v51q0 25 -11.5 36t-41.5 15l-49 7v14
q44 -1 128 -1q88 0 132 1v-14l-46 -7q-28 -4 -37 -13.5t-9 -32.5v-79l3 -104h-7z" />
    <glyph glyph-name="H.small" horiz-adv-x="650" 
d="M629 0q-22 0 -64 0.5t-65 0.5q-22 0 -64.5 -0.5t-64.5 -0.5v14l43 6q31 4 40 14t9 34v189h-276v-189q0 -25 9 -34.5t40 -13.5l44 -6v-14q-22 0 -64.5 0.5t-64.5 0.5q-23 0 -65.5 -0.5t-64.5 -0.5v14l44 6q31 4 40.5 13.5t9.5 34.5v387q0 24 -9.5 34t-40.5 14l-44 5v14
q22 0 64.5 -0.5t65.5 -0.5q22 0 64.5 0.5t64.5 0.5v-14l-44 -5q-31 -4 -40 -14t-9 -34v-178h276v178q0 24 -9 34t-40 14l-43 5v14q22 0 64.5 -0.5t64.5 -0.5q23 0 65 0.5t64 0.5v-13l-44 -6q-31 -4 -40 -14t-9 -34v-387q0 -25 9 -34.5t40 -13.5l44 -6v-14z" />
    <glyph glyph-name="I.small" horiz-adv-x="302" 
d="M21 0v14l44 6q31 4 40.5 13.5t9.5 34.5v387q0 24 -9.5 34t-40.5 14l-44 5v14q23 0 65.5 -0.5t64.5 -0.5q23 0 65.5 0.5t64.5 0.5v-14l-44 -5q-31 -4 -40.5 -14t-9.5 -34v-387q0 -25 9.5 -34.5t40.5 -13.5l44 -6v-14q-22 0 -64.5 0.5t-65.5 0.5q-22 0 -64.5 -0.5
t-65.5 -0.5z" />
    <glyph glyph-name="J.small" horiz-adv-x="433" 
d="M329 180q0 -93 -52.5 -143t-132.5 -50q-60 0 -97 31t-37 78q0 29 14.5 46t39.5 17q20 0 32 -11.5t12 -30.5q0 -36 -41 -42q-14 -1 -14 -16q0 -20 24 -37.5t65 -17.5q117 0 117 136v310q0 26 -11 37.5t-44 15.5l-47 6v13q23 0 67 -0.5t66 -0.5q23 0 66.5 0.5t65.5 0.5v-14
l-44 -5q-31 -4 -40 -14t-9 -34v-275z" />
    <glyph glyph-name="K.small" horiz-adv-x="595" 
d="M590 0q-22 0 -66 0.5t-66 0.5q-23 0 -67.5 -0.5t-66.5 -0.5v14l28 4q42 4 42 18q0 13 -33 48l-169 183l159 151q51 48 51 64q0 10 -9 14.5t-33 8.5l-30 4v13q39 -1 117 -1t117 1v-14l-27 -4q-44 -7 -79.5 -27t-91.5 -72l-112 -102l191 -207q41 -45 62 -58.5t58 -19.5
l25 -4v-14zM21 0v14l44 6q31 4 40.5 13t9.5 34v388q0 24 -9.5 34t-40.5 14l-44 5v14q23 0 65.5 -0.5t64.5 -0.5q23 0 65.5 0.5t64.5 0.5v-14l-44 -5q-31 -4 -40.5 -14t-9.5 -34v-388q0 -25 9.5 -34t40.5 -13l43 -6v-14q-22 0 -64.5 0.5t-64.5 0.5q-23 0 -65 -0.5t-65 -0.5z
" />
    <glyph glyph-name="L.small" horiz-adv-x="514" 
d="M21 0v14l44 6q31 4 40.5 13.5t9.5 34.5v387q0 24 -9.5 34t-40.5 14l-44 5v14q22 0 66 -0.5t67 -0.5q22 0 66 0.5t67 0.5v-13l-48 -6q-33 -4 -42.5 -14t-9.5 -36v-391q0 -24 12 -34t40 -10h84q60 0 89 33.5t58 144.5h14l-9 -196h-454z" />
    <glyph glyph-name="M.small" horiz-adv-x="760" 
d="M340 -2l-204 484v-372q0 -51 11.5 -67.5t49.5 -22.5l32 -6v-14q-18 0 -52 0.5t-52 0.5t-52 -0.5t-52 -0.5v14l31 6q38 7 49.5 23t11.5 67v345q0 25 -8.5 34.5t-39.5 13.5l-44 5v14h177l184 -436l183 436h174v-14l-44 -6q-31 -4 -40.5 -13.5t-9.5 -33.5v-387
q0 -25 9.5 -34.5t40.5 -13.5l44 -6v-14q-22 0 -64.5 0.5t-65.5 0.5t-65 -0.5t-65 -0.5v14l44 6q31 4 40.5 13.5t9.5 34.5v418l-204 -488h-29z" />
    <glyph glyph-name="N.small" horiz-adv-x="621" 
d="M465 -2l-329 469v-357q0 -51 11.5 -67.5t49.5 -22.5l32 -6v-14q-18 0 -52 0.5t-52 0.5t-52 -0.5t-52 -0.5v14l31 6q38 7 49.5 23.5t11.5 66.5v344q0 25 -8.5 35t-39.5 14l-44 5v14h165l305 -430v321q0 51 -11.5 67t-49.5 23l-32 5v14q18 0 52.5 -0.5t51.5 -0.5
q18 0 52 0.5t52 0.5v-14l-31 -5q-38 -7 -49.5 -23t-11.5 -67v-415h-49z" />
    <glyph glyph-name="O.small" horiz-adv-x="603" 
d="M567 261q0 -122 -76 -198t-189 -76q-114 0 -190 76t-76 198q0 123 76 199t190 76q113 0 189 -76t76 -199zM118 261q0 -116 47 -186.5t137 -70.5q89 0 136 70.5t47 186.5t-46.5 187t-136.5 71t-137 -71t-47 -187z" />
    <glyph glyph-name="P.small" horiz-adv-x="505" 
d="M187 506v-254q40 -2 67 -2q69 0 107.5 32t38.5 96q0 68 -37 98t-116 30h-60zM288 13v-13q-22 0 -66.5 0.5t-67.5 0.5t-67 -0.5t-66 -0.5v13l44 5q31 4 40.5 14t9.5 34v390q0 24 -9.5 34t-40.5 14l-44 6v12h226q232 0 232 -143q0 -71 -61.5 -108t-160.5 -37q-34 0 -70 3
v-166q0 -26 11 -37.5t44 -15.5z" />
    <glyph glyph-name="Q.small" horiz-adv-x="603" 
d="M601 -216q-39 0 -74 14.5t-62 35t-54 40.5t-60 34.5t-69 14.5q-34 0 -62 -13.5t-52.5 -30.5t-40.5 -22q-33 -11 -49 21q41 34 122 48q48 25 174 79q-42 -15 -80 -15q-109 0 -183.5 74.5t-74.5 196.5q0 123 76 199t190 76q113 0 189 -76t76 -199q0 -86 -40 -150.5
t-104 -96.5q-20 -9 -90.5 -39.5t-112.5 -52.5q41 17 88 17q58 0 115 -22.5t107 -45t92 -22.5q51 0 77 20t35 66h13q-18 -151 -146 -151zM118 261q0 -116 47 -186.5t137 -70.5q89 0 136 70.5t47 186.5t-46.5 187t-136.5 71t-137 -71t-47 -187z" />
    <glyph glyph-name="R.small" horiz-adv-x="556" 
d="M556 0h-102q-28 0 -38.5 7.5t-22.5 31.5l-106 207q-22 -2 -38 -2q-30 0 -62 2v-177q0 -25 9.5 -35t41.5 -14l45 -6v-14q-22 0 -65 0.5t-65 0.5q-23 0 -66 -0.5t-66 -0.5v14l44 6q31 4 40.5 13.5t9.5 34.5v387q0 24 -9.5 34t-40.5 14l-44 5v14h228q227 0 227 -137
q0 -51 -37 -82t-93 -42q15 -14 35 -51l71 -131q17 -33 32 -45t46 -16l26 -4v-14zM187 505v-241q44 -2 63 -2q74 0 110 29.5t36 92.5q0 69 -35 95t-113 26h-61z" />
    <glyph glyph-name="S.small" horiz-adv-x="467" 
d="M420 138q0 -72 -51 -111.5t-123 -39.5q-100 0 -157 59l-26 -55h-8v213h16q22 -110 64.5 -155t110.5 -45q55 0 86.5 26.5t31.5 74.5q0 49 -34.5 75.5t-106.5 51.5q-77 26 -117.5 63t-40.5 95q0 68 48 107t119 39q87 0 135 -56l24 51h8v-202h-15q-23 103 -58 146.5
t-94 43.5q-52 0 -82.5 -26t-30.5 -69q0 -48 35.5 -75t108.5 -52q77 -26 117 -60.5t40 -98.5z" />
    <glyph glyph-name="T.small" horiz-adv-x="537" 
d="M404 14v-14q-23 0 -68 0.5t-67 0.5q-23 0 -67.5 -0.5t-67.5 -0.5v14l46 6q33 4 43 14t10 36v434h-65q-57 0 -80 -28t-51 -133h-12l6 179h476l5 -179h-12q-28 105 -51 133t-80 28h-64v-434q0 -26 9.5 -36t42.5 -14z" />
    <glyph glyph-name="U.small" horiz-adv-x="624" 
d="M520 183q0 -92 -51.5 -143t-155.5 -51q-96 0 -150 44.5t-54 150.5v271q0 24 -9.5 34t-40.5 14l-44 5v14q23 0 65.5 -0.5t64.5 -0.5q23 0 65.5 0.5t64.5 0.5v-14l-44 -5q-31 -4 -40.5 -14t-9.5 -34v-273q0 -91 41 -127.5t115 -36.5q80 0 120 43t40 122v230q0 51 -11 67.5
t-50 22.5l-31 6v13q18 0 52 -0.5t52 -0.5t51.5 0.5t52.5 0.5v-13l-32 -6q-38 -7 -49.5 -23t-11.5 -67v-230z" />
    <glyph glyph-name="V.small" horiz-adv-x="576" 
d="M269 -3l-171 435q-16 40 -30 53.5t-42 18.5l-30 5v13q42 -1 127 -1t127 1v-13l-41 -5q-32 -4 -40.5 -18t2.5 -42l142 -372l126 324q23 60 17 80.5t-48 26.5l-36 5v14q35 -1 104 -1t104 1v-14l-23 -4q-37 -7 -55 -28t-44 -86l-125 -316l-27 -77h-37z" />
    <glyph glyph-name="W.small" horiz-adv-x="817" 
d="M236 -4l-141 435q-13 40 -27.5 54t-44.5 19l-27 4v14q42 -1 128 -1q84 0 126 1v-14l-43 -5q-31 -4 -39.5 -18.5t1.5 -40.5l109 -356l130 436h41l141 -437l95 309q18 62 9 81.5t-54 25.5l-29 4v15q35 -1 105 -1q71 0 105 1v-15l-22 -3q-39 -7 -56.5 -28t-37.5 -84
l-99 -316l-23 -80h-36l-144 438l-108 -356l-22 -82h-37z" />
    <glyph glyph-name="X.small" horiz-adv-x="622" 
d="M616 0q-22 0 -66 0.5t-67 0.5t-67.5 -0.5t-66.5 -0.5v14l42 5q31 4 36.5 16t-13.5 38l-122 166l-99 -124q-39 -49 -39 -69q0 -11 12.5 -16.5t44.5 -10.5l29 -5v-14q-20 0 -59 0.5t-58 0.5q-20 0 -59 -0.5t-58 -0.5v14l20 4q47 9 75.5 28.5t77.5 79.5l103 127l-132 176
q-33 43 -51 56.5t-45 17.5l-30 5v14q43 -1 129 -1t130 1v-14l-41 -5q-30 -4 -33.5 -17t14.5 -36l110 -150l86 108q39 50 39 69q0 12 -11 17t-43 10l-28 4v14q38 -1 113 -1q76 0 114 1v-14l-22 -4q-45 -8 -72.5 -27t-76.5 -80l-89 -110l142 -191q34 -45 53.5 -59t48.5 -18
l29 -5v-14z" />
    <glyph glyph-name="Y.small" horiz-adv-x="556" 
d="M410 0q-23 0 -67.5 0.5t-66.5 0.5q-23 0 -67.5 -0.5t-67.5 -0.5v14l46 6q33 4 43 14t10 36v131l-142 244q-20 34 -34.5 45t-41.5 15l-26 3v14q42 -1 128 -1q85 0 127 1v-14l-44 -5q-31 -4 -37 -17.5t8 -36.5l125 -218l97 164q33 56 33 78q0 14 -11.5 20.5t-39.5 10.5
l-28 4v14q34 -1 103 -1t103 1v-14l-21 -4q-34 -6 -57.5 -28.5t-63.5 -88.5l-106 -178v-139q0 -26 9.5 -36t42.5 -14l46 -6v-14z" />
    <glyph glyph-name="Z.small" horiz-adv-x="513" 
d="M468 0h-436v14l348 490h-174q-62 0 -89 -28.5t-56 -132.5h-15l9 179h415v-14l-349 -490h188q65 0 94.5 32t59.5 140h14z" />
    <glyph glyph-name="zero.lp" horiz-adv-x="616" 
d="M568 340q0 -159 -71 -257t-189 -98t-188.5 97.5t-70.5 257.5q0 159 70.5 256.5t188.5 97.5t189 -97.5t71 -256.5zM131 340q0 -101 17 -174.5t57.5 -119.5t101.5 -46q92 0 135 92.5t43 247.5q0 100 -17 173.5t-58 119.5t-103 46q-90 0 -133 -92.5t-43 -246.5z" />
    <glyph glyph-name="one.lp" horiz-adv-x="449" 
d="M69 0v14l55 7q41 6 55 21.5t14 52.5v447q0 49 -13.5 64.5t-63.5 18.5l-53 3v15l50 3q124 8 140 33h15q-4 -60 -4 -137v-447q0 -37 13 -52.5t56 -21.5l55 -7v-14q-29 0 -81 0.5t-78 0.5t-78.5 -0.5t-81.5 -0.5z" />
    <glyph glyph-name="two.lp" horiz-adv-x="526" 
d="M443 0h-393v24q103 93 197 204q141 169 141 292q0 159 -122 159q-68 0 -109 -47.5t-41 -112.5q0 -90 58 -90q50 0 65 83l13 -1q-16 -118 -106 -118q-40 0 -68.5 30t-28.5 81q0 83 63 136.5t153 53.5q87 0 144.5 -45.5t57.5 -133.5q0 -41 -15 -80t-48.5 -81.5t-61 -71
t-78.5 -77.5q-96 -92 -162 -150q54 9 120 9h138q39 0 54.5 11t29.5 49l17 48h16z" />
    <glyph glyph-name="three.lp" horiz-adv-x="522" 
d="M487 218q0 -71 -44.5 -126t-107 -81t-127.5 -26q-84 0 -131 33.5t-47 83.5q0 28 16 47.5t44 19.5q21 0 34.5 -12.5t13.5 -33.5q0 -26 -20.5 -41t-20.5 -25q0 -20 28.5 -38.5t81.5 -18.5q87 0 144.5 60.5t57.5 151.5q0 155 -114 155q-25 0 -47.5 -9t-36 -20.5t-29 -20.5
t-28.5 -9q-31 0 -31 34q15 8 69 23t81 31q102 62 102 165q0 118 -112 118q-66 0 -103.5 -40.5t-37.5 -92.5q0 -69 52 -69q44 0 58 75l13 -2q-17 -109 -101 -109q-37 0 -62 25.5t-25 66.5q0 69 59.5 115t147.5 46q80 0 134 -34t54 -99q0 -64 -54 -106t-171 -94q45 21 96 21
q29 0 55.5 -8t52 -25.5t41 -51t15.5 -79.5z" />
    <glyph glyph-name="four.lp" horiz-adv-x="542" 
d="M468 14v-14q-24 0 -69 0.5t-70 0.5t-72 -0.5t-71 -0.5v14l53 7q33 4 44 17t11 44v135h-277l-7 23l22 1h262v213q0 112 5 175l-267 -388l-22 -1l302 439h53v-438h31q38 0 55.5 14.5t33.5 63.5l15 45h13l-23 -150q-93 3 -101 3h-24v-137q0 -30 10.5 -42.5t44.5 -16.5z" />
    <glyph glyph-name="five.lp" horiz-adv-x="525" 
d="M209 -15q-82 0 -129.5 32.5t-47.5 85.5q0 29 16.5 47.5t43.5 18.5q21 0 34.5 -12.5t13.5 -33.5q0 -25 -20.5 -40t-20.5 -26q0 -21 28 -39t82 -18q85 0 138.5 60t53.5 152q0 194 -138 194q-44 0 -80 -21t-58 -59l-42 4l32 352h23q70 -24 172 -24q53 0 99.5 9.5t63.5 24.5
l6 -3q-20 -38 -61 -62.5t-92 -32.5t-101 -7.5t-98 9.5l-23 -236q67 62 162 62q90 0 151.5 -50.5t61.5 -153.5q0 -71 -42 -126t-102.5 -81t-125.5 -26z" />
    <glyph glyph-name="six.lp" horiz-adv-x="560" 
d="M119 208q0 95 52 155t137 60q92 0 151.5 -57.5t59.5 -154.5q0 -95 -69.5 -160.5t-164.5 -65.5q-106 0 -172.5 76.5t-66.5 226.5q0 190 83.5 298t212.5 108q77 0 121.5 -32.5t44.5 -79.5q0 -29 -15.5 -47t-42.5 -18q-21 0 -35 12.5t-14 33.5q0 24 19.5 40t19.5 27
q0 18 -24.5 33.5t-72.5 15.5q-114 0 -169 -116t-55 -355zM285 0q76 0 114.5 60t38.5 150q0 88 -35.5 139.5t-107.5 51.5t-117.5 -55.5t-45.5 -137.5q0 -89 39.5 -148.5t113.5 -59.5z" />
    <glyph glyph-name="seven.lp" horiz-adv-x="495" 
d="M220 -11q-49 0 -49 53q0 146 140 384q57 97 123 192h-277q-40 0 -59 -15t-34 -62l-12 -34h-16l29 194h13q1 -13 5.5 -17.5t18.5 -4.5h372v-27q-3 -4 -17 -24.5t-17.5 -26.5t-16 -24.5t-17.5 -27t-16 -25t-16.5 -28t-14 -26.5t-15 -29t-12.5 -29q-64 -151 -64 -367
q0 -26 -13 -41t-35 -15z" />
    <glyph glyph-name="eight.lp" horiz-adv-x="576" 
d="M288 -15q-103 0 -173.5 49t-70.5 141q0 76 56.5 126t142.5 62q-68 12 -115.5 55t-47.5 106q0 80 60 125t148 45t148 -45t60 -125q0 -63 -47.5 -106t-115.5 -55q86 -12 143 -62t57 -126q0 -92 -71 -141t-174 -49zM157 525q0 -71 36 -112t95 -41t95 41t36 112
q0 72 -36.5 113t-94.5 41t-94.5 -41t-36.5 -113zM127 174q0 -82 44.5 -128t116.5 -46t116.5 46t44.5 128t-44.5 129.5t-116.5 47.5q-73 0 -117 -47t-44 -130z" />
    <glyph glyph-name="nine.lp" horiz-adv-x="560" 
d="M431 472q0 89 -39.5 148t-113.5 59q-76 0 -114.5 -60t-38.5 -149t35 -140.5t108 -51.5q72 0 117.5 56t45.5 138zM221 -15q-77 0 -121.5 32.5t-44.5 80.5q0 29 15.5 46.5t42.5 17.5q21 0 35 -12.5t14 -33.5q0 -24 -19.5 -39.5t-19.5 -26.5q0 -19 24.5 -34.5t72.5 -15.5
q114 0 169 116.5t55 355.5q0 -95 -52 -155.5t-137 -60.5q-92 0 -151.5 58t-59.5 154q0 95 69.5 160.5t164.5 65.5q106 0 172.5 -76.5t66.5 -226.5q0 -190 -83.5 -298t-212.5 -108z" />
    <glyph glyph-name="zero.ot" 
d="M544 261q0 -121 -70.5 -198.5t-173.5 -77.5t-173.5 77.5t-70.5 198.5t70 198.5t174 77.5t174 -77.5t70 -198.5zM140 261q0 -114 41.5 -187.5t118.5 -73.5q76 0 118 73.5t42 187.5t-42 187.5t-118 73.5q-77 0 -118.5 -73t-41.5 -188z" />
    <glyph glyph-name="one.ot" 
d="M139 0v14l69 7q50 5 68 21.5t18 52.5v291q0 49 -16.5 64t-80.5 19l-65 3v15l60 3q143 8 162 32h17q-4 -59 -4 -136v-291q0 -37 16.5 -53t67.5 -21l69 -7v-14q-34 0 -96 0.5t-94 0.5q-31 0 -94 -0.5t-97 -0.5z" />
    <glyph glyph-name="two.ot" 
d="M489 -71h-15v26q0 26 -11.5 35.5t-38.5 9.5h-341v24q158 100 225 159q117 101 117 206q0 59 -28.5 96t-88.5 37q-68 0 -108 -45t-40 -101q0 -78 55 -78q49 0 63 80l14 -1q-15 -115 -107 -115q-40 0 -66 28t-26 72q0 72 60.5 123.5t155.5 51.5q83 0 139 -42.5t56 -112.5
q0 -64 -41.5 -111t-129.5 -105q-65 -43 -167 -106q28 5 53 5h293z" />
    <glyph glyph-name="three.ot" 
d="M530 61q0 -71 -45.5 -126t-109.5 -81t-129 -26q-82 0 -129.5 33t-47.5 84q0 28 16 47.5t44 19.5q21 0 34.5 -12.5t13.5 -33.5q0 -16 -6.5 -26.5t-14 -15t-14 -11t-6.5 -14.5q0 -21 26.5 -38.5t82.5 -17.5q88 0 147.5 60.5t59.5 151.5q0 155 -114 155q-32 0 -59 -15
t-47.5 -29.5t-35.5 -14.5q-31 0 -31 34q15 8 69.5 23t81.5 31q105 62 105 165q0 118 -114 118q-67 0 -104.5 -41t-37.5 -94q0 -67 50 -67q47 0 61 73l13 -1q-16 -108 -102 -108q-38 0 -62.5 25.5t-24.5 66.5q0 69 60.5 115t148.5 46q81 0 135 -34t54 -99q0 -64 -56 -107.5
t-172 -92.5q48 21 96 21q29 0 55.5 -8t52 -25.5t41 -51t15.5 -79.5z" />
    <glyph glyph-name="four.ot" 
d="M508 -143v-14q-25 0 -70 0.5t-69 0.5q-25 0 -72 -0.5t-72 -0.5v14l53 7q34 4 45 17t11 44v135h-279l-8 23l22 1h265v213q0 116 5 175l-270 -388l-22 -1l305 439h52v-438h30q39 0 56.5 14.5t33.5 63.5l15 45h13l-23 -150q-96 3 -101 3h-24v-137q0 -30 10.5 -42.5
t45.5 -16.5z" />
    <glyph glyph-name="five.ot" 
d="M246 -172q-85 0 -133 33t-48 84q0 28 16 47.5t44 19.5q21 0 35 -12.5t14 -33.5q0 -16 -6.5 -26.5t-14.5 -15t-14.5 -11t-6.5 -14.5q0 -21 28 -38.5t85 -17.5q87 0 142 60t55 152q0 194 -141 194q-94 0 -141 -80l-42 4l32 352h23q74 -24 175 -24q55 0 102 9.5t65 24.5
l5 -3q-20 -38 -62 -62.5t-94 -32.5t-102.5 -7.5t-99.5 9.5l-22 -236q67 62 166 62q91 0 152.5 -50.5t61.5 -153.5q0 -71 -42.5 -126t-104 -81t-127.5 -26z" />
    <glyph glyph-name="six.ot" 
d="M146 208q0 95 52.5 155t138.5 60q93 0 152.5 -57.5t59.5 -154.5q0 -95 -70 -160.5t-166 -65.5q-106 0 -173 76.5t-67 226.5q0 190 85 298t215 108q76 0 120.5 -32.5t44.5 -79.5q0 -29 -16 -47t-43 -18q-21 0 -35 12.5t-14 33.5q0 23 19.5 39.5t19.5 27.5q0 19 -23 34
t-71 15q-229 0 -229 -471zM159 208q0 -89 40 -148.5t114 -59.5q77 0 115.5 60t38.5 150q0 88 -35.5 139.5t-107.5 51.5q-73 0 -119 -55.5t-46 -137.5z" />
    <glyph glyph-name="seven.ot" 
d="M264 -168q-49 0 -49 53q0 144 145 384q48 79 130 192h-287q-41 0 -61 -15t-36 -62l-12 -34h-17l31 194h13q0 -12 4.5 -17t19.5 -5h384v-27q-39 -55 -55.5 -79.5t-45 -72t-46.5 -88.5q-70 -162 -70 -367q0 -26 -12.5 -41t-35.5 -15z" />
    <glyph glyph-name="eight.ot" 
d="M301 -15q-101 0 -171.5 49t-70.5 141q0 76 56 126t141 62q-68 12 -114.5 54.5t-46.5 105.5q0 80 60 125.5t146 45.5t146 -45.5t60 -125.5q0 -63 -46.5 -105.5t-114.5 -54.5q84 -12 140.5 -62t56.5 -126q0 -92 -70.5 -141t-171.5 -49zM172 525q0 -72 35.5 -112.5
t93.5 -40.5t94 41t36 112q0 72 -36.5 113t-93.5 41t-93 -41t-36 -113zM142 174q0 -82 44.5 -128t114.5 -46q71 0 115 46t44 128q0 83 -44 130t-115 47t-115 -47t-44 -130z" />
    <glyph glyph-name="nine.ot" 
d="M447 315q0 89 -39.5 148t-113.5 59q-76 0 -114.5 -60t-38.5 -149t35 -140.5t107 -51.5t118 56t46 138zM459 315q0 -96 -51.5 -156t-136.5 -60q-93 0 -152 58t-59 154q0 95 69.5 160.5t164.5 65.5q106 0 172 -76.5t66 -226.5q0 -190 -84.5 -298t-213.5 -108
q-77 0 -121 32.5t-44 80.5q0 29 16 46.5t43 17.5q21 0 35 -12t14 -33q0 -24 -19.5 -40.5t-19.5 -27.5q0 -18 23 -33.5t71 -15.5q115 0 171 116.5t56 355.5z" />
    <glyph glyph-name="zero.lt" 
d="M549 340q0 -160 -67.5 -257.5t-181.5 -97.5q-113 0 -180.5 98t-67.5 257t67.5 256.5t180.5 97.5q114 0 181.5 -97.5t67.5 -256.5zM134 340q0 -156 40 -248t126 -92t126.5 92.5t40.5 247.5t-40.5 247t-126.5 92t-126 -92t-40 -247z" />
    <glyph glyph-name="one.lt" 
d="M116 0v14l77 7q53 5 72.5 21.5t19.5 52.5v447q0 49 -18 64t-89 19l-70 3v15l64 3q153 8 172 33h19q-5 -56 -5 -137v-447q0 -37 17.5 -53t72.5 -21l78 -7v-14q-37 0 -104 0.5t-101 0.5t-101.5 -0.5t-103.5 -0.5z" />
    <glyph glyph-name="two.lt" 
d="M476 0h-391v24q110 102 195 203q142 167 142 297q0 155 -123 155q-68 0 -108.5 -48t-40.5 -114q0 -44 15.5 -66t42.5 -22q50 0 65 82l13 -1q-16 -117 -106 -117q-40 0 -68.5 30t-28.5 81q0 82 62.5 136t151.5 54q88 0 146.5 -45.5t58.5 -132.5q0 -33 -12.5 -67.5
t-27.5 -60t-48.5 -63.5t-53 -57.5t-63.5 -62.5q-116 -110 -160 -149q58 8 119 8h138q38 0 54 11.5t29 48.5l17 48h17z" />
    <glyph glyph-name="three.lt" 
d="M530 218q0 -70 -45.5 -125t-109.5 -81t-129 -26q-83 0 -130 32.5t-47 83.5q0 28 16 47.5t44 19.5q21 0 35 -12.5t14 -33.5q0 -16 -6.5 -26.5t-14.5 -15t-14.5 -11t-6.5 -14.5q0 -21 26.5 -38t82.5 -17q88 0 147.5 60t59.5 151q0 85 -30 120.5t-84 35.5q-42 0 -84 -30
t-57 -30q-32 0 -32 34q16 9 71 23.5t81 30.5q104 63 104 166q0 118 -113 118q-67 0 -104.5 -41.5t-37.5 -94.5q0 -67 50 -67q46 0 60 73l14 -1q-16 -108 -103 -108q-38 0 -62.5 25.5t-24.5 66.5q0 69 60.5 115.5t148.5 46.5q81 0 135 -34t54 -99t-55.5 -107.5t-172.5 -92.5
q50 20 96 20q29 0 56 -8t52.5 -25.5t40.5 -51t15 -79.5z" />
    <glyph glyph-name="four.lt" 
d="M510 14v-14q-24 0 -69 0.5t-69 0.5t-71 -0.5t-71 -0.5v14l52 6q33 4 44 17.5t11 43.5v136h-276l-8 23l22 1h262v213q0 116 5 175l-267 -388l-22 -1l302 439h52v-438h30q38 0 55.5 14.5t33.5 62.5l15 45h13l-23 -149q-96 3 -100 3h-24v-137q0 -30 10.5 -42.5t44.5 -17.5z
" />
    <glyph glyph-name="five.lt" 
d="M249 -13q-84 0 -132.5 32.5t-48.5 84.5q0 27 16.5 46.5t43.5 19.5q21 0 35 -12.5t14 -33.5q0 -26 -21 -41t-21 -26q0 -21 28 -38t85 -17q87 0 142 59.5t55 151.5q0 195 -141 195q-93 0 -141 -81l-42 4l32 352h24q72 -24 174 -24q55 0 102 9.5t65 24.5l5 -2
q-26 -51 -91 -77.5t-133.5 -25.5t-133.5 10l-22 -237q67 62 166 62q91 0 153 -50.5t62 -153.5q0 -105 -85 -168.5t-190 -63.5z" />
    <glyph glyph-name="six.lt" 
d="M146 208q0 95 52.5 155t138.5 60q93 0 152.5 -57.5t59.5 -154.5q0 -95 -70 -160.5t-166 -65.5q-106 0 -173 76.5t-67 226.5q0 190 85 298t215 108q76 0 120.5 -32.5t44.5 -79.5q0 -29 -16 -47t-43 -18q-21 0 -35 12.5t-14 33.5q0 23 19.5 39.5t19.5 27.5q0 19 -23 34
t-71 15q-229 0 -229 -471zM159 208q0 -89 40 -148.5t114 -59.5q77 0 115.5 60t38.5 150q0 88 -35.5 139.5t-107.5 51.5q-73 0 -119 -55.5t-46 -137.5z" />
    <glyph glyph-name="seven.lt" 
d="M281 -11q-49 0 -49 53q0 142 145 384q45 76 128 191h-285q-41 0 -60.5 -14.5t-35.5 -61.5l-12 -35h-17l30 195h14q0 -13 4.5 -17.5t19.5 -4.5h382v-28q-4 -5 -17.5 -24t-18 -26t-16.5 -24.5t-18 -27t-16.5 -25.5t-17 -27.5t-15 -27t-15.5 -29.5t-13 -29
q-68 -157 -68 -367q0 -26 -13 -40.5t-36 -14.5z" />
    <glyph glyph-name="eight.lt" 
d="M301 -15q-101 0 -171.5 49t-70.5 141q0 76 56 126t141 62q-68 12 -114.5 54.5t-46.5 105.5q0 80 60 125.5t146 45.5t146 -45.5t60 -125.5q0 -63 -46.5 -105.5t-114.5 -54.5q84 -12 140.5 -62t56.5 -126q0 -92 -70.5 -141t-171.5 -49zM172 525q0 -72 35.5 -112.5
t93.5 -40.5t94 41t36 112q0 72 -36.5 113t-93.5 41t-93 -41t-36 -113zM142 174q0 -82 44.5 -128t114.5 -46q71 0 115 46t44 128q0 83 -44 130t-115 47t-115 -47t-44 -130z" />
    <glyph glyph-name="nine.lt" 
d="M447 471q0 89 -39 148.5t-113 59.5q-76 0 -114 -60t-38 -150q0 -89 34 -140t107 -51q72 0 117.5 55.5t45.5 137.5zM459 471q0 -95 -51.5 -155t-136.5 -60q-93 0 -151 57.5t-58 154.5q0 96 68.5 161t164.5 65q106 0 171.5 -76.5t65.5 -226.5q0 -190 -84 -298t-213 -108
q-76 0 -120.5 32.5t-44.5 79.5q0 29 16 47t43 18q21 0 34.5 -12.5t13.5 -33.5q0 -23 -19 -39.5t-19 -27.5q0 -19 23 -34t71 -15q115 0 170.5 116.5t55.5 354.5z" />
    <glyph glyph-name="dollar.lp" horiz-adv-x="512" 
d="M257 391l40 276l-14 1q-81 0 -124.5 -38.5t-43.5 -93.5q0 -56 35.5 -87.5t106.5 -57.5zM238 8q87 0 132.5 40t45.5 96q0 62 -37.5 95.5t-112.5 59.5l-41 -290zM474 178q0 -80 -66.5 -132.5t-169.5 -52.5h-16l-16 -114h-23l17 116q-84 8 -133.5 49t-49.5 97q0 32 16 51.5
t42 19.5q21 0 34.5 -13.5t13.5 -33.5t-10.5 -31.5t-20.5 -19t-10 -17.5q0 -27 32.5 -53.5t87.5 -33.5l43 296q-95 32 -142.5 76.5t-47.5 118.5q0 81 64.5 131.5t163.5 50.5h16l9 61h22l-9 -63q74 -8 118 -45.5t44 -86.5q0 -30 -15.5 -48t-40.5 -18q-22 0 -36 13.5t-14 32.5
q0 26 21 42t21 26q0 20 -27 41t-73 27l-41 -282l14 -5q90 -33 136 -76.5t46 -123.5z" />
    <glyph glyph-name="cent.lp" horiz-adv-x="517" 
d="M206 149l97 417h-1q-79 0 -132 -63.5t-53 -164.5q0 -130 89 -189zM213 82l-34 -147h-22l36 154q-62 26 -101 84.5t-39 143.5q0 119 75.5 191.5t174.5 72.5h3l27 115h21l-27 -116q63 -5 102.5 -36t39.5 -75q0 -25 -15.5 -42.5t-40.5 -17.5q-22 0 -36.5 12.5t-14.5 33.5
q0 19 9.5 30t19 18t9.5 15q0 15 -21 29t-55 18l-98 -427q36 -18 75 -18q107 0 157 66l10 -8q-31 -49 -80.5 -77.5t-110.5 -28.5q-34 0 -64 10z" />
    <glyph glyph-name="sterling.lp" horiz-adv-x="579" 
d="M104 0q87 0 121 95q-71 53 -125 53q-35 0 -56 -20t-21 -53q0 -35 24 -55t57 -20zM520 184q31 -84 4 -139t-97 -55q-15 0 -29.5 2t-31 9.5t-25 10.5t-27.5 16.5t-22.5 16t-26.5 19.5l-23 18q-47 -97 -136 -97q-43 0 -72 24t-29 67t32.5 73t87.5 30q50 0 114 -31q7 46 7 95
q0 31 -6 91l-142 9v14l138 9q-8 72 -8 110q0 104 54 161t142 57q56 0 92.5 -27t36.5 -71q0 -28 -15 -45t-41 -17q-23 0 -37.5 13.5t-14.5 33.5q0 19 9.5 30.5t19.5 18.5t10 16q0 33 -57 33q-31 0 -53.5 -17t-35.5 -49t-19.5 -68t-9.5 -84q-1 -9 -8 -97h151v-20l-153 -5
q-8 -78 -14 -110q-8 -50 -21 -92q12 -6 37.5 -19.5t40 -20.5t35 -16t38 -13t34.5 -4q42 0 59.5 30.5t-0.5 89.5h12z" />
    <glyph glyph-name="yen.lp" horiz-adv-x="689" 
d="M506 14v-14q-28 0 -82 0.5t-82 0.5t-82 -0.5t-83 -0.5v14l60 7q41 5 53.5 19.5t12.5 47.5v84h-187v24h187v76l-3 6h-184v24h170l-162 279q-25 44 -44.5 59t-52.5 20l-32 5v14q51 -1 154 -1t154 1v-14l-57 -7q-71 -9 -37 -70l161 -286h2l125 215q41 70 41 99
q0 19 -14.5 28.5t-50.5 14.5l-34 6v14q42 -1 128 -1q85 0 127 1v-14l-27 -5q-42 -8 -71 -37t-80 -114l-123 -207h163v-24h-176v-82h176v-24h-176v-84q0 -33 12.5 -47.5t53.5 -19.5z" />
    <glyph glyph-name="euro.lp" horiz-adv-x="578" 
d="M514 -10l-29 70q-57 -75 -154 -75q-96 0 -161 70t-83 193l-71 13v12l66 13q-2 34 -2 54q0 29 1 43l-66 12v12l70 15q17 127 83 199.5t163 72.5q100 0 154 -75l29 70h10v-257h-17q-35 143 -73.5 195t-100.5 52q-147 0 -164 -260h203l-6 -24l-199 -6q-1 -16 -1 -49
q0 -39 1 -57h173l-6 -24l-165 -7q21 -252 164 -252q65 0 102 52.5t72 181.5h17v-244h-10z" />
    <glyph glyph-name="numbersign.lp" horiz-adv-x="518" 
d="M324 240l23 206h-150l-23 -206h150zM168 181l-20 -181h-23l20 181h-95l-12 59h113l23 206h-114l-13 58h133l19 175h23l-19 -175h150l19 175h23l-19 -175h92l12 -58h-110l-23 -206h111l13 -59h-130l-20 -181h-23l20 181h-150z" />
    <glyph glyph-name="florin.lp" horiz-adv-x="412" 
d="M22 -244q-57 0 -89.5 25t-32.5 62q0 27 15 44t42 17q22 0 35.5 -13t13.5 -33q0 -18 -9 -29t-17.5 -17.5t-8.5 -14.5q0 -11 14.5 -18.5t37.5 -7.5q46 0 70 36t24 126v436l-97 12v15l97 10v84q0 108 50.5 157.5t125.5 49.5q57 0 91.5 -26.5t34.5 -65.5q0 -27 -15 -43.5
t-39 -16.5q-22 0 -37 13.5t-15 33.5q0 24 19 39t19 22q0 11 -14.5 20t-42.5 9q-55 0 -81 -38t-26 -123v-119h131v-23l-131 -5v-423q0 -101 -49.5 -148t-115.5 -47z" />
    <glyph glyph-name="franc.lp" horiz-adv-x="592" 
d="M347 14v-14q-27 0 -82 0.5t-83 0.5t-81 -0.5t-80 -0.5v14l57 7q39 5 51 18.5t12 44.5v510q0 31 -12 45t-51 19l-57 7v14h525l12 -222h-17q-16 58 -26 88t-22.5 57t-28.5 37.5t-36.5 16t-53.5 5.5h-156v-304h88q49 0 69 29.5t39 119.5h15q-1 -52 -1 -158q0 -105 1 -158
h-15q-20 91 -39.5 120t-68.5 29h-88v-248q0 -34 13.5 -49.5t54.5 -20.5z" />
    <glyph glyph-name="currency.lp" horiz-adv-x="524" 
d="M465 99l-82 83q-50 -48 -121 -48t-121 48l-82 -83l-17 17l84 83q-40 50 -40 116t40 117l-84 82l17 17l82 -83q51 49 121 49t121 -49l82 83l17 -17l-84 -82q40 -51 40 -117t-40 -116l84 -83zM127 315q0 -60 38 -102t97 -42q58 0 96.5 42t38.5 102q0 61 -38 102.5t-97 41.5
t-97 -41.5t-38 -102.5z" />
    <glyph glyph-name="plus.lp" horiz-adv-x="550" 
d="M290 301v-204h-30v204h-204v30h204v202h30v-202h204v-30h-204z" />
    <glyph glyph-name="minus.lp" horiz-adv-x="550" 
d="M56 300v30h438v-30h-438z" />
    <glyph glyph-name="plusminus.lp" horiz-adv-x="550" 
d="M494 75h-438v30h204v196h-204v30h204v202h30v-202h204v-30h-204v-196h204v-30z" />
    <glyph glyph-name="multiply.lp" horiz-adv-x="550" 
d="M419 151l-144 144l-144 -144l-20 21l144 144l-144 143l20 21l144 -144l144 144l20 -21l-143 -143l143 -144z" />
    <glyph glyph-name="divide.lp" horiz-adv-x="550" 
d="M309 472q0 -16 -9.5 -25.5t-24.5 -9.5t-24.5 9.5t-9.5 25.5t9.5 25t24.5 9q34 0 34 -34zM494 300h-438v30h438v-30zM275 125q-15 0 -24.5 9t-9.5 25q0 17 9.5 26t24.5 9q34 0 34 -35q0 -34 -34 -34z" />
    <glyph glyph-name="logicalnot.lp" horiz-adv-x="550" 
d="M464 375h-408v30h438v-194h-30v164z" />
    <glyph glyph-name="equal.lp" horiz-adv-x="550" 
d="M56 395v30h438v-30h-438zM494 205h-438v30h438v-30z" />
    <glyph glyph-name="notequal.lp" horiz-adv-x="550" 
d="M220 205l-86 -125l-29 20l72 105h-121v30h142l110 160h-252v30h273l87 127l29 -20l-74 -107h123v-30h-143l-110 -160h253v-30h-274z" />
    <glyph glyph-name="approxequal.lp" horiz-adv-x="500" 
d="M86 355h-24q0 46 24.5 72.5t71.5 26.5q42 0 119.5 -35.5t115.5 -35.5q67 0 70 72h25q0 -47 -24.5 -73t-71.5 -26q-43 0 -120 35.5t-115 35.5q-68 0 -71 -72zM86 176h-24q0 47 24.5 73.5t71.5 26.5q42 0 119.5 -35.5t115.5 -35.5q34 0 51.5 16.5t18.5 54.5h25
q0 -46 -24.5 -72.5t-71.5 -26.5q-43 0 -120 36t-115 36q-68 0 -71 -73z" />
    <glyph glyph-name="less.lp" horiz-adv-x="550" 
d="M462 97l-401 203v31l401 204l13 -26l-386 -193l386 -194z" />
    <glyph glyph-name="greater.lp" horiz-adv-x="550" 
d="M489 301l-401 -204l-13 26l386 194l-386 193l13 25l401 -203v-31z" />
    <glyph glyph-name="lessequal.lp" horiz-adv-x="550" 
d="M475 76h-415v29h389l-388 195v31l401 204l13 -26l-386 -193l386 -194v-46z" />
    <glyph glyph-name="greaterequal.lp" horiz-adv-x="550" 
d="M490 76h-415v46l386 194l-386 193l13 26l401 -204v-31l-388 -195h389v-29z" />
    <glyph glyph-name="infinity.lp" horiz-adv-x="583" 
d="M439 192q44 0 76.5 35.5t32.5 93.5q0 59 -33 92t-83 33q-77 0 -126 -84q12 -26 13 -30q26 -71 51.5 -105.5t68.5 -34.5zM151 185q74 0 126 84q-6 11 -13 30q-14 35 -23.5 55.5t-24 42.5t-32 32t-40.5 10q-44 0 -76.5 -35.5t-32.5 -93.5t33 -91.5t83 -33.5zM572 321
q0 -67 -41.5 -111.5t-106.5 -44.5q-90 0 -138 85q-53 -86 -134 -86q-62 0 -101.5 39.5t-39.5 106.5q0 68 41 112t107 44q89 0 137 -85q54 86 135 86q62 0 101.5 -39.5t39.5 -106.5z" />
    <glyph glyph-name="percent.lp" horiz-adv-x="641" 
d="M340 540q0 -68 -43 -108.5t-109 -40.5q-67 0 -110.5 40t-43.5 108t43.5 108.5t109.5 40.5t109.5 -40t43.5 -108zM43 0l266 345l254 334h34l-270 -351l-250 -328h-34zM188 408q43 0 69 35t26 97q0 61 -26.5 96t-69.5 35t-69.5 -35t-26.5 -97q0 -61 26.5 -96t70.5 -35z
M455 -10q-67 0 -110.5 40t-43.5 108t43.5 108.5t109.5 40.5t109.5 -40t43.5 -108t-43 -108.5t-109 -40.5zM455 7q43 0 69 35t26 97q0 61 -26.5 96t-69.5 35t-69.5 -35t-26.5 -97q0 -61 26.5 -96t70.5 -35z" />
    <glyph glyph-name="perthousand.lp" horiz-adv-x="978" 
d="M340 540q0 -68 -43 -108.5t-109 -40.5q-67 0 -110.5 40t-43.5 108t43.5 108.5t109.5 40.5t109.5 -40t43.5 -108zM43 0l266 345l254 334h34l-270 -351l-250 -328h-34zM188 408q43 0 69 35t26 97q0 61 -26.5 96t-69.5 35t-69.5 -35t-26.5 -97q0 -61 26.5 -96t70.5 -35z
M791 -10q-66 0 -109.5 40t-43.5 108t43 108.5t109 40.5t110 -40t44 -108t-43.5 -108.5t-109.5 -40.5zM455 -10q-67 0 -110.5 40t-43.5 108t43.5 108.5t109.5 40.5t109.5 -40t43.5 -108t-43 -108.5t-109 -40.5zM791 7q43 0 69 35t26 97t-26 96.5t-70 34.5q-43 0 -69 -35
t-26 -97t26 -96.5t70 -34.5zM455 7q43 0 69 35t26 97q0 61 -26.5 96t-69.5 35t-69.5 -35t-26.5 -97q0 -61 26.5 -96t70.5 -35z" />
    </font>
</defs>
</svg>
