<?xml version="1.0" encoding="utf-8"?>
<!-- Generator: Adobe Illustrator 25.0.0, SVG Export Plug-In . SVG Version: 6.00 Build 0)  -->
<svg version="1.1" id="Layer_1" xmlns="http://www.w3.org/2000/svg" xmlns:xlink="http://www.w3.org/1999/xlink" x="0px" y="0px"
	 viewBox="0 0 120.9 46.9" style="enable-background:new 0 0 120.9 46.9;" xml:space="preserve">
<style type="text/css">
	.st0{fill:#F79623;}
</style>
<g>
	<path d="M40.6,19.6c2.2,0.6,2.9,2.3,2.9,4.3c0.1,3.9,0,7.8,0,11.8c-2,0-4,0-6.1,0c0-0.3,0-0.7,0-1c0-3.7,0-7.5,0-11.2
		c0-1.5-0.2-1.7-1.9-1.6c0,4.6,0,9.2,0,13.8c-2.1,0-4.1,0-6.2,0c0-0.3,0-0.6,0-1c0-11,0-22,0-33.1c0-0.9,0.2-1.1,1.1-1.1
		c3,0.1,6,0,9,0.1C42,0.9,43.5,2.3,43.5,5c0.1,3.5,0.1,7,0,10.5C43.5,17.5,42.8,18.3,40.6,19.6z M35.6,17.2c1.5,0.2,1.9,0,1.9-1.4
		c0-3,0-6,0-9c0-1.5-0.2-1.7-1.9-1.5C35.6,9.2,35.6,13.2,35.6,17.2z"/>
	<path d="M14.2,12c-2,0-3.9,0-5.8,0c0-0.3,0-0.7,0-1c0-1.8,0-3.5,0-5.3c0-0.6-0.3-1.1-0.9-1.1c-0.6,0-1,0.4-1,1.1c0,0.2,0,0.5,0,0.7
		c0,7.7,0,15.3,0,23c0,0.3,0,0.6,0,0.9c0,0.7,0.3,1.1,0.9,1.2c0.7,0,1-0.4,1-1.1c0-2.1,0-4.3,0-6.4c0-0.3,0-0.7,0-1c2,0,3.9,0,5.8,0
		c0,0.3,0.1,0.5,0.1,0.8c0,2.4,0,4.9,0,7.3c0,0.7-0.1,1.4-0.2,2c-0.4,1.8-1.5,2.8-3.3,2.9c-2.3,0.1-4.6,0.1-6.9-0.1
		c-2.2-0.2-3.3-1.7-3.5-3.9c0-0.5,0-0.9,0-1.4c0-8.4,0-16.8,0-25.2c0-0.7,0.1-1.5,0.2-2.2c0.3-1.7,1.3-2.8,3-2.9
		c2.3-0.2,4.7-0.3,7,0c2.4,0.2,3.6,1.7,3.7,4.2C14.3,7,14.2,9.4,14.2,12z"/>
	<path d="M115.7,15.6c1.4,0,2.7,0,4.1,0c0,1.5,0,3,0,4.6c-1.3,0-2.7,0-4.1,0c0,3.6,0,7.1,0,10.8c1.5,0,3,0,4.5,0c0,1.6,0,3.1,0,4.7
		c-3.5,0-7.1,0-10.7,0c0-11.6,0-23.3,0-35c3.5,0,7,0,10.6,0c0,1.5,0,3.1,0,4.7c-1.5,0-2.9,0-4.5,0C115.7,8.8,115.7,12.1,115.7,15.6z
		"/>
	<path d="M26.6,20.3c-1.4,0-2.7,0-4,0c0,3.6,0,7.1,0,10.7c1.5,0,3,0,4.5,0c0,1.6,0,3.1,0,4.7c-3.5,0-7,0-10.6,0c0-11.6,0-23.3,0-35
		c3.5,0,7.1,0,10.7,0c0,1.6,0,3.1,0,4.7c-1.5,0-3,0-4.5,0c0,3.4,0,6.8,0,10.2c1.3,0,2.6,0,4,0C26.6,17.2,26.6,18.7,26.6,20.3z"/>
	<path d="M104.7,35.7c-2.1,0-4,0-6.1,0c0-10.1,0-20.1,0-30.3c-1.1,0-2.2,0-3.3,0c0-1.6,0-3.2,0-4.8c4.2,0,8.4,0,12.7,0
		c0,1.5,0,3.1,0,4.7c-1,0-2.1,0-3.3,0C104.7,15.5,104.7,25.6,104.7,35.7z"/>
	<g>
		<path d="M93.7,18.2c0,4.2,0,8.3,0,12.5c0,0.6-0.1,1.2-0.2,1.8c-0.4,2.4-1.7,3.5-4.1,3.5c-2.2,0-4.3,0-6.5-0.2
			c-2-0.2-3.1-1.5-3.4-3.5c-0.1-0.7-0.1-1.4-0.1-2c0-8.2,0-16.5,0-24.7c0-0.7,0-1.4,0.2-2.1c0.3-2,1.2-3.1,3.2-3.2
			c2.3-0.2,4.7-0.3,7,0c2.6,0.3,3.8,1.9,3.8,4.7C93.7,9.4,93.7,13.8,93.7,18.2C93.7,18.2,93.7,18.2,93.7,18.2z M87.6,18.1
			c0-3.7,0-7.5,0-11.2c0-0.4,0.1-0.9,0-1.3c-0.2-0.4-0.5-0.9-0.9-1c-0.3-0.1-0.7,0.4-1,0.8c-0.1,0.2-0.1,0.5-0.1,0.7
			c0,8,0,15.9,0,23.9c0,1,0.4,1.6,1,1.6c0.9-0.1,1-0.8,1-1.5C87.5,26.1,87.5,22.1,87.6,18.1z"/>
		<path d="M62.6,0.6c2,0,4,0,6,0c0,4.7,0,9.4,0,14.1c0.1,0,0.1,0,0.2,0c0.8-4.7,1.6-9.4,2.5-14.1c2,0,3.9,0,5.9,0
			c-0.2,1-0.3,2-0.5,3c-0.8,4.5-1.7,9-2.4,13.5c-0.2,1,0.3,2.2,0.6,3.2c1.2,4.9,2.5,9.8,3.7,14.7c0,0.2,0,0.4,0,0.6
			c-2.1,0-4.1,0-6.2,0c-1.2-5.3-2.4-10.5-3.6-15.8c-0.1,0-0.1,0-0.2,0c0,5.2,0,10.5,0,15.8c-2,0-4,0-6,0
			C62.6,24.1,62.6,12.4,62.6,0.6z"/>
		<path d="M48.4,0.7c0.2,0,0.4-0.1,0.6-0.1c2.6,0,5.3,0,7.9,0c0.6,0,0.9,0.2,0.9,0.8c0.4,4.2,0.8,8.3,1.2,12.5
			c0.4,4.2,0.8,8.3,1.2,12.5c0.3,3.1,0.6,6.1,0.9,9.3c-1.9,0-3.8,0-5.8,0c-0.2-2.9-0.5-5.8-0.7-8.7c-0.1-0.1-0.2-0.1-0.3-0.1
			c-0.8,0-1.8-0.3-2.3,0.1c-0.5,0.3-0.4,1.4-0.5,2.2c-0.2,2.1-0.3,4.3-0.5,6.5c-1.9,0-3.9,0-5.9,0C46.2,24,47.3,12.4,48.4,0.7z
			 M54.1,22.1c-0.3-4.5-0.7-9-1-13.5c0,0-0.1,0-0.1,0c-0.3,4.5-0.7,8.9-1,13.5C52.7,22.1,53.4,22.1,54.1,22.1z"/>
		<rect x="0.2" y="40.6" class="st0" width="120.5" height="6.2"/>
	</g>
</g>
</svg>
