<?xml version="1.0" encoding="utf-8"?>
<!-- Generator: Adobe Illustrator 24.1.0, SVG Export Plug-In . SVG Version: 6.00 Build 0)  -->
<svg version="1.1" id="Layer_1" xmlns="http://www.w3.org/2000/svg" xmlns:xlink="http://www.w3.org/1999/xlink" x="0px" y="0px"
	 viewBox="0 0 110 90" style="enable-background:new 0 0 110 90;" xml:space="preserve">
<style type="text/css">
	.st0{fill:#FFFFFF;}
	.st1{fill-rule:evenodd;clip-rule:evenodd;fill:#FFFFFF;}
	.st2{fill:#FCFCFC;}
	.st3{display:none;}
	.st4{display:inline;}
</style>
<g>
	<g>
		<path class="st0" d="M22.33,85.59c-3.67,0-8.96-0.31-12.57-3.02c-3.32-2.49-4.59-6.51-3.57-11.33l6.86-32.52
			c0.48-2.27,1.23-4.27,2.24-5.93c1.13-1.86,2.66-3.39,4.53-4.54c1.71-1.05,3.75-1.81,6.06-2.26c2.11-0.41,4.4-0.61,7.21-0.61h9.1
			l0.01-0.49c0.02-1.02,0.15-2.07,0.39-3.13l1.39-6.15c2.09-9.26,12.02-11.2,19.98-11.2h22.57c8.62,0,13.86,2.13,16.03,6.52
			c0.97,1.95,1.21,4.26,0.7,6.69l-1.77,8.51h-0.79l0.27,0.68c1.18,2.98,0.76,6.5,0.28,9.57c-0.39,2.48-0.91,4.98-1.42,7.4
			l-0.26,1.26c-0.67,3.22-1.34,6.44-1.97,9.66c-0.84,4.31-3.28,7.7-7.05,9.78c-3.21,1.78-7.52,2.64-13.16,2.64H66.86l-1.27,6.07
			c-0.45,2.13-1.23,4.04-2.33,5.65c-1.16,1.7-2.71,3.09-4.61,4.14c-1.73,0.95-3.72,1.62-6.1,2.05c-2.16,0.39-4.5,0.57-7.35,0.57
			H22.33z M33.09,26.01c-2.73,0-5.05,0.19-7.09,0.59c-2.23,0.44-4.2,1.17-5.85,2.18c-1.79,1.1-3.24,2.55-4.32,4.33
			c-0.97,1.6-1.7,3.53-2.16,5.73L6.81,71.37c-0.68,3.23-0.66,7.7,3.33,10.69c2.59,1.95,6.58,2.89,12.19,2.89H45.2
			c2.77,0,5.14-0.18,7.24-0.56c2.27-0.4,4.26-1.07,5.9-1.98c1.82-1,3.29-2.33,4.39-3.95c1.05-1.54,1.8-3.36,2.23-5.42l1.38-6.57
			h11.04c5.53,0,9.73-0.84,12.85-2.56c3.6-1.99,5.93-5.23,6.73-9.35c0.61-3.1,1.25-6.2,1.89-9.29l0.33-1.61
			c0.5-2.42,1.03-4.92,1.42-7.4c0.58-3.66,1-7.77-1.07-10.79h1.43l1.67-8c0.48-2.32,0.26-4.43-0.65-6.27
			c-3.06-6.17-12.4-6.17-15.47-6.17H63.95c-11.09,0-17.78,3.7-19.36,10.71l-1.39,6.15c-0.31,1.39-0.43,2.83-0.35,4.12H33.09z"/>
		<path d="M86.53,3.91H63.95c-8.36,0-18.33,2.09-20.47,11.59l-1.39,6.15c-0.23,1.04-0.38,2.14-0.4,3.23h-8.61
			c-2.44,0-4.91,0.14-7.31,0.62c-2.19,0.43-4.32,1.16-6.22,2.33c-1.93,1.18-3.52,2.77-4.7,4.71c-1.14,1.87-1.85,3.95-2.3,6.09
			L5.7,71.14c-0.95,4.49-0.07,8.97,3.76,11.84c3.51,2.63,8.61,3.12,12.87,3.12H45.2c2.48,0,4.99-0.14,7.44-0.57
			c2.17-0.39,4.32-1.03,6.26-2.1c1.91-1.06,3.55-2.49,4.78-4.3c1.2-1.76,1.97-3.75,2.4-5.83l1.19-5.67v0h10.12
			c4.45,0,9.45-0.52,13.4-2.7c3.93-2.18,6.44-5.72,7.3-10.12c0.68-3.5,1.41-6.99,2.14-10.48c0.54-2.61,1.1-5.22,1.51-7.86
			c0.51-3.2,0.9-6.79-0.31-9.83h0.46l1.86-8.91c0.5-2.38,0.34-4.81-0.74-7.01C100.08,4.78,92.39,3.91,86.53,3.91L86.53,3.91z
			 M22.33,84.46c-3.85,0-8.7-0.4-11.89-2.79c-3.31-2.48-3.96-6.31-3.14-10.19l6.86-32.52c0.41-1.95,1.06-3.86,2.1-5.57
			c1.04-1.71,2.45-3.11,4.16-4.16c1.74-1.07,3.69-1.73,5.68-2.12c2.28-0.45,4.67-0.58,6.99-0.58h10.32
			c-0.18-1.54-0.01-3.17,0.29-4.51l1.39-6.15C47.03,7.23,56.41,5.54,63.95,5.54h22.57c5.12,0,12.42,0.65,15.02,5.89
			c0.93,1.87,1.03,3.93,0.61,5.95l-1.59,7.61h-2.05c0.03,0.04,0.07,0.07,0.1,0.11c2.62,2.98,2.08,7.49,1.51,11.1
			c-0.41,2.6-0.96,5.2-1.5,7.78c-0.73,3.5-1.46,6.99-2.15,10.5c-0.76,3.94-2.98,7.07-6.48,9.01c-3.69,2.04-8.47,2.5-12.61,2.5H65.94
			l-1.46,6.97c-0.39,1.87-1.08,3.66-2.16,5.24c-1.09,1.6-2.53,2.86-4.22,3.79c-1.77,0.98-3.76,1.57-5.75,1.92
			c-2.35,0.42-4.77,0.55-7.15,0.55H22.33L22.33,84.46z"/>
	</g>
	<g>
		<path class="st1" d="M62.64,64.22H40.36l-0.99,4.64c-0.41,1.94-1.53,2.91-3.41,2.91c-0.99,0-1.65-0.23-1.97-0.69
			c-0.33-0.46-0.42-1.21-0.2-2.22l4.54-21.42H16.05l1.63-7.74v0l-6.86,32.52c-0.63,3-0.07,5.19,1.78,6.57
			c1.84,1.38,5.09,2.07,9.73,2.07H45.2c2.5,0,4.68-0.17,6.52-0.49c1.84-0.33,3.39-0.84,4.64-1.53c1.25-0.69,2.25-1.58,2.99-2.67
			c0.74-1.09,1.28-2.4,1.61-3.95L62.64,64.22z"/>
		<path class="st1" d="M54.81,62.39h22.57c4.77,0,8.4-0.68,10.87-2.05s4.11-3.54,4.69-6.54c0.45-2.3,0.88-4.41,1.28-6.36h-22.6
			c-0.48,2.46-0.94,4.51-1.23,5.1c-0.43,0.9-5.63,1.81-4.79-2.15l0.59-2.81h-22l-1.53,7.26c-0.53,2.47,0.22,4.35,2.25,5.63
			C46.94,61.75,50.24,62.39,54.81,62.39L54.81,62.39z M75.36,21.39L75.36,21.39L75.36,21.39z"/>
	</g>
	<g>
		<g>
			<path class="st2" d="M54.81,61.15c-4.32,0-7.43-0.58-9.24-1.73c-1.57-1-2.11-2.37-1.7-4.33l1.32-6.28h19.47l-0.28,1.32
				c-0.27,1.29-0.08,2.34,0.56,3.13c0.67,0.82,1.82,1.29,3.17,1.29c1.29,0,2.9-0.46,3.39-1.48c0.36-0.75,0.63-2.02,0.83-2.94
				l0.08-0.37c0.13-0.61,0.26-1.22,0.38-1.83l20.07,0c-0.39,1.87-0.77,3.75-1.13,5.62c-0.5,2.56-1.87,4.48-4.08,5.7
				c-2.27,1.25-5.72,1.89-10.27,1.89H54.81z"/>
			<path d="M92.25,48.44c-0.39,1.9-0.72,3.52-1.01,5.03c-0.48,2.44-1.73,4.2-3.83,5.36c-2.19,1.21-5.57,1.83-10.02,1.83H54.81
				c-4.22,0-7.24-0.56-8.97-1.65c-1.41-0.89-1.85-2.03-1.48-3.8l1.24-5.88h18.45l-0.15,0.72c-0.38,1.8,0.15,2.92,0.66,3.55
				c0.76,0.94,2.06,1.48,3.56,1.48c1.49,0,3.25-0.54,3.84-1.76c0.39-0.81,0.67-2.11,0.87-3.06l0.08-0.36c0.1-0.48,0.2-0.96,0.3-1.43
				H92.25 M72.38,47.44c-0.15,0.74-0.3,1.49-0.46,2.23c-0.19,0.88-0.48,2.4-0.86,3.2c-0.34,0.71-1.62,1.2-2.94,1.2
				c-1.88,0-3.84-1-3.24-3.82l0.41-1.92H44.79l-1.41,6.67c-0.44,2.09,0.09,3.69,1.92,4.85c2.48,1.57,6.66,1.81,9.51,1.81h22.57
				c3.31,0,7.55-0.32,10.51-1.95c2.38-1.32,3.8-3.37,4.33-6.04c0.4-2.07,0.83-4.15,1.25-6.22L72.38,47.44L72.38,47.44L72.38,47.44z"
				/>
		</g>
		<g>
			<path class="st2" d="M22.33,79.62c-4.35,0-7.37-0.61-8.99-1.83c-1.41-1.06-1.84-2.8-1.31-5.32l5.18-24.54h19.74L32.58,68.6
				c-0.29,1.35-0.15,2.43,0.4,3.2c0.58,0.8,1.58,1.21,2.98,1.21c2.45,0,4.09-1.38,4.62-3.9l0.78-3.66h19.75l-1.36,6.51
				c-0.29,1.37-0.77,2.55-1.42,3.51c-0.63,0.92-1.49,1.69-2.56,2.28c-1.14,0.63-2.54,1.09-4.26,1.4c-1.8,0.32-3.86,0.47-6.3,0.47
				H22.33z"/>
			<path d="M36.33,48.43L32.09,68.5c-0.32,1.49-0.15,2.7,0.48,3.59c0.67,0.94,1.82,1.42,3.39,1.42c2.71,0,4.52-1.52,5.11-4.29
				l0.69-3.27h18.73l-1.24,5.9c-0.28,1.31-0.73,2.43-1.34,3.33c-0.58,0.85-1.39,1.57-2.39,2.13c-1.1,0.6-2.44,1.04-4.11,1.34
				c-1.77,0.31-3.8,0.47-6.22,0.47H22.33c-5.28,0-7.64-0.94-8.69-1.73c-1.26-0.94-1.62-2.48-1.12-4.82l5.09-24.14H36.33
				 M37.57,47.43H16.8l-5.26,24.93c-0.45,2.15-0.39,4.41,1.5,5.83c2.27,1.7,6.57,1.93,9.29,1.93H45.2c2.12,0,4.3-0.11,6.39-0.48
				c1.51-0.27,3.07-0.71,4.42-1.45c1.09-0.61,2.03-1.4,2.73-2.44c0.75-1.1,1.22-2.38,1.49-3.69l1.49-7.11H40.96l-0.86,4.06
				c-0.47,2.21-1.83,3.5-4.13,3.5c-0.93,0-1.99-0.19-2.58-1c-0.57-0.79-0.51-1.9-0.32-2.81L37.57,47.43L37.57,47.43z"/>
		</g>
	</g>
	<g>
		<g>
			<path d="M16.66,46.94l1.51-7.14c0.36-1.7,0.89-3.14,1.59-4.29c0.7-1.15,1.64-2.09,2.8-2.8c1.18-0.72,2.63-1.26,4.33-1.59
				c1.72-0.34,3.81-0.51,6.2-0.51h22.87c2.56,0,4.72,0.17,6.42,0.51c1.65,0.33,2.89,0.83,3.68,1.5c1.58,1.35,2.01,3.69,1.27,6.97
				l-1.01,4.9H45.06l0.47-2.31c0.26-1.21,0.18-2.08-0.27-2.65c-0.45-0.58-1.23-0.86-2.4-0.86c-1.11,0-1.98,0.27-2.6,0.81
				c-0.63,0.55-1.06,1.39-1.3,2.5l-1.05,4.98H16.66z"/>
			<path class="st0" d="M55.96,31.11c2.53,0,4.65,0.17,6.33,0.5c1.57,0.31,2.73,0.78,3.45,1.39c1.43,1.22,1.8,3.39,1.1,6.5
				l-0.92,4.49H45.67l0.35-1.7c0.3-1.37,0.18-2.38-0.36-3.07c-0.54-0.7-1.48-1.05-2.79-1.05c-1.23,0-2.22,0.32-2.93,0.94
				c-0.71,0.62-1.2,1.55-1.46,2.77l-0.97,4.58H17.28l1.38-6.54c0.35-1.64,0.86-3.03,1.53-4.13c0.65-1.08,1.54-1.96,2.63-2.63
				c1.13-0.69,2.53-1.2,4.16-1.53c1.69-0.33,3.75-0.5,6.11-0.5H55.96 M55.96,30.11H33.09c-2.44,0-4.53,0.17-6.3,0.52
				c-1.76,0.35-3.26,0.9-4.49,1.65c-1.23,0.76-2.22,1.75-2.96,2.96c-0.74,1.22-1.29,2.7-1.66,4.44l-1.63,7.74h22.28l1.14-5.37
				c0.22-1.02,0.61-1.76,1.14-2.22c0.53-0.46,1.28-0.69,2.27-0.69s1.66,0.22,2,0.67c0.35,0.44,0.4,1.19,0.17,2.25l-0.59,2.91h22.28
				l1.09-5.29c0.79-3.49,0.31-5.98-1.43-7.46c-0.86-0.72-2.16-1.26-3.9-1.6C60.74,30.28,58.56,30.11,55.96,30.11L55.96,30.11z"/>
		</g>
		<g>
			<path d="M72.24,46.94c0.81-4.19,1.66-9.42,1.84-10.72c0.43-3.13,0.17-5.09-0.87-6.32c-0.8-0.96-2.06-1.46-3.85-1.54
				c-6.68-0.29-13.86-0.58-21.07-0.75c-0.11,0-0.25-0.03-0.39-0.22c-0.58-0.74-0.56-2.91-0.2-4.48l1.39-6.15
				c1.06-4.72,6.07-7.12,14.87-7.12h22.57c5.66,0,9.32,0.97,10.88,2.88c0.84,1.04,1.09,2.35,0.74,4.02l-0.91,4.34H75.97
				c0.18-0.99,0.03-1.78-0.43-2.34c-0.48-0.58-1.27-0.89-2.29-0.89l-0.16,0c-2.96,0.09-4.08,2.06-4.13,3.87
				c-0.06,2.02,1.19,4.3,3.16,4.48c0.93,0.08,1.93,0.15,2.96,0.22c1.41,0.09,2.95,0.13,4.85,0.13c1.48,0,2.98-0.02,4.51-0.05
				c1.54-0.03,3.1-0.05,4.65-0.05l0.27,0c3.46,0.01,5.34,0.5,6.27,1.64c1.74,2.14,0.66,7.3-1.29,16.66l-0.5,2.38H72.24z"/>
			<path class="st0" d="M86.53,10.14c5.5,0,9.03,0.91,10.49,2.7c0.74,0.91,0.95,2.09,0.64,3.61l-0.82,3.95H76.54
				c0.05-0.87-0.15-1.6-0.61-2.16c-0.58-0.7-1.5-1.07-2.68-1.07c-0.06,0-0.11,0-0.17,0c-3.31,0.1-4.56,2.41-4.61,4.36
				c-0.07,2.24,1.3,4.78,3.61,4.99c0.82,0.07,1.73,0.14,2.97,0.22c1.42,0.09,2.97,0.13,4.88,0.13c1.48,0,3.02-0.03,4.51-0.05
				c1.52-0.03,3.09-0.05,4.64-0.05l0.27,0c3.3,0.01,5.06,0.44,5.88,1.46c1.59,1.96,0.53,7.03-1.39,16.24l-0.41,1.98H72.84
				c0.8-4.21,1.57-8.96,1.73-10.15c0.45-3.29,0.15-5.36-0.98-6.71c-0.89-1.07-2.27-1.63-4.21-1.72c-6.69-0.29-13.88-0.58-21.06-0.74
				c-0.32-0.23-0.6-2.07-0.14-4.1l1.39-6.15c1.02-4.53,5.73-6.73,14.39-6.73H86.53 M86.53,9.14H63.95c-9.15,0-14.24,2.51-15.36,7.51
				l-1.39,6.15c-0.45,2-0.47,5.28,1.07,5.31c6.99,0.16,14.03,0.44,21.06,0.74c3.86,0.17,4.93,2.34,4.24,7.3
				c-0.18,1.35-1.1,6.96-1.95,11.28h22.6v0c3.7-17.88,5.06-21.66-4.89-21.68c-0.09,0-0.18,0-0.28,0c-3.08,0-6.17,0.1-9.15,0.1
				c-1.65,0-3.27-0.03-4.82-0.13c-1.02-0.07-2.02-0.13-2.94-0.21c-3.1-0.27-4.41-7.19,0.94-7.35c0.05,0,0.09,0,0.14,0
				c1.44,0,2.63,0.67,2.22,2.74l-0.1,0.49h22.28l0.99-4.74C99.67,11.64,95.68,9.14,86.53,9.14L86.53,9.14z"/>
		</g>
	</g>
	<g class="st3">
		<g class="st4">
			<path class="st0" d="M53.59,30.11h-0.48v1.22l-1.4,0.81l-0.7-0.4l-0.69-0.4v-1.22h-0.48v1.22l-1.4,0.81l-0.7-0.4l-0.7-0.4v-1.22
				h-0.47v1.22l-1.4,0.81l-0.7-0.4l-0.71-0.41v-1.21h-0.48v1.22l-0.71,0.41l-0.7,0.4l-0.71-0.41l-0.7-0.4v-1.22H40v1.22l-0.7,0.4
				l-0.7,0.4l-0.7-0.4l-0.71-0.41v-1.21h-0.48v1.22L36,31.74l-0.7,0.4l-0.71-0.41l-0.7-0.4v-1.22h-0.48v1.22l-0.7,0.4l-0.7,0.4
				l-0.7-0.4l-0.71-0.41v-1.14c-0.16,0.01-0.32,0.02-0.48,0.03v1.12l-1.4,0.81l-0.71-0.41l-0.7-0.4v-0.8
				c-0.16,0.03-0.32,0.06-0.48,0.09v0.71l-1.4,0.81l-0.7-0.4l-0.61-0.35c-0.67,0.26-1.28,0.56-1.84,0.9
				c-0.13,0.08-0.26,0.16-0.38,0.24l0.02,0.01v1.64l-0.7,0.4l-0.7,0.41l-0.71-0.41l-0.03-0.02c-0.09,0.12-0.18,0.25-0.27,0.38
				l0.1,0.06l0.69,0.4v1.64l-0.7,0.4l-0.7,0.4l-0.63-0.36c-0.05,0.15-0.1,0.3-0.15,0.46l0.55,0.31v1.64l-1.19,0.69l-0.43,2.06v0.09
				l-0.02,0.01l-0.13,0.62l0.39-0.22l0.7,0.4l0.7,0.4v1.64l-1.4,0.81l-0.92-0.53l-0.1,0.48l0.8,0.46v0.65h0.47v-0.65l1.4-0.81
				l0.71,0.41l0.69,0.4v0.65h0.48v-0.65l1.4-0.81l0.71,0.41l0.69,0.4v0.65h0.48v-0.65l1.4-0.81l1.41,0.82v0.64h0.48v-0.64l1.41-0.81
				l0.71,0.41l0.69,0.4v0.65h0.48v-0.65l1.4-0.81l0.71,0.41l0.71,0.41v0.64h0.48v-0.64l1.41-0.82l0.7,0.41l0.69,0.4v0.65h0.48v-0.65
				l1.37-0.79l0.25-1.19v-0.87l0.21-0.12l0.13-0.61l-0.58,0.34l-1.41-0.81v-1.64l1.39-0.8l0.7,0.4l0.49,0.28
				c0.07-0.15,0.14-0.29,0.22-0.42l-0.45-0.26l-0.71-0.41v-1.62l0.7-0.4l0.7-0.4l1.41,0.81v1.04c0.15-0.04,0.31-0.07,0.48-0.09
				v-0.95l1.4-0.81l0.71,0.41l0.7,0.4v1.64l-0.03,0.02c0.08,0.12,0.14,0.27,0.18,0.43l0.08-0.05l0.7,0.4l0.71,0.41v1.63l-0.7,0.4
				l-0.7,0.4l-0.41-0.24l-0.1,0.49l0.27,0.15v1.05h0.48v-1.05l1.4-0.8l0.7,0.4l0.7,0.4v1.05h0.48v-1.05l1.4-0.81l0.7,0.4l0.71,0.41
				v1.04H52v-1.05l1.4-0.81l0.71,0.41l0.7,0.4v1.05h0.48v-1.05l1.4-0.81l1.41,0.81v1.04h0.48v-1.05l1.4-0.81l0.71,0.41l0.7,0.4v1.05
				h0.48v-1.05l0.7-0.4l0.7-0.4l0.7,0.4l0.71,0.41v1.04h0.48v-1.05l1.4-0.81l0.5,0.29l0.1-0.49l-0.36-0.21v-1.62l0.84-0.48
				l0.13-0.62l-0.52,0.3l-0.69,0.4l-0.7-0.4l-0.71-0.41v-1.62l1.4-0.81l0.7,0.4l0.71,0.41v0.85c0.09-0.44,0.15-0.87,0.19-1.28
				l-0.66-0.38l-0.7-0.4V35.4l0.69-0.4l0.48-0.27c-0.04-0.16-0.1-0.32-0.15-0.47l-0.57,0.33l-0.71,0.41l-0.71-0.41l-0.69-0.4v-1.64
				l0.96-0.55c-0.14-0.1-0.29-0.19-0.44-0.28l-0.05,0.03l-0.7,0.4l-0.7-0.4l-0.71-0.41v-0.47c-0.16-0.04-0.31-0.08-0.48-0.12v0.59
				l-1.4,0.81l-0.71-0.41l-0.7-0.4V30.3c-0.16-0.01-0.32-0.03-0.48-0.04v1.08l-1.4,0.81l-0.7-0.4l-0.71-0.41v-1.2l-0.48-0.01v1.22
				l-0.71,0.41l-0.7,0.4l-0.71-0.41l-0.7-0.4V30.11L53.59,30.11z M63.23,34.99l-0.71-0.41l-0.7-0.41v-1.63l0.71-0.41l0.7-0.4
				l0.71,0.41l0.7,0.4v1.64l-0.69,0.4L63.23,34.99L63.23,34.99z M43.53,34.99l-0.71-0.41l-0.71-0.41v-1.63l1.4-0.81l0.71,0.41
				l0.7,0.4v1.64l-0.69,0.4L43.53,34.99L43.53,34.99z M36.96,34.99l-0.7-0.41l-0.71-0.41v-1.63l0.71-0.41l0.7-0.4l0.71,0.41l0.7,0.4
				v1.64L36.96,34.99L36.96,34.99z M30.39,34.99l-0.71-0.41l-0.7-0.41v-1.63l1.4-0.81l0.71,0.41l0.7,0.4v1.64l-0.69,0.4L30.39,34.99
				L30.39,34.99z M56.65,34.99l-0.7-0.41l-0.71-0.41v-1.63l1.4-0.81l0.71,0.41l0.7,0.4v1.64L56.65,34.99L56.65,34.99z M59.93,34.99
				l-0.71-0.41l-0.69-0.4v-1.64l0.7-0.4l0.7-0.4l0.7,0.4l0.71,0.41v1.62l-0.71,0.41L59.93,34.99L59.93,34.99z M53.35,34.99
				l-0.71-0.41l-0.69-0.4v-1.64l1.4-0.81l0.7,0.4l0.71,0.41v1.62l-0.7,0.41L53.35,34.99L53.35,34.99z M46.81,34.99l-0.71-0.41
				l-0.69-0.4v-1.64l1.4-0.81l0.7,0.4l0.7,0.4v1.64l-0.69,0.4L46.81,34.99L46.81,34.99z M40.23,34.99l-0.71-0.41l-0.69-0.4v-1.64
				l1.4-0.81l0.7,0.4l0.71,0.41v1.62l-0.71,0.41L40.23,34.99L40.23,34.99z M33.66,34.99l-0.71-0.41l-0.69-0.4v-1.64l0.7-0.4l0.7-0.4
				l0.7,0.4l0.71,0.41v1.62l-0.71,0.41L33.66,34.99L33.66,34.99z M27.09,34.99l-0.71-0.41l-0.69-0.4v-1.64l1.4-0.81l0.7,0.4
				l0.71,0.41v1.62L27.09,34.99L27.09,34.99z M23.81,34.99l-0.71-0.41l-0.69-0.4v-1.64l1.4-0.81l0.7,0.4l0.7,0.4v1.64l-0.69,0.4
				L23.81,34.99L23.81,34.99z M50.08,34.99l-0.68-0.39l-0.72-0.42v-1.64l1.4-0.81l0.7,0.4l0.7,0.4v1.64L50.08,34.99L50.08,34.99z
				 M64.89,37.84l-0.7-0.4l-0.71-0.41V35.4l0.7-0.41l0.71-0.41L65.6,35l0.69,0.4v1.64L64.89,37.84L64.89,37.84z M61.6,37.85
				l-0.71-0.41l-0.7-0.4V35.4l0.69-0.4l0.71-0.41L62.3,35L63,35.4v1.63L61.6,37.85L61.6,37.85z M58.32,37.84l-0.7-0.4l-0.71-0.41
				V35.4L57.61,35l0.71-0.41l1.4,0.81v1.64L58.32,37.84L58.32,37.84z M53.62,35.4l0.69-0.4l0.71-0.41L55.72,35l0.71,0.41v1.63
				l-1.4,0.81l-0.71-0.41l-0.7-0.4L53.62,35.4L53.62,35.4L53.62,35.4z M51.74,37.84l-1.4-0.8v-1.64l0.69-0.4l0.71-0.41L52.45,35
				l0.69,0.4v1.64l-0.7,0.4L51.74,37.84L51.74,37.84z M45.2,37.84l-0.7-0.4l-0.71-0.41V35.4L44.49,35l0.71-0.41L45.9,35l0.69,0.4
				v1.64L45.2,37.84L45.2,37.84z M40.5,35.4l0.69-0.4l0.71-0.41L42.6,35l0.71,0.41v1.63l-1.4,0.81l-0.71-0.41l-0.7-0.4L40.5,35.4
				L40.5,35.4L40.5,35.4z M38.62,37.84l-1.41-0.82V35.4l0.7-0.41l0.71-0.41l1.4,0.81v1.64l-0.7,0.4L38.62,37.84L38.62,37.84z
				 M35.33,37.85l-0.71-0.41l-0.7-0.4V35.4l0.69-0.4l0.71-0.41L36.03,35l0.71,0.41v1.63L35.33,37.85L35.33,37.85z M32.05,37.84
				l-0.7-0.4l-0.71-0.41V35.4L31.34,35l0.71-0.41L32.76,35l0.69,0.4v1.64l-0.7,0.4L32.05,37.84L32.05,37.84z M27.35,35.4l0.69-0.4
				l0.71-0.41L29.46,35l0.7,0.41v1.63l-1.4,0.81l-1.41-0.81L27.35,35.4L27.35,35.4L27.35,35.4z M25.47,37.84l-0.7-0.4l-0.7-0.4V35.4
				l0.69-0.4l0.71-0.41l1.4,0.81v1.64l-0.7,0.4L25.47,37.84L25.47,37.84z M20.8,35.4l0.69-0.4l0.71-0.41L22.9,35l0.69,0.4v1.64
				l-1.4,0.81l-1.4-0.81L20.8,35.4L20.8,35.4L20.8,35.4z M48.47,37.84l-0.7-0.4l-0.7-0.4V35.4l0.69-0.4l0.7-0.41l0.67,0.39
				l0.72,0.42v1.64l-0.7,0.4L48.47,37.84L48.47,37.84z M63.26,40.68l-0.7-0.4l-0.72-0.42v-1.62l0.71-0.41l0.7-0.4l0.71,0.41l0.7,0.4
				v1.64l-0.68,0.4L63.26,40.68L63.26,40.68z M56.69,40.68l-0.7-0.4l-0.72-0.42v-1.62l0.71-0.41l0.7-0.4l0.71,0.41l0.7,0.4v1.64
				L56.69,40.68L56.69,40.68z M36.99,40.68l-0.7-0.4l-0.73-0.42v-1.62l0.71-0.41l0.7-0.4l0.71,0.41l0.7,0.4v1.64L36.99,40.68
				L36.99,40.68z M30.42,40.68l-0.7-0.4L29,39.86v-1.62l0.71-0.41l0.7-0.4l0.71,0.41l0.7,0.4v1.64L30.42,40.68L30.42,40.68z
				 M59.97,40.68l-0.7-0.4l-0.71-0.41v-1.62l1.4-0.81l0.7,0.4l0.71,0.41v1.62l-0.7,0.41L59.97,40.68L59.97,40.68z M53.39,40.68
				l-0.7-0.4l-0.71-0.41v-1.62l1.4-0.81l0.7,0.4l0.71,0.41v1.62l-0.71,0.41L53.39,40.68L53.39,40.68z M46.84,40.68l-0.7-0.4
				l-0.71-0.41v-1.62l0.7-0.4l0.7-0.4l0.7,0.4l0.7,0.4v1.64L46.84,40.68L46.84,40.68z M33.7,40.68l-0.7-0.4l-0.71-0.41v-1.62
				l0.7-0.4l0.7-0.4l0.7,0.4l0.71,0.41v1.62l-0.71,0.41L33.7,40.68L33.7,40.68z M27.13,40.68l-0.7-0.4l-0.71-0.41v-1.62l0.7-0.4
				l0.7-0.4l0.7,0.4l0.71,0.41v1.62l-0.71,0.41L27.13,40.68L27.13,40.68z M23.85,40.68l-0.7-0.4l-0.71-0.41v-1.62l0.7-0.4l0.7-0.4
				l0.7,0.4l0.7,0.4v1.64L23.85,40.68L23.85,40.68z M20.57,40.68l-0.7-0.4l-0.71-0.41v-1.62l1.4-0.81l0.7,0.4l0.7,0.4v1.64
				l-0.69,0.4L20.57,40.68L20.57,40.68z M50.11,40.68l-0.7-0.4l-0.71-0.41v-1.63l0.7-0.4l0.7-0.4l1.4,0.81v1.64l-0.69,0.4
				L50.11,40.68L50.11,40.68z M61.63,43.52l-1.41-0.81v-1.62l1.4-0.81l0.7,0.4l0.71,0.41v1.62l-0.7,0.4L61.63,43.52L61.63,43.52z
				 M55.05,43.52l-1.41-0.81v-1.62l1.4-0.81l0.7,0.4l0.71,0.41v1.62l-0.7,0.4L55.05,43.52L55.05,43.52z M35.36,43.52l-1.41-0.81
				v-1.62l1.4-0.81l0.7,0.4l0.71,0.41v1.62l-0.7,0.4L35.36,43.52L35.36,43.52z M28.78,43.52l-0.7-0.4l-0.71-0.41v-1.62l1.4-0.81
				l0.7,0.4l0.71,0.41v1.62l-0.7,0.4L28.78,43.52L28.78,43.52z M58.34,43.53l-1.41-0.81v-1.64l1.39-0.8l0.7,0.4l0.72,0.42v1.62
				l-0.71,0.41L58.34,43.53L58.34,43.53z M64.91,43.53l-1.41-0.81v-1.64l1.39-0.8l0.7,0.4l0.72,0.42v1.62L64.91,43.53L64.91,43.53z
				 M51.76,43.53l-1.41-0.81v-1.64l0.69-0.4l0.7-0.4l0.7,0.4l0.72,0.42v1.62L51.76,43.53L51.76,43.53z M32.07,43.53l-0.71-0.41
				l-0.7-0.4v-1.64l0.69-0.4l0.7-0.4l0.7,0.4l0.72,0.42v1.62l-0.71,0.41L32.07,43.53L32.07,43.53z M25.49,43.53l-1.41-0.81v-1.64
				l1.39-0.8l0.7,0.4l0.72,0.42v1.62L25.49,43.53L25.49,43.53z M22.21,43.52l-1.4-0.81v-1.64l0.69-0.4l0.7-0.4l1.41,0.81v1.62
				l-0.7,0.4L22.21,43.52L22.21,43.52z M18.93,43.52l-1.4-0.81v-1.64l0.68-0.4l0.7-0.4l0.7,0.4l0.71,0.41v1.62l-0.7,0.4L18.93,43.52
				L18.93,43.52z M48.48,43.52l-1.4-0.8v-1.64l1.39-0.8l0.7,0.4l0.71,0.41v1.62l-0.7,0.4L48.48,43.52L48.48,43.52z M33.72,46.37
				l-1.41-0.82v-1.63l1.4-0.81l0.71,0.41l0.7,0.4v1.64l-0.69,0.4L33.72,46.37L33.72,46.37z M27.15,46.37l-1.41-0.82v-1.63l0.71-0.41
				l0.7-0.4l0.71,0.41l0.7,0.4v1.64l-0.69,0.4L27.15,46.37L27.15,46.37z M36.99,46.37l-1.4-0.81v-1.64l1.4-0.81l0.7,0.4l0.71,0.41
				v1.62l-0.71,0.41L36.99,46.37L36.99,46.37z M30.42,46.37l-0.71-0.41l-0.69-0.4v-1.64l1.4-0.81l0.7,0.4l0.71,0.41v1.62l-0.71,0.41
				L30.42,46.37L30.42,46.37z M23.85,46.37l-1.4-0.81v-1.64l0.7-0.4l0.7-0.4l0.7,0.4l0.71,0.41v1.62l-0.71,0.41L23.85,46.37
				L23.85,46.37z M20.57,46.37l-1.4-0.81v-1.64l1.4-0.81l0.7,0.4l0.7,0.4v1.64l-0.69,0.4L20.57,46.37L20.57,46.37z"/>
		</g>
		<g class="st4">
			<path class="st0" d="M69.41,9.13h-0.93l-0.39,0.23l-0.39-0.23h-0.94l0.39,0.22l0.71,0.41v1.62l-0.71,0.41l-0.71,0.41l-0.71-0.41
				l-0.69-0.4V9.76l1.09-0.63h-0.94L64.8,9.36l-0.38-0.22h-0.46l-0.48,0l0.38,0.22l0.7,0.4v1.64l-0.69,0.4l-0.71,0.41l-0.71-0.41
				l-0.7-0.41V9.76l0.71-0.41l0.35-0.21c-0.34,0.01-0.67,0.02-0.99,0.04l-0.31,0.18l-0.25-0.15c-0.28,0.02-0.56,0.04-0.83,0.06
				l0.14,0.08l0.71,0.41v1.62l-0.7,0.41l-0.71,0.41l-0.71-0.41l-0.69-0.4V9.76l0.59-0.34c-0.45,0.06-0.88,0.12-1.3,0.2l0.24,0.14
				v1.64l-1.4,0.81l-0.71-0.41l-0.7-0.41v-1.14c-0.16,0.05-0.32,0.1-0.48,0.16v0.98l-0.71,0.41l-0.7,0.41l-0.71-0.41l-0.35-0.2
				c-0.15,0.09-0.29,0.19-0.43,0.29l0.58,0.33l0.69,0.4v1.64l-0.7,0.4l-0.7,0.4l-1.41-0.81v-0.98c-0.17,0.19-0.32,0.4-0.46,0.6v0.38
				l-0.38,0.22c-0.14,0.24-0.26,0.49-0.37,0.75l0.28-0.16l0.7-0.4l0.71,0.41l0.7,0.4v1.64l-1.39,0.8l-0.7-0.4l-0.72-0.42v-0.57
				l-0.03,0.12L48.4,17.5l0.7,0.4l0.71,0.41v1.62l-0.7,0.4l-0.7,0.4l-0.65-0.38l-0.11,0.48l0.52,0.3v1.64l-0.69,0.4l-0.39,0.22
				c-0.14,0.88-0.2,1.89-0.1,2.75l0.5,0.29l0.7,0.4v1.24c0.03,0,0.06,0.01,0.09,0.01l0.39,0.01v-1.26l1.4-0.81l0.7,0.4l0.71,0.41
				v1.33l0.48,0.01v-1.35l0.71-0.41l0.7-0.4l0.71,0.41l0.7,0.4v1.43l0.48,0.02v-1.45l0.7-0.4l0.7-0.4l0.7,0.4l0.71,0.41v1.53
				l0.48,0.02v-1.56l0.71-0.41l0.7-0.4l0.71,0.41l0.7,0.4v1.62l-0.07,0.04l0.63,0.02l-0.09-0.05v-1.64l1.4-0.81l0.7,0.4l0.71,0.41
				v1.62l-0.27,0.16l1.1,0.05l-0.35-0.2v-1.63l1.4-0.81l0.71,0.41l0.7,0.4v1.62l-0.51,0.29l1.58,0.07l-0.6-0.35v-1.63l1.4-0.81
				l0.7,0.4l0.7,0.4v1.63l-0.81,0.47c0.23,0.04,0.46,0.09,0.67,0.15l0.38-0.22l0.7,0.4l0.71,0.41v0.52
				c0.19,0.23,0.35,0.49,0.48,0.78v-1.32L74,29.3l0.7-0.4l0.7,0.4l0.71,0.41v1.62l-1.4,0.81l-0.7-0.4l-0.55-0.31
				c0.07,0.2,0.12,0.41,0.16,0.64l0.14,0.08l0.7,0.4v1.64l-0.7,0.4l-0.04,0.02c-0.01,0.19-0.03,0.39-0.05,0.59L74.03,35l0.71-0.41
				L75.45,35l0.69,0.4v1.64l-1.4,0.81l-1.3-0.75l-0.08,0.5l0.44,0.25l0.7,0.4v1.64l-0.69,0.4l-0.7,0.4l-0.24-0.14l-0.09,0.5
				l0.08,0.05v1.62l-0.42,0.24l-0.11,0.6l0.76-0.44l0.7,0.4l0.7,0.4v1.64l-0.69,0.4l-0.7,0.41l-1.15-0.67l-0.09,0.48l0.33,0.19
				l0.69,0.4v0.65h0.48v-0.65l1.4-0.81l0.71,0.41l0.69,0.4v0.65h0.48v-0.65l1.4-0.81l1.41,0.82v0.64h0.48v-0.64l1.41-0.81l1.4,0.81
				v0.65h0.48v-0.65l1.4-0.81l0.71,0.41l0.71,0.41v0.64h0.48v-0.64l1.41-0.82l1.4,0.81v0.65h0.48v-0.65l1.4-0.81l0.71,0.41
				l0.71,0.41v0.64h0.48v-0.64l1.41-0.82l0.03,0.02l0.18-0.87v-1.2l0.28-0.16l0.13-0.62l-0.65,0.38l-1.41-0.81v-1.62l1.4-0.81
				l0.7,0.4l0.42,0.24l0.1-0.49l-0.99-0.57v-1.62l1.4-0.81l0.16,0.09l0.09-0.49l-0.01-0.01V35.4l0.31-0.18
				c0.03-0.21,0.06-0.41,0.09-0.61l-0.65,0.38l-0.71-0.41l-0.7-0.41v-1.63l1.4-0.81l0.71,0.41l0.19,0.11
				c0.01-0.18,0.02-0.36,0.02-0.53l-0.68-0.39V29.7l0.51-0.3c-0.03-0.16-0.07-0.32-0.12-0.47l-0.63,0.36l-0.71-0.41l-0.69-0.4v-1.63
				l0.27-0.16c-0.16-0.09-0.33-0.17-0.51-0.25l0,0l-0.01-0.01c-0.63-0.26-1.4-0.44-2.31-0.55l-0.27,0.16l-0.7,0.4l-1.21-0.7
				c-0.19,0-0.38-0.01-0.58-0.01h-0.28l-0.51,0.3l-0.7,0.4l-1.18-0.68l-0.94,0.01l-0.47,0.27l-0.7,0.4l-1.11-0.64l-1.11,0.02
				l-0.37,0.21l-0.7,0.4l-1.04-0.6c-0.15,0-0.3,0-0.44,0c-0.25,0-0.51,0-0.76,0l-0.35,0.2l-0.7,0.4l-0.71-0.41l-0.42-0.24
				c-0.33-0.01-0.65-0.02-0.97-0.04l-0.49,0.28l-0.7,0.4l-0.7-0.4l-0.7-0.4V25.6l-0.48-0.04v0.08l-1.4,0.81l-0.7-0.4l-0.7-0.4v-1.64
				l0.04-0.02c-0.08-0.14-0.15-0.29-0.22-0.43l-0.08,0.05l-1.4-0.81v-1.64l1.29-0.74c0.09-0.26,0.2-0.5,0.35-0.73v-1.37l0.69-0.4
				l0.7-0.4l0.7,0.4l0.5,0.29c0.17-0.02,0.33-0.03,0.51-0.04c0.05,0,0.09,0,0.14,0c0.09,0,0.19,0,0.28,0.01l0.44-0.26l0.7-0.4
				l1.41,0.81v1.62l-0.54,0.31c-0.01,0.18-0.03,0.37-0.07,0.58l0.14-0.08l0.7-0.4l0.7,0.4l0.71,0.41v0.23h0.48v-0.24l0.7-0.41
				l0.7-0.4l0.71,0.41l0.7,0.4v0.23h0.48v-0.23l1.4-0.81l0.7,0.4l0.71,0.41v0.23h0.48v-0.24l1.4-0.81l0.71,0.41l0.7,0.4v0.24h0.48
				v-0.24l1.4-0.81l0.7,0.4l0.71,0.41v0.23h0.48v-0.24l1.4-0.81l0.71,0.41l0.7,0.4v0.24h0.48v-0.24l0.7-0.4l0.7-0.4l1.41,0.81v0.23
				h0.19l0.14-0.7l-0.1,0.06l-1.41-0.81V18.3l1.39-0.8l0.7,0.4l0,0l0.1-0.49l-0.57-0.33v-1.62l0.7-0.4l0.19-0.11
				c-0.01-0.18-0.02-0.35-0.04-0.52l-1.08,0.62l-1.41-0.81v-1.62l0.71-0.41l0.56-0.32c-0.12-0.12-0.24-0.24-0.37-0.35l-0.44,0.25
				L96,12.21l-0.7-0.41l-0.71-0.41v-1.22c-0.15-0.05-0.31-0.11-0.48-0.15v1.38l-0.7,0.41l-0.71,0.41L92,11.8l-0.69-0.4V9.76
				l0.47-0.27c-0.56-0.09-1.16-0.16-1.79-0.22l0.15,0.08l0.7,0.4v1.64l-1.4,0.81l-0.71-0.41l-0.7-0.41V9.76l0.7-0.41l0.26-0.15
				c-0.28-0.02-0.57-0.03-0.86-0.04l-0.35,0.2L87.4,9.14c-0.29-0.01-0.58-0.01-0.87-0.01h-0.08l0.39,0.22l0.71,0.41v1.62l-0.71,0.41
				l-0.71,0.41l-0.71-0.41l-0.69-0.4V9.76l0.7-0.4l0.39-0.22h-0.94l-0.39,0.22l-0.38-0.22h-0.94l0.39,0.22l0.7,0.4v1.64l-0.69,0.4
				l-0.71,0.41l-0.71-0.41l-0.71-0.41V9.76l1.08-0.62h-0.93L81.2,9.36l-0.39-0.23h-0.94l0.39,0.22l0.71,0.41v1.62l-1.41,0.82
				l-0.71-0.41l-0.69-0.4V9.76l1.09-0.63H78.3l-0.39,0.22l-0.39-0.22h-0.94l0.39,0.22l0.7,0.4v1.64l-0.69,0.4l-0.71,0.41l-0.71-0.41
				l-0.69-0.4V9.76l1.09-0.63h-0.94l-0.38,0.22l-0.39-0.22h-0.94l0.39,0.22l0.7,0.4v1.64l-0.7,0.4l-0.7,0.41L72.3,11.8l-0.69-0.4
				V9.76l0.7-0.4l0.39-0.22h-0.94l-0.39,0.22l-0.38-0.22h-0.94l0.39,0.22l0.7,0.4v1.64l-1.4,0.81l-0.71-0.41l-0.71-0.41V9.76
				l0.71-0.41L69.41,9.13L69.41,9.13z M91.09,15.07l-1.41-0.81v-1.62l0.71-0.41l0.71-0.41l1.4,0.81v1.64l-0.7,0.4L91.09,15.07
				L91.09,15.07z M84.52,15.07l-1.41-0.81v-1.62l0.71-0.41l0.71-0.41l0.71,0.41l0.69,0.4v1.64l-0.7,0.4L84.52,15.07L84.52,15.07z
				 M71.39,15.07l-0.7-0.4l-0.71-0.41v-1.62l0.71-0.41l0.7-0.41l1.4,0.81v1.64l-0.7,0.4L71.39,15.07L71.39,15.07z M64.82,15.07
				l-0.7-0.4l-0.71-0.41v-1.62l0.71-0.41l0.7-0.41l0.71,0.41l0.69,0.4v1.64L64.82,15.07L64.82,15.07z M58.24,15.07l-0.7-0.4
				l-0.71-0.41v-1.62l0.71-0.41l0.7-0.41l0.71,0.41l0.69,0.4v1.64L58.24,15.07L58.24,15.07z M94.38,15.07l-0.71-0.41l-0.7-0.4v-1.64
				l0.7-0.4l0.71-0.41l0.71,0.41l0.71,0.41v1.63L94.38,15.07L94.38,15.07z M87.8,15.07l-0.71-0.41l-0.7-0.4v-1.64l0.69-0.4
				l0.71-0.41l0.71,0.41l0.71,0.41v1.63L87.8,15.07L87.8,15.07z M79.82,12.62l0.69-0.4l0.71-0.41l1.41,0.82v1.63l-1.4,0.81
				l-0.71-0.41l-0.7-0.4L79.82,12.62L79.82,12.62L79.82,12.62z M76.54,12.62l0.69-0.4l0.71-0.41l0.71,0.41l0.69,0.4v1.64l-0.7,0.4
				l-0.7,0.4l-0.7-0.4l-0.7-0.4L76.54,12.62L76.54,12.62L76.54,12.62z M73.27,12.62l0.69-0.4l0.71-0.41l0.71,0.41l0.69,0.4v1.64
				l-1.4,0.81l-1.4-0.81L73.27,12.62L73.27,12.62L73.27,12.62z M68.1,15.07l-0.71-0.41l-0.7-0.4v-1.64l0.69-0.4l0.71-0.41l0.71,0.41
				l0.71,0.41v1.63l-0.71,0.41L68.1,15.07L68.1,15.07z M61.53,15.07l-0.71-0.41l-0.7-0.4v-1.64h0l0.69-0.4l0.71-0.41l0.71,0.41
				l0.7,0.41v1.63L61.53,15.07L61.53,15.07z M54.95,15.07l-0.71-0.41l-0.7-0.4v-1.64h0l0.69-0.4l0.71-0.41l0.71,0.41l0.7,0.41v1.63
				L54.95,15.07L54.95,15.07z M96.04,17.91l-1.42-0.82v-1.62l1.4-0.81l0.71,0.41l0.7,0.4v1.64L96.04,17.91L96.04,17.91z
				 M89.47,17.91l-0.7-0.4l-0.72-0.42v-1.62l0.71-0.41l0.7-0.4l0.71,0.41l0.7,0.4v1.64L89.47,17.91L89.47,17.91z M82.89,17.91
				l-0.7-0.4l-0.72-0.42v-1.62l0.71-0.41l0.7-0.4l0.71,0.41l0.7,0.4v1.64L82.89,17.91L82.89,17.91z M69.77,17.91l-0.7-0.4
				l-0.72-0.42v-1.62l1.4-0.81l1.41,0.81v1.64L69.77,17.91L69.77,17.91z M63.19,17.91l-0.7-0.4l-0.72-0.42v-1.62l0.7-0.41l0.7-0.4
				l0.71,0.41l0.7,0.4v1.64l-0.69,0.4L63.19,17.91L63.19,17.91z M56.62,17.91l-0.7-0.4l-0.72-0.42v-1.62l0.71-0.41l0.7-0.4
				l0.71,0.41l0.7,0.4v1.64L56.62,17.91L56.62,17.91z M92.74,17.91l-0.7-0.4l-0.71-0.41v-1.62l0.7-0.4l0.7-0.4l1.41,0.81v1.62
				l-0.71,0.41L92.74,17.91L92.74,17.91z M86.17,17.91l-0.7-0.4l-0.71-0.41v-1.62l0.7-0.4l0.7-0.4l0.7,0.4l0.71,0.41v1.62
				l-0.71,0.41L86.17,17.91L86.17,17.91z M79.6,17.91l-0.7-0.4l-0.71-0.41v-1.62l0.7-0.4l0.7-0.4l0.7,0.4l0.71,0.41v1.62l-0.71,0.41
				L79.6,17.91L79.6,17.91z M76.32,17.91l-0.7-0.4l-0.71-0.41v-1.62l0.7-0.4l0.7-0.4l0.7,0.4l0.7,0.4v1.64L76.32,17.91L76.32,17.91z
				 M73.04,17.91l-0.7-0.4l-0.71-0.41v-1.62l1.4-0.81l0.7,0.4l0.7,0.4v1.64l-0.69,0.4L73.04,17.91L73.04,17.91z M66.47,17.91
				l-0.7-0.4l-0.71-0.41v-1.62l1.4-0.81l0.7,0.4l0.71,0.41v1.62l-0.71,0.41L66.47,17.91L66.47,17.91z M59.9,17.91l-0.7-0.4
				l-0.71-0.41v-1.62l1.4-0.81l0.7,0.4l0.71,0.41v1.62l-0.71,0.41L59.9,17.91L59.9,17.91z M53.32,17.91l-0.7-0.4l-0.71-0.41v-1.62
				l1.4-0.81l0.7,0.4l0.71,0.41v1.62l-0.71,0.41L53.32,17.91L53.32,17.91z M94.4,20.75l-1.41-0.81v-1.62l1.4-0.81l0.7,0.4l0.71,0.41
				v1.62l-0.7,0.4L94.4,20.75L94.4,20.75z M87.83,20.75l-1.41-0.81v-1.62l1.4-0.81l0.7,0.4l0.71,0.41v1.62l-0.7,0.4L87.83,20.75
				L87.83,20.75z M81.25,20.75l-0.7-0.4l-0.71-0.41v-1.62l1.4-0.81l0.7,0.4l0.71,0.41v1.62l-0.7,0.4L81.25,20.75L81.25,20.75z
				 M68.13,20.75l-1.41-0.81v-1.62l1.4-0.81l0.7,0.4l0.71,0.41v1.62l-0.7,0.4L68.13,20.75L68.13,20.75z M61.55,20.75l-1.41-0.81
				v-1.62l1.4-0.81l0.7,0.4l0.71,0.41v1.62l-0.7,0.4L61.55,20.75L61.55,20.75z M54.98,20.75l-1.41-0.81v-1.62l1.4-0.81l0.7,0.4
				l0.71,0.41v1.62l-0.7,0.4L54.98,20.75L54.98,20.75z M91.11,20.76l-1.41-0.81v-1.64l1.39-0.8l0.7,0.4l0.72,0.42v1.62L91.11,20.76
				L91.11,20.76z M84.54,20.76l-0.71-0.41l-0.7-0.4v-1.64l0.69-0.4l0.7-0.4l0.7,0.4l0.72,0.42v1.62l-0.71,0.41L84.54,20.76
				L84.54,20.76z M77.96,20.76l-1.41-0.81v-1.64l1.39-0.8l0.7,0.4l0.72,0.42v1.62L77.96,20.76L77.96,20.76z M64.84,20.76l-1.41-0.81
				v-1.64l0.69-0.4l0.7-0.4l0.7,0.4l0.72,0.42v1.62L64.84,20.76L64.84,20.76z M58.27,20.76l-1.41-0.81v-1.64l1.39-0.8l0.7,0.4
				l0.72,0.42v1.62l-0.71,0.41L58.27,20.76L58.27,20.76z M51.69,20.76l-1.41-0.81v-1.64l0.69-0.4l0.7-0.4l1.42,0.82v1.62
				L51.69,20.76L51.69,20.76z M66.49,23.6l-0.71-0.41l-0.71-0.41v-1.63l1.4-0.81l0.71,0.41l0.7,0.4v1.64l-0.69,0.4L66.49,23.6
				L66.49,23.6z M59.92,23.6l-1.41-0.82v-1.63l1.4-0.81l0.71,0.41l0.7,0.4v1.64l-0.69,0.4L59.92,23.6L59.92,23.6z M53.34,23.6
				l-1.41-0.82v-1.63l1.4-0.81l0.71,0.41l0.7,0.4v1.64l-0.69,0.4L53.34,23.6L53.34,23.6z M63.19,23.6l-0.71-0.41l-0.69-0.4v-1.64
				l0.7-0.4l0.7-0.4l0.7,0.4l0.71,0.41v1.62l-0.71,0.41L63.19,23.6L63.19,23.6z M56.62,23.6l-1.4-0.81v-1.64l1.4-0.81l1.41,0.81
				v1.62l-0.7,0.41L56.62,23.6L56.62,23.6z M50.04,23.6l-0.71-0.41l-0.69-0.4v-1.64l1.4-0.81l0.7,0.4l0.71,0.41v1.62l-0.71,0.41
				L50.04,23.6L50.04,23.6z M68.15,26.46l-1.41-0.81v-1.62l1.41-0.82l0.71,0.41l0.69,0.4v1.64l-0.7,0.4L68.15,26.46L68.15,26.46z
				 M64.86,26.46l-0.71-0.41l-0.7-0.4v-1.64l1.4-0.81l0.71,0.41l0.7,0.41v1.63l-0.7,0.41L64.86,26.46L64.86,26.46z M61.58,26.46
				l-0.7-0.4l-0.71-0.41v-1.62l1.41-0.82l0.71,0.41l0.69,0.4v1.64l-0.7,0.4L61.58,26.46L61.58,26.46z M58.29,26.46l-0.71-0.41
				l-0.7-0.4v-1.64l1.4-0.81l0.71,0.41l0.71,0.41v1.63l-0.71,0.41L58.29,26.46L58.29,26.46z M55.01,26.46l-1.41-0.81v-1.62
				l1.41-0.82l0.71,0.41l0.69,0.4v1.64l-0.7,0.4L55.01,26.46L55.01,26.46z M51.72,26.46l-0.71-0.41l-0.7-0.4v-1.64l0.69-0.4
				l0.71-0.41l0.71,0.41l0.71,0.41v1.63l-0.71,0.41L51.72,26.46L51.72,26.46z M48.43,26.46l-0.7-0.4l-0.71-0.41v-1.62l1.41-0.82
				l1.4,0.81v1.64l-0.7,0.4L48.43,26.46L48.43,26.46z M86.2,29.3l-1.4-0.81v-1.63l1.4-0.81l0.71,0.41l0.7,0.4v1.62L86.2,29.3
				L86.2,29.3z M92.78,29.3l-0.7-0.4l-0.7-0.4v-1.63l0.71-0.41l0.7-0.4l0.71,0.41l0.7,0.4v1.62l-0.71,0.41L92.78,29.3L92.78,29.3z
				 M79.63,29.3l-0.7-0.4l-0.7-0.4v-1.63l0.71-0.41l0.7-0.4l0.71,0.41l0.7,0.4v1.62l-0.71,0.41L79.63,29.3L79.63,29.3z M89.49,29.3
				l-1.4-0.81v-1.64l1.4-0.81l0.7,0.4l0.71,0.41v1.62L89.49,29.3L89.49,29.3z M82.91,29.3l-0.71-0.41l-0.69-0.4v-1.64l1.4-0.81
				l0.7,0.4l0.71,0.41v1.62l-0.7,0.4L82.91,29.3L82.91,29.3z M76.35,29.3l-0.7-0.4l-0.71-0.41v-1.62l0.7-0.4l0.7-0.4l0.7,0.4
				l0.71,0.41v1.62l-0.7,0.4L76.35,29.3L76.35,29.3z M73.08,29.3l-0.7-0.4l-0.71-0.41v-1.62l1.4-0.81l0.7,0.4l0.7,0.4v1.63
				L73.08,29.3L73.08,29.3z M77.99,32.14l-0.7-0.4l-0.7-0.4v-1.63h0l1.4-0.81l0.71,0.41l0.69,0.4v1.64L77.99,32.14L77.99,32.14z
				 M91.14,32.14l-0.7-0.4l-0.71-0.41V29.7l0.7-0.4l0.71-0.41l0.71,0.41l0.69,0.4v1.64l-0.7,0.4L91.14,32.14L91.14,32.14z
				 M84.56,32.14l-0.7-0.4l-0.71-0.41V29.7l0.7-0.4l0.71-0.41l1.4,0.81v1.63l-0.7,0.4L84.56,32.14L84.56,32.14z M94.42,32.14
				l-0.71-0.41l-0.7-0.4v-1.62l0.71-0.41l0.7-0.4l0.7,0.4l0.7,0.4v1.63l-0.71,0.41L94.42,32.14L94.42,32.14z M87.85,32.14
				l-0.71-0.41l-0.7-0.4v-1.62l0.71-0.41l0.7-0.4l1.4,0.81v1.63l-0.7,0.41L87.85,32.14L87.85,32.14z M81.27,32.14l-0.71-0.41
				l-0.7-0.4v-1.62h0l0.71-0.41l0.7-0.4l0.7,0.4l0.7,0.4v1.63L81.27,32.14L81.27,32.14z M89.5,34.99l-0.71-0.41l-0.7-0.41v-1.63
				l0.71-0.41l0.7-0.4l0.71,0.41l0.7,0.4v1.64L89.5,34.99L89.5,34.99z M82.93,34.99l-0.71-0.41l-0.71-0.41v-1.63l1.4-0.81l0.71,0.41
				l0.7,0.4v1.64l-0.69,0.4L82.93,34.99L82.93,34.99z M92.77,34.99l-0.71-0.41l-0.69-0.4v-1.64l1.4-0.81l0.7,0.4l0.71,0.41v1.62
				l-0.71,0.41L92.77,34.99L92.77,34.99z M86.2,34.99l-0.71-0.41l-0.69-0.4v-1.64l0.7-0.4l0.7-0.4l0.7,0.4l0.71,0.41v1.62
				l-0.71,0.41L86.2,34.99L86.2,34.99z M79.63,34.99l-0.71-0.41l-0.69-0.4v-1.64l1.4-0.81l0.7,0.4l0.71,0.41v1.62L79.63,34.99
				L79.63,34.99z M76.35,34.99l-0.71-0.41l-0.69-0.4v-1.64l1.4-0.81l0.7,0.4l0.7,0.4v1.64l-0.69,0.4L76.35,34.99L76.35,34.99z
				 M93.04,35.4l0.69-0.4l0.71-0.41L95.14,35l0.71,0.41v1.63l-1.4,0.81l-0.71-0.41l-0.7-0.4L93.04,35.4L93.04,35.4L93.04,35.4z
				 M91.16,37.84l-1.41-0.81V35.4L90.46,35l0.71-0.41l1.4,0.81v1.64l-0.7,0.4L91.16,37.84L91.16,37.84z M86.46,35.4l0.69-0.4
				l0.71-0.41L88.57,35l0.71,0.41v1.63l-1.4,0.81l-0.71-0.41l-0.7-0.4L86.46,35.4L86.46,35.4L86.46,35.4z M84.59,37.84l-0.7-0.4
				l-0.71-0.41V35.4L83.88,35l0.7-0.41l1.4,0.81v1.64l-0.7,0.4L84.59,37.84L84.59,37.84z M79.89,35.4l0.7-0.4l0.71-0.41L82,35
				l0.71,0.41v1.63l-1.4,0.81l-0.71-0.41l-0.7-0.4L79.89,35.4L79.89,35.4L79.89,35.4z M78.01,37.84l-0.7-0.4l-0.7-0.4V35.4l0.69-0.4
				l0.71-0.41L78.72,35l0.69,0.4v1.64l-0.7,0.4L78.01,37.84L78.01,37.84z M89.54,40.68l-0.7-0.4l-0.72-0.42v-1.62l0.71-0.41l0.7-0.4
				l0.71,0.41l0.7,0.4v1.64L89.54,40.68L89.54,40.68z M82.96,40.68l-0.7-0.4l-0.72-0.42v-1.62l0.71-0.41l0.7-0.4l0.71,0.41l0.7,0.4
				v1.64L82.96,40.68L82.96,40.68z M92.81,40.68l-0.7-0.4l-0.71-0.41v-1.62l0.7-0.4l0.7-0.4l1.41,0.81v1.62l-0.71,0.41L92.81,40.68
				L92.81,40.68z M86.24,40.68l-0.7-0.4l-0.71-0.41v-1.62l0.7-0.4l0.7-0.4l0.7,0.4l0.71,0.41v1.62l-0.71,0.41L86.24,40.68
				L86.24,40.68z M79.66,40.68l-0.7-0.4l-0.71-0.41v-1.62l0.7-0.4l0.7-0.4l0.7,0.4l0.71,0.41v1.62l-0.71,0.41L79.66,40.68
				L79.66,40.68z M76.39,40.68l-0.7-0.4l-0.71-0.41v-1.62l0.7-0.4l0.7-0.4l0.7,0.4l0.7,0.4v1.64L76.39,40.68L76.39,40.68z
				 M87.9,43.52l-1.41-0.81v-1.62l1.4-0.81l0.7,0.4l0.71,0.41v1.62l-0.7,0.4L87.9,43.52L87.9,43.52z M81.32,43.52l-0.7-0.4
				l-0.71-0.41v-1.62l1.4-0.81l0.7,0.4l0.71,0.41v1.62l-0.7,0.4L81.32,43.52L81.32,43.52z M91.18,43.53l-1.41-0.81v-1.64l1.39-0.8
				l0.7,0.4l0.72,0.42v1.62L91.18,43.53L91.18,43.53z M84.61,43.53l-0.71-0.41l-0.7-0.4v-1.64l0.69-0.4l0.7-0.4l0.7,0.4l0.72,0.42
				v1.62l-0.71,0.41L84.61,43.53L84.61,43.53z M78.03,43.53l-1.41-0.81v-1.64l1.39-0.8l0.7,0.4l0.72,0.42v1.62L78.03,43.53
				L78.03,43.53z M74.75,43.52l-1.4-0.81v-1.64l0.69-0.4l0.7-0.4l1.41,0.81v1.62l-0.7,0.4L74.75,43.52L74.75,43.52z M92.83,46.37
				l-1.41-0.82v-1.63l1.4-0.81l0.71,0.41l0.7,0.4v1.64l-0.69,0.4L92.83,46.37L92.83,46.37z M86.26,46.37l-1.41-0.82v-1.63l1.4-0.81
				l0.71,0.41l0.7,0.4v1.64l-0.7,0.4L86.26,46.37L86.26,46.37z M79.68,46.37l-1.41-0.82v-1.63l1.4-0.81l0.71,0.41l0.7,0.4v1.64
				l-0.69,0.4L79.68,46.37L79.68,46.37z M89.53,46.37l-1.4-0.81v-1.64l1.4-0.81l0.7,0.4l0.71,0.41v1.62l-0.71,0.41L89.53,46.37
				L89.53,46.37z M82.96,46.37l-1.4-0.81v-1.64l1.4-0.81l0.7,0.4l0.71,0.41v1.62l-0.71,0.41L82.96,46.37L82.96,46.37z M76.39,46.37
				l-1.4-0.81v-1.64l0.7-0.4l0.7-0.4l0.7,0.4l0.71,0.41v1.62l-0.71,0.41L76.39,46.37L76.39,46.37z"/>
		</g>
	</g>
</g>
</svg>
