<?xml version="1.0" encoding="utf-8"?>
<!-- Generator: Adobe Illustrator 26.2.1, SVG Export Plug-In . SVG Version: 6.00 Build 0)  -->
<svg version="1.1" id="Layer_1" xmlns="http://www.w3.org/2000/svg" xmlns:xlink="http://www.w3.org/1999/xlink" x="0px" y="0px"
	 viewBox="0 0 110 90" style="enable-background:new 0 0 110 90;" xml:space="preserve">
<style type="text/css">
	.st0{fill:#FFFFFF;}
	.st1{fill:#AA2626;}
	.st2{fill-rule:evenodd;clip-rule:evenodd;fill:#FFFFFF;}
	.st3{fill:#FCFCFC;}
	.st4{display:none;}
	.st5{display:inline;}
</style>
<g>
	<g>
		<path class="st0" d="M22.3,85.6c-3.7,0-9-0.3-12.6-3c-3.3-2.5-4.6-6.5-3.6-11.3l6.9-32.5c0.5-2.3,1.2-4.3,2.2-5.9
			c1.1-1.9,2.7-3.4,4.5-4.5c1.7-1,3.8-1.8,6.1-2.3c2.1-0.4,4.4-0.6,7.2-0.6h9.1l0-0.5c0-1,0.2-2.1,0.4-3.1l1.4-6.1
			C46.1,6.3,56,4.4,64,4.4h22.6c8.6,0,13.9,2.1,16,6.5c1,1.9,1.2,4.3,0.7,6.7l-1.8,8.5h-0.8l0.3,0.7c1.2,3,0.8,6.5,0.3,9.6
			c-0.4,2.5-0.9,5-1.4,7.4L99.6,45c-0.7,3.2-1.3,6.4-2,9.7c-0.8,4.3-3.3,7.7-7.1,9.8c-3.2,1.8-7.5,2.6-13.2,2.6H66.9l-1.3,6.1
			c-0.4,2.1-1.2,4-2.3,5.7c-1.2,1.7-2.7,3.1-4.6,4.1c-1.7,0.9-3.7,1.6-6.1,2.1c-2.2,0.4-4.5,0.6-7.3,0.6L22.3,85.6L22.3,85.6z
			 M33.1,26c-2.7,0-5,0.2-7.1,0.6c-2.2,0.4-4.2,1.2-5.9,2.2c-1.8,1.1-3.2,2.5-4.3,4.3c-1,1.6-1.7,3.5-2.2,5.7L6.8,71.4
			c-0.7,3.2-0.7,7.7,3.3,10.7C12.7,84,16.7,85,22.3,85h22.9c2.8,0,5.1-0.2,7.2-0.6c2.3-0.4,4.3-1.1,5.9-2c1.8-1,3.3-2.3,4.4-3.9
			c1-1.5,1.8-3.4,2.2-5.4l1.4-6.6h11c5.5,0,9.7-0.8,12.8-2.6c3.6-2,5.9-5.2,6.7-9.4c0.6-3.1,1.2-6.2,1.9-9.3l0.3-1.6
			c0.5-2.4,1-4.9,1.4-7.4c0.6-3.7,1-7.8-1.1-10.8h1.4l1.7-8c0.5-2.3,0.3-4.4-0.7-6.3C98.9,5,89.6,5,86.5,5H64
			C52.9,5,46.2,8.7,44.6,15.7l-1.4,6.2c-0.3,1.4-0.4,2.8-0.3,4.1C42.9,26,33.1,26,33.1,26z"/>
		<path class="st1" d="M86.5,3.9H64c-8.4,0-18.3,2.1-20.5,11.6l-1.4,6.1c-0.2,1-0.4,2.1-0.4,3.2h-8.6c-2.4,0-4.9,0.1-7.3,0.6
			c-2.2,0.4-4.3,1.2-6.2,2.3c-1.9,1.2-3.5,2.8-4.7,4.7c-1.1,1.9-1.9,4-2.3,6.1L5.7,71.1c-0.9,4.5-0.1,9,3.8,11.8
			c3.5,2.6,8.6,3.1,12.9,3.1h22.9c2.5,0,5-0.1,7.4-0.6c2.2-0.4,4.3-1,6.3-2.1c1.9-1.1,3.5-2.5,4.8-4.3c1.2-1.8,2-3.8,2.4-5.8
			l1.2-5.7l0,0h10.1c4.4,0,9.4-0.5,13.4-2.7c3.9-2.2,6.4-5.7,7.3-10.1c0.7-3.5,1.4-7,2.1-10.5c0.5-2.6,1.1-5.2,1.5-7.9
			c0.5-3.2,0.9-6.8-0.3-9.8h0.5l1.9-8.9c0.5-2.4,0.3-4.8-0.7-7C100.1,4.8,92.4,3.9,86.5,3.9L86.5,3.9z M22.3,84.5
			c-3.9,0-8.7-0.4-11.9-2.8c-3.3-2.5-4-6.3-3.1-10.2L14.2,39c0.4-2,1.1-3.9,2.1-5.6c1-1.7,2.5-3.1,4.2-4.2c1.7-1.1,3.7-1.7,5.7-2.1
			c2.3-0.5,4.7-0.6,7-0.6h10.3c-0.2-1.5,0-3.2,0.3-4.5l1.4-6.1C47,7.2,56.4,5.5,64,5.5h22.6c5.1,0,12.4,0.7,15,5.9
			c0.9,1.9,1,3.9,0.6,6l-1.6,7.6h-2.1c0,0,0.1,0.1,0.1,0.1c2.6,3,2.1,7.5,1.5,11.1c-0.4,2.6-1,5.2-1.5,7.8c-0.7,3.5-1.5,7-2.2,10.5
			c-0.8,3.9-3,7.1-6.5,9c-3.7,2-8.5,2.5-12.6,2.5H65.9l-1.5,7c-0.4,1.9-1.1,3.7-2.2,5.2c-1.1,1.6-2.5,2.9-4.2,3.8
			c-1.8,1-3.8,1.6-5.8,1.9c-2.3,0.4-4.8,0.6-7.2,0.6L22.3,84.5L22.3,84.5z"/>
	</g>
	<g>
		<path class="st2" d="M62.6,64.2H40.4l-1,4.6c-0.4,1.9-1.5,2.9-3.4,2.9c-1,0-1.7-0.2-2-0.7c-0.3-0.5-0.4-1.2-0.2-2.2l4.5-21.4H16
			l1.6-7.7l0,0l-6.9,32.5c-0.6,3-0.1,5.2,1.8,6.6c1.8,1.4,5.1,2.1,9.7,2.1h22.9c2.5,0,4.7-0.2,6.5-0.5c1.8-0.3,3.4-0.8,4.6-1.5
			s2.2-1.6,3-2.7s1.3-2.4,1.6-3.9L62.6,64.2z"/>
		<path class="st2" d="M54.8,62.4h22.6c4.8,0,8.4-0.7,10.9-2s4.1-3.5,4.7-6.5c0.4-2.3,0.9-4.4,1.3-6.4H71.6
			c-0.5,2.5-0.9,4.5-1.2,5.1c-0.4,0.9-5.6,1.8-4.8-2.2l0.6-2.8h-22l-1.5,7.3c-0.5,2.5,0.2,4.3,2.2,5.6
			C46.9,61.8,50.2,62.4,54.8,62.4L54.8,62.4z M75.4,21.4L75.4,21.4L75.4,21.4z"/>
	</g>
	<g>
		<g>
			<path class="st3" d="M54.8,62.9c-4.3,0-7.4-0.5-9.2-1.6c-1.6-0.9-2.1-2.2-1.7-3.9l1.3-5.7h19.5l-0.3,1.2
				c-0.3,1.2-0.1,2.1,0.6,2.8c0.7,0.7,1.8,1.2,3.2,1.2c1.3,0,2.9-0.4,3.4-1.3c0.4-0.7,0.6-1.8,0.8-2.7l0.1-0.3
				c0.1-0.6,0.3-1.1,0.4-1.7h20.1c-0.4,1.7-0.8,3.4-1.1,5.1c-0.5,2.3-1.9,4.1-4.1,5.2c-2.3,1.1-5.7,1.7-10.3,1.7L54.8,62.9
				L54.8,62.9z"/>
			<path class="st1" d="M92.2,51.3c-0.4,1.7-0.7,3.2-1,4.6c-0.5,2.2-1.7,3.8-3.8,4.9c-2.2,1.1-5.6,1.7-10,1.7H54.8
				c-4.2,0-7.2-0.5-9-1.5c-1.4-0.8-1.8-1.8-1.5-3.5l1.2-5.4h18.5l-0.2,0.7c-0.4,1.6,0.2,2.7,0.7,3.2c0.8,0.9,2.1,1.3,3.6,1.3
				c1.5,0,3.2-0.5,3.8-1.6c0.4-0.7,0.7-1.9,0.9-2.8l0.1-0.3c0.1-0.4,0.2-0.9,0.3-1.3L92.2,51.3 M72.4,50.4c-0.2,0.7-0.3,1.4-0.5,2
				c-0.2,0.8-0.5,2.2-0.9,2.9c-0.3,0.6-1.6,1.1-2.9,1.1c-1.9,0-3.8-0.9-3.2-3.5l0.4-1.7H44.8l-1.4,6.1c-0.4,1.9,0.1,3.4,1.9,4.4
				c2.5,1.4,6.7,1.6,9.5,1.6h22.6c3.3,0,7.6-0.3,10.5-1.8c2.4-1.2,3.8-3.1,4.3-5.5c0.4-1.9,0.8-3.8,1.2-5.7L72.4,50.4L72.4,50.4
				L72.4,50.4z"/>
		</g>
		<g>
			<path class="st3" d="M22.3,79.7c-4.4,0-7.4-0.6-9-1.7c-1.4-1-1.8-2.5-1.3-4.8l5.2-22.3H37l-4.4,18.8c-0.3,1.2-0.2,2.2,0.4,2.9
				c0.6,0.7,1.6,1.1,3,1.1c2.5,0,4.1-1.3,4.6-3.6l0.8-3.3h19.8l-1.4,5.9c-0.3,1.2-0.8,2.3-1.4,3.2c-0.6,0.8-1.5,1.5-2.6,2.1
				c-1.1,0.6-2.5,1-4.3,1.3c-1.8,0.3-3.9,0.4-6.3,0.4C45.2,79.7,22.3,79.7,22.3,79.7z"/>
			<path class="st1" d="M36.3,51.3l-4.2,18.3c-0.3,1.4-0.1,2.5,0.5,3.3c0.7,0.9,1.8,1.3,3.4,1.3c2.7,0,4.5-1.4,5.1-3.9l0.7-3h18.7
				l-1.2,5.4c-0.3,1.2-0.7,2.2-1.3,3c-0.6,0.8-1.4,1.4-2.4,1.9c-1.1,0.5-2.4,0.9-4.1,1.2c-1.8,0.3-3.8,0.4-6.2,0.4H22.3
				c-5.3,0-7.6-0.9-8.7-1.6c-1.3-0.9-1.6-2.3-1.1-4.4l5.1-22L36.3,51.3 M37.6,50.4H16.8l-5.3,22.7c-0.4,2-0.4,4,1.5,5.3
				c2.3,1.5,6.6,1.8,9.3,1.8h22.9c2.1,0,4.3-0.1,6.4-0.4c1.5-0.2,3.1-0.6,4.4-1.3c1.1-0.6,2-1.3,2.7-2.2c0.8-1,1.2-2.2,1.5-3.4
				l1.5-6.5H41L40.1,70c-0.5,2-1.8,3.2-4.1,3.2c-0.9,0-2-0.2-2.6-0.9c-0.6-0.7-0.5-1.7-0.3-2.6L37.6,50.4L37.6,50.4z"/>
		</g>
	</g>
	<g>
		<g>
			<path class="st1" d="M17.7,47.3l1.5-6.8c0.4-1.6,0.9-3,1.6-4.1c0.7-1.1,1.6-2,2.8-2.7c1.2-0.7,2.6-1.2,4.3-1.5
				c1.7-0.3,3.8-0.5,6.2-0.5H57c2.6,0,4.7,0.2,6.4,0.5c1.7,0.3,2.9,0.8,3.7,1.4c1.6,1.3,2,3.5,1.3,6.7l-1,4.7H46.1l0.5-2.2
				c0.3-1.2,0.2-2-0.3-2.5c-0.5-0.6-1.2-0.8-2.4-0.8c-1.1,0-2,0.3-2.6,0.8c-0.6,0.5-1.1,1.3-1.3,2.4l-1,4.8L17.7,47.3L17.7,47.3z"/>
			<path class="st0" d="M57,32.2c2.5,0,4.7,0.2,6.3,0.5c1.6,0.3,2.7,0.7,3.4,1.3c1.4,1.2,1.8,3.2,1.1,6.2l-0.9,4.3H46.7l0.3-1.6
				c0.3-1.3,0.2-2.3-0.4-2.9c-0.5-0.7-1.5-1-2.8-1c-1.2,0-2.2,0.3-2.9,0.9c-0.7,0.6-1.2,1.5-1.5,2.7l-1,4.4H18.3l1.4-6.3
				c0.4-1.6,0.9-2.9,1.5-4c0.6-1,1.5-1.9,2.6-2.5c1.1-0.7,2.5-1.1,4.2-1.5c1.7-0.3,3.8-0.5,6.1-0.5L57,32.2 M57,31.2H34.1
				c-2.4,0-4.5,0.2-6.3,0.5c-1.8,0.3-3.3,0.9-4.5,1.6c-1.2,0.7-2.2,1.7-3,2.8c-0.7,1.2-1.3,2.6-1.7,4.3l-1.6,7.4h22.3l1.1-5.1
				c0.2-1,0.6-1.7,1.1-2.1c0.5-0.4,1.3-0.7,2.3-0.7s1.7,0.2,2,0.6c0.3,0.4,0.4,1.1,0.2,2.2l-0.6,2.8h22.3l1.1-5.1
				c0.8-3.3,0.3-5.7-1.4-7.1c-0.9-0.7-2.2-1.2-3.9-1.5C61.7,31.4,59.6,31.2,57,31.2L57,31.2z"/>
		</g>
		<g>
			<path class="st1" d="M73.2,47.3c0.8-4,1.7-9,1.8-10.3c0.4-3,0.2-4.9-0.9-6.1c-0.8-0.9-2.1-1.4-3.8-1.5
				c-6.7-0.3-13.9-0.6-21.1-0.7c-0.1,0-0.2,0-0.4-0.2c-0.6-0.7-0.6-2.8-0.2-4.3l1.4-5.9c1.1-4.5,6.1-6.8,14.9-6.8h22.6
				c5.7,0,9.3,0.9,10.9,2.8c0.8,1,1.1,2.3,0.7,3.9l-0.9,4.2H77c0.2-0.9,0-1.7-0.4-2.2c-0.5-0.6-1.3-0.9-2.3-0.9h-0.2
				c-3,0.1-4.1,2-4.1,3.7c-0.1,1.9,1.2,4.1,3.2,4.3c0.9,0.1,1.9,0.1,3,0.2c1.4,0.1,2.9,0.1,4.8,0.1c1.5,0,3,0,4.5,0
				c1.5,0,3.1,0,4.7,0h0.3c3.5,0,5.3,0.5,6.3,1.6c1.7,2,0.7,7-1.3,16l-0.5,2.3L73.2,47.3L73.2,47.3z"/>
			<path class="st0" d="M87.5,12.1c5.5,0,9,0.9,10.5,2.6c0.7,0.9,0.9,2,0.6,3.5l-0.8,3.8H77.5c0.1-0.8-0.2-1.5-0.6-2.1
				c-0.6-0.7-1.5-1-2.7-1c-0.1,0-0.1,0-0.2,0c-3.3,0.1-4.6,2.3-4.6,4.2c-0.1,2.1,1.3,4.6,3.6,4.8c0.8,0.1,1.7,0.1,3,0.2
				c1.4,0.1,3,0.1,4.9,0.1c1.5,0,3,0,4.5,0c1.5,0,3.1,0,4.6,0h0.3c3.3,0,5.1,0.4,5.9,1.4c1.6,1.9,0.5,6.7-1.4,15.6l-0.4,1.9H73.8
				c0.8-4,1.6-8.6,1.7-9.7c0.4-3.2,0.2-5.1-1-6.4c-0.9-1-2.3-1.6-4.2-1.6c-6.7-0.3-13.9-0.6-21.1-0.7c-0.3-0.2-0.6-2-0.1-3.9
				l1.4-5.9c1-4.3,5.7-6.4,14.4-6.4L87.5,12.1 M87.5,11.1H64.9c-9.1,0-14.2,2.4-15.4,7.2l-1.4,5.9c-0.5,1.9-0.5,5.1,1.1,5.1
				c7,0.2,14,0.4,21.1,0.7c3.9,0.2,4.9,2.2,4.2,7c-0.2,1.3-1.1,6.7-1.9,10.8h22.6l0,0c3.7-17.1,5.1-20.7-4.9-20.8
				c-0.1,0-0.2,0-0.3,0c-3.1,0-6.2,0.1-9.2,0.1c-1.7,0-3.3,0-4.8-0.1c-1-0.1-2-0.1-2.9-0.2c-3.1-0.3-4.4-6.9,0.9-7
				c0.1,0,0.1,0,0.1,0c1.4,0,2.6,0.6,2.2,2.6l-0.1,0.5h22.3l1-4.5C100.7,13.5,96.7,11.1,87.5,11.1L87.5,11.1z"/>
		</g>
	</g>
	<g class="st4">
		<g class="st5">
			<path class="st0" d="M53.6,30.1h-0.5v1.2l-1.4,0.8L51,31.7l-0.7-0.4v-1.2h-0.5v1.2l-1.4,0.8l-0.7-0.4L47,31.4v-1.2h-0.5v1.2
				l-1.4,0.8l-0.7-0.4l-0.7-0.4v-1.2h-0.5v1.2l-0.7,0.4l-0.7,0.4l-0.7-0.4l-0.7-0.4v-1.2H40v1.2l-0.7,0.4l-0.7,0.4l-0.7-0.4
				l-0.7-0.4v-1.2h-0.5v1.2L36,31.7l-0.7,0.4l-0.7-0.4l-0.7-0.4v-1.2h-0.5v1.2l-0.7,0.4L32,32.1l-0.7-0.4l-0.7-0.4v-1.1
				c-0.2,0-0.3,0-0.5,0v1.1l-1.4,0.8L28,31.7l-0.7-0.4v-0.8c-0.2,0-0.3,0.1-0.5,0.1v0.7l-1.4,0.8l-0.7-0.4l-0.6-0.4
				c-0.7,0.3-1.3,0.6-1.8,0.9c-0.1,0.1-0.3,0.2-0.4,0.2l0,0v1.6l-0.7,0.4L20.5,35l-0.7-0.4l0,0c-0.1,0.1-0.2,0.2-0.3,0.4l0.1,0.1
				l0.7,0.4V37l-0.7,0.4l-0.7,0.4l-0.6-0.4c0,0.2-0.1,0.3-0.1,0.5l0.5,0.3v1.6l-1.2,0.7L17,42.6v0.1l0,0l-0.1,0.6l0.4-0.2l0.7,0.4
				l0.7,0.4v1.6l-1.4,0.8l-0.9-0.5l-0.1,0.5l0.8,0.5v0.7h0.5v-0.7l1.4-0.8l0.7,0.4l0.7,0.4v0.7h0.5v-0.7l1.4-0.8l0.7,0.4l0.7,0.4
				v0.7h0.5v-0.7l1.4-0.8l1.4,0.8v0.6h0.5v-0.6l1.4-0.8l0.7,0.4l0.7,0.4v0.7h0.5v-0.7l1.4-0.8l0.7,0.4l0.7,0.4v0.6H34v-0.6l1.4-0.8
				l0.7,0.4l0.7,0.4v0.7h0.5v-0.7l1.4-0.8l0.2-1.2V44l0.2-0.1l0.1-0.6l-0.6,0.3l-1.4-0.8v-1.6l1.4-0.8l0.7,0.4l0.5,0.3
				c0.1-0.2,0.1-0.3,0.2-0.4l-0.5-0.3l-0.7-0.4v-1.6l0.7-0.4l0.7-0.4l1.4,0.8v1c0.2,0,0.3-0.1,0.5-0.1v-1l1.4-0.8l0.7,0.4l0.7,0.4
				v1.6l0,0c0.1,0.1,0.1,0.3,0.2,0.4l0.1,0l0.7,0.4l0.7,0.4v1.6l-0.7,0.4l-0.7,0.4l-0.4-0.2l-0.1,0.5L45,44v1h0.5v-1l1.4-0.8
				l0.7,0.4l0.7,0.4v1h0.5v-1l1.4-0.8l0.7,0.4l0.7,0.4v1H52v-1l1.4-0.8l0.7,0.4l0.7,0.4v1h0.5v-1l1.4-0.8l1.4,0.8v1h0.5v-1l1.4-0.8
				l0.7,0.4l0.7,0.4v1h0.5v-1l0.7-0.4l0.7-0.4l0.7,0.4l0.7,0.4v1h0.5v-1l1.4-0.8l0.5,0.3l0.1-0.5l-0.4-0.2v-1.6l0.8-0.5l0.1-0.6
				l-0.5,0.3l-0.7,0.4l-0.7-0.4l-0.7-0.4v-1.6l1.4-0.8l0.7,0.4l0.7,0.4v0.8c0.1-0.4,0.2-0.9,0.2-1.3l-0.7-0.4l-0.7-0.4v-1.7l0.7-0.4
				l0.5-0.3c0-0.2-0.1-0.3-0.2-0.5l-0.6,0.3L66.5,35l-0.7-0.4l-0.7-0.4v-1.6l1-0.5c-0.1-0.1-0.3-0.2-0.4-0.3l-0.1,0l-0.7,0.4
				l-0.7-0.4l-0.7-0.4v-0.5c-0.2,0-0.3-0.1-0.5-0.1v0.6l-1.4,0.8l-0.7-0.4l-0.7-0.4v-1c-0.2,0-0.3,0-0.5,0v1.1l-1.4,0.8l-0.7-0.4
				l-0.7-0.4v-1.2l-0.5,0v1.2l-0.7,0.4L55,32.2l-0.7-0.4l-0.7-0.4L53.6,30.1L53.6,30.1z M63.2,35l-0.7-0.4l-0.7-0.4v-1.6l0.7-0.4
				l0.7-0.4l0.7,0.4l0.7,0.4v1.6L64,34.6L63.2,35L63.2,35z M43.5,35l-0.7-0.4l-0.7-0.4v-1.6l1.4-0.8l0.7,0.4l0.7,0.4v1.6l-0.7,0.4
				L43.5,35L43.5,35z M37,35l-0.7-0.4l-0.7-0.4v-1.6l0.7-0.4l0.7-0.4l0.7,0.4l0.7,0.4v1.6L37,35L37,35z M30.4,35l-0.7-0.4L29,34.2
				v-1.6l1.4-0.8l0.7,0.4l0.7,0.4v1.6l-0.7,0.4L30.4,35L30.4,35z M56.7,35L56,34.6l-0.7-0.4v-1.6l1.4-0.8l0.7,0.4l0.7,0.4v1.6
				L56.7,35L56.7,35z M59.9,35l-0.7-0.4l-0.7-0.4v-1.6l0.7-0.4l0.7-0.4l0.7,0.4l0.7,0.4v1.6l-0.7,0.4L59.9,35L59.9,35z M53.3,35
				l-0.7-0.4L52,34.2v-1.6l1.4-0.8l0.7,0.4l0.7,0.4v1.6l-0.7,0.4L53.3,35L53.3,35z M46.8,35l-0.7-0.4l-0.7-0.4v-1.6l1.4-0.8l0.7,0.4
				l0.7,0.4v1.6l-0.7,0.4L46.8,35L46.8,35z M40.2,35l-0.7-0.4l-0.7-0.4v-1.6l1.4-0.8l0.7,0.4l0.7,0.4v1.6l-0.7,0.4L40.2,35L40.2,35z
				 M33.7,35L33,34.6l-0.7-0.4v-1.6l0.7-0.4l0.7-0.4l0.7,0.4l0.7,0.4v1.6l-0.7,0.4L33.7,35L33.7,35z M27.1,35l-0.7-0.4l-0.7-0.4
				v-1.6l1.4-0.8l0.7,0.4l0.7,0.4v1.6L27.1,35L27.1,35z M23.8,35l-0.7-0.4l-0.7-0.4v-1.6l1.4-0.8l0.7,0.4l0.7,0.4v1.6l-0.7,0.4
				L23.8,35L23.8,35z M50.1,35l-0.7-0.4l-0.7-0.4v-1.6l1.4-0.8l0.7,0.4l0.7,0.4v1.6L50.1,35L50.1,35z M64.9,37.8l-0.7-0.4L63.5,37
				v-1.6l0.7-0.4l0.7-0.4l0.7,0.4l0.7,0.4V37L64.9,37.8L64.9,37.8z M61.6,37.8l-0.7-0.4L60.2,37v-1.6l0.7-0.4l0.7-0.4l0.7,0.4
				l0.7,0.4V37L61.6,37.8L61.6,37.8z M58.3,37.8l-0.7-0.4L56.9,37v-1.6l0.7-0.4l0.7-0.4l1.4,0.8V37L58.3,37.8L58.3,37.8z M53.6,35.4
				l0.7-0.4l0.7-0.4l0.7,0.4l0.7,0.4V37L55,37.9l-0.7-0.4L53.6,37V35.4L53.6,35.4L53.6,35.4z M51.7,37.8L50.3,37v-1.6L51,35l0.7-0.4
				l0.7,0.4l0.7,0.4V37l-0.7,0.4L51.7,37.8L51.7,37.8z M45.2,37.8l-0.7-0.4L43.8,37v-1.6l0.7-0.4l0.7-0.4l0.7,0.4l0.7,0.4V37
				L45.2,37.8L45.2,37.8z M40.5,35.4l0.7-0.4l0.7-0.4l0.7,0.4l0.7,0.4V37l-1.4,0.8l-0.7-0.4L40.5,37L40.5,35.4L40.5,35.4L40.5,35.4z
				 M38.6,37.8L37.2,37v-1.6l0.7-0.4l0.7-0.4l1.4,0.8V37l-0.7,0.4L38.6,37.8L38.6,37.8z M35.3,37.8l-0.7-0.4L33.9,37v-1.6l0.7-0.4
				l0.7-0.4L36,35l0.7,0.4V37L35.3,37.8L35.3,37.8z M32,37.8l-0.7-0.4L30.6,37v-1.6l0.7-0.4l0.7-0.4l0.7,0.4l0.7,0.4V37l-0.7,0.4
				L32,37.8L32,37.8z M27.4,35.4L28,35l0.7-0.4l0.7,0.4l0.7,0.4V37l-1.4,0.8L27.4,37V35.4L27.4,35.4L27.4,35.4z M25.5,37.8l-0.7-0.4
				L24.1,37v-1.6l0.7-0.4l0.7-0.4l1.4,0.8V37l-0.7,0.4L25.5,37.8L25.5,37.8z M20.8,35.4l0.7-0.4l0.7-0.4l0.7,0.4l0.7,0.4V37
				l-1.4,0.8L20.8,37L20.8,35.4L20.8,35.4L20.8,35.4z M48.5,37.8l-0.7-0.4L47.1,37v-1.6l0.7-0.4l0.7-0.4l0.7,0.4l0.7,0.4V37
				l-0.7,0.4L48.5,37.8L48.5,37.8z M63.3,40.7l-0.7-0.4l-0.7-0.4v-1.6l0.7-0.4l0.7-0.4l0.7,0.4l0.7,0.4v1.6L64,40.3L63.3,40.7
				L63.3,40.7z M56.7,40.7L56,40.3l-0.7-0.4v-1.6l0.7-0.4l0.7-0.4l0.7,0.4l0.7,0.4v1.6L56.7,40.7L56.7,40.7z M37,40.7l-0.7-0.4
				l-0.7-0.4v-1.6l0.7-0.4l0.7-0.4l0.7,0.4l0.7,0.4v1.6L37,40.7L37,40.7z M30.4,40.7l-0.7-0.4L29,39.9v-1.6l0.7-0.4l0.7-0.4l0.7,0.4
				l0.7,0.4v1.6L30.4,40.7L30.4,40.7z M60,40.7l-0.7-0.4l-0.7-0.4v-1.6l1.4-0.8l0.7,0.4l0.7,0.4v1.6l-0.7,0.4L60,40.7L60,40.7z
				 M53.4,40.7l-0.7-0.4L52,39.9v-1.6l1.4-0.8l0.7,0.4l0.7,0.4v1.6l-0.7,0.4L53.4,40.7L53.4,40.7z M46.8,40.7l-0.7-0.4l-0.7-0.4
				v-1.6l0.7-0.4l0.7-0.4l0.7,0.4l0.7,0.4v1.6L46.8,40.7L46.8,40.7z M33.7,40.7L33,40.3l-0.7-0.4v-1.6l0.7-0.4l0.7-0.4l0.7,0.4
				l0.7,0.4v1.6l-0.7,0.4L33.7,40.7L33.7,40.7z M27.1,40.7l-0.7-0.4l-0.7-0.4v-1.6l0.7-0.4l0.7-0.4l0.7,0.4l0.7,0.4v1.6l-0.7,0.4
				L27.1,40.7L27.1,40.7z M23.9,40.7l-0.7-0.4l-0.7-0.4v-1.6l0.7-0.4l0.7-0.4l0.7,0.4l0.7,0.4v1.6L23.9,40.7L23.9,40.7z M20.6,40.7
				l-0.7-0.4l-0.7-0.4v-1.6l1.4-0.8l0.7,0.4l0.7,0.4v1.6l-0.7,0.4L20.6,40.7L20.6,40.7z M50.1,40.7l-0.7-0.4l-0.7-0.4v-1.6l0.7-0.4
				l0.7-0.4l1.4,0.8v1.6l-0.7,0.4L50.1,40.7L50.1,40.7z M61.6,43.5l-1.4-0.8v-1.6l1.4-0.8l0.7,0.4l0.7,0.4v1.6l-0.7,0.4L61.6,43.5
				L61.6,43.5z M55,43.5l-1.4-0.8v-1.6l1.4-0.8l0.7,0.4l0.7,0.4v1.6l-0.7,0.4L55,43.5L55,43.5z M35.4,43.5L34,42.7v-1.6l1.4-0.8
				l0.7,0.4l0.7,0.4v1.6l-0.7,0.4L35.4,43.5L35.4,43.5z M28.8,43.5l-0.7-0.4l-0.7-0.4v-1.6l1.4-0.8l0.7,0.4l0.7,0.4v1.6l-0.7,0.4
				L28.8,43.5L28.8,43.5z M58.3,43.5l-1.4-0.8v-1.6l1.4-0.8l0.7,0.4l0.7,0.4v1.6L59,43.1L58.3,43.5L58.3,43.5z M64.9,43.5l-1.4-0.8
				v-1.6l1.4-0.8l0.7,0.4l0.7,0.4v1.6L64.9,43.5L64.9,43.5z M51.8,43.5l-1.4-0.8v-1.6l0.7-0.4l0.7-0.4l0.7,0.4l0.7,0.4v1.6
				L51.8,43.5L51.8,43.5z M32.1,43.5l-0.7-0.4l-0.7-0.4v-1.6l0.7-0.4l0.7-0.4l0.7,0.4l0.7,0.4v1.6l-0.7,0.4L32.1,43.5L32.1,43.5z
				 M25.5,43.5l-1.4-0.8v-1.6l1.4-0.8l0.7,0.4l0.7,0.4v1.6L25.5,43.5L25.5,43.5z M22.2,43.5l-1.4-0.8v-1.6l0.7-0.4l0.7-0.4l1.4,0.8
				v1.6l-0.7,0.4L22.2,43.5L22.2,43.5z M18.9,43.5l-1.4-0.8v-1.6l0.7-0.4l0.7-0.4l0.7,0.4l0.7,0.4v1.6l-0.7,0.4L18.9,43.5L18.9,43.5
				z M48.5,43.5l-1.4-0.8v-1.6l1.4-0.8l0.7,0.4l0.7,0.4v1.6l-0.7,0.4L48.5,43.5L48.5,43.5z M33.7,46.4l-1.4-0.8v-1.6l1.4-0.8
				l0.7,0.4l0.7,0.4v1.6L34.4,46L33.7,46.4L33.7,46.4z M27.1,46.4l-1.4-0.8v-1.6l0.7-0.4l0.7-0.4l0.7,0.4l0.7,0.4v1.6L27.9,46
				L27.1,46.4L27.1,46.4z M37,46.4l-1.4-0.8v-1.6l1.4-0.8l0.7,0.4l0.7,0.4v1.6l-0.7,0.4L37,46.4L37,46.4z M30.4,46.4L29.7,46
				L29,45.6v-1.6l1.4-0.8l0.7,0.4l0.7,0.4v1.6l-0.7,0.4L30.4,46.4L30.4,46.4z M23.9,46.4l-1.4-0.8v-1.6l0.7-0.4l0.7-0.4l0.7,0.4
				l0.7,0.4v1.6L24.6,46L23.9,46.4L23.9,46.4z M20.6,46.4l-1.4-0.8v-1.6l1.4-0.8l0.7,0.4l0.7,0.4v1.6L21.3,46L20.6,46.4L20.6,46.4z"
				/>
		</g>
		<g class="st5">
			<path class="st0" d="M69.4,9.1h-0.9l-0.4,0.2l-0.4-0.2h-0.9l0.4,0.2l0.7,0.4v1.6l-0.7,0.4l-0.7,0.4l-0.7-0.4L65,11.4V9.8l1.1-0.6
				h-0.9l-0.4,0.2l-0.4-0.2H64h-0.5l0.4,0.2l0.7,0.4v1.6l-0.7,0.4l-0.7,0.4l-0.7-0.4l-0.7-0.4V9.8l0.7-0.4l0.3-0.2c-0.3,0-0.7,0-1,0
				l-0.3,0.2l-0.2-0.1c-0.3,0-0.6,0-0.8,0.1l0.1,0.1l0.7,0.4v1.6l-0.7,0.4l-0.7,0.4l-0.7-0.4l-0.7-0.4V9.8l0.6-0.3
				c-0.5,0.1-0.9,0.1-1.3,0.2L58,9.8v1.6l-1.4,0.8l-0.7-0.4l-0.7-0.4v-1.1c-0.2,0.1-0.3,0.1-0.5,0.2v1L54,11.8l-0.7,0.4l-0.7-0.4
				l-0.3-0.2c-0.2,0.1-0.3,0.2-0.4,0.3l0.6,0.3l0.7,0.4v1.6l-0.7,0.4l-0.7,0.4l-1.4-0.8v-1c-0.2,0.2-0.3,0.4-0.5,0.6v0.4l-0.4,0.2
				c-0.1,0.2-0.3,0.5-0.4,0.8l0.3-0.2l0.7-0.4l0.7,0.4l0.7,0.4v1.6l-1.4,0.8l-0.7-0.4l-0.7-0.4v-0.6l0,0.1l-0.2,0.9l0.7,0.4l0.7,0.4
				v1.6l-0.7,0.4l-0.7,0.4l-0.7-0.4l-0.1,0.5l0.5,0.3v1.6l-0.7,0.4l-0.4,0.2c-0.1,0.9-0.2,1.9-0.1,2.8l0.5,0.3l0.7,0.4v1.2
				c0,0,0.1,0,0.1,0l0.4,0v-1.3l1.4-0.8l0.7,0.4l0.7,0.4v1.3l0.5,0v-1.4l0.7-0.4l0.7-0.4l0.7,0.4l0.7,0.4v1.4l0.5,0v-1.5l0.7-0.4
				l0.7-0.4l0.7,0.4l0.7,0.4v1.5l0.5,0v-1.6l0.7-0.4L60,26l0.7,0.4l0.7,0.4v1.6l-0.1,0l0.6,0l-0.1,0v-1.6l1.4-0.8l0.7,0.4l0.7,0.4
				v1.6l-0.3,0.2l1.1,0l-0.3-0.2v-1.6l1.4-0.8l0.7,0.4l0.7,0.4v1.6l-0.5,0.3l1.6,0.1l-0.6-0.4v-1.6l1.4-0.8l0.7,0.4l0.7,0.4v1.6
				l-0.8,0.5c0.2,0,0.5,0.1,0.7,0.1l0.4-0.2l0.7,0.4l0.7,0.4v0.5c0.2,0.2,0.3,0.5,0.5,0.8v-1.3l0.7-0.3l0.7-0.4l0.7,0.4l0.7,0.4v1.6
				l-1.4,0.8L74,31.7l-0.6-0.3c0.1,0.2,0.1,0.4,0.2,0.6l0.1,0.1l0.7,0.4v1.6l-0.7,0.4l0,0c0,0.2,0,0.4-0.1,0.6L74,35l0.7-0.4
				l0.7,0.4l0.7,0.4V37l-1.4,0.8l-1.3-0.8l-0.1,0.5l0.4,0.2l0.7,0.4v1.6l-0.7,0.4l-0.7,0.4l-0.2-0.1l-0.1,0.5l0.1,0v1.6L72.4,43
				l-0.1,0.6l0.8-0.4l0.7,0.4l0.7,0.4v1.6L73.8,46l-0.7,0.4l-1.2-0.7l-0.1,0.5l0.3,0.2l0.7,0.4v0.7h0.5v-0.7l1.4-0.8l0.7,0.4
				l0.7,0.4v0.7h0.5v-0.7L78,46l1.4,0.8v0.6h0.5v-0.6l1.4-0.8l1.4,0.8v0.7h0.5v-0.7l1.4-0.8l0.7,0.4l0.7,0.4v0.6h0.5v-0.6l1.4-0.8
				l1.4,0.8v0.7h0.5v-0.7l1.4-0.8l0.7,0.4l0.7,0.4v0.6h0.5v-0.6l1.4-0.8l0,0l0.2-0.9v-1.2l0.3-0.2l0.1-0.6l-0.7,0.4l-1.4-0.8v-1.6
				l1.4-0.8l0.7,0.4l0.4,0.2l0.1-0.5l-1-0.6v-1.6l1.4-0.8l0.2,0.1l0.1-0.5l0,0v-1.6l0.3-0.2c0-0.2,0.1-0.4,0.1-0.6L96.1,35l-0.7-0.4
				l-0.7-0.4v-1.6l1.4-0.8l0.7,0.4l0.2,0.1c0-0.2,0-0.4,0-0.5l-0.7-0.4v-1.6l0.5-0.3c0-0.2-0.1-0.3-0.1-0.5l-0.6,0.4l-0.7-0.4
				l-0.7-0.4v-1.6l0.3-0.2c-0.2-0.1-0.3-0.2-0.5-0.2l0,0l0,0c-0.6-0.3-1.4-0.4-2.3-0.5L91.9,26l-0.7,0.4L90,25.7c-0.2,0-0.4,0-0.6,0
				h-0.3L88.6,26l-0.7,0.4l-1.2-0.7l-0.9,0L85.3,26l-0.7,0.4l-1.1-0.6l-1.1,0L82,26l-0.7,0.4l-1-0.6c-0.2,0-0.3,0-0.4,0
				c-0.2,0-0.5,0-0.8,0L78.7,26L78,26.4L77.3,26l-0.4-0.2c-0.3,0-0.7,0-1,0L75.4,26l-0.7,0.4L74,26l-0.7-0.4v0l-0.5,0v0.1l-1.4,0.8
				L70.7,26L70,25.6V24l0,0c-0.1-0.1-0.2-0.3-0.2-0.4l-0.1,0l-1.4-0.8v-1.6l1.3-0.7c0.1-0.3,0.2-0.5,0.3-0.7v-1.4l0.7-0.4l0.7-0.4
				l0.7,0.4l0.5,0.3c0.2,0,0.3,0,0.5,0c0.1,0,0.1,0,0.1,0c0.1,0,0.2,0,0.3,0l0.4-0.3l0.7-0.4l1.4,0.8V20l-0.5,0.3
				c0,0.2,0,0.4-0.1,0.6l0.1-0.1l0.7-0.4l0.7,0.4l0.7,0.4v0.2h0.5v-0.2l0.7-0.4l0.7-0.4l0.7,0.4l0.7,0.4v0.2h0.5v-0.2l1.4-0.8
				l0.7,0.4l0.7,0.4v0.2h0.5v-0.2l1.4-0.8l0.7,0.4l0.7,0.4v0.2h0.5v-0.2l1.4-0.8l0.7,0.4l0.7,0.4v0.2h0.5v-0.2l1.4-0.8l0.7,0.4
				l0.7,0.4v0.2h0.5v-0.2l0.7-0.4l0.7-0.4l1.4,0.8v0.2h0.2l0.1-0.7l-0.1,0.1l-1.4-0.8v-1.6l1.4-0.8l0.7,0.4l0,0l0.1-0.5l-0.6-0.3
				v-1.6l0.7-0.4l0.2-0.1c0-0.2,0-0.4,0-0.5l-1.1,0.6l-1.4-0.8v-1.6l0.7-0.4l0.6-0.3c-0.1-0.1-0.2-0.2-0.4-0.4l-0.4,0.2L96,12.2
				l-0.7-0.4l-0.7-0.4v-1.2c-0.2-0.1-0.3-0.1-0.5-0.1v1.4l-0.7,0.4l-0.7,0.4L92,11.8l-0.7-0.4V9.8l0.5-0.3c-0.6-0.1-1.2-0.2-1.8-0.2
				l0.2,0.1l0.7,0.4v1.6l-1.4,0.8l-0.7-0.4L88,11.4V9.8l0.7-0.4L89,9.2c-0.3,0-0.6,0-0.9,0l-0.3,0.2l-0.4-0.2c-0.3,0-0.6,0-0.9,0
				h-0.1l0.4,0.2l0.7,0.4v1.6l-0.7,0.4l-0.7,0.4l-0.7-0.4l-0.7-0.4V9.8l0.7-0.4l0.4-0.2h-0.9l-0.4,0.2l-0.4-0.2h-0.9l0.4,0.2
				l0.7,0.4v1.6l-0.7,0.4l-0.7,0.4l-0.7-0.4l-0.7-0.4V9.8l1.1-0.6h-0.9l-0.4,0.2l-0.4-0.2h-0.9l0.4,0.2L81,9.8v1.6l-1.4,0.8
				l-0.7-0.4l-0.7-0.4V9.8l1.1-0.6h-0.9l-0.4,0.2l-0.4-0.2h-0.9L77,9.4l0.7,0.4v1.6L77,11.8l-0.7,0.4l-0.7-0.4l-0.7-0.4V9.8L76,9.1
				H75l-0.4,0.2l-0.4-0.2h-0.9l0.4,0.2l0.7,0.4v1.6l-0.7,0.4L73,12.2l-0.7-0.4l-0.7-0.4V9.8l0.7-0.4l0.4-0.2h-0.9l-0.4,0.2L71,9.1
				H70l0.4,0.2l0.7,0.4v1.6l-1.4,0.8L69,11.8l-0.7-0.4V9.8L69,9.4L69.4,9.1L69.4,9.1z M91.1,15.1l-1.4-0.8v-1.6l0.7-0.4l0.7-0.4
				l1.4,0.8v1.6l-0.7,0.4L91.1,15.1L91.1,15.1z M84.5,15.1l-1.4-0.8v-1.6l0.7-0.4l0.7-0.4l0.7,0.4l0.7,0.4v1.6l-0.7,0.4L84.5,15.1
				L84.5,15.1z M71.4,15.1l-0.7-0.4L70,14.3v-1.6l0.7-0.4l0.7-0.4l1.4,0.8v1.6l-0.7,0.4L71.4,15.1L71.4,15.1z M64.8,15.1l-0.7-0.4
				l-0.7-0.4v-1.6l0.7-0.4l0.7-0.4l0.7,0.4l0.7,0.4v1.6L64.8,15.1L64.8,15.1z M58.2,15.1l-0.7-0.4l-0.7-0.4v-1.6l0.7-0.4l0.7-0.4
				l0.7,0.4l0.7,0.4v1.6L58.2,15.1L58.2,15.1z M94.4,15.1l-0.7-0.4L93,14.3v-1.6l0.7-0.4l0.7-0.4l0.7,0.4l0.7,0.4v1.6L94.4,15.1
				L94.4,15.1z M87.8,15.1l-0.7-0.4l-0.7-0.4v-1.6l0.7-0.4l0.7-0.4l0.7,0.4l0.7,0.4v1.6L87.8,15.1L87.8,15.1z M79.8,12.6l0.7-0.4
				l0.7-0.4l1.4,0.8v1.6l-1.4,0.8l-0.7-0.4l-0.7-0.4L79.8,12.6L79.8,12.6L79.8,12.6z M76.5,12.6l0.7-0.4l0.7-0.4l0.7,0.4l0.7,0.4
				v1.6l-0.7,0.4l-0.7,0.4l-0.7-0.4l-0.7-0.4L76.5,12.6L76.5,12.6L76.5,12.6z M73.3,12.6l0.7-0.4l0.7-0.4l0.7,0.4l0.7,0.4v1.6
				l-1.4,0.8l-1.4-0.8V12.6L73.3,12.6L73.3,12.6z M68.1,15.1l-0.7-0.4l-0.7-0.4v-1.6l0.7-0.4l0.7-0.4l0.7,0.4l0.7,0.4v1.6l-0.7,0.4
				L68.1,15.1L68.1,15.1z M61.5,15.1l-0.7-0.4l-0.7-0.4v-1.6l0,0l0.7-0.4l0.7-0.4l0.7,0.4l0.7,0.4v1.6L61.5,15.1L61.5,15.1z
				 M55,15.1l-0.7-0.4l-0.7-0.4v-1.6l0,0l0.7-0.4l0.7-0.4l0.7,0.4l0.7,0.4v1.6L55,15.1L55,15.1z M96,17.9l-1.4-0.8v-1.6l1.4-0.8
				l0.7,0.4l0.7,0.4v1.6L96,17.9L96,17.9z M89.5,17.9l-0.7-0.4l-0.7-0.4v-1.6l0.7-0.4l0.7-0.4l0.7,0.4l0.7,0.4v1.6L89.5,17.9
				L89.5,17.9z M82.9,17.9l-0.7-0.4l-0.7-0.4v-1.6l0.7-0.4l0.7-0.4l0.7,0.4l0.7,0.4v1.6L82.9,17.9L82.9,17.9z M69.8,17.9l-0.7-0.4
				l-0.7-0.4v-1.6l1.4-0.8l1.4,0.8v1.6L69.8,17.9L69.8,17.9z M63.2,17.9l-0.7-0.4l-0.7-0.4v-1.6l0.7-0.4l0.7-0.4l0.7,0.4l0.7,0.4
				v1.6l-0.7,0.4L63.2,17.9L63.2,17.9z M56.6,17.9l-0.7-0.4l-0.7-0.4v-1.6l0.7-0.4l0.7-0.4l0.7,0.4l0.7,0.4v1.6L56.6,17.9L56.6,17.9
				z M92.7,17.9L92,17.5l-0.7-0.4v-1.6l0.7-0.4l0.7-0.4l1.4,0.8v1.6l-0.7,0.4L92.7,17.9L92.7,17.9z M86.2,17.9l-0.7-0.4l-0.7-0.4
				v-1.6l0.7-0.4l0.7-0.4l0.7,0.4l0.7,0.4v1.6l-0.7,0.4L86.2,17.9L86.2,17.9z M79.6,17.9l-0.7-0.4l-0.7-0.4v-1.6l0.7-0.4l0.7-0.4
				l0.7,0.4l0.7,0.4v1.6l-0.7,0.4L79.6,17.9L79.6,17.9z M76.3,17.9l-0.7-0.4l-0.7-0.4v-1.6l0.7-0.4l0.7-0.4l0.7,0.4l0.7,0.4v1.6
				L76.3,17.9L76.3,17.9z M73,17.9l-0.7-0.4l-0.7-0.4v-1.6l1.4-0.8l0.7,0.4l0.7,0.4v1.6l-0.7,0.4L73,17.9L73,17.9z M66.5,17.9
				l-0.7-0.4l-0.7-0.4v-1.6l1.4-0.8l0.7,0.4l0.7,0.4v1.6l-0.7,0.4L66.5,17.9L66.5,17.9z M59.9,17.9l-0.7-0.4l-0.7-0.4v-1.6l1.4-0.8
				l0.7,0.4l0.7,0.4v1.6l-0.7,0.4L59.9,17.9L59.9,17.9z M53.3,17.9l-0.7-0.4l-0.7-0.4v-1.6l1.4-0.8l0.7,0.4l0.7,0.4v1.6L54,17.5
				L53.3,17.9L53.3,17.9z M94.4,20.8L93,19.9v-1.6l1.4-0.8l0.7,0.4l0.7,0.4v1.6l-0.7,0.4L94.4,20.8L94.4,20.8z M87.8,20.8l-1.4-0.8
				v-1.6l1.4-0.8l0.7,0.4l0.7,0.4v1.6l-0.7,0.4L87.8,20.8L87.8,20.8z M81.2,20.8l-0.7-0.4l-0.7-0.4v-1.6l1.4-0.8l0.7,0.4l0.7,0.4
				v1.6L82,20.3L81.2,20.8L81.2,20.8z M68.1,20.8l-1.4-0.8v-1.6l1.4-0.8l0.7,0.4l0.7,0.4v1.6l-0.7,0.4L68.1,20.8L68.1,20.8z
				 M61.5,20.8l-1.4-0.8v-1.6l1.4-0.8l0.7,0.4l0.7,0.4v1.6l-0.7,0.4L61.5,20.8L61.5,20.8z M55,20.8l-1.4-0.8v-1.6l1.4-0.8l0.7,0.4
				l0.7,0.4v1.6l-0.7,0.4L55,20.8L55,20.8z M91.1,20.8L89.7,20v-1.6l1.4-0.8l0.7,0.4l0.7,0.4V20L91.1,20.8L91.1,20.8z M84.5,20.8
				l-0.7-0.4L83.1,20v-1.6l0.7-0.4l0.7-0.4l0.7,0.4l0.7,0.4V20l-0.7,0.4L84.5,20.8L84.5,20.8z M78,20.8L76.5,20v-1.6l1.4-0.8
				l0.7,0.4l0.7,0.4V20L78,20.8L78,20.8z M64.8,20.8L63.4,20v-1.6l0.7-0.4l0.7-0.4l0.7,0.4l0.7,0.4V20L64.8,20.8L64.8,20.8z
				 M58.3,20.8L56.9,20v-1.6l1.4-0.8l0.7,0.4l0.7,0.4V20L59,20.4L58.3,20.8L58.3,20.8z M51.7,20.8L50.3,20v-1.6l0.7-0.4l0.7-0.4
				l1.4,0.8V20L51.7,20.8L51.7,20.8z M66.5,23.6l-0.7-0.4l-0.7-0.4v-1.6l1.4-0.8l0.7,0.4l0.7,0.4v1.6l-0.7,0.4L66.5,23.6L66.5,23.6z
				 M59.9,23.6l-1.4-0.8v-1.6l1.4-0.8l0.7,0.4l0.7,0.4v1.6l-0.7,0.4L59.9,23.6L59.9,23.6z M53.3,23.6l-1.4-0.8v-1.6l1.4-0.8l0.7,0.4
				l0.7,0.4v1.6l-0.7,0.4L53.3,23.6L53.3,23.6z M63.2,23.6l-0.7-0.4l-0.7-0.4v-1.6l0.7-0.4l0.7-0.4l0.7,0.4l0.7,0.4v1.6l-0.7,0.4
				L63.2,23.6L63.2,23.6z M56.6,23.6l-1.4-0.8v-1.6l1.4-0.8l1.4,0.8v1.6l-0.7,0.4L56.6,23.6L56.6,23.6z M50,23.6l-0.7-0.4l-0.7-0.4
				v-1.6l1.4-0.8l0.7,0.4l0.7,0.4v1.6l-0.7,0.4L50,23.6L50,23.6z M68.2,26.5l-1.4-0.8V24l1.4-0.8l0.7,0.4l0.7,0.4v1.6l-0.7,0.4
				L68.2,26.5L68.2,26.5z M64.9,26.5L64.2,26l-0.7-0.4V24l1.4-0.8l0.7,0.4l0.7,0.4v1.6l-0.7,0.4L64.9,26.5L64.9,26.5z M61.6,26.5
				l-0.7-0.4l-0.7-0.4V24l1.4-0.8l0.7,0.4L63,24v1.6l-0.7,0.4L61.6,26.5L61.6,26.5z M58.3,26.5L57.6,26l-0.7-0.4V24l1.4-0.8l0.7,0.4
				l0.7,0.4v1.6L59,26.1L58.3,26.5L58.3,26.5z M55,26.5l-1.4-0.8V24l1.4-0.8l0.7,0.4l0.7,0.4v1.6l-0.7,0.4L55,26.5L55,26.5z
				 M51.7,26.5L51,26l-0.7-0.4V24l0.7-0.4l0.7-0.4l0.7,0.4l0.7,0.4v1.6l-0.7,0.4L51.7,26.5L51.7,26.5z M48.4,26.5l-0.7-0.4L47,25.6
				V24l1.4-0.8l1.4,0.8v1.6l-0.7,0.4L48.4,26.5L48.4,26.5z M86.2,29.3l-1.4-0.8v-1.6l1.4-0.8l0.7,0.4l0.7,0.4v1.6L86.2,29.3
				L86.2,29.3z M92.8,29.3l-0.7-0.4l-0.7-0.4v-1.6l0.7-0.4l0.7-0.4l0.7,0.4l0.7,0.4v1.6l-0.7,0.4L92.8,29.3L92.8,29.3z M79.6,29.3
				l-0.7-0.4l-0.7-0.4v-1.6l0.7-0.4l0.7-0.4l0.7,0.4l0.7,0.4v1.6l-0.7,0.4L79.6,29.3L79.6,29.3z M89.5,29.3l-1.4-0.8v-1.6l1.4-0.8
				l0.7,0.4l0.7,0.4v1.6L89.5,29.3L89.5,29.3z M82.9,29.3l-0.7-0.4l-0.7-0.4v-1.6l1.4-0.8l0.7,0.4l0.7,0.4v1.6l-0.7,0.4L82.9,29.3
				L82.9,29.3z M76.3,29.3l-0.7-0.4l-0.7-0.4v-1.6l0.7-0.4l0.7-0.4l0.7,0.4l0.7,0.4v1.6L77,28.9L76.3,29.3L76.3,29.3z M73.1,29.3
				l-0.7-0.4l-0.7-0.4v-1.6l1.4-0.8l0.7,0.4l0.7,0.4v1.6L73.1,29.3L73.1,29.3z M78,32.1l-0.7-0.4l-0.7-0.4v-1.6l0,0l1.4-0.8l0.7,0.4
				l0.7,0.4v1.6L78,32.1L78,32.1z M91.1,32.1l-0.7-0.4l-0.7-0.4v-1.6l0.7-0.4l0.7-0.4l0.7,0.4l0.7,0.4v1.6l-0.7,0.4L91.1,32.1
				L91.1,32.1z M84.6,32.1l-0.7-0.4l-0.7-0.4v-1.6l0.7-0.4l0.7-0.4l1.4,0.8v1.6l-0.7,0.4L84.6,32.1L84.6,32.1z M94.4,32.1l-0.7-0.4
				L93,31.3v-1.6l0.7-0.4l0.7-0.4l0.7,0.4l0.7,0.4v1.6l-0.7,0.4L94.4,32.1L94.4,32.1z M87.8,32.1l-0.7-0.4l-0.7-0.4v-1.6l0.7-0.4
				l0.7-0.4l1.4,0.8v1.6l-0.7,0.4L87.8,32.1L87.8,32.1z M81.3,32.1l-0.7-0.4l-0.7-0.4v-1.6l0,0l0.7-0.4l0.7-0.4l0.7,0.4l0.7,0.4v1.6
				L81.3,32.1L81.3,32.1z M89.5,35l-0.7-0.4l-0.7-0.4v-1.6l0.7-0.4l0.7-0.4l0.7,0.4l0.7,0.4v1.6L89.5,35L89.5,35z M82.9,35l-0.7-0.4
				l-0.7-0.4v-1.6l1.4-0.8l0.7,0.4l0.7,0.4v1.6l-0.7,0.4L82.9,35L82.9,35z M92.8,35l-0.7-0.4l-0.7-0.4v-1.6l1.4-0.8l0.7,0.4l0.7,0.4
				v1.6l-0.7,0.4L92.8,35L92.8,35z M86.2,35l-0.7-0.4l-0.7-0.4v-1.6l0.7-0.4l0.7-0.4l0.7,0.4l0.7,0.4v1.6l-0.7,0.4L86.2,35L86.2,35z
				 M79.6,35l-0.7-0.4l-0.7-0.4v-1.6l1.4-0.8l0.7,0.4l0.7,0.4v1.6L79.6,35L79.6,35z M76.3,35l-0.7-0.4l-0.7-0.4v-1.6l1.4-0.8
				l0.7,0.4l0.7,0.4v1.6l-0.7,0.4L76.3,35L76.3,35z M93,35.4l0.7-0.4l0.7-0.4l0.7,0.4l0.7,0.4V37l-1.4,0.8l-0.7-0.4L93,37V35.4
				L93,35.4L93,35.4z M91.2,37.8L89.8,37v-1.6l0.7-0.4l0.7-0.4l1.4,0.8V37l-0.7,0.4L91.2,37.8L91.2,37.8z M86.5,35.4l0.7-0.4
				l0.7-0.4l0.7,0.4l0.7,0.4V37l-1.4,0.8l-0.7-0.4L86.5,37L86.5,35.4L86.5,35.4L86.5,35.4z M84.6,37.8l-0.7-0.4L83.2,37v-1.6
				l0.7-0.4l0.7-0.4l1.4,0.8V37l-0.7,0.4L84.6,37.8L84.6,37.8z M79.9,35.4l0.7-0.4l0.7-0.4L82,35l0.7,0.4V37l-1.4,0.8l-0.7-0.4
				L79.9,37L79.9,35.4L79.9,35.4L79.9,35.4z M78,37.8l-0.7-0.4L76.6,37v-1.6l0.7-0.4l0.7-0.4l0.7,0.4l0.7,0.4V37l-0.7,0.4L78,37.8
				L78,37.8z M89.5,40.7l-0.7-0.4l-0.7-0.4v-1.6l0.7-0.4l0.7-0.4l0.7,0.4l0.7,0.4v1.6L89.5,40.7L89.5,40.7z M83,40.7l-0.7-0.4
				l-0.7-0.4v-1.6l0.7-0.4l0.7-0.4l0.7,0.4l0.7,0.4v1.6L83,40.7L83,40.7z M92.8,40.7l-0.7-0.4l-0.7-0.4v-1.6l0.7-0.4l0.7-0.4
				l1.4,0.8v1.6l-0.7,0.4L92.8,40.7L92.8,40.7z M86.2,40.7l-0.7-0.4l-0.7-0.4v-1.6l0.7-0.4l0.7-0.4l0.7,0.4l0.7,0.4v1.6l-0.7,0.4
				L86.2,40.7L86.2,40.7z M79.7,40.7L79,40.3l-0.7-0.4v-1.6l0.7-0.4l0.7-0.4l0.7,0.4l0.7,0.4v1.6l-0.7,0.4L79.7,40.7L79.7,40.7z
				 M76.4,40.7l-0.7-0.4L75,39.9v-1.6l0.7-0.4l0.7-0.4l0.7,0.4l0.7,0.4v1.6L76.4,40.7L76.4,40.7z M87.9,43.5l-1.4-0.8v-1.6l1.4-0.8
				l0.7,0.4l0.7,0.4v1.6l-0.7,0.4L87.9,43.5L87.9,43.5z M81.3,43.5l-0.7-0.4l-0.7-0.4v-1.6l1.4-0.8l0.7,0.4l0.7,0.4v1.6L82,43.1
				L81.3,43.5L81.3,43.5z M91.2,43.5l-1.4-0.8v-1.6l1.4-0.8l0.7,0.4l0.7,0.4v1.6L91.2,43.5L91.2,43.5z M84.6,43.5l-0.7-0.4l-0.7-0.4
				v-1.6l0.7-0.4l0.7-0.4l0.7,0.4l0.7,0.4v1.6l-0.7,0.4L84.6,43.5L84.6,43.5z M78,43.5l-1.4-0.8v-1.6l1.4-0.8l0.7,0.4l0.7,0.4v1.6
				L78,43.5L78,43.5z M74.8,43.5l-1.4-0.8v-1.6l0.7-0.4l0.7-0.4l1.4,0.8v1.6l-0.7,0.4L74.8,43.5L74.8,43.5z M92.8,46.4l-1.4-0.8
				v-1.6l1.4-0.8l0.7,0.4l0.7,0.4v1.6L93.5,46L92.8,46.4L92.8,46.4z M86.3,46.4l-1.4-0.8v-1.6l1.4-0.8l0.7,0.4l0.7,0.4v1.6L87,46
				L86.3,46.4L86.3,46.4z M79.7,46.4l-1.4-0.8v-1.6l1.4-0.8l0.7,0.4l0.7,0.4v1.6L80.4,46L79.7,46.4L79.7,46.4z M89.5,46.4l-1.4-0.8
				v-1.6l1.4-0.8l0.7,0.4l0.7,0.4v1.6l-0.7,0.4L89.5,46.4L89.5,46.4z M83,46.4l-1.4-0.8v-1.6l1.4-0.8l0.7,0.4l0.7,0.4v1.6l-0.7,0.4
				L83,46.4L83,46.4z M76.4,46.4L75,45.6v-1.6l0.7-0.4l0.7-0.4l0.7,0.4l0.7,0.4v1.6L77.1,46L76.4,46.4L76.4,46.4z"/>
		</g>
	</g>
</g>
</svg>
