<svg id="Layer_1" data-name="Layer 1" xmlns="http://www.w3.org/2000/svg" viewBox="0 0 98.67 82.19"><defs><style>.cls-1{fill:red;}.cls-2{fill:none;}</style></defs><path class="cls-1" d="M86.53,3.91H64C55.59,3.91,45.62,6,43.48,15.5l-1.39,6.15a16.5,16.5,0,0,0-.4,3.23H33.08a37.34,37.34,0,0,0-7.31.62,18.65,18.65,0,0,0-6.22,2.33,14,14,0,0,0-4.7,4.71,19.21,19.21,0,0,0-2.3,6.09L5.7,71.14c-1,4.49-.07,9,3.76,11.84C13,85.61,18.07,86.1,22.33,86.1H45.2a43.14,43.14,0,0,0,7.44-.57,20.38,20.38,0,0,0,6.26-2.1,13.8,13.8,0,0,0,4.78-4.3,16,16,0,0,0,2.4-5.83l1.19-5.67H77.39c4.45,0,9.45-.52,13.4-2.7a14.41,14.41,0,0,0,7.3-10.12c.68-3.5,1.41-7,2.14-10.48.54-2.61,1.1-5.22,1.51-7.86.51-3.2.9-6.79-.31-9.83h.46l1.86-8.91a10.71,10.71,0,0,0-.74-7c-2.93-5.94-10.62-6.81-16.48-6.81ZM22.33,84.46c-3.85,0-8.7-.4-11.89-2.79s-4-6.31-3.14-10.19L14.16,39a17.65,17.65,0,0,1,2.1-5.57,12.44,12.44,0,0,1,4.16-4.16,17,17,0,0,1,5.68-2.12,36.38,36.38,0,0,1,7-.58H43.41A13.92,13.92,0,0,1,43.7,22l1.39-6.15C47,7.23,56.41,5.54,64,5.54H86.52c5.12,0,12.42.65,15,5.89a9,9,0,0,1,.61,5.95L100.56,25h-2l.1.11c2.62,3,2.08,7.49,1.51,11.1-.41,2.6-1,5.2-1.5,7.78-.73,3.5-1.46,7-2.15,10.5a12.74,12.74,0,0,1-6.48,9c-3.69,2-8.47,2.5-12.61,2.5H65.94l-1.46,7a14.45,14.45,0,0,1-2.16,5.24A12.09,12.09,0,0,1,58.1,82a18.48,18.48,0,0,1-5.75,1.92,40.79,40.79,0,0,1-7.15.55Z" transform="translate(-5.35 -3.91)"/><path class="cls-2" d="M62.64,64.22H40.36l-1,4.64A3.21,3.21,0,0,1,36,71.77a2.28,2.28,0,0,1-2-.69,2.81,2.81,0,0,1-.2-2.22l4.54-21.42H16.05l1.63-7.74h0L10.82,72.22c-.63,3-.07,5.19,1.78,6.57s5.09,2.07,9.73,2.07H45.2a38.53,38.53,0,0,0,6.52-.49,15.14,15.14,0,0,0,4.64-1.53,8.51,8.51,0,0,0,3-2.67,11,11,0,0,0,1.61-4Z" transform="translate(-5.35 -3.91)"/><path class="cls-2" d="M54.81,62.39H77.38q7.16,0,10.87-2a9.15,9.15,0,0,0,4.69-6.54c.45-2.3.88-4.41,1.28-6.36H71.62a33.65,33.65,0,0,1-1.23,5.1c-.43.9-5.63,1.81-4.79-2.15l.59-2.81h-22l-1.53,7.26a4.87,4.87,0,0,0,2.25,5.63q3,1.92,9.9,1.92Zm20.55-41Z" transform="translate(-5.35 -3.91)"/><path class="cls-1" d="M72.38,47.44c-.15.74-.3,1.49-.46,2.23a18,18,0,0,1-.86,3.2c-.83,1.71-7.19,2.17-6.18-2.62l.41-1.92H44.79L43.38,55a4.16,4.16,0,0,0,1.92,4.85c2.48,1.57,6.66,1.81,9.51,1.81H77.38c3.31,0,7.55-.32,10.51-1.95a8.41,8.41,0,0,0,4.32-6c.4-2.07.83-4.15,1.25-6.22Z" transform="translate(-5.35 -3.91)"/><path class="cls-1" d="M61.72,65H41L40.1,69A3.94,3.94,0,0,1,36,72.51a3.06,3.06,0,0,1-2.58-1,3.61,3.61,0,0,1-.32-2.81l4.5-21.27H16.8L11.54,72.36c-.45,2.15-.39,4.41,1.5,5.83,2.27,1.7,6.57,1.93,9.29,1.93H45.2a36.94,36.94,0,0,0,6.39-.48A14.62,14.62,0,0,0,56,78.19a7.81,7.81,0,0,0,2.73-2.44,10.25,10.25,0,0,0,1.49-3.69Z" transform="translate(-5.35 -3.91)"/><path class="cls-1" d="M16.66,45.94l1.51-6.14a13.72,13.72,0,0,1,1.59-4.29,8.33,8.33,0,0,1,2.8-2.8,13.07,13.07,0,0,1,4.33-1.59,32.64,32.64,0,0,1,6.2-.51H56a33.73,33.73,0,0,1,6.42.51,8.22,8.22,0,0,1,3.68,1.5c1.58,1.35,2,3.69,1.27,7l-1,4.9H45.06l.47-2.31a3.14,3.14,0,0,0-.27-2.65,2.84,2.84,0,0,0-2.4-.86,3.84,3.84,0,0,0-2.6.81A4.46,4.46,0,0,0,39,42l-1.05,4H16.66Z" transform="translate(-5.35 -3.91)"/><path class="cls-2" d="M56,31.11a33.7,33.7,0,0,1,6.33.5A7.71,7.71,0,0,1,65.74,33q2.15,1.83,1.1,6.5L65.92,44H45.67l.35-1.7a3.6,3.6,0,0,0-.36-3.07,3.33,3.33,0,0,0-2.79-1,4.33,4.33,0,0,0-2.93.94,4.92,4.92,0,0,0-1.46,2.77l-1,4.58H17.28l1.38-6.54a13.29,13.29,0,0,1,1.53-4.13,7.78,7.78,0,0,1,2.63-2.63A12.88,12.88,0,0,1,27,31.63a32.53,32.53,0,0,1,6.11-.5H56m0-1H33.09a32.86,32.86,0,0,0-6.3.52,13.72,13.72,0,0,0-4.49,1.65,8.82,8.82,0,0,0-3,3,14.22,14.22,0,0,0-1.66,4.44l-1.63,7.74H38.33l1.14-5.37a4,4,0,0,1,1.14-2.22,3.35,3.35,0,0,1,2.27-.69,2.4,2.4,0,0,1,2,.67,2.74,2.74,0,0,1,.17,2.25L44.46,45H66.74l1.09-5.29Q69,34.44,66.4,32.22a8.65,8.65,0,0,0-3.9-1.6A35.25,35.25,0,0,0,56,30.11Z" transform="translate(-5.35 -3.91)"/><path class="cls-1" d="M93.64,46.05c3.7-17.87,5.65-20.27-4.29-20.29-4.88,0-9.82.25-14.24,0-1-.07-2-.13-2.94-.21-3.11-.27-4.41-7.19.94-7.35,1.5,0,2.79.6,2.36,2.74l-.1.49H97.65l1-4.74c1-5-3-7.51-12.1-7.51H64c-9.15,0-14.24,2.51-15.36,7.51L47.2,22.81c-.45,2-.47,5.28,1.07,5.31,7,.16,14,.44,21.06.75,3.86.17,4.93,2.34,4.24,7.3a89.48,89.48,0,0,1-1.06,9.89l21.26.09Z" transform="translate(-5.35 -3.91)"/></svg>