<?xml version="1.0" encoding="utf-8"?>
<!-- Generator: Adobe Illustrator 26.2.1, SVG Export Plug-In . SVG Version: 6.00 Build 0)  -->
<svg version="1.1" id="Layer_1" xmlns="http://www.w3.org/2000/svg" xmlns:xlink="http://www.w3.org/1999/xlink" x="0px" y="0px"
	 viewBox="0 0 110 90" style="enable-background:new 0 0 110 90;" xml:space="preserve">
<style type="text/css">
	.st0{fill:#FFFFFF;}
	.st1{fill:#AA2626;}
	.st2{fill:#FCFCFC;}
	.st3{fill:none;}
	.st4{display:none;}
	.st5{display:inline;}
</style>
<g>
	<g>
		<path class="st0" d="M23.3,85.6c-3.7,0-9-0.3-12.6-3c-3.3-2.5-4.6-6.5-3.6-11.3l6.9-32.5c0.5-2.3,1.2-4.3,2.2-5.9
			c1.1-1.9,2.7-3.4,4.5-4.5c1.7-1,3.8-1.8,6.1-2.3c2.1-0.4,4.4-0.6,7.2-0.6h9.1l0-0.5c0-1,0.2-2.1,0.4-3.1l1.4-6.1
			C47.1,6.3,57,4.4,65,4.4h22.6c8.6,0,13.9,2.1,16,6.5c1,1.9,1.2,4.3,0.7,6.7l-1.8,8.5h-0.8l0.3,0.7c1.2,3,0.8,6.5,0.3,9.6
			c-0.4,2.5-0.9,5-1.4,7.4l-0.3,1.3c-0.7,3.2-1.3,6.4-2,9.7c-0.8,4.3-3.3,7.7-7.1,9.8c-3.2,1.8-7.5,2.6-13.2,2.6H67.9l-1.3,6.1
			c-0.4,2.1-1.2,4-2.3,5.7c-1.2,1.7-2.7,3.1-4.6,4.1c-1.7,0.9-3.7,1.6-6.1,2.1c-2.2,0.4-4.5,0.6-7.3,0.6L23.3,85.6L23.3,85.6z
			 M34.1,26c-2.7,0-5,0.2-7.1,0.6c-2.2,0.4-4.2,1.2-5.9,2.2c-1.8,1.1-3.2,2.5-4.3,4.3c-1,1.6-1.7,3.5-2.2,5.7L7.8,71.4
			c-0.7,3.2-0.7,7.7,3.3,10.7C13.7,84,17.7,85,23.3,85h22.9c2.8,0,5.1-0.2,7.2-0.6c2.3-0.4,4.3-1.1,5.9-2c1.8-1,3.3-2.3,4.4-3.9
			c1-1.5,1.8-3.4,2.2-5.4l1.4-6.6h11c5.5,0,9.7-0.8,12.8-2.6c3.6-2,5.9-5.2,6.7-9.4c0.6-3.1,1.2-6.2,1.9-9.3l0.3-1.6
			c0.5-2.4,1-4.9,1.4-7.4c0.6-3.7,1-7.8-1.1-10.8h1.4l1.7-8c0.5-2.3,0.3-4.4-0.7-6.3C99.9,5,90.6,5,87.5,5H64.9
			C53.9,5,47.2,8.7,45.6,15.7l-1.4,6.2c-0.3,1.4-0.4,2.8-0.3,4.1C43.9,26,34.1,26,34.1,26z"/>
		<path class="st1" d="M87.5,3.9H64.9c-8.4,0-18.3,2.1-20.5,11.6l-1.4,6.1c-0.2,1-0.4,2.1-0.4,3.2h-8.6c-2.4,0-4.9,0.1-7.3,0.6
			c-2.2,0.4-4.3,1.2-6.2,2.3c-1.9,1.2-3.5,2.8-4.7,4.7c-1.1,1.9-1.9,4-2.3,6.1L6.7,71.1c-0.9,4.5-0.1,9,3.8,11.8
			c3.5,2.6,8.6,3.1,12.9,3.1h22.9c2.5,0,5-0.1,7.4-0.6c2.2-0.4,4.3-1,6.3-2.1c1.9-1.1,3.5-2.5,4.8-4.3c1.2-1.8,2-3.8,2.4-5.8
			l1.2-5.7l0,0h10.1c4.4,0,9.4-0.5,13.4-2.7c3.9-2.2,6.4-5.7,7.3-10.1c0.7-3.5,1.4-7,2.1-10.5c0.5-2.6,1.1-5.2,1.5-7.9
			c0.5-3.2,0.9-6.8-0.3-9.8h0.5l1.9-8.9c0.5-2.4,0.3-4.8-0.7-7C101.1,4.8,93.4,3.9,87.5,3.9L87.5,3.9z M23.3,84.5
			c-3.9,0-8.7-0.4-11.9-2.8c-3.3-2.5-4-6.3-3.1-10.2L15.2,39c0.4-2,1.1-3.9,2.1-5.6c1-1.7,2.5-3.1,4.2-4.2c1.7-1.1,3.7-1.7,5.7-2.1
			c2.3-0.5,4.7-0.6,7-0.6h10.3c-0.2-1.5,0-3.2,0.3-4.5l1.4-6.1C48,7.2,57.4,5.5,64.9,5.5h22.6c5.1,0,12.4,0.7,15,5.9
			c0.9,1.9,1,3.9,0.6,6l-1.6,7.6h-2.1c0,0,0.1,0.1,0.1,0.1c2.6,3,2.1,7.5,1.5,11.1c-0.4,2.6-1,5.2-1.5,7.8c-0.7,3.5-1.5,7-2.2,10.5
			c-0.8,3.9-3,7.1-6.5,9c-3.7,2-8.5,2.5-12.6,2.5H66.9l-1.5,7c-0.4,1.9-1.1,3.7-2.2,5.2c-1.1,1.6-2.5,2.9-4.2,3.8
			c-1.8,1-3.8,1.6-5.8,1.9c-2.3,0.4-4.8,0.6-7.2,0.6L23.3,84.5L23.3,84.5z"/>
	</g>
	<g>
		<g>
			<path class="st2" d="M55.8,62.9c-4.3,0-7.4-0.5-9.2-1.6c-1.6-0.9-2.1-2.2-1.7-3.9l1.3-5.7h19.5l-0.3,1.2
				c-0.3,1.2-0.1,2.1,0.6,2.8c0.7,0.7,1.8,1.2,3.2,1.2c1.3,0,2.9-0.4,3.4-1.3c0.4-0.7,0.6-1.8,0.8-2.7l0.1-0.3
				c0.1-0.6,0.3-1.1,0.4-1.7h20.1c-0.4,1.7-0.8,3.4-1.1,5.1c-0.5,2.3-1.9,4.1-4.1,5.2c-2.3,1.1-5.7,1.7-10.3,1.7L55.8,62.9
				L55.8,62.9z"/>
			<path class="st1" d="M73.4,50.4c-0.2,0.7-0.3,1.4-0.5,2c-0.2,0.8-0.5,2.2-0.9,2.9c-0.3,0.6-1.6,1.1-2.9,1.1
				c-1.9,0-3.8-0.9-3.2-3.5l0.4-1.7H45.8l-1.4,6.1c-0.4,1.9,0.1,3.4,1.9,4.4c2.5,1.4,6.7,1.6,9.5,1.6h22.6c3.3,0,7.6-0.3,10.5-1.8
				c2.4-1.2,3.8-3.1,4.3-5.5c0.4-1.9,0.8-3.8,1.2-5.7L73.4,50.4L73.4,50.4L73.4,50.4z"/>
			<g id="XMLID_00000044159347236769513180000015006980475932353669_">
				<g>
					<path class="st1" d="M93.2,51.3L93.2,51.3L93.2,51.3C93.2,51.3,93.2,51.3,93.2,51.3z"/>
					<path class="st1" d="M74.2,51.3h19c-0.4,1.7-0.7,3.2-1,4.5c-0.5,2.2-1.7,3.8-3.8,4.9c-2.2,1.1-5.6,1.7-10,1.7H55.8
						c-4.2,0-7.2-0.5-9-1.5c-1.4-0.8-1.8-1.9-1.5-3.5l1.2-5.3h18.5l-0.2,0.7c-0.4,1.6,0.2,2.7,0.7,3.2c0.8,0.9,2.1,1.3,3.6,1.3
						c1.5,0,3.2-0.5,3.8-1.6c0.4-0.7,0.7-1.9,0.9-2.8l0.1-0.3C74,52.2,74.1,51.7,74.2,51.3z"/>
				</g>
				<g>
				</g>
			</g>
		</g>
		<g>
			<path class="st2" d="M23.3,79.7c-4.4,0-7.4-0.6-9-1.7c-1.4-1-1.8-2.5-1.3-4.8l5.2-22.3H38l-4.4,18.8c-0.3,1.2-0.2,2.2,0.4,2.9
				c0.6,0.7,1.6,1.1,3,1.1c2.5,0,4.1-1.3,4.6-3.6l0.8-3.3h19.8l-1.4,5.9c-0.3,1.2-0.8,2.3-1.4,3.2c-0.6,0.8-1.5,1.5-2.6,2.1
				c-1.1,0.6-2.5,1-4.3,1.3c-1.8,0.3-3.9,0.4-6.3,0.4C46.2,79.7,23.3,79.7,23.3,79.7z"/>
			<path class="st1" d="M37.3,51.3l-4.2,18.3c-0.3,1.4-0.1,2.5,0.5,3.3c0.7,0.9,1.8,1.3,3.4,1.3c2.7,0,4.5-1.4,5.1-3.9l0.7-3h18.7
				l-1.2,5.4c-0.3,1.2-0.7,2.2-1.3,3c-0.6,0.8-1.4,1.4-2.4,1.9c-1.1,0.5-2.4,0.9-4.1,1.2c-1.8,0.3-3.8,0.4-6.2,0.4H23.3
				c-5.3,0-7.6-0.9-8.7-1.6c-1.3-0.9-1.6-2.3-1.1-4.4l5.1-22L37.3,51.3"/>
			<g id="XMLID_00000046320061273856524210000016023810823844166317_">
				<g>
					<path class="st1" d="M62.7,66.3l-1.5,6.5c-0.3,1.2-0.7,2.4-1.5,3.4c-0.7,0.9-1.6,1.7-2.7,2.2c-1.3,0.7-2.9,1.1-4.4,1.3
						c-2.1,0.3-4.3,0.4-6.4,0.4H23.3c-2.7,0-7-0.2-9.3-1.8c-1.9-1.3-1.9-3.3-1.5-5.3l5.3-22.7h20.8l-4.5,19.4
						c-0.2,0.8-0.2,1.8,0.3,2.6C35,73,36,73.2,37,73.2c2.3,0,3.7-1.2,4.1-3.2l0.9-3.7H62.7z"/>
				</g>
				<g>
				</g>
			</g>
		</g>
	</g>
	<g>
		<g>
			<path class="st1" d="M18.7,46.3l1.5-6.8c0.4-1.6,0.9-3,1.6-4.1c0.7-1.1,1.6-2,2.8-2.7c1.2-0.7,2.6-1.2,4.3-1.5
				c1.7-0.3,3.8-0.5,6.2-0.5H58c2.6,0,4.7,0.2,6.4,0.5c1.7,0.3,2.9,0.8,3.7,1.4c1.6,1.3,2,3.5,1.3,6.7l-1,4.7H47.1l0.5-2.2
				c0.3-1.2,0.2-2-0.3-2.5c-0.5-0.6-1.2-0.8-2.4-0.8c-1.1,0-2,0.3-2.6,0.8c-0.6,0.5-1.1,1.3-1.3,2.4l-1,4.8L18.7,46.3L18.7,46.3z"/>
			<path class="st3" d="M58,31.2c2.5,0,4.7,0.2,6.3,0.5c1.6,0.3,2.7,0.7,3.4,1.3c1.4,1.2,1.8,3.2,1.1,6.2l-0.9,4.3H47.7l0.3-1.6
				c0.3-1.3,0.2-2.3-0.4-2.9c-0.5-0.7-1.5-1-2.8-1c-1.2,0-2.2,0.3-2.9,0.9c-0.7,0.6-1.2,1.5-1.5,2.7l-1,4.4H19.3l1.4-6.3
				c0.4-1.6,0.9-2.9,1.5-4c0.6-1,1.5-1.9,2.6-2.5c1.1-0.7,2.5-1.1,4.2-1.5c1.7-0.3,3.8-0.5,6.1-0.5L58,31.2 M68.7,44.5l1.1-5.1
				c0.8-3.3,0.3-5.7-1.4-7.1c-0.9-0.7-2.2-1.2-3.9-1.5c-1.8-0.3-3.9-0.5-6.5-0.5l0,0H35.1c-2.4,0-4.5,0.2-6.3,0.5
				c-1.8,0.3-3.3,0.9-4.5,1.6c-1.2,0.7-2.2,1.7-3,2.8c-0.7,1.2-1.3,2.6-1.7,4.3l-1.6,7.4h22.3l1.1-5.1c0.2-1,0.6-1.7,1.1-2.1
				c0.5-0.4,1.3-0.7,2.3-0.7s1.7,0.2,2,0.6c0.3,0.4,0.4,1.1,0.2,2.2l-0.6,2.8"/>
		</g>
		<g>
			<path class="st1" d="M74.2,46.3c0.8-4,1.7-9,1.8-10.3c0.4-3,0.2-4.9-0.9-6.1c-0.8-0.9-2.1-1.4-3.8-1.5
				c-6.7-0.3-13.9-0.6-21.1-0.7c-0.1,0-0.2,0-0.4-0.2c-0.6-0.7-0.6-2.8-0.2-4.3l1.4-5.9c1.1-4.5,6.1-6.8,14.9-6.8h22.6
				c5.7,0,9.3,0.9,10.9,2.8c0.8,1,1.1,2.3,0.7,3.9l-0.9,4.2H78c0.2-0.9,0-1.7-0.4-2.2c-0.5-0.6-1.3-0.9-2.3-0.9h-0.2
				c-3,0.1-4.1,2-4.1,3.7c-0.1,1.9,1.2,4.1,3.2,4.3c0.9,0.1,1.9,0.1,3,0.2c1.4,0.1,2.9,0.1,4.8,0.1c1.5,0,3,0,4.5,0
				c1.5,0,3.1,0,4.7,0h0.3c3.5,0,5.3,0.5,6.3,1.6c1.7,2,0.7,7-1.3,16l-0.5,2.3L74.2,46.3L74.2,46.3z"/>
			<path class="st1" d="M88.5,11.1c5.5,0,9,0.9,10.5,2.6c0.7,0.9,0.9,2,0.6,3.5l-0.8,3.8H78.5c0.1-0.8-0.2-1.5-0.6-2.1
				c-0.6-0.7-1.5-1-2.7-1c-0.1,0-0.1,0-0.2,0c-3.3,0.1-4.6,2.3-4.6,4.2c-0.1,2.1,1.3,4.6,3.6,4.8c0.8,0.1,1.7,0.1,3,0.2
				c1.4,0.1,3,0.1,4.9,0.1c1.5,0,3,0,4.5,0c1.5,0,3.1,0,4.6,0h0.3c3.3,0,5.1,0.4,5.9,1.4c1.6,1.9,0.5,6.7-1.4,15.6l-0.4,1.9H74.8
				c0.8-4,1.6-8.6,1.7-9.7c0.4-3.2,0.2-5.1-1-6.4c-0.9-1-2.3-1.6-4.2-1.6c-6.7-0.3-13.9-0.6-21.1-0.7c-0.3-0.2-0.6-2-0.1-3.9
				l1.4-5.9c1-4.3,5.7-6.4,14.4-6.4L88.5,11.1 M88.5,10.1H65.9c-9.1,0-14.2,2.4-15.4,7.2l-1.4,5.9c-0.5,1.9-0.5,5.1,1.1,5.1
				c7,0.2,14,0.4,21.1,0.7c3.9,0.2,4.9,2.2,4.2,7c-0.2,1.3-1.1,6.7-1.9,10.8h22.6l0,0c3.7-17.1,5.1-20.7-4.9-20.8
				c-0.1,0-0.2,0-0.3,0c-3.1,0-6.2,0.1-9.2,0.1c-1.7,0-3.3,0-4.8-0.1c-1-0.1-2-0.1-2.9-0.2c-3.1-0.3-4.4-6.9,0.9-7
				c0.1,0,0.1,0,0.1,0c1.4,0,2.6,0.6,2.2,2.6l-0.1,0.5h22.3l1-4.5C101.7,12.5,97.7,10.1,88.5,10.1L88.5,10.1z"/>
		</g>
	</g>
	<g class="st4">
		<g class="st5">
			<path class="st0" d="M54.6,30.1h-0.5v1.2l-1.4,0.8L52,31.7l-0.7-0.4v-1.2h-0.5v1.2l-1.4,0.8l-0.7-0.4L48,31.4v-1.2h-0.5v1.2
				l-1.4,0.8l-0.7-0.4l-0.7-0.4v-1.2h-0.5v1.2l-0.7,0.4l-0.7,0.4l-0.7-0.4l-0.7-0.4v-1.2H41v1.2l-0.7,0.4l-0.7,0.4l-0.7-0.4
				l-0.7-0.4v-1.2h-0.5v1.2L37,31.7l-0.7,0.4l-0.7-0.4l-0.7-0.4v-1.2h-0.5v1.2l-0.7,0.4L33,32.1l-0.7-0.4l-0.7-0.4v-1.1
				c-0.2,0-0.3,0-0.5,0v1.1l-1.4,0.8L29,31.7l-0.7-0.4v-0.8c-0.2,0-0.3,0.1-0.5,0.1v0.7l-1.4,0.8l-0.7-0.4l-0.6-0.4
				c-0.7,0.3-1.3,0.6-1.8,0.9c-0.1,0.1-0.3,0.2-0.4,0.2l0,0v1.6l-0.7,0.4L21.5,35l-0.7-0.4l0,0c-0.1,0.1-0.2,0.2-0.3,0.4l0.1,0.1
				l0.7,0.4V37l-0.7,0.4l-0.7,0.4l-0.6-0.4c0,0.2-0.1,0.3-0.1,0.5l0.5,0.3v1.6l-1.2,0.7L18,42.6v0.1l0,0l-0.1,0.6l0.4-0.2l0.7,0.4
				l0.7,0.4v1.6l-1.4,0.8l-0.9-0.5l-0.1,0.5l0.8,0.5v0.7h0.5v-0.7l1.4-0.8l0.7,0.4l0.7,0.4v0.7h0.5v-0.7l1.4-0.8l0.7,0.4l0.7,0.4
				v0.7h0.5v-0.7l1.4-0.8l1.4,0.8v0.6h0.5v-0.6l1.4-0.8l0.7,0.4l0.7,0.4v0.7h0.5v-0.7l1.4-0.8l0.7,0.4l0.7,0.4v0.6H35v-0.6l1.4-0.8
				l0.7,0.4l0.7,0.4v0.7h0.5v-0.7l1.4-0.8l0.2-1.2V44l0.2-0.1l0.1-0.6l-0.6,0.3l-1.4-0.8v-1.6l1.4-0.8l0.7,0.4l0.5,0.3
				c0.1-0.2,0.1-0.3,0.2-0.4l-0.5-0.3l-0.7-0.4v-1.6l0.7-0.4l0.7-0.4l1.4,0.8v1c0.2,0,0.3-0.1,0.5-0.1v-1l1.4-0.8l0.7,0.4l0.7,0.4
				v1.6l0,0c0.1,0.1,0.1,0.3,0.2,0.4l0.1,0l0.7,0.4l0.7,0.4v1.6l-0.7,0.4l-0.7,0.4l-0.4-0.2l-0.1,0.5L46,44v1h0.5v-1l1.4-0.8
				l0.7,0.4l0.7,0.4v1h0.5v-1l1.4-0.8l0.7,0.4l0.7,0.4v1H53v-1l1.4-0.8l0.7,0.4l0.7,0.4v1h0.5v-1l1.4-0.8l1.4,0.8v1h0.5v-1l1.4-0.8
				l0.7,0.4l0.7,0.4v1h0.5v-1l0.7-0.4l0.7-0.4l0.7,0.4l0.7,0.4v1h0.5v-1l1.4-0.8l0.5,0.3l0.1-0.5l-0.4-0.2v-1.6l0.8-0.5l0.1-0.6
				l-0.5,0.3l-0.7,0.4l-0.7-0.4l-0.7-0.4v-1.6l1.4-0.8l0.7,0.4l0.7,0.4v0.8c0.1-0.4,0.2-0.9,0.2-1.3l-0.7-0.4l-0.7-0.4v-1.7l0.7-0.4
				l0.5-0.3c0-0.2-0.1-0.3-0.2-0.5l-0.6,0.3L67.5,35l-0.7-0.4l-0.7-0.4v-1.6l1-0.5c-0.1-0.1-0.3-0.2-0.4-0.3l-0.1,0l-0.7,0.4
				l-0.7-0.4l-0.7-0.4v-0.5c-0.2,0-0.3-0.1-0.5-0.1v0.6l-1.4,0.8l-0.7-0.4l-0.7-0.4v-1c-0.2,0-0.3,0-0.5,0v1.1l-1.4,0.8l-0.7-0.4
				l-0.7-0.4v-1.2l-0.5,0v1.2l-0.7,0.4L56,32.2l-0.7-0.4l-0.7-0.4L54.6,30.1L54.6,30.1z M64.2,35l-0.7-0.4l-0.7-0.4v-1.6l0.7-0.4
				l0.7-0.4l0.7,0.4l0.7,0.4v1.6l-0.7,0.4L64.2,35L64.2,35z M44.5,35l-0.7-0.4l-0.7-0.4v-1.6l1.4-0.8l0.7,0.4l0.7,0.4v1.6l-0.7,0.4
				L44.5,35L44.5,35z M38,35l-0.7-0.4l-0.7-0.4v-1.6l0.7-0.4l0.7-0.4l0.7,0.4l0.7,0.4v1.6L38,35L38,35z M31.4,35l-0.7-0.4L30,34.2
				v-1.6l1.4-0.8l0.7,0.4l0.7,0.4v1.6l-0.7,0.4L31.4,35L31.4,35z M57.7,35L57,34.6l-0.7-0.4v-1.6l1.4-0.8l0.7,0.4l0.7,0.4v1.6
				L57.7,35L57.7,35z M60.9,35l-0.7-0.4l-0.7-0.4v-1.6l0.7-0.4l0.7-0.4l0.7,0.4l0.7,0.4v1.6l-0.7,0.4L60.9,35L60.9,35z M54.3,35
				l-0.7-0.4L53,34.2v-1.6l1.4-0.8l0.7,0.4l0.7,0.4v1.6l-0.7,0.4L54.3,35L54.3,35z M47.8,35l-0.7-0.4l-0.7-0.4v-1.6l1.4-0.8l0.7,0.4
				l0.7,0.4v1.6l-0.7,0.4L47.8,35L47.8,35z M41.2,35l-0.7-0.4l-0.7-0.4v-1.6l1.4-0.8l0.7,0.4l0.7,0.4v1.6l-0.7,0.4L41.2,35L41.2,35z
				 M34.7,35L34,34.6l-0.7-0.4v-1.6l0.7-0.4l0.7-0.4l0.7,0.4l0.7,0.4v1.6l-0.7,0.4L34.7,35L34.7,35z M28.1,35l-0.7-0.4l-0.7-0.4
				v-1.6l1.4-0.8l0.7,0.4l0.7,0.4v1.6L28.1,35L28.1,35z M24.8,35l-0.7-0.4l-0.7-0.4v-1.6l1.4-0.8l0.7,0.4l0.7,0.4v1.6l-0.7,0.4
				L24.8,35L24.8,35z M51.1,35l-0.7-0.4l-0.7-0.4v-1.6l1.4-0.8l0.7,0.4l0.7,0.4v1.6L51.1,35L51.1,35z M65.9,37.8l-0.7-0.4L64.5,37
				v-1.6l0.7-0.4l0.7-0.4l0.7,0.4l0.7,0.4V37L65.9,37.8L65.9,37.8z M62.6,37.8l-0.7-0.4L61.2,37v-1.6l0.7-0.4l0.7-0.4l0.7,0.4
				l0.7,0.4V37L62.6,37.8L62.6,37.8z M59.3,37.8l-0.7-0.4L57.9,37v-1.6l0.7-0.4l0.7-0.4l1.4,0.8V37L59.3,37.8L59.3,37.8z M54.6,35.4
				l0.7-0.4l0.7-0.4l0.7,0.4l0.7,0.4V37L56,37.9l-0.7-0.4L54.6,37V35.4L54.6,35.4L54.6,35.4z M52.7,37.8L51.3,37v-1.6L52,35l0.7-0.4
				l0.7,0.4l0.7,0.4V37l-0.7,0.4L52.7,37.8L52.7,37.8z M46.2,37.8l-0.7-0.4L44.8,37v-1.6l0.7-0.4l0.7-0.4l0.7,0.4l0.7,0.4V37
				L46.2,37.8L46.2,37.8z M41.5,35.4l0.7-0.4l0.7-0.4l0.7,0.4l0.7,0.4V37l-1.4,0.8l-0.7-0.4L41.5,37L41.5,35.4L41.5,35.4L41.5,35.4z
				 M39.6,37.8L38.2,37v-1.6l0.7-0.4l0.7-0.4l1.4,0.8V37l-0.7,0.4L39.6,37.8L39.6,37.8z M36.3,37.8l-0.7-0.4L34.9,37v-1.6l0.7-0.4
				l0.7-0.4L37,35l0.7,0.4V37L36.3,37.8L36.3,37.8z M33,37.8l-0.7-0.4L31.6,37v-1.6l0.7-0.4l0.7-0.4l0.7,0.4l0.7,0.4V37l-0.7,0.4
				L33,37.8L33,37.8z M28.4,35.4L29,35l0.7-0.4l0.7,0.4l0.7,0.4V37l-1.4,0.8L28.4,37V35.4L28.4,35.4L28.4,35.4z M26.5,37.8l-0.7-0.4
				L25.1,37v-1.6l0.7-0.4l0.7-0.4l1.4,0.8V37l-0.7,0.4L26.5,37.8L26.5,37.8z M21.8,35.4l0.7-0.4l0.7-0.4l0.7,0.4l0.7,0.4V37
				l-1.4,0.8L21.8,37L21.8,35.4L21.8,35.4L21.8,35.4z M49.5,37.8l-0.7-0.4L48.1,37v-1.6l0.7-0.4l0.7-0.4l0.7,0.4l0.7,0.4V37
				l-0.7,0.4L49.5,37.8L49.5,37.8z M64.3,40.7l-0.7-0.4l-0.7-0.4v-1.6l0.7-0.4l0.7-0.4l0.7,0.4l0.7,0.4v1.6L65,40.3L64.3,40.7
				L64.3,40.7z M57.7,40.7L57,40.3l-0.7-0.4v-1.6l0.7-0.4l0.7-0.4l0.7,0.4l0.7,0.4v1.6L57.7,40.7L57.7,40.7z M38,40.7l-0.7-0.4
				l-0.7-0.4v-1.6l0.7-0.4l0.7-0.4l0.7,0.4l0.7,0.4v1.6L38,40.7L38,40.7z M31.4,40.7l-0.7-0.4L30,39.9v-1.6l0.7-0.4l0.7-0.4l0.7,0.4
				l0.7,0.4v1.6L31.4,40.7L31.4,40.7z M61,40.7l-0.7-0.4l-0.7-0.4v-1.6l1.4-0.8l0.7,0.4l0.7,0.4v1.6l-0.7,0.4L61,40.7L61,40.7z
				 M54.4,40.7l-0.7-0.4L53,39.9v-1.6l1.4-0.8l0.7,0.4l0.7,0.4v1.6l-0.7,0.4L54.4,40.7L54.4,40.7z M47.8,40.7l-0.7-0.4l-0.7-0.4
				v-1.6l0.7-0.4l0.7-0.4l0.7,0.4l0.7,0.4v1.6L47.8,40.7L47.8,40.7z M34.7,40.7L34,40.3l-0.7-0.4v-1.6l0.7-0.4l0.7-0.4l0.7,0.4
				l0.7,0.4v1.6l-0.7,0.4L34.7,40.7L34.7,40.7z M28.1,40.7l-0.7-0.4l-0.7-0.4v-1.6l0.7-0.4l0.7-0.4l0.7,0.4l0.7,0.4v1.6l-0.7,0.4
				L28.1,40.7L28.1,40.7z M24.9,40.7l-0.7-0.4l-0.7-0.4v-1.6l0.7-0.4l0.7-0.4l0.7,0.4l0.7,0.4v1.6L24.9,40.7L24.9,40.7z M21.6,40.7
				l-0.7-0.4l-0.7-0.4v-1.6l1.4-0.8l0.7,0.4l0.7,0.4v1.6l-0.7,0.4L21.6,40.7L21.6,40.7z M51.1,40.7l-0.7-0.4l-0.7-0.4v-1.6l0.7-0.4
				l0.7-0.4l1.4,0.8v1.6l-0.7,0.4L51.1,40.7L51.1,40.7z M62.6,43.5l-1.4-0.8v-1.6l1.4-0.8l0.7,0.4l0.7,0.4v1.6l-0.7,0.4L62.6,43.5
				L62.6,43.5z M56,43.5l-1.4-0.8v-1.6l1.4-0.8l0.7,0.4l0.7,0.4v1.6l-0.7,0.4L56,43.5L56,43.5z M36.4,43.5L35,42.7v-1.6l1.4-0.8
				l0.7,0.4l0.7,0.4v1.6l-0.7,0.4L36.4,43.5L36.4,43.5z M29.8,43.5l-0.7-0.4l-0.7-0.4v-1.6l1.4-0.8l0.7,0.4l0.7,0.4v1.6l-0.7,0.4
				L29.8,43.5L29.8,43.5z M59.3,43.5l-1.4-0.8v-1.6l1.4-0.8l0.7,0.4l0.7,0.4v1.6L60,43.1L59.3,43.5L59.3,43.5z M65.9,43.5l-1.4-0.8
				v-1.6l1.4-0.8l0.7,0.4l0.7,0.4v1.6L65.9,43.5L65.9,43.5z M52.8,43.5l-1.4-0.8v-1.6l0.7-0.4l0.7-0.4l0.7,0.4l0.7,0.4v1.6
				L52.8,43.5L52.8,43.5z M33.1,43.5l-0.7-0.4l-0.7-0.4v-1.6l0.7-0.4l0.7-0.4l0.7,0.4l0.7,0.4v1.6l-0.7,0.4L33.1,43.5L33.1,43.5z
				 M26.5,43.5l-1.4-0.8v-1.6l1.4-0.8l0.7,0.4l0.7,0.4v1.6L26.5,43.5L26.5,43.5z M23.2,43.5l-1.4-0.8v-1.6l0.7-0.4l0.7-0.4l1.4,0.8
				v1.6l-0.7,0.4L23.2,43.5L23.2,43.5z M19.9,43.5l-1.4-0.8v-1.6l0.7-0.4l0.7-0.4l0.7,0.4l0.7,0.4v1.6l-0.7,0.4L19.9,43.5L19.9,43.5
				z M49.5,43.5l-1.4-0.8v-1.6l1.4-0.8l0.7,0.4l0.7,0.4v1.6l-0.7,0.4L49.5,43.5L49.5,43.5z M34.7,46.4l-1.4-0.8v-1.6l1.4-0.8
				l0.7,0.4l0.7,0.4v1.6L35.4,46L34.7,46.4L34.7,46.4z M28.1,46.4l-1.4-0.8v-1.6l0.7-0.4l0.7-0.4l0.7,0.4l0.7,0.4v1.6L28.9,46
				L28.1,46.4L28.1,46.4z M38,46.4l-1.4-0.8v-1.6l1.4-0.8l0.7,0.4l0.7,0.4v1.6l-0.7,0.4L38,46.4L38,46.4z M31.4,46.4L30.7,46
				L30,45.6v-1.6l1.4-0.8l0.7,0.4l0.7,0.4v1.6l-0.7,0.4L31.4,46.4L31.4,46.4z M24.9,46.4l-1.4-0.8v-1.6l0.7-0.4l0.7-0.4l0.7,0.4
				l0.7,0.4v1.6L25.6,46L24.9,46.4L24.9,46.4z M21.6,46.4l-1.4-0.8v-1.6l1.4-0.8l0.7,0.4l0.7,0.4v1.6L22.3,46L21.6,46.4L21.6,46.4z"
				/>
		</g>
		<g class="st5">
			<path class="st0" d="M70.4,9.1h-0.9l-0.4,0.2l-0.4-0.2h-0.9l0.4,0.2l0.7,0.4v1.6l-0.7,0.4l-0.7,0.4l-0.7-0.4L66,11.4V9.8l1.1-0.6
				h-0.9l-0.4,0.2l-0.4-0.2H65h-0.5l0.4,0.2l0.7,0.4v1.6l-0.7,0.4l-0.7,0.4l-0.7-0.4l-0.7-0.4V9.8l0.7-0.4l0.3-0.2c-0.3,0-0.7,0-1,0
				l-0.3,0.2l-0.2-0.1c-0.3,0-0.6,0-0.8,0.1l0.1,0.1l0.7,0.4v1.6l-0.7,0.4l-0.7,0.4l-0.7-0.4l-0.7-0.4V9.8l0.6-0.3
				c-0.5,0.1-0.9,0.1-1.3,0.2L59,9.8v1.6l-1.4,0.8l-0.7-0.4l-0.7-0.4v-1.1c-0.2,0.1-0.3,0.1-0.5,0.2v1L55,11.8l-0.7,0.4l-0.7-0.4
				l-0.3-0.2c-0.2,0.1-0.3,0.2-0.4,0.3l0.6,0.3l0.7,0.4v1.6l-0.7,0.4l-0.7,0.4l-1.4-0.8v-1c-0.2,0.2-0.3,0.4-0.5,0.6v0.4l-0.4,0.2
				c-0.1,0.2-0.3,0.5-0.4,0.8l0.3-0.2l0.7-0.4l0.7,0.4l0.7,0.4v1.6l-1.4,0.8l-0.7-0.4l-0.7-0.4v-0.6l0,0.1l-0.2,0.9l0.7,0.4l0.7,0.4
				v1.6l-0.7,0.4l-0.7,0.4l-0.7-0.4l-0.1,0.5l0.5,0.3v1.6l-0.7,0.4l-0.4,0.2c-0.1,0.9-0.2,1.9-0.1,2.8l0.5,0.3l0.7,0.4v1.2
				c0,0,0.1,0,0.1,0l0.4,0v-1.3l1.4-0.8l0.7,0.4l0.7,0.4v1.3l0.5,0v-1.4l0.7-0.4l0.7-0.4l0.7,0.4l0.7,0.4v1.4l0.5,0v-1.5l0.7-0.4
				l0.7-0.4l0.7,0.4l0.7,0.4v1.5l0.5,0v-1.6l0.7-0.4L61,26l0.7,0.4l0.7,0.4v1.6l-0.1,0l0.6,0l-0.1,0v-1.6l1.4-0.8l0.7,0.4l0.7,0.4
				v1.6l-0.3,0.2l1.1,0l-0.3-0.2v-1.6l1.4-0.8l0.7,0.4l0.7,0.4v1.6l-0.5,0.3l1.6,0.1l-0.6-0.4v-1.6l1.4-0.8l0.7,0.4l0.7,0.4v1.6
				l-0.8,0.5c0.2,0,0.5,0.1,0.7,0.1l0.4-0.2l0.7,0.4l0.7,0.4v0.5c0.2,0.2,0.3,0.5,0.5,0.8v-1.3l0.7-0.3l0.7-0.4l0.7,0.4l0.7,0.4v1.6
				l-1.4,0.8L75,31.7l-0.6-0.3c0.1,0.2,0.1,0.4,0.2,0.6l0.1,0.1l0.7,0.4v1.6l-0.7,0.4l0,0c0,0.2,0,0.4-0.1,0.6L75,35l0.7-0.4
				l0.7,0.4l0.7,0.4V37l-1.4,0.8l-1.3-0.8l-0.1,0.5l0.4,0.2l0.7,0.4v1.6l-0.7,0.4l-0.7,0.4l-0.2-0.1l-0.1,0.5l0.1,0v1.6L73.4,43
				l-0.1,0.6l0.8-0.4l0.7,0.4l0.7,0.4v1.6L74.8,46l-0.7,0.4l-1.2-0.7l-0.1,0.5l0.3,0.2l0.7,0.4v0.7h0.5v-0.7l1.4-0.8l0.7,0.4
				l0.7,0.4v0.7h0.5v-0.7L79,46l1.4,0.8v0.6h0.5v-0.6l1.4-0.8l1.4,0.8v0.7h0.5v-0.7l1.4-0.8l0.7,0.4l0.7,0.4v0.6h0.5v-0.6l1.4-0.8
				l1.4,0.8v0.7h0.5v-0.7l1.4-0.8l0.7,0.4l0.7,0.4v0.6h0.5v-0.6l1.4-0.8l0,0l0.2-0.9v-1.2l0.3-0.2l0.1-0.6l-0.7,0.4l-1.4-0.8v-1.6
				l1.4-0.8l0.7,0.4l0.4,0.2l0.1-0.5l-1-0.6v-1.6l1.4-0.8l0.2,0.1l0.1-0.5l0,0v-1.6l0.3-0.2c0-0.2,0.1-0.4,0.1-0.6L97.1,35l-0.7-0.4
				l-0.7-0.4v-1.6l1.4-0.8l0.7,0.4l0.2,0.1c0-0.2,0-0.4,0-0.5l-0.7-0.4v-1.6l0.5-0.3c0-0.2-0.1-0.3-0.1-0.5l-0.6,0.4l-0.7-0.4
				l-0.7-0.4v-1.6l0.3-0.2c-0.2-0.1-0.3-0.2-0.5-0.2l0,0l0,0c-0.6-0.3-1.4-0.4-2.3-0.5L92.9,26l-0.7,0.4L91,25.7c-0.2,0-0.4,0-0.6,0
				h-0.3L89.6,26l-0.7,0.4l-1.2-0.7l-0.9,0L86.3,26l-0.7,0.4l-1.1-0.6l-1.1,0L83,26l-0.7,0.4l-1-0.6c-0.2,0-0.3,0-0.4,0
				c-0.2,0-0.5,0-0.8,0L79.7,26L79,26.4L78.3,26l-0.4-0.2c-0.3,0-0.7,0-1,0L76.4,26l-0.7,0.4L75,26l-0.7-0.4v0l-0.5,0v0.1l-1.4,0.8
				L71.7,26L71,25.6V24l0,0c-0.1-0.1-0.2-0.3-0.2-0.4l-0.1,0l-1.4-0.8v-1.6l1.3-0.7c0.1-0.3,0.2-0.5,0.3-0.7v-1.4l0.7-0.4l0.7-0.4
				l0.7,0.4l0.5,0.3c0.2,0,0.3,0,0.5,0c0.1,0,0.1,0,0.1,0c0.1,0,0.2,0,0.3,0l0.4-0.3l0.7-0.4l1.4,0.8V20l-0.5,0.3
				c0,0.2,0,0.4-0.1,0.6l0.1-0.1l0.7-0.4l0.7,0.4l0.7,0.4v0.2h0.5v-0.2l0.7-0.4l0.7-0.4l0.7,0.4l0.7,0.4v0.2h0.5v-0.2l1.4-0.8
				l0.7,0.4l0.7,0.4v0.2h0.5v-0.2l1.4-0.8l0.7,0.4l0.7,0.4v0.2h0.5v-0.2l1.4-0.8l0.7,0.4l0.7,0.4v0.2h0.5v-0.2l1.4-0.8l0.7,0.4
				l0.7,0.4v0.2h0.5v-0.2l0.7-0.4l0.7-0.4l1.4,0.8v0.2h0.2l0.1-0.7l-0.1,0.1l-1.4-0.8v-1.6l1.4-0.8l0.7,0.4l0,0l0.1-0.5l-0.6-0.3
				v-1.6l0.7-0.4l0.2-0.1c0-0.2,0-0.4,0-0.5l-1.1,0.6l-1.4-0.8v-1.6l0.7-0.4l0.6-0.3c-0.1-0.1-0.2-0.2-0.4-0.4l-0.4,0.2L97,12.2
				l-0.7-0.4l-0.7-0.4v-1.2c-0.2-0.1-0.3-0.1-0.5-0.1v1.4l-0.7,0.4l-0.7,0.4L93,11.8l-0.7-0.4V9.8l0.5-0.3c-0.6-0.1-1.2-0.2-1.8-0.2
				l0.2,0.1l0.7,0.4v1.6l-1.4,0.8l-0.7-0.4L89,11.4V9.8l0.7-0.4L90,9.2c-0.3,0-0.6,0-0.9,0l-0.3,0.2l-0.4-0.2c-0.3,0-0.6,0-0.9,0
				h-0.1l0.4,0.2l0.7,0.4v1.6l-0.7,0.4l-0.7,0.4l-0.7-0.4l-0.7-0.4V9.8l0.7-0.4l0.4-0.2h-0.9l-0.4,0.2l-0.4-0.2h-0.9l0.4,0.2
				l0.7,0.4v1.6l-0.7,0.4l-0.7,0.4l-0.7-0.4l-0.7-0.4V9.8l1.1-0.6h-0.9l-0.4,0.2l-0.4-0.2h-0.9l0.4,0.2L82,9.8v1.6l-1.4,0.8
				l-0.7-0.4l-0.7-0.4V9.8l1.1-0.6h-0.9l-0.4,0.2l-0.4-0.2h-0.9L78,9.4l0.7,0.4v1.6L78,11.8l-0.7,0.4l-0.7-0.4l-0.7-0.4V9.8L77,9.1
				H76l-0.4,0.2l-0.4-0.2h-0.9l0.4,0.2l0.7,0.4v1.6l-0.7,0.4L74,12.2l-0.7-0.4l-0.7-0.4V9.8l0.7-0.4l0.4-0.2h-0.9l-0.4,0.2L72,9.1
				H71l0.4,0.2l0.7,0.4v1.6l-1.4,0.8L70,11.8l-0.7-0.4V9.8L70,9.4L70.4,9.1L70.4,9.1z M92.1,15.1l-1.4-0.8v-1.6l0.7-0.4l0.7-0.4
				l1.4,0.8v1.6l-0.7,0.4L92.1,15.1L92.1,15.1z M85.5,15.1l-1.4-0.8v-1.6l0.7-0.4l0.7-0.4l0.7,0.4l0.7,0.4v1.6l-0.7,0.4L85.5,15.1
				L85.5,15.1z M72.4,15.1l-0.7-0.4L71,14.3v-1.6l0.7-0.4l0.7-0.4l1.4,0.8v1.6l-0.7,0.4L72.4,15.1L72.4,15.1z M65.8,15.1l-0.7-0.4
				l-0.7-0.4v-1.6l0.7-0.4l0.7-0.4l0.7,0.4l0.7,0.4v1.6L65.8,15.1L65.8,15.1z M59.2,15.1l-0.7-0.4l-0.7-0.4v-1.6l0.7-0.4l0.7-0.4
				l0.7,0.4l0.7,0.4v1.6L59.2,15.1L59.2,15.1z M95.4,15.1l-0.7-0.4L94,14.3v-1.6l0.7-0.4l0.7-0.4l0.7,0.4l0.7,0.4v1.6L95.4,15.1
				L95.4,15.1z M88.8,15.1l-0.7-0.4l-0.7-0.4v-1.6l0.7-0.4l0.7-0.4l0.7,0.4l0.7,0.4v1.6L88.8,15.1L88.8,15.1z M80.8,12.6l0.7-0.4
				l0.7-0.4l1.4,0.8v1.6l-1.4,0.8l-0.7-0.4l-0.7-0.4L80.8,12.6L80.8,12.6L80.8,12.6z M77.5,12.6l0.7-0.4l0.7-0.4l0.7,0.4l0.7,0.4
				v1.6l-0.7,0.4l-0.7,0.4l-0.7-0.4l-0.7-0.4L77.5,12.6L77.5,12.6L77.5,12.6z M74.3,12.6l0.7-0.4l0.7-0.4l0.7,0.4l0.7,0.4v1.6
				l-1.4,0.8l-1.4-0.8V12.6L74.3,12.6L74.3,12.6z M69.1,15.1l-0.7-0.4l-0.7-0.4v-1.6l0.7-0.4l0.7-0.4l0.7,0.4l0.7,0.4v1.6l-0.7,0.4
				L69.1,15.1L69.1,15.1z M62.5,15.1l-0.7-0.4l-0.7-0.4v-1.6l0,0l0.7-0.4l0.7-0.4l0.7,0.4l0.7,0.4v1.6L62.5,15.1L62.5,15.1z
				 M56,15.1l-0.7-0.4l-0.7-0.4v-1.6l0,0l0.7-0.4l0.7-0.4l0.7,0.4l0.7,0.4v1.6L56,15.1L56,15.1z M97,17.9l-1.4-0.8v-1.6l1.4-0.8
				l0.7,0.4l0.7,0.4v1.6L97,17.9L97,17.9z M90.5,17.9l-0.7-0.4l-0.7-0.4v-1.6l0.7-0.4l0.7-0.4l0.7,0.4l0.7,0.4v1.6L90.5,17.9
				L90.5,17.9z M83.9,17.9l-0.7-0.4l-0.7-0.4v-1.6l0.7-0.4l0.7-0.4l0.7,0.4l0.7,0.4v1.6L83.9,17.9L83.9,17.9z M70.8,17.9l-0.7-0.4
				l-0.7-0.4v-1.6l1.4-0.8l1.4,0.8v1.6L70.8,17.9L70.8,17.9z M64.2,17.9l-0.7-0.4l-0.7-0.4v-1.6l0.7-0.4l0.7-0.4l0.7,0.4l0.7,0.4
				v1.6l-0.7,0.4L64.2,17.9L64.2,17.9z M57.6,17.9l-0.7-0.4l-0.7-0.4v-1.6l0.7-0.4l0.7-0.4l0.7,0.4l0.7,0.4v1.6L57.6,17.9L57.6,17.9
				z M93.7,17.9L93,17.5l-0.7-0.4v-1.6l0.7-0.4l0.7-0.4l1.4,0.8v1.6l-0.7,0.4L93.7,17.9L93.7,17.9z M87.2,17.9l-0.7-0.4l-0.7-0.4
				v-1.6l0.7-0.4l0.7-0.4l0.7,0.4l0.7,0.4v1.6l-0.7,0.4L87.2,17.9L87.2,17.9z M80.6,17.9l-0.7-0.4l-0.7-0.4v-1.6l0.7-0.4l0.7-0.4
				l0.7,0.4l0.7,0.4v1.6l-0.7,0.4L80.6,17.9L80.6,17.9z M77.3,17.9l-0.7-0.4l-0.7-0.4v-1.6l0.7-0.4l0.7-0.4l0.7,0.4l0.7,0.4v1.6
				L77.3,17.9L77.3,17.9z M74,17.9l-0.7-0.4l-0.7-0.4v-1.6l1.4-0.8l0.7,0.4l0.7,0.4v1.6l-0.7,0.4L74,17.9L74,17.9z M67.5,17.9
				l-0.7-0.4l-0.7-0.4v-1.6l1.4-0.8l0.7,0.4l0.7,0.4v1.6l-0.7,0.4L67.5,17.9L67.5,17.9z M60.9,17.9l-0.7-0.4l-0.7-0.4v-1.6l1.4-0.8
				l0.7,0.4l0.7,0.4v1.6l-0.7,0.4L60.9,17.9L60.9,17.9z M54.3,17.9l-0.7-0.4l-0.7-0.4v-1.6l1.4-0.8l0.7,0.4l0.7,0.4v1.6L55,17.5
				L54.3,17.9L54.3,17.9z M95.4,20.8L94,19.9v-1.6l1.4-0.8l0.7,0.4l0.7,0.4v1.6l-0.7,0.4L95.4,20.8L95.4,20.8z M88.8,20.8l-1.4-0.8
				v-1.6l1.4-0.8l0.7,0.4l0.7,0.4v1.6l-0.7,0.4L88.8,20.8L88.8,20.8z M82.2,20.8l-0.7-0.4l-0.7-0.4v-1.6l1.4-0.8l0.7,0.4l0.7,0.4
				v1.6L83,20.3L82.2,20.8L82.2,20.8z M69.1,20.8l-1.4-0.8v-1.6l1.4-0.8l0.7,0.4l0.7,0.4v1.6l-0.7,0.4L69.1,20.8L69.1,20.8z
				 M62.5,20.8l-1.4-0.8v-1.6l1.4-0.8l0.7,0.4l0.7,0.4v1.6l-0.7,0.4L62.5,20.8L62.5,20.8z M56,20.8l-1.4-0.8v-1.6l1.4-0.8l0.7,0.4
				l0.7,0.4v1.6l-0.7,0.4L56,20.8L56,20.8z M92.1,20.8L90.7,20v-1.6l1.4-0.8l0.7,0.4l0.7,0.4V20L92.1,20.8L92.1,20.8z M85.5,20.8
				l-0.7-0.4L84.1,20v-1.6l0.7-0.4l0.7-0.4l0.7,0.4l0.7,0.4V20l-0.7,0.4L85.5,20.8L85.5,20.8z M79,20.8L77.5,20v-1.6l1.4-0.8
				l0.7,0.4l0.7,0.4V20L79,20.8L79,20.8z M65.8,20.8L64.4,20v-1.6l0.7-0.4l0.7-0.4l0.7,0.4l0.7,0.4V20L65.8,20.8L65.8,20.8z
				 M59.3,20.8L57.9,20v-1.6l1.4-0.8l0.7,0.4l0.7,0.4V20L60,20.4L59.3,20.8L59.3,20.8z M52.7,20.8L51.3,20v-1.6l0.7-0.4l0.7-0.4
				l1.4,0.8V20L52.7,20.8L52.7,20.8z M67.5,23.6l-0.7-0.4l-0.7-0.4v-1.6l1.4-0.8l0.7,0.4l0.7,0.4v1.6l-0.7,0.4L67.5,23.6L67.5,23.6z
				 M60.9,23.6l-1.4-0.8v-1.6l1.4-0.8l0.7,0.4l0.7,0.4v1.6l-0.7,0.4L60.9,23.6L60.9,23.6z M54.3,23.6l-1.4-0.8v-1.6l1.4-0.8l0.7,0.4
				l0.7,0.4v1.6l-0.7,0.4L54.3,23.6L54.3,23.6z M64.2,23.6l-0.7-0.4l-0.7-0.4v-1.6l0.7-0.4l0.7-0.4l0.7,0.4l0.7,0.4v1.6l-0.7,0.4
				L64.2,23.6L64.2,23.6z M57.6,23.6l-1.4-0.8v-1.6l1.4-0.8l1.4,0.8v1.6l-0.7,0.4L57.6,23.6L57.6,23.6z M51,23.6l-0.7-0.4l-0.7-0.4
				v-1.6l1.4-0.8l0.7,0.4l0.7,0.4v1.6l-0.7,0.4L51,23.6L51,23.6z M69.2,26.5l-1.4-0.8V24l1.4-0.8l0.7,0.4l0.7,0.4v1.6l-0.7,0.4
				L69.2,26.5L69.2,26.5z M65.9,26.5L65.2,26l-0.7-0.4V24l1.4-0.8l0.7,0.4l0.7,0.4v1.6l-0.7,0.4L65.9,26.5L65.9,26.5z M62.6,26.5
				l-0.7-0.4l-0.7-0.4V24l1.4-0.8l0.7,0.4L64,24v1.6l-0.7,0.4L62.6,26.5L62.6,26.5z M59.3,26.5L58.6,26l-0.7-0.4V24l1.4-0.8l0.7,0.4
				l0.7,0.4v1.6L60,26.1L59.3,26.5L59.3,26.5z M56,26.5l-1.4-0.8V24l1.4-0.8l0.7,0.4l0.7,0.4v1.6l-0.7,0.4L56,26.5L56,26.5z
				 M52.7,26.5L52,26l-0.7-0.4V24l0.7-0.4l0.7-0.4l0.7,0.4l0.7,0.4v1.6l-0.7,0.4L52.7,26.5L52.7,26.5z M49.4,26.5l-0.7-0.4L48,25.6
				V24l1.4-0.8l1.4,0.8v1.6l-0.7,0.4L49.4,26.5L49.4,26.5z M87.2,29.3l-1.4-0.8v-1.6l1.4-0.8l0.7,0.4l0.7,0.4v1.6L87.2,29.3
				L87.2,29.3z M93.8,29.3l-0.7-0.4l-0.7-0.4v-1.6l0.7-0.4l0.7-0.4l0.7,0.4l0.7,0.4v1.6l-0.7,0.4L93.8,29.3L93.8,29.3z M80.6,29.3
				l-0.7-0.4l-0.7-0.4v-1.6l0.7-0.4l0.7-0.4l0.7,0.4l0.7,0.4v1.6l-0.7,0.4L80.6,29.3L80.6,29.3z M90.5,29.3l-1.4-0.8v-1.6l1.4-0.8
				l0.7,0.4l0.7,0.4v1.6L90.5,29.3L90.5,29.3z M83.9,29.3l-0.7-0.4l-0.7-0.4v-1.6l1.4-0.8l0.7,0.4l0.7,0.4v1.6l-0.7,0.4L83.9,29.3
				L83.9,29.3z M77.3,29.3l-0.7-0.4l-0.7-0.4v-1.6l0.7-0.4l0.7-0.4l0.7,0.4l0.7,0.4v1.6L78,28.9L77.3,29.3L77.3,29.3z M74.1,29.3
				l-0.7-0.4l-0.7-0.4v-1.6l1.4-0.8l0.7,0.4l0.7,0.4v1.6L74.1,29.3L74.1,29.3z M79,32.1l-0.7-0.4l-0.7-0.4v-1.6l0,0l1.4-0.8l0.7,0.4
				l0.7,0.4v1.6L79,32.1L79,32.1z M92.1,32.1l-0.7-0.4l-0.7-0.4v-1.6l0.7-0.4l0.7-0.4l0.7,0.4l0.7,0.4v1.6l-0.7,0.4L92.1,32.1
				L92.1,32.1z M85.6,32.1l-0.7-0.4l-0.7-0.4v-1.6l0.7-0.4l0.7-0.4l1.4,0.8v1.6l-0.7,0.4L85.6,32.1L85.6,32.1z M95.4,32.1l-0.7-0.4
				L94,31.3v-1.6l0.7-0.4l0.7-0.4l0.7,0.4l0.7,0.4v1.6l-0.7,0.4L95.4,32.1L95.4,32.1z M88.8,32.1l-0.7-0.4l-0.7-0.4v-1.6l0.7-0.4
				l0.7-0.4l1.4,0.8v1.6l-0.7,0.4L88.8,32.1L88.8,32.1z M82.3,32.1l-0.7-0.4l-0.7-0.4v-1.6l0,0l0.7-0.4l0.7-0.4l0.7,0.4l0.7,0.4v1.6
				L82.3,32.1L82.3,32.1z M90.5,35l-0.7-0.4l-0.7-0.4v-1.6l0.7-0.4l0.7-0.4l0.7,0.4l0.7,0.4v1.6L90.5,35L90.5,35z M83.9,35l-0.7-0.4
				l-0.7-0.4v-1.6l1.4-0.8l0.7,0.4l0.7,0.4v1.6l-0.7,0.4L83.9,35L83.9,35z M93.8,35l-0.7-0.4l-0.7-0.4v-1.6l1.4-0.8l0.7,0.4l0.7,0.4
				v1.6l-0.7,0.4L93.8,35L93.8,35z M87.2,35l-0.7-0.4l-0.7-0.4v-1.6l0.7-0.4l0.7-0.4l0.7,0.4l0.7,0.4v1.6l-0.7,0.4L87.2,35L87.2,35z
				 M80.6,35l-0.7-0.4l-0.7-0.4v-1.6l1.4-0.8l0.7,0.4l0.7,0.4v1.6L80.6,35L80.6,35z M77.3,35l-0.7-0.4l-0.7-0.4v-1.6l1.4-0.8
				l0.7,0.4l0.7,0.4v1.6l-0.7,0.4L77.3,35L77.3,35z M94,35.4l0.7-0.4l0.7-0.4l0.7,0.4l0.7,0.4V37l-1.4,0.8l-0.7-0.4L94,37V35.4
				L94,35.4L94,35.4z M92.2,37.8L90.8,37v-1.6l0.7-0.4l0.7-0.4l1.4,0.8V37l-0.7,0.4L92.2,37.8L92.2,37.8z M87.5,35.4l0.7-0.4
				l0.7-0.4l0.7,0.4l0.7,0.4V37l-1.4,0.8l-0.7-0.4L87.5,37L87.5,35.4L87.5,35.4L87.5,35.4z M85.6,37.8l-0.7-0.4L84.2,37v-1.6
				l0.7-0.4l0.7-0.4l1.4,0.8V37l-0.7,0.4L85.6,37.8L85.6,37.8z M80.9,35.4l0.7-0.4l0.7-0.4L83,35l0.7,0.4V37l-1.4,0.8l-0.7-0.4
				L80.9,37L80.9,35.4L80.9,35.4L80.9,35.4z M79,37.8l-0.7-0.4L77.6,37v-1.6l0.7-0.4l0.7-0.4l0.7,0.4l0.7,0.4V37l-0.7,0.4L79,37.8
				L79,37.8z M90.5,40.7l-0.7-0.4l-0.7-0.4v-1.6l0.7-0.4l0.7-0.4l0.7,0.4l0.7,0.4v1.6L90.5,40.7L90.5,40.7z M84,40.7l-0.7-0.4
				l-0.7-0.4v-1.6l0.7-0.4l0.7-0.4l0.7,0.4l0.7,0.4v1.6L84,40.7L84,40.7z M93.8,40.7l-0.7-0.4l-0.7-0.4v-1.6l0.7-0.4l0.7-0.4
				l1.4,0.8v1.6l-0.7,0.4L93.8,40.7L93.8,40.7z M87.2,40.7l-0.7-0.4l-0.7-0.4v-1.6l0.7-0.4l0.7-0.4l0.7,0.4l0.7,0.4v1.6l-0.7,0.4
				L87.2,40.7L87.2,40.7z M80.7,40.7L80,40.3l-0.7-0.4v-1.6l0.7-0.4l0.7-0.4l0.7,0.4l0.7,0.4v1.6l-0.7,0.4L80.7,40.7L80.7,40.7z
				 M77.4,40.7l-0.7-0.4L76,39.9v-1.6l0.7-0.4l0.7-0.4l0.7,0.4l0.7,0.4v1.6L77.4,40.7L77.4,40.7z M88.9,43.5l-1.4-0.8v-1.6l1.4-0.8
				l0.7,0.4l0.7,0.4v1.6l-0.7,0.4L88.9,43.5L88.9,43.5z M82.3,43.5l-0.7-0.4l-0.7-0.4v-1.6l1.4-0.8l0.7,0.4l0.7,0.4v1.6L83,43.1
				L82.3,43.5L82.3,43.5z M92.2,43.5l-1.4-0.8v-1.6l1.4-0.8l0.7,0.4l0.7,0.4v1.6L92.2,43.5L92.2,43.5z M85.6,43.5l-0.7-0.4l-0.7-0.4
				v-1.6l0.7-0.4l0.7-0.4l0.7,0.4l0.7,0.4v1.6l-0.7,0.4L85.6,43.5L85.6,43.5z M79,43.5l-1.4-0.8v-1.6l1.4-0.8l0.7,0.4l0.7,0.4v1.6
				L79,43.5L79,43.5z M75.8,43.5l-1.4-0.8v-1.6l0.7-0.4l0.7-0.4l1.4,0.8v1.6l-0.7,0.4L75.8,43.5L75.8,43.5z M93.8,46.4l-1.4-0.8
				v-1.6l1.4-0.8l0.7,0.4l0.7,0.4v1.6L94.5,46L93.8,46.4L93.8,46.4z M87.3,46.4l-1.4-0.8v-1.6l1.4-0.8l0.7,0.4l0.7,0.4v1.6L88,46
				L87.3,46.4L87.3,46.4z M80.7,46.4l-1.4-0.8v-1.6l1.4-0.8l0.7,0.4l0.7,0.4v1.6L81.4,46L80.7,46.4L80.7,46.4z M90.5,46.4l-1.4-0.8
				v-1.6l1.4-0.8l0.7,0.4l0.7,0.4v1.6l-0.7,0.4L90.5,46.4L90.5,46.4z M84,46.4l-1.4-0.8v-1.6l1.4-0.8l0.7,0.4l0.7,0.4v1.6l-0.7,0.4
				L84,46.4L84,46.4z M77.4,46.4L76,45.6v-1.6l0.7-0.4l0.7-0.4l0.7,0.4l0.7,0.4v1.6L78.1,46L77.4,46.4L77.4,46.4z"/>
		</g>
	</g>
</g>
</svg>
