<?xml version="1.0" encoding="utf-8"?>
<!-- Generator: Adobe Illustrator 26.2.1, SVG Export Plug-In . SVG Version: 6.00 Build 0)  -->
<svg version="1.1" id="Layer_1" xmlns="http://www.w3.org/2000/svg" xmlns:xlink="http://www.w3.org/1999/xlink" x="0px" y="0px"
	 viewBox="0 0 341.53 284.75" style="enable-background:new 0 0 341.53 284.75;" xml:space="preserve">
<style type="text/css">
	.st0{fill-rule:evenodd;clip-rule:evenodd;fill:url(#SVGID_1_);}
	.st1{fill-rule:evenodd;clip-rule:evenodd;fill:#FFFFFF;}
	.st2{fill-rule:evenodd;clip-rule:evenodd;fill:url(#SVGID_00000129886923736212960290000003401402158595853213_);}
	.st3{fill-rule:evenodd;clip-rule:evenodd;fill:url(#SVGID_00000050640874415886447580000009936153781736634556_);}
	.st4{fill-rule:evenodd;clip-rule:evenodd;fill:url(#SVGID_00000055693979933433542770000009551579502040126644_);}
	.st5{fill-rule:evenodd;clip-rule:evenodd;fill:url(#SVGID_00000014611381943322756180000016895676664235761839_);}
	.st6{fill-rule:evenodd;clip-rule:evenodd;fill:url(#SVGID_00000007424686838823568370000008448257186965497216_);}
	.st7{fill-rule:evenodd;clip-rule:evenodd;fill:url(#SVGID_00000065059168742510209890000005327716818250154893_);}
</style>
<g>
	
		<linearGradient id="SVGID_1_" gradientUnits="userSpaceOnUse" x1="370.1747" y1="537.2714" x2="49.0173" y2="204.7029" gradientTransform="matrix(1 0 0 -1 0 480.3729)">
		<stop  offset="0" style="stop-color:#6B352D"/>
		<stop  offset="0.59" style="stop-color:#EC2227"/>
		<stop  offset="1" style="stop-color:#7E3930"/>
	</linearGradient>
	<path class="st0" d="M213.03,218.3l-3.98,18.95c-1.46,6.95-4.04,13.6-8.04,19.49c-4.12,6.05-9.6,10.84-15.99,14.38
		c-6.48,3.58-13.66,5.74-20.92,7.04c-8.19,1.46-16.57,1.92-24.88,1.92h-76.5c-14.26,0-31.3-1.63-43.05-10.44
		c-12.8-9.6-15.74-24.58-12.57-39.59l22.93-108.77c1.5-7.13,3.91-14.11,7.7-20.36c3.94-6.48,9.26-11.78,15.72-15.74
		c6.37-3.91,13.5-6.35,20.81-7.79c8.02-1.58,16.27-2.06,24.44-2.06h28.8c0.07-3.65,0.56-7.32,1.34-10.8l4.64-20.57
		c7.16-31.78,40.48-38.77,68.46-38.77h75.5c19.62,0,45.32,2.93,55.13,22.74c3.64,7.34,4.15,15.5,2.49,23.44l-6.21,29.8h-1.55
		c4.04,10.18,2.72,22.19,1.02,32.89c-1.39,8.81-3.24,17.55-5.06,26.27c-2.43,11.68-4.88,23.35-7.16,35.05
		c-2.87,14.73-11.24,26.58-24.4,33.86c-13.23,7.32-29.93,9.04-44.82,9.04L213.03,218.3L213.03,218.3z M208.59,212.83h38.28
		c13.85,0,29.85-1.54,42.18-8.36c11.72-6.49,19.12-16.96,21.68-30.13c2.29-11.73,4.74-23.42,7.18-35.13
		c1.8-8.62,3.64-17.31,5.02-26.01c1.91-12.07,3.71-27.17-5.05-37.13c-0.11-0.12-0.22-0.25-0.33-0.37h6.87l5.3-25.44
		c1.4-6.76,1.07-13.64-2.04-19.9c-8.68-17.51-33.09-19.7-50.23-19.7h-75.5c-25.22,0-56.62,5.65-63.12,34.5l-4.64,20.57
		c-1.01,4.47-1.57,9.91-0.96,15.07H98.72c-7.77,0-15.75,0.46-23.38,1.96c-6.67,1.31-13.2,3.52-19.01,7.09
		c-5.72,3.51-10.42,8.18-13.9,13.92c-3.47,5.71-5.65,12.12-7.02,18.64L12.46,231.18c-2.74,12.97-0.57,25.78,10.51,34.09
		c10.65,7.99,26.9,9.34,39.76,9.34h76.49c7.96,0,16.08-0.43,23.92-1.83c6.65-1.18,13.3-3.16,19.24-6.44
		c5.65-3.12,10.48-7.33,14.12-12.68c3.61-5.29,5.9-11.28,7.21-17.53L208.59,212.83z"/>
	<g>
		<path class="st1" d="M197.54,206.9h-74.51l-3.3,15.53c-1.38,6.48-5.13,9.75-11.4,9.75c-3.3,0-5.51-0.77-6.61-2.31
			c-1.1-1.55-1.39-4.03-0.67-7.44l15.17-71.65H41.71l5.46-25.89v0L24.23,233.66c-2.11,10.04-0.22,17.35,5.95,21.97
			c6.17,4.63,17.02,6.94,32.54,6.94h76.5c8.37,0,15.64-0.56,21.81-1.65c6.16-1.1,11.35-2.82,15.53-5.12
			c4.18-2.31,7.52-5.29,9.99-8.93c2.48-3.64,4.28-8.03,5.37-13.21L197.54,206.9z"/>
		<path class="st1" d="M171.38,200.79h75.5c15.97,0,28.09-2.28,36.35-6.85s13.73-11.83,15.7-21.89c1.5-7.68,2.94-14.75,4.29-21.27
			h-75.59c-1.61,8.24-3.15,15.08-4.12,17.06c-1.45,3-18.82,6.06-16.04-7.18l1.98-9.41h-73.59l-5.11,24.29
			c-1.77,8.26,0.74,14.54,7.52,18.84C145.03,198.65,156.07,200.79,171.38,200.79L171.38,200.79z M240.11,63.67L240.11,63.67
			L240.11,63.67z"/>
	</g>
	<g>
		
			<linearGradient id="SVGID_00000018238203531321726010000006347692633556561323_" gradientUnits="userSpaceOnUse" x1="222.5754" y1="427.5381" x2="209.1177" y2="170.7522" gradientTransform="matrix(1 0 0 -1 0 480.3729)">
			<stop  offset="0" style="stop-color:#595A5C"/>
			<stop  offset="0.53" style="stop-color:#FFFFFF"/>
			<stop  offset="1" style="stop-color:#595A5C"/>
		</linearGradient>
		<path style="fill-rule:evenodd;clip-rule:evenodd;fill:url(#SVGID_00000018238203531321726010000006347692633556561323_);" d="
			M230.14,150.78c-0.49,2.49-0.99,4.97-1.52,7.45c-0.64,2.94-1.6,8.02-2.89,10.69c-2.78,5.73-24.06,7.26-20.69-8.77l1.36-6.44
			h-68.53l-4.71,22.32c-1.47,6.98,0.31,12.36,6.42,16.23c8.3,5.26,22.27,6.05,31.8,6.05h75.5c11.08,0,25.25-1.06,35.15-6.54
			c7.97-4.41,12.72-11.25,14.47-20.21c1.35-6.94,2.76-13.87,4.2-20.8L230.14,150.78L230.14,150.78z"/>
		
			<linearGradient id="SVGID_00000068666174328118121430000005451993976695061394_" gradientUnits="userSpaceOnUse" x1="119.4118" y1="431.7012" x2="106.0846" y2="177.396" gradientTransform="matrix(1 0 0 -1 0 480.3729)">
			<stop  offset="0" style="stop-color:#595A5C"/>
			<stop  offset="0.53" style="stop-color:#FFFFFF"/>
			<stop  offset="1" style="stop-color:#595A5C"/>
		</linearGradient>
		<path style="fill-rule:evenodd;clip-rule:evenodd;fill:url(#SVGID_00000068666174328118121430000005451993976695061394_);" d="
			M194.49,209.37h-69.46l-2.89,13.57c-1.57,7.39-6.13,11.71-13.82,11.71c-3.13,0-6.67-0.63-8.62-3.35c-1.9-2.66-1.72-6.34-1.07-9.38
			l15.06-71.14H44.24l-17.59,83.4c-1.52,7.18-1.31,14.74,5.02,19.49c7.58,5.68,21.98,6.44,31.06,6.44h76.49
			c7.09,0,14.39-0.37,21.38-1.61c5.04-0.9,10.26-2.36,14.77-4.85c3.65-2.02,6.79-4.7,9.14-8.15c2.52-3.7,4.08-7.97,5-12.33
			L194.49,209.37z"/>
	</g>
	<g>
		
			<linearGradient id="SVGID_00000165206258153690834500000018107320448250003607_" gradientUnits="userSpaceOnUse" x1="128.9046" y1="466.3972" x2="128.9046" y2="330.9806" gradientTransform="matrix(1 0 0 -1 0 480.3729)">
			<stop  offset="0" style="stop-color:#6B352D"/>
			<stop  offset="0.59" style="stop-color:#EC2227"/>
			<stop  offset="1" style="stop-color:#7E3930"/>
		</linearGradient>
		<path style="fill-rule:evenodd;clip-rule:evenodd;fill:url(#SVGID_00000165206258153690834500000018107320448250003607_);" d="
			M116.23,150.78l3.8-17.96c0.73-3.42,2.04-5.89,3.8-7.44c1.76-1.54,4.29-2.31,7.6-2.31s5.54,0.74,6.69,2.23
			c1.16,1.49,1.35,4,0.58,7.52l-1.99,9.75h74.51l3.64-17.68c2.65-11.68,1.04-19.99-4.79-24.95c-2.87-2.42-7.22-4.21-13.05-5.36
			c-5.83-1.16-13.1-1.74-21.81-1.74H98.72c-8.15,0-15.17,0.58-21.06,1.74c-5.89,1.16-10.9,3-15.03,5.53s-7.44,5.84-9.91,9.91
			c-2.48,4.07-4.31,9.04-5.54,14.87l-5.46,25.89C41.71,150.78,116.23,150.78,116.23,150.78z"/>
		
			<linearGradient id="SVGID_00000074414217060868992100000001560946101073158785_" gradientUnits="userSpaceOnUse" x1="231.7542" y1="631.9806" x2="231.7542" y2="332.6526" gradientTransform="matrix(1 0 0 -1 0 480.3729)">
			<stop  offset="0" style="stop-color:#6B352D"/>
			<stop  offset="0.59" style="stop-color:#EC2227"/>
			<stop  offset="1" style="stop-color:#7E3930"/>
		</linearGradient>
		<path style="fill-rule:evenodd;clip-rule:evenodd;fill:url(#SVGID_00000074414217060868992100000001560946101073158785_);" d="
			M303.21,150.78c12.38-59.79,16.92-72.44-16.34-72.51c-16.32-0.03-32.83,0.85-47.63-0.09c-3.42-0.22-6.74-0.45-9.85-0.72
			c-10.39-0.91-14.76-24.06,3.16-24.58c5.02-0.15,9.31,2,7.89,9.15l-0.33,1.65h74.51l3.3-15.86c3.49-16.77-9.86-25.11-40.48-25.11
			h-75.5c-30.61,0-47.61,8.4-51.38,25.11l-4.64,20.57c-1.51,6.7-1.58,17.65,3.59,17.77c23.37,0.52,46.92,1.46,70.43,2.49
			c12.92,0.57,16.48,7.83,14.19,24.4c-0.62,4.5-3.69,23.28-6.53,37.74L303.21,150.78L303.21,150.78z"/>
	</g>
	<g>
		
			<linearGradient id="SVGID_00000072244752493260910930000015485534444591570065_" gradientUnits="userSpaceOnUse" x1="124.6807" y1="476.8362" x2="129.3465" y2="343.2294" gradientTransform="matrix(1 0 0 -1 0 480.3729)">
			<stop  offset="0" style="stop-color:#8B2E1C"/>
			<stop  offset="0.43" style="stop-color:#EC2227"/>
			<stop  offset="1" style="stop-color:#861533"/>
		</linearGradient>
		<path style="fill-rule:evenodd;clip-rule:evenodd;fill:url(#SVGID_00000072244752493260910930000015485534444591570065_);" d="
			M117.25,145.94l0.85-3.99v-2.91l0.7-0.4l0.43-2.05l-1.94,1.12l-4.71-2.72v-5.48l4.64-2.67l2.34,1.35l1.63,0.94
			c0.22-0.51,0.46-0.98,0.73-1.41l-1.52-0.88l-2.38-1.37v-5.43l2.34-1.35l2.34-1.35l4.72,2.72v3.48c0.51-0.13,1.04-0.24,1.59-0.31
			v-3.19l4.69-2.71l2.37,1.37l2.34,1.34v5.48l-0.1,0.06c0.27,0.41,0.47,0.89,0.61,1.44l0.28-0.16l2.34,1.35l2.36,1.36V135
			l-2.33,1.35l-2.34,1.34l-1.37-0.79l-0.33,1.62l0.9,0.52v3.53h1.61v-3.52l4.67-2.69l2.33,1.34l2.34,1.35v3.51h1.59v-3.51l4.68-2.7
			l2.34,1.35l2.38,1.37v3.49h1.6v-3.52l4.69-2.71l2.37,1.37l2.34,1.35v3.52h1.59v-3.52l4.68-2.7l4.72,2.72v3.49h1.59v-3.52
			l4.69-2.71l2.37,1.37l2.34,1.35v3.52h1.6v-3.52l2.33-1.35l2.35-1.35l2.34,1.35l2.38,1.37v3.49h1.6v-3.52l4.69-2.71l1.67,0.96
			l0.33-1.62l-1.21-0.7v-5.44l2.81-1.62l0.42-2.07l-1.75,1.01l-2.31,1.34l-2.35-1.35l-2.38-1.37v-5.43l4.68-2.7l2.34,1.35l2.38,1.37
			v2.84c0.28-1.49,0.5-2.91,0.63-4.28l-2.21-1.28l-2.34-1.35v-5.48l2.32-1.34l1.59-0.92c-0.15-0.55-0.32-1.08-0.52-1.59l-1.91,1.1
			l-2.36,1.37l-2.36-1.36l-2.32-1.35v-5.48l3.2-1.85c-0.46-0.33-0.96-0.65-1.49-0.95l-0.17,0.09l-2.35,1.35l-2.33-1.35l-2.38-1.37
			v-1.57c-0.52-0.14-1.05-0.27-1.6-0.39v1.98l-4.69,2.71l-2.37-1.37l-2.34-1.35v-3.46c-0.52-0.05-1.05-0.1-1.59-0.14v3.6l-4.68,2.7
			l-2.34-1.35l-2.38-1.37v-4.03l-1.6-0.02v4.07l-2.36,1.36l-2.33,1.35l-2.37-1.37l-2.34-1.35v-4.07h-1.59v4.07l-4.68,2.7l-2.34-1.35
			l-2.32-1.33v-4.09h-1.61v4.07l-4.67,2.7l-2.33-1.35l-2.34-1.35v-4.07h-1.59v4.07l-4.68,2.7l-2.34-1.35l-2.38-1.37v-4.05h-1.59
			v4.08l-2.36,1.36l-2.33,1.35l-2.37-1.37l-2.34-1.35v-4.08h-1.59v4.07l-2.34,1.35l-2.35,1.35l-2.34-1.35l-2.37-1.37v-4.05h-1.6
			v4.08l-2.36,1.36l-2.33,1.35l-2.37-1.37l-2.34-1.35v-4.08h-1.6v4.07l-2.33,1.35l-2.35,1.35l-2.34-1.35l-2.38-1.37v-3.83
			c-0.54,0.03-1.07,0.06-1.6,0.1v3.76l-4.69,2.71l-2.37-1.37l-2.34-1.35v-2.67c-0.54,0.09-1.07,0.19-1.59,0.29v2.37l-4.68,2.7
			l-2.34-1.35l-2.04-1.17c-2.23,0.86-4.29,1.87-6.16,3.02c-0.43,0.26-0.85,0.54-1.27,0.82l0.06,0.04v5.48l-2.32,1.33l-2.35,1.37
			l-2.36-1.36l-0.12-0.07c-0.31,0.41-0.61,0.84-0.89,1.27l0.33,0.19l2.32,1.34v5.48l-2.33,1.35l-2.34,1.35l-2.11-1.22
			c-0.18,0.5-0.35,1.01-0.52,1.52l1.83,1.05v5.47l-3.98,2.3l-1.45,6.89v0.29l-0.07,0.04l-0.44,2.06l1.3-0.75l2.34,1.35l2.34,1.35
			v5.48l-4.68,2.71l-3.06-1.77l-0.34,1.6l2.69,1.55v2.17h1.59v-2.17l4.68-2.7l2.36,1.36l2.32,1.34v2.17h1.59v-2.17l4.68-2.71
			l2.36,1.36l2.32,1.34v2.17h1.59v-2.17l4.68-2.71l4.72,2.73v2.15h1.59v-2.15l4.72-2.72l2.36,1.36l2.32,1.34v2.17h1.59v-2.17
			l4.68-2.71l2.36,1.36l2.36,1.36v2.15h1.6v-2.15l4.72-2.73l2.36,1.36l2.32,1.34v2.17h1.6v-2.17L117.25,145.94L117.25,145.94z
			 M67.68,98.26l2.34,1.35l2.34,1.35v5.48l-2.32,1.33l-2.36,1.37l-2.36-1.36L63,106.43v-5.47L67.68,98.26L67.68,98.26z
			 M57.61,110.51l2.32-1.33l2.36-1.37l2.36,1.36l2.32,1.34v5.48l-4.68,2.7l-4.68-2.7L57.61,110.51L57.61,110.51z M56.81,117.34
			l2.34,1.35l2.34,1.34v5.48l-2.3,1.32l-2.35,1.35l-2.34-1.35l-2.37-1.37v-5.43L56.81,117.34L56.81,117.34z M68.56,110.51l2.32-1.33
			l2.36-1.37l4.68,2.71v5.48l-2.33,1.35l-2.34,1.35l-2.34-1.35l-2.34-1.35L68.56,110.51L68.56,110.51z M67.76,117.34l2.34,1.35
			l2.33,1.34v5.48l-4.64,2.68l-2.34-1.35l-2.38-1.37v-5.44l2.33-1.34L67.76,117.34L67.76,117.34z M51.34,126.85l2.34,1.35l2.38,1.37
			v5.43l-2.34,1.35l-2.34,1.35l-4.68-2.7v-5.48l2.29-1.32L51.34,126.85L51.34,126.85z M62.29,126.85l4.72,2.72v5.43l-2.33,1.35
			l-2.35,1.35l-4.68-2.7v-5.48l2.3-1.32L62.29,126.85L62.29,126.85z M78.64,98.26l2.34,1.35l2.38,1.37v5.43l-4.72,2.73l-2.36-1.36
			l-2.32-1.34v-5.48L78.64,98.26L78.64,98.26z M100.63,98.26l2.34,1.35l2.38,1.37v5.43l-2.36,1.36l-2.36,1.37l-2.36-1.36l-2.32-1.35
			v-5.47l2.33-1.35L100.63,98.26L100.63,98.26z M94.36,100.96v5.48l-2.32,1.33l-2.36,1.37l-2.36-1.36l-2.35-1.37v-5.46l4.69-2.71
			l2.37,1.36L94.36,100.96L94.36,100.96z M122.62,98.26l2.34,1.35l2.38,1.37v5.43l-2.36,1.36l-2.36,1.37l-2.36-1.36l-2.32-1.35
			v-5.48L122.62,98.26L122.62,98.26z M116.34,100.96v5.48l-4.68,2.71l-2.36-1.36l-2.36-1.37v-5.46l2.36-1.36l2.33-1.35l2.37,1.37
			L116.34,100.96L116.34,100.96z M144.6,98.26l2.34,1.35l2.33,1.33v5.5l-2.31,1.33l-2.36,1.37l-2.36-1.36l-2.32-1.35v-5.47
			L144.6,98.26L144.6,98.26z M138.33,100.96v5.48l-2.32,1.33l-2.36,1.37l-2.36-1.36l-2.36-1.37v-5.46l4.69-2.71l2.37,1.37
			L138.33,100.96L138.33,100.96z M155.55,98.26l2.33,1.35l2.34,1.35v5.48l-4.67,2.7l-2.26-1.3l-2.41-1.39v-5.48L155.55,98.26
			L155.55,98.26z M79.51,110.51l2.32-1.34l2.36-1.37l2.36,1.36l2.35,1.36V116l-4.69,2.71l-4.72-2.72L79.51,110.51L79.51,110.51z
			 M78.72,117.34l2.34,1.35l2.37,1.37v5.43l-2.36,1.36l-2.31,1.34l-2.35-1.35l-2.38-1.37v-5.44l2.33-1.34L78.72,117.34L78.72,117.34
			z M73.24,126.85l2.34,1.35l2.42,1.39V135l-4.69,2.71l-4.71-2.72v-5.48L73.24,126.85L73.24,126.85z M90.51,115.97v-5.43l2.36-1.36
			l2.36-1.37l2.36,1.36l2.32,1.34v5.48l-2.34,1.35l-2.35,1.35l-2.34-1.35L90.51,115.97L90.51,115.97z M101.51,110.51l2.32-1.33
			l2.36-1.37l2.36,1.36l2.36,1.36V116l-4.69,2.71l-2.37-1.37l-2.34-1.35L101.51,110.51L101.51,110.51z M100.71,117.34l2.34,1.35
			l2.38,1.37v5.43l-2.36,1.36l-2.31,1.34l-2.35-1.35l-2.38-1.37v-5.43l2.33-1.35L100.71,117.34L100.71,117.34z M94.43,120.04v5.48
			l-4.64,2.68l-2.34-1.35l-2.42-1.39v-5.41l2.36-1.36l2.33-1.35l2.37,1.37L94.43,120.04L94.43,120.04z M95.23,126.85l2.34,1.35
			l2.42,1.39V135l-2.36,1.36l-2.33,1.35l-2.37-1.37l-2.34-1.35v-5.48l2.3-1.32L95.23,126.85L95.23,126.85z M89,129.56v5.43
			l-2.33,1.35l-2.35,1.35l-2.33-1.35l-2.38-1.37v-5.44l4.67-2.7l2.35,1.35L89,129.56L89,129.56z M112.5,115.97v-5.43l2.35-1.36
			l2.36-1.37l4.68,2.71v5.48l-2.33,1.35l-2.35,1.35L112.5,115.97L112.5,115.97z M123.49,110.51l2.32-1.34l2.36-1.37l2.36,1.36
			l2.36,1.36V116l-4.69,2.71l-2.37-1.37l-2.34-1.35L123.49,110.51L123.49,110.51z M116.42,120.04v5.47l-4.65,2.68l-2.33-1.35
			l-2.42-1.39v-5.41l2.36-1.36l2.33-1.35l2.37,1.37L116.42,120.04L116.42,120.04z M110.98,129.57v5.43l-2.34,1.35l-2.35,1.35
			l-4.72-2.72v-5.44l4.67-2.7l2.35,1.35L110.98,129.57L110.98,129.57z M134.49,115.97v-5.43l2.36-1.36l2.36-1.37l2.36,1.36
			l2.32,1.34v5.48l-4.68,2.7l-2.34-1.35L134.49,115.97L134.49,115.97z M145.48,110.51l2.32-1.34l2.35-1.36l2.26,1.3l2.42,1.39v5.49
			l-2.33,1.35l-2.34,1.34l-2.33-1.34l-2.34-1.35V110.51L145.48,110.51z M144.68,117.34l2.34,1.35l2.32,1.34v5.48l-4.63,2.67
			l-2.33-1.34l-2.38-1.37v-5.44l2.33-1.34L144.68,117.34L144.68,117.34z M156.44,110.5l2.3-1.33l2.36-1.37l2.36,1.36l2.32,1.34v5.48
			l-2.33,1.35l-2.34,1.35l-4.67-2.69V110.5L156.44,110.5z M155.63,117.34l4.67,2.7v5.47l-2.3,1.32l-2.34,1.35l-2.34-1.35l-2.36-1.36
			v-5.44l2.33-1.35L155.63,117.34L155.63,117.34z M150.15,126.85l2.33,1.34l2.38,1.37v5.43l-2.33,1.35l-2.35,1.35l-4.67-2.69v-5.49
			L150.15,126.85L150.15,126.85z M56.85,136.35l2.34,1.35l2.34,1.35v5.48l-2.32,1.34l-2.36,1.36l-4.68-2.71v-5.47L56.85,136.35
			L56.85,136.35z M67.8,136.35l2.34,1.35l2.38,1.37v5.43l-2.36,1.36l-2.36,1.36l-4.68-2.71v-5.48l2.33-1.35L67.8,136.35L67.8,136.35
			z M89.8,136.35l2.34,1.35l2.38,1.37v5.43l-2.36,1.36l-2.36,1.36l-2.37-1.36l-2.32-1.34v-5.47L89.8,136.35L89.8,136.35z
			 M83.52,139.05v5.47l-2.32,1.34l-2.36,1.36l-4.72-2.73v-5.46l2.36-1.36l2.33-1.35l2.37,1.37L83.52,139.05L83.52,139.05z
			 M111.78,136.35l2.34,1.35l2.38,1.37v5.43l-2.36,1.36l-2.36,1.36l-4.68-2.71v-5.47L111.78,136.35L111.78,136.35z M105.51,139.05
			v5.47l-2.32,1.34l-2.36,1.36l-4.72-2.73v-5.46l4.69-2.71l2.37,1.37L105.51,139.05L105.51,139.05z M166.5,98.26l2.33,1.35
			l2.38,1.37v5.43l-2.35,1.36l-2.36,1.37l-2.36-1.36l-2.32-1.35v-5.48L166.5,98.26L166.5,98.26z M188.49,98.26l2.34,1.35l2.38,1.37
			v5.43l-2.36,1.36l-2.36,1.37l-2.36-1.36l-2.32-1.35v-5.47l2.33-1.35L188.49,98.26L188.49,98.26z M182.21,100.96v5.48l-4.68,2.71
			l-2.36-1.36l-2.36-1.37v-5.46l4.69-2.71l2.37,1.36L182.21,100.96L182.21,100.96z M204.2,100.96v5.48l-2.32,1.33l-2.36,1.37
			l-2.36-1.36l-2.35-1.37v-5.46l2.36-1.36l2.33-1.35l2.37,1.37L204.2,100.96L204.2,100.96z M167.38,110.51l2.32-1.34l2.36-1.37
			l2.36,1.36l2.36,1.36V116l-4.7,2.71l-2.37-1.37l-2.34-1.35L167.38,110.51L167.38,110.51z M166.58,117.34l2.34,1.35l2.38,1.37v5.43
			l-2.36,1.36l-2.31,1.34l-2.35-1.35l-2.38-1.37v-5.44L166.58,117.34L166.58,117.34z M161.1,126.85l2.34,1.35l2.41,1.39V135
			l-4.69,2.71l-4.71-2.72v-5.48l2.3-1.32L161.1,126.85L161.1,126.85z M178.37,115.97v-5.43l2.36-1.36l2.36-1.37l4.68,2.71v5.48
			l-4.68,2.7l-2.34-1.35L178.37,115.97L178.37,115.97z M189.36,110.51l2.32-1.34l2.36-1.37l2.36,1.36l2.36,1.36V116l-4.69,2.71
			l-2.37-1.37l-2.34-1.35L189.36,110.51L189.36,110.51z M188.57,117.34l2.34,1.35l2.37,1.37v5.43l-2.36,1.36l-2.31,1.34l-2.35-1.35
			l-2.38-1.37v-5.43L188.57,117.34L188.57,117.34z M182.29,120.04v5.47l-4.64,2.68l-2.34-1.35l-2.42-1.39v-5.41l2.36-1.36l2.33-1.35
			l2.37,1.37L182.29,120.04L182.29,120.04z M183.09,126.84l2.34,1.35l2.42,1.39V135l-2.36,1.36l-2.33,1.35l-4.71-2.72v-5.48
			L183.09,126.84L183.09,126.84z M176.85,129.56v5.43l-2.33,1.35l-2.34,1.35l-4.72-2.72v-5.44l4.67-2.7l2.35,1.35L176.85,129.56
			L176.85,129.56z M200.36,115.97v-5.43l2.36-1.36l2.36-1.37l2.36,1.36l2.32,1.34v5.48l-4.68,2.7l-2.34-1.35L200.36,115.97
			L200.36,115.97z M204.28,120.04v5.47l-2.29,1.32l-2.35,1.35l-2.34-1.35l-2.41-1.39v-5.41l2.36-1.36l2.33-1.35l2.37,1.37
			L204.28,120.04L204.28,120.04z M205.08,126.85l2.34,1.35l2.42,1.39V135l-4.69,2.71l-4.71-2.72v-5.48L205.08,126.85L205.08,126.85z
			 M198.84,129.56v5.43l-2.33,1.35l-2.35,1.35l-4.72-2.72v-5.44l4.67-2.7l2.35,1.35L198.84,129.56z"/>
		
			<linearGradient id="SVGID_00000153679729975130953000000005614856940301147528_" gradientUnits="userSpaceOnUse" x1="231.7529" y1="538.8716" x2="231.7529" y2="381.9155" gradientTransform="matrix(1 0 0 -1 0 480.3729)">
			<stop  offset="0" style="stop-color:#861533"/>
			<stop  offset="0.43" style="stop-color:#EC2227"/>
			<stop  offset="1" style="stop-color:#861533"/>
		</linearGradient>
		<path style="fill-rule:evenodd;clip-rule:evenodd;fill:url(#SVGID_00000153679729975130953000000005614856940301147528_);" d="
			M304.21,145.96l0.61-2.91v-4l0.95-0.55l0.43-2.06l-2.17,1.25l-4.72-2.72v-5.44l4.67-2.7l2.35,1.35l1.41,0.81l0.33-1.64l-3.32-1.91
			v-5.41l4.69-2.71l0.52,0.3l0.3-1.64l-0.03-0.02v-5.43l1.03-0.59c0.11-0.7,0.21-1.38,0.29-2.05l-2.16,1.25l-2.36-1.36l-2.35-1.37
			v-5.46l4.69-2.71l2.37,1.37l0.63,0.36c0.04-0.61,0.06-1.2,0.07-1.77l-2.28-1.32v-5.42l1.72-0.99c-0.12-0.55-0.25-1.06-0.4-1.57
			l-2.12,1.22l-2.37-1.37l-2.3-1.32v-5.47l0.91-0.53c-0.53-0.29-1.1-0.57-1.7-0.83l-0.01,0l-0.04-0.02
			c-2.12-0.88-4.68-1.47-7.72-1.84l-0.92,0.53l-2.33,1.35l-4.05-2.34c-0.63-0.01-1.28-0.02-1.94-0.02h-0.93l-1.72,0.99l-2.35,1.35
			l-3.96-2.28l-3.14,0.04l-1.57,0.91l-2.33,1.35l-3.7-2.13l-3.71,0.06l-1.23,0.71l-2.34,1.35l-3.47-2c-1.35,0-2.69,0-4.02-0.01
			l-1.18,0.68l-2.33,1.35l-2.37-1.36l-1.4-0.81c-1.09-0.03-2.17-0.08-3.24-0.13l-1.63,0.94l-2.34,1.35l-2.34-1.35l-2.34-1.35v-0.15
			l-1.59-0.12v0.27l-4.68,2.7l-2.34-1.35l-2.34-1.35v-5.48l0.13-0.08c-0.26-0.46-0.51-0.95-0.73-1.45l-0.28,0.16l-4.68-2.71v-5.48
			l4.31-2.49c0.29-0.86,0.67-1.68,1.16-2.44v-4.6l2.3-1.32l2.35-1.35l2.33,1.35l1.68,0.96c0.55-0.07,1.11-0.11,1.71-0.13
			c0.47-0.02,0.94-0.01,1.39,0.02l1.49-0.86l2.35-1.35l4.72,2.72v5.43l-1.8,1.04c-0.02,0.6-0.1,1.25-0.22,1.94l0.47-0.28l2.35-1.35
			l2.34,1.35l2.38,1.37v0.77h1.6v-0.79l2.35-1.36l2.33-1.35l2.37,1.37l2.34,1.35v0.79h1.59v-0.79l4.68-2.71l2.34,1.35l2.38,1.37
			v0.77h1.6v-0.79l4.69-2.71l2.37,1.37l2.34,1.35v0.79h1.59v-0.79l4.68-2.71l2.34,1.35l2.38,1.37v0.77h1.6v-0.79l4.69-2.71
			l2.37,1.37l2.34,1.35v0.79h1.6v-0.79l2.33-1.35l2.35-1.35l4.72,2.72v0.77h0.64l0.48-2.32l-0.34,0.2l-4.71-2.72v-5.47l4.64-2.67
			l2.34,1.35l0,0l0.34-1.64l-1.89-1.09v-5.43l2.33-1.35l0.63-0.36c-0.02-0.59-0.07-1.17-0.14-1.73l-3.61,2.08l-4.72-2.72v-5.43
			l2.36-1.36l1.87-1.08c-0.39-0.4-0.81-0.79-1.25-1.16l-1.46,0.84l-2.36,1.36l-2.36-1.36l-2.36-1.37v-4.09
			c-0.52-0.18-1.05-0.35-1.6-0.52v4.62l-2.36,1.36l-2.36,1.36l-2.36-1.36l-2.32-1.34v-5.48l1.57-0.91c-1.88-0.3-3.88-0.54-5.99-0.72
			l0.49,0.28l2.34,1.35v5.48l-4.68,2.7l-2.36-1.36l-2.35-1.37v-5.46l2.36-1.36l0.87-0.51c-0.94-0.06-1.9-0.1-2.88-0.13l-1.15,0.67
			l-1.27-0.74c-0.96-0.02-1.93-0.02-2.91-0.02h-0.28l1.29,0.75l2.38,1.37v5.43l-2.36,1.36l-2.36,1.36l-2.36-1.36l-2.32-1.34v-5.48
			l2.33-1.35l1.3-0.75h-3.14l-1.29,0.74l-1.29-0.74h-3.14l1.3,0.75l2.34,1.35v5.48l-2.32,1.34l-2.36,1.36l-2.36-1.36l-2.36-1.37
			v-5.46l3.63-2.09h-3.12l-1.32,0.76l-1.31-0.76h-3.15l1.3,0.75l2.37,1.37v5.43l-4.72,2.73l-2.36-1.36l-2.32-1.34v-5.48l3.64-2.09
			h-3.14l-1.29,0.74l-1.29-0.74h-3.14l1.3,0.75l2.34,1.35v5.48l-2.32,1.34l-2.36,1.36l-2.36-1.36l-2.32-1.34v-5.48l3.63-2.09h-3.13
			l-1.28,0.74l-1.29-0.74h-3.15l1.3,0.75l2.34,1.35v5.48l-2.32,1.34l-2.35,1.36l-2.36-1.36l-2.32-1.34v-5.48l2.33-1.35l1.3-0.75
			h-3.14l-1.29,0.74l-1.28-0.74h-3.14l1.29,0.75l2.34,1.35v5.48l-4.68,2.7l-2.36-1.36l-2.36-1.37v-5.46l2.36-1.36l1.26-0.73h-3.12
			l-1.31,0.76l-1.31-0.76h-3.15l1.3,0.75l2.37,1.37v5.43l-2.36,1.36l-2.36,1.36l-2.36-1.36l-2.32-1.34v-5.48l3.64-2.09h-3.14
			l-1.29,0.74l-1.28-0.74h-1.53l-1.61,0.01l1.28,0.74l2.34,1.35v5.48l-2.32,1.34l-2.36,1.36l-2.36-1.36l-2.36-1.37v-5.46l2.36-1.36
			l1.18-0.69c-1.13,0.03-2.24,0.07-3.32,0.12l-1.02,0.59l-0.85-0.49c-0.94,0.06-1.88,0.13-2.79,0.2l0.47,0.27l2.38,1.37v5.43
			l-2.35,1.36l-2.36,1.36l-2.36-1.36l-2.32-1.34v-5.48l1.96-1.13c-1.5,0.19-2.94,0.41-4.34,0.67l0.79,0.46v5.48l-4.68,2.7
			l-2.36-1.36l-2.35-1.37v-3.8c-0.54,0.17-1.07,0.35-1.6,0.54v3.26l-2.36,1.36l-2.35,1.36l-2.36-1.36l-1.18-0.68
			c-0.5,0.31-0.97,0.63-1.43,0.96l1.95,1.12l2.32,1.35v5.47l-2.34,1.35l-2.34,1.35l-4.72-2.72V36.5c-0.56,0.65-1.07,1.32-1.55,2.01
			v1.29l-1.27,0.73c-0.45,0.81-0.86,1.64-1.22,2.5l0.93-0.54l2.33-1.35l2.37,1.37l2.34,1.35v5.48l-4.64,2.67l-2.34-1.35l-2.42-1.39
			v-1.89l-0.1,0.41l-0.65,2.88l2.33,1.34l2.38,1.37v5.43l-2.33,1.35l-2.35,1.35l-2.18-1.26l-0.36,1.61l1.75,1.01v5.47l-2.32,1.34
			l-1.3,0.75c-0.47,2.94-0.66,6.33-0.32,9.2l1.68,0.97l2.34,1.35v4.16c0.1,0.01,0.19,0.02,0.29,0.02l1.3,0.03v-4.2l4.68-2.7
			l2.34,1.35l2.38,1.37v4.43l1.59,0.04v-4.5l2.36-1.36l2.33-1.35l2.37,1.37l2.34,1.35v4.78l1.6,0.05v-4.83l2.33-1.35l2.35-1.35
			l2.34,1.35l2.37,1.37v5.13l1.6,0.06v-5.21l2.36-1.36l2.33-1.35l2.37,1.37l2.34,1.35v5.42l-0.22,0.13l2.11,0.08l-0.29-0.17v-5.47
			l4.68-2.7l2.34,1.35l2.38,1.37v5.42l-0.91,0.53l3.67,0.15l-1.17-0.67v-5.46l4.69-2.71l2.37,1.37l2.34,1.35v5.42l-1.69,0.98
			l5.29,0.23l-2.01-1.16v-5.47l4.68-2.7l2.34,1.35l2.34,1.35v5.47l-2.71,1.57c0.79,0.13,1.53,0.3,2.23,0.51l1.27-0.74l2.34,1.35
			l2.38,1.37v1.76c0.63,0.77,1.16,1.64,1.59,2.61v-4.41l2.3-1.33l2.34-1.35l2.34,1.35l2.38,1.37v5.42l-4.68,2.7l-2.34-1.35
			l-1.82-1.05c0.22,0.67,0.4,1.38,0.55,2.13l0.48,0.27l2.34,1.35v5.48l-2.32,1.33l-0.13,0.08c-0.04,0.64-0.1,1.3-0.16,1.98
			l1.13-0.65l2.36-1.37l2.36,1.36l2.32,1.34v5.48l-4.68,2.7l-4.34-2.51l-0.26,1.67l1.46,0.85l2.34,1.34v5.48l-2.3,1.32l-2.34,1.35
			l-0.79-0.46l-0.28,1.68l0.28,0.16V135l-1.39,0.81l-0.36,2.02l2.55-1.47l2.34,1.35l2.34,1.35v5.48l-2.32,1.34l-2.35,1.36
			l-3.86-2.23l-0.3,1.61l1.12,0.65l2.32,1.34v2.17h1.59v-2.17l4.68-2.71l2.36,1.36l2.32,1.34v2.17h1.59v-2.17l4.68-2.71l4.72,2.73
			v2.15h1.59v-2.15l4.72-2.72l4.68,2.7v2.17h1.6v-2.17l4.68-2.71l2.36,1.36l2.36,1.36v2.15h1.6v-2.15l4.72-2.73l4.68,2.71v2.17h1.6
			v-2.17l4.68-2.71l2.36,1.36l2.36,1.36v2.15h1.59v-2.15l4.72-2.73L304.21,145.96L304.21,145.96z M227.74,87.38v-5.42l4.68-2.7
			l2.34,1.35l2.34,1.35v5.47l-4.64,2.68l-2.34-1.35L227.74,87.38L227.74,87.38z M238.69,87.38v-5.42l2.33-1.35l2.35-1.35l2.34,1.35
			l2.38,1.37v5.42l-2.33,1.35l-2.35,1.35l-2.34-1.35L238.69,87.38L238.69,87.38z M244.21,91.44l4.69-2.7l2.38,1.37l2.3,1.32v5.47
			l-4.68,2.7l-2.34-1.35l-2.34-1.35L244.21,91.44L244.21,91.44z M243.41,98.26l2.34,1.35l2.34,1.35v5.48l-2.32,1.33l-2.36,1.37
			l-2.36-1.36l-2.32-1.35v-5.47L243.41,98.26L243.41,98.26z M244.29,110.51l2.32-1.33l2.36-1.37l2.36,1.36l2.32,1.34v5.48
			l-2.34,1.35l-2.34,1.35l-2.34-1.35l-2.34-1.35L244.29,110.51L244.29,110.51z M243.49,117.34l2.34,1.35l2.34,1.34v5.48l-4.64,2.68
			l-2.34-1.35l-2.38-1.37v-5.44l2.33-1.34L243.49,117.34L243.49,117.34z M238.02,126.85l4.72,2.72v5.43l-2.34,1.35l-2.34,1.35
			l-4.68-2.7v-5.48l2.3-1.32L238.02,126.85L238.02,126.85z M249.69,87.41v-5.45l2.36-1.36l2.33-1.35l2.37,1.37l2.34,1.35v5.42
			l-2.38,1.37l-2.34,1.35l-2.34-1.35L249.69,87.41L249.69,87.41z M255.17,91.49l2.37-1.37l2.35-1.35l2.34,1.35l2.34,1.35v5.45
			l-4.69,2.71l-2.37-1.37l-2.34-1.35L255.17,91.49L255.17,91.49z M254.37,98.26l2.34,1.35l2.38,1.37v5.43l-4.72,2.73l-2.36-1.36
			l-2.32-1.34v-5.48L254.37,98.26L254.37,98.26z M260.69,87.43v-5.47l4.68-2.7l2.34,1.35l2.38,1.37v5.42l-2.34,1.35l-2.38,1.37
			l-2.38-1.37L260.69,87.43L260.69,87.43z M266.16,96.88v-5.42l2.34-1.35l2.39-1.37l4.68,2.7v5.47l-2.33,1.35l-2.35,1.35l-2.34-1.35
			L266.16,96.88L266.16,96.88z M271.68,87.41v-5.45l4.69-2.71l2.37,1.37l2.34,1.35v5.42l-4.72,2.72L271.68,87.41L271.68,87.41z
			 M277.16,91.49l2.37-1.37l2.34-1.35l4.68,2.7v5.45l-2.35,1.36l-2.33,1.35l-2.37-1.37l-2.34-1.35V91.49L277.16,91.49z
			 M276.36,98.26l2.34,1.35l2.38,1.37v5.43l-2.36,1.36l-2.36,1.37l-2.36-1.36l-2.32-1.35v-5.47l2.33-1.35L276.36,98.26L276.36,98.26
			z M270.08,100.96v5.48l-2.32,1.33l-2.36,1.37l-2.36-1.36l-2.36-1.37v-5.46l4.7-2.71l2.36,1.36L270.08,100.96L270.08,100.96z
			 M282.67,87.43v-5.47l4.68-2.7l2.34,1.35l2.38,1.37v5.42l-4.72,2.72L282.67,87.43L282.67,87.43z M288.15,96.89v-5.42l2.33-1.35
			l2.39-1.37l2.38,1.37l2.3,1.32v5.47l-2.33,1.35l-2.35,1.35l-2.34-1.35L288.15,96.89L288.15,96.89z M293.66,87.41v-5.45l2.36-1.36
			l2.33-1.35l2.37,1.37l2.34,1.35v5.42l-2.38,1.37l-2.34,1.35l-2.34-1.35L293.66,87.41L293.66,87.41z M299.14,91.49l2.37-1.37
			l2.34-1.35l2.34,1.35l2.34,1.35v5.45l-2.36,1.36l-2.33,1.35l-2.37-1.37l-2.34-1.35L299.14,91.49L299.14,91.49z M298.35,98.26
			l2.34,1.35l2.38,1.37v5.43l-2.36,1.36l-2.36,1.37l-2.36-1.36l-2.32-1.35v-5.47L298.35,98.26L298.35,98.26z M292.07,100.96v5.48
			l-4.68,2.71l-2.36-1.36l-2.36-1.37v-5.46l2.36-1.36l2.33-1.35l2.37,1.37L292.07,100.96L292.07,100.96z M255.24,110.51l2.32-1.34
			l2.36-1.37l2.36,1.36l2.36,1.36V116l-4.69,2.71l-2.37-1.37l-2.34-1.35L255.24,110.51L255.24,110.51z M254.45,117.34l2.34,1.35
			l2.38,1.37v5.43l-2.36,1.36l-2.31,1.34l-2.35-1.35l-2.38-1.37v-5.44l2.33-1.34L254.45,117.34L254.45,117.34z M248.97,126.85
			l2.34,1.35l2.42,1.39V135l-4.69,2.71l-4.71-2.72v-5.48L248.97,126.85L248.97,126.85z M277.24,110.51l2.32-1.33l2.36-1.37
			l2.36,1.36l2.36,1.36V116l-4.69,2.71l-2.37-1.37l-2.34-1.35L277.24,110.51L277.24,110.51z M276.44,117.34l2.34,1.35l2.38,1.37
			v5.43l-2.36,1.36l-2.31,1.34l-2.35-1.35l-2.38-1.37v-5.43l2.34-1.35L276.44,117.34L276.44,117.34z M270.16,120.04v5.48l-4.65,2.68
			l-2.34-1.35l-2.42-1.39v-5.41l2.36-1.36l2.33-1.35l2.37,1.37L270.16,120.04L270.16,120.04z M270.96,107.81l4.68,2.71v5.48
			l-2.33,1.35l-2.35,1.35l-2.34-1.35l-2.38-1.37v-5.43l2.36-1.36L270.96,107.81L270.96,107.81z M270.96,126.85l2.34,1.35l2.42,1.39
			V135l-2.36,1.36l-2.33,1.35l-2.37-1.37l-2.34-1.35v-5.48l2.3-1.32L270.96,126.85L270.96,126.85z M264.73,129.56v5.43l-2.34,1.35
			l-2.34,1.35l-2.34-1.35l-2.38-1.37v-5.44l4.67-2.7l2.35,1.35L264.73,129.56L264.73,129.56z M299.22,110.51l2.32-1.34l2.36-1.37
			l2.36,1.36l2.36,1.36V116l-4.69,2.71l-2.37-1.37l-2.34-1.35V110.51L299.22,110.51z M298.42,117.34l4.72,2.72v5.43l-2.36,1.36
			l-2.31,1.34l-2.35-1.35l-2.38-1.37v-5.43l2.33-1.35L298.42,117.34L298.42,117.34z M292.15,120.04v5.47l-4.64,2.68l-2.34-1.35
			l-2.42-1.39v-5.41l2.36-1.36l2.33-1.35l2.37,1.37L292.15,120.04L292.15,120.04z M292.95,107.81l4.68,2.71v5.48l-2.33,1.35
			l-2.35,1.35l-4.72-2.72v-5.43l2.36-1.36L292.95,107.81L292.95,107.81z M292.95,126.85l2.34,1.35l2.42,1.39V135l-4.69,2.71
			l-4.71-2.72v-5.48L292.95,126.85L292.95,126.85z M286.71,129.57v5.43l-2.33,1.35l-2.35,1.35l-4.72-2.72v-5.44l4.67-2.7l2.35,1.35
			L286.71,129.57L286.71,129.57z M243.53,136.35l2.34,1.35l2.38,1.37v5.43l-2.36,1.36l-2.36,1.36l-4.68-2.71v-5.48l2.33-1.35
			L243.53,136.35L243.53,136.35z M265.52,136.35l2.34,1.35l2.38,1.37v5.43l-2.36,1.36l-2.36,1.36l-4.68-2.71v-5.47L265.52,136.35
			L265.52,136.35z M259.25,139.05v5.47l-2.32,1.34l-2.36,1.36l-4.72-2.73v-5.46l4.69-2.71l2.37,1.37L259.25,139.05L259.25,139.05z
			 M287.51,136.35l2.34,1.35l2.38,1.37v5.43l-2.36,1.36l-2.36,1.36l-4.68-2.71v-5.47L287.51,136.35L287.51,136.35z M281.24,139.05
			v5.47l-2.32,1.34l-2.36,1.36l-4.72-2.73v-5.46l4.7-2.71l2.37,1.37L281.24,139.05L281.24,139.05z M303.22,139.05v5.47l-2.32,1.34
			l-2.36,1.36l-4.72-2.73v-5.46l4.69-2.71l2.37,1.37L303.22,139.05L303.22,139.05z M182.85,31.64l2.36,1.36l2.31,1.35v5.47
			l-4.68,2.7l-2.33-1.35l-2.38-1.37v-5.43L180.5,33L182.85,31.64L182.85,31.64z M204.84,31.64L207.2,33l2.32,1.35v5.47l-4.68,2.7
			l-2.34-1.35l-2.38-1.37v-5.43l2.36-1.36L204.84,31.64L204.84,31.64z M226.82,31.64l4.68,2.7v5.48l-2.33,1.35l-2.34,1.35
			l-2.34-1.35l-2.38-1.37v-5.43l2.36-1.36L226.82,31.64L226.82,31.64z M167.14,34.35l2.32-1.33l2.36-1.37l2.36,1.36l2.35,1.37v5.46
			l-4.69,2.71l-2.37-1.37l-2.34-1.35L167.14,34.35L167.14,34.35z M166.34,41.18l2.34,1.35l2.37,1.37v5.44l-2.36,1.36l-2.31,1.34
			l-2.35-1.35l-2.38-1.37v-5.43L166.34,41.18L166.34,41.18z M160.87,50.68l4.75,2.74v5.41l-4.69,2.71l-4.71-2.72v-5.47l2.3-1.32
			L160.87,50.68L160.87,50.68z M189.13,34.35l2.32-1.33l2.36-1.37l2.36,1.36l2.35,1.37v5.46l-4.69,2.71l-2.37-1.37l-2.34-1.35
			L189.13,34.35L189.13,34.35z M188.33,41.18l2.34,1.35l2.37,1.37v5.44l-2.36,1.36l-2.31,1.34l-2.35-1.35l-2.38-1.37v-5.43
			L188.33,41.18L188.33,41.18z M182.06,43.87v5.48l-4.64,2.67l-2.34-1.35l-2.42-1.39v-5.41l2.36-1.36l2.33-1.35l2.37,1.37
			L182.06,43.87L182.06,43.87z M182.85,50.68l2.34,1.35l2.42,1.39v5.41l-2.36,1.36l-2.33,1.35l-4.71-2.72v-5.47L182.85,50.68
			L182.85,50.68z M176.62,53.39v5.43l-2.33,1.35l-2.34,1.35l-4.72-2.72v-5.44l4.68-2.7l2.35,1.35L176.62,53.39L176.62,53.39z
			 M211.11,34.35l2.32-1.33l2.36-1.37l2.36,1.36l2.36,1.37v5.46l-2.36,1.36l-2.33,1.35l-2.37-1.37l-2.34-1.35V34.35L211.11,34.35z
			 M210.32,41.18l2.33,1.35l2.38,1.37v5.44l-2.36,1.36l-2.31,1.34l-2.35-1.35l-2.38-1.37v-5.43L210.32,41.18L210.32,41.18z
			 M204.04,43.87v5.48l-2.29,1.32l-2.35,1.35l-2.34-1.35l-2.41-1.39v-5.41l2.36-1.36l2.33-1.35l2.37,1.37L204.04,43.87L204.04,43.87
			z M204.84,50.68l2.34,1.35l2.42,1.39v5.41l-4.69,2.71l-4.71-2.72v-5.47l2.3-1.32L204.84,50.68L204.84,50.68z M198.61,53.39v5.43
			l-2.34,1.35l-2.35,1.35l-4.72-2.72v-5.44l4.68-2.7l2.35,1.35L198.61,53.39L198.61,53.39z M233.1,34.35l2.32-1.33l2.36-1.37
			l2.36,1.36l2.32,1.35v5.47l-4.68,2.7l-4.68-2.7L233.1,34.35L233.1,34.35z M232.31,41.18l2.34,1.35l2.34,1.35v5.48l-2.3,1.32
			l-2.35,1.35L230,50.67l-2.38-1.37v-5.43L232.31,41.18L232.31,41.18z M226.03,43.87v5.48l-4.64,2.67l-2.34-1.35l-2.42-1.39v-5.41
			l4.69-2.71L226.03,43.87L226.03,43.87z M244.06,34.35l2.32-1.33l2.36-1.37L251.1,33l2.32,1.35v5.47l-2.33,1.35l-2.34,1.35
			l-2.34-1.35l-2.34-1.35L244.06,34.35L244.06,34.35z M243.26,41.18l2.34,1.35l2.34,1.35v5.48l-4.64,2.67l-2.34-1.35l-2.38-1.37
			v-5.43l2.33-1.35L243.26,41.18L243.26,41.18z M220.59,53.39v5.43l-2.33,1.35l-2.35,1.35l-4.72-2.72v-5.44l4.67-2.7l2.35,1.35
			L220.59,53.39L220.59,53.39z M270.73,31.64l2.36,1.36l2.32,1.35v5.47l-2.33,1.35l-2.35,1.35l-4.72-2.72v-5.43l2.36-1.36
			L270.73,31.64L270.73,31.64z M292.71,31.64l4.68,2.7v5.48l-2.33,1.35l-2.35,1.35L288,39.8v-5.43l2.36-1.36L292.71,31.64
			L292.71,31.64z M255.01,34.35l2.32-1.33l2.36-1.37l4.72,2.73v5.46l-4.69,2.71l-2.37-1.37l-2.34-1.35L255.01,34.35L255.01,34.35z
			 M254.22,41.18l2.34,1.35l2.38,1.37v5.44l-2.36,1.36l-2.31,1.34l-2.35-1.35l-2.38-1.37v-5.43l2.33-1.35L254.22,41.18L254.22,41.18
			z M248.74,50.68l2.34,1.35l2.42,1.39v5.41l-4.69,2.71l-4.71-2.72v-5.47L248.74,50.68L248.74,50.68z M277,34.35l2.32-1.33
			l2.36-1.37l2.36,1.36l2.36,1.37v5.46l-4.69,2.71l-2.37-1.37L277,39.82L277,34.35L277,34.35z M276.21,41.18l2.34,1.35l2.38,1.37
			v5.44l-2.36,1.36l-2.31,1.34l-2.35-1.35l-2.37-1.37v-5.43l2.33-1.35L276.21,41.18L276.21,41.18z M269.93,43.87v5.48l-4.64,2.67
			l-2.34-1.35l-2.42-1.39v-5.41l2.36-1.36l2.33-1.35l2.37,1.37L269.93,43.87L269.93,43.87z M270.73,50.68l2.34,1.35l2.42,1.39v5.41
			l-2.36,1.36l-2.33,1.35l-2.37-1.37l-2.34-1.35v-5.47l2.3-1.32L270.73,50.68L270.73,50.68z M264.49,53.39v5.43l-2.34,1.35
			l-2.34,1.35l-2.34-1.35l-2.38-1.37v-5.44l4.67-2.7l2.35,1.35L264.49,53.39L264.49,53.39z M298.99,34.35l2.32-1.33l2.36-1.37
			l2.36,1.36l2.36,1.37v5.46l-4.69,2.71l-2.37-1.37l-2.34-1.35L298.99,34.35L298.99,34.35z M298.19,41.18l4.72,2.72v5.44l-2.36,1.36
			l-2.31,1.34l-2.35-1.35l-2.38-1.37v-5.43l2.34-1.35L298.19,41.18L298.19,41.18z M291.92,43.87v5.48l-4.64,2.68l-2.34-1.35
			l-2.42-1.39v-5.41l2.36-1.36l2.33-1.35l2.37,1.37L291.92,43.87L291.92,43.87z M292.71,50.68l2.34,1.35l2.42,1.39v5.41l-4.69,2.71
			l-4.71-2.72v-5.47L292.71,50.68L292.71,50.68z M286.48,53.4v5.43l-2.33,1.35l-2.34,1.35l-4.72-2.72v-5.44l4.67-2.7l2.35,1.35
			L286.48,53.4L286.48,53.4z M313.9,43.87v5.48l-4.64,2.67l-4.76-2.74v-5.41l4.69-2.71l2.37,1.37L313.9,43.87L313.9,43.87z
			 M308.46,53.39v5.43l-2.33,1.35l-2.35,1.35l-4.72-2.72v-5.44l4.67-2.7l2.35,1.35L308.46,53.39L308.46,53.39z M155.43,60.18
			l2.34,1.35l2.38,1.37v5.43l-2.36,1.36l-2.36,1.36l-2.36-1.36l-2.32-1.34v-5.47L155.43,60.18L155.43,60.18z M150.03,69.73
			l4.68,2.71v5.48l-2.33,1.35l-2.34,1.35l-2.34-1.35l-2.38-1.37v-5.43L150.03,69.73L150.03,69.73z M177.41,60.18l4.72,2.72v5.43
			l-2.35,1.36l-2.36,1.36l-4.68-2.71v-5.48L177.41,60.18L177.41,60.18z M171.14,62.88v5.48l-2.32,1.34l-2.36,1.36l-4.72-2.73v-5.46
			l4.69-2.71l2.37,1.37L171.14,62.88L171.14,62.88z M172.02,69.73l2.36,1.36l2.32,1.34v5.48l-2.34,1.35l-2.34,1.35l-4.72-2.72v-5.43
			L172.02,69.73L172.02,69.73z M199.4,60.18l2.34,1.35l2.38,1.37v5.43l-2.36,1.36l-2.36,1.36l-2.36-1.36l-2.32-1.34v-5.48l2.33-1.35
			L199.4,60.18L199.4,60.18z M193.13,62.88v5.48l-2.32,1.34l-2.36,1.36l-4.72-2.73v-5.46l4.69-2.71l2.37,1.37L193.13,62.88
			L193.13,62.88z M194,69.73l2.36,1.36l2.32,1.34v5.48l-2.33,1.35l-2.35,1.35l-2.34-1.35l-2.38-1.37v-5.43L194,69.73L194,69.73z
			 M215.11,62.88v5.47l-2.32,1.34l-2.36,1.36l-2.36-1.36l-2.36-1.36v-5.46l4.69-2.71l2.37,1.37L215.11,62.88L215.11,62.88z
			 M215.99,69.73l2.36,1.36l2.32,1.34v5.48l-2.33,1.35l-2.34,1.35l-4.72-2.72v-5.43L215.99,69.73L215.99,69.73z M156.3,72.43
			l2.32-1.34l2.36-1.36l2.36,1.36l2.36,1.37v5.45l-2.36,1.36l-2.33,1.35l-2.37-1.37l-2.34-1.35V72.43L156.3,72.43z M178.29,72.44
			l4.68-2.71l2.36,1.36l2.36,1.37v5.45l-2.36,1.36L183,80.62l-2.37-1.37l-2.34-1.35L178.29,72.44L178.29,72.44z M200.28,72.43
			l4.68-2.71l2.36,1.36l2.35,1.37v5.45l-2.35,1.36l-2.33,1.35l-2.37-1.37l-2.34-1.35C200.28,77.91,200.28,72.43,200.28,72.43z"/>
	</g>
</g>
</svg>
