<svg id="Layer_2" data-name="Layer 2" xmlns="http://www.w3.org/2000/svg" viewBox="0 0 113.28 117.84"><path d="M.24,28.8V26.88c1-.49,2.09-.94,3.1-1.49C6,24,10.24,23,10.91,20.88c1.1-3.42-.13-7.59-.39-11.64,30.57-11.18,61.28-11,92.42-.14-.2,4.09-.42,8.34-.6,12.06l10.92,5.72C108.19,65.79,86.41,94,56.69,117.76c-4.25-3.7-8.66-7.38-12.86-11.27A146.67,146.67,0,0,1,17.09,74.27,127.47,127.47,0,0,1,5,47.69C3,41.45,2.14,35,.24,28.8Zm56.68,80.63c25.33-20.93,44-46,49.36-79.17l-5-2.47C96,58.33,79.83,82.13,56.75,102.05A144.46,144.46,0,0,1,29.41,71.21C21.88,59.62,16.35,47.15,13.84,33.45c26.31-8.32,57.54-10.75,68.47-5.2.34-1.9.68-3.75,1-5.59-18.12-6.8-58.81-2.66-76,7.82C13,63.21,31.21,88.22,56.41,109.38Zm23.86-75c-16.07-4.43-31.92-4.72-47.86.07a104,104,0,0,0,23.9,42.21A104.05,104.05,0,0,0,80.78,34.47Zm9.51-16.75c-2.62,27-14.33,49.19-33.45,68-14.48-14.06-24.72-30.45-30.23-50l-5.43,1.54c6,22.72,18.89,40.65,35.56,56.14,23.72-21.6,37.9-47.63,39.68-79.79-29.3-9.34-52.37-8.46-79.25,0l.28,5.64C41.84,11.56,66,10.38,90.29,17.72ZM48.83,2.83l0-.35-1.31-.21,0,.39Zm15.88-.11,0-.24-.73,0,0,.26Zm-39,18,0-.21-.45.06,0,.19Zm45.18,6.53ZM55.67,25.94ZM42.28,27.05h-.12a.8.8,0,0,0,.08.16l.08-.07Zm-19.6,18-.18,0,0,.35.19,0ZM99.2,9.42Zm-41-7.85h-.08l0,.06ZM59.29,26h-.08l0,.06Zm-11.82.58.06.08,0-.08ZM98.59,37.54v.06l.07,0Z"/></svg>