<?xml version="1.0" encoding="utf-8"?>
<!-- Generator: Adobe Illustrator 23.0.2, SVG Export Plug-In . SVG Version: 6.00 Build 0)  -->
<svg version="1.1" id="Layer_1" xmlns="http://www.w3.org/2000/svg" xmlns:xlink="http://www.w3.org/1999/xlink" x="0px" y="0px"
	 viewBox="0 0 975.6 156.5" style="enable-background:new 0 0 975.6 156.5;" xml:space="preserve">
<style type="text/css">
	.st0{fill-rule:evenodd;clip-rule:evenodd;fill:#ED1C29;}
	.st1{fill-rule:evenodd;clip-rule:evenodd;}
	.st2{fill-rule:evenodd;clip-rule:evenodd;fill:#FFFFFF;}
</style>
<g>
	<path class="st0" d="M868.6,38.7c1.1-3,2.1-6.1,2.9-8.2c0.6-2.1,1-3.5,1.3-4.8c-0.1-1.9-0.1-3.8,0.2-5.3c0.2-1.6,0.6-2.9,1.4-4.1
		c0.6-1.3,1.4-2.4,2.4-3.6c1.1-1.1,2.2-2.1,3.8-3.2c1.6-1.1,3.5-2.1,5.3-3c3.6-1.6,6.9-2.1,10-2c1.6,0.1,3.1,0.4,4.7,0.9
		c1.6,0.5,3.1,1.2,4.7,2.1c1.6,1,3.3,2.1,5.2,3.8c1.9,1.7,4,3.9,5.6,5.7c1.5,1.9,2.5,3.3,3.3,4.9c0.7,0.7,1.4,1.5,1.9,2.1
		c0.5,0.7,1,1.4,1.4,2c0-0.1,0-0.1,0.1-0.2c-0.2-1.7-0.2-3.5,0.1-5.1c0.2-1.6,0.6-2.9,1.3-4.1c0.6-1.2,1.5-2.4,2.6-3.6
		c1-1.2,2.2-2.2,3.7-3.3c1.6-1.1,3.4-2,5.2-2.9c1.8-0.7,3.6-1.4,5.2-1.7c1.7-0.3,3.3-0.5,4.9-0.4c1.6,0.1,3.2,0.3,4.7,0.8
		c1.6,0.4,3.2,1.2,4.8,2.1c1.6,1,3.3,2.1,5.2,3.9c1.9,1.7,4.1,4,5.7,6c1.6,1.8,2.6,3.3,3.3,4.8c1.5,1.5,2.9,3.3,3.8,4.8
		c1,1.6,1.5,3.1,1.8,4.5c0.3,1.4,0.5,2.8,0.4,4.3c-0.1,1.4-0.3,2.9-0.7,4.1c-0.5,1.3-1.2,2.4-1.5,3c-0.3,0.6-0.4,0.9-0.8,1.5
		c-0.3,0.7-0.8,2-1.4,3.2c-0.5,1.1-1,1.9-2.1,4.6c-1.2,2.5-3,6.8-5.2,12.9c-2.2,6.1-4.7,13.9-6.8,21.4c-2.1,7.3-3.8,14.3-5.1,20.8
		c-1.3,6.6-2.1,12.9-2.5,16.9c-0.4,4-0.4,6-0.2,7.4c0.2,1.4,0.5,2.3,0.9,3.6c0.3,1.4,0.6,3,0.7,4.6c0,1.6-0.1,3-0.4,4.4
		c-0.3,1.4-0.8,2.5-1.6,3.7c-0.7,1.2-1.6,2.2-2.8,3.3c-1.2,1-2.4,1.9-4,2.7c-1.6,0.9-3.4,1.5-5.3,1.9c-1.9,0.4-4,0.7-6.1,0.7
		c-2.1,0.1-4.3-0.1-6.2-0.4c-1.9-0.4-3.7-1-5.4-1.8c-1.7-0.7-3.4-1.8-5-3.1c-1.7-1.3-3.3-2.9-4.7-4.5c-1.3-1.6-2.4-3.2-3.4-4.9
		c-1.7-1.7-3.1-3.7-4.3-5.7c-1.1-2-1.7-4-2.1-6.4c-0.4-2.3-0.5-4.9-0.4-7.4c-0.6,2.4-0.9,5-0.7,7c0.1,2,0.5,3.5,0.9,4.7
		c0.3,1.1,0.5,1.7,0.6,2.8c0.2,1.1,0.4,2.6,0.3,3.9c0,1.4-0.2,2.7-0.5,3.8c-0.4,1.2-1,2.2-1.6,3.3c-0.6,1.1-1.5,2-2.4,3
		c-1.1,0.8-2.2,1.7-3.6,2.4c-1.4,0.7-2.9,1.4-4.6,1.9c-1.7,0.5-3.5,1-5.4,1.1c-1.8,0.2-3.7,0.2-5.5,0.1c-1.8-0.2-3.5-0.5-5.1-1.1
		c-1.6-0.4-3.2-1.2-4.7-2c-1.5-0.9-3-1.8-4.5-3.2c-1.5-1.3-3-2.8-4.2-4.3c-1.2-1.4-2-2.8-2.8-4.1c-0.7-0.7-1.4-1.5-1.9-2.2
		c-0.6-0.6-1.1-1.3-1.5-1.9c-4.3,4-9,7.7-13.8,10.4c-4.7,2.9-9.5,5-13.9,6.4c-4.6,1.4-8.8,2-13,2c-4,0-8-0.6-11.9-1.8
		c-3.8-1.2-7.7-3.1-11.2-5.5c-3.6-2.3-7-5.4-10-8.8c-0.5,1.2-1.2,2.2-2,3.2c-0.8,0.9-1.8,1.7-2.8,2.3c-1.1,0.6-2.1,1.2-3.3,1.6
		l-2,0.5c-0.3,0.1-0.7,0.2-1.1,0.2c-0.4,0-0.7-0.1-1.2-0.2l-1.9-0.5c-2-0.5-3.9-1.1-5.2-1.3c-1.4-0.2-2-0.2-3.1,0.1
		c-1.2,0.2-2.8,0.6-3.7,1c-1.1,0.2-1.4,0.4-1.8,0.5l-13.1,3.6c-1.2,0.3-2.2,0.9-4,1.5c-1.9,0.6-4.5,1.5-6.8,2
		c-2.4,0.6-4.6,0.8-6.8,0.7c-2.1-0.1-4.3-0.5-6.5-1.4c-2.2-1-4.6-2.2-7.4-4.2c-3-2.1-6.5-4.9-8.8-7.2c-2.4-2.3-3.7-4.1-4.7-6.2
		c-1.6-1.6-2.9-3.4-4-5.4c-1.1-2-1.9-4.4-2.4-6.8c-0.6-2.4-1-5.2-0.7-8.9c0.2-3.7,1.1-8.4,2.1-13l2.6-11.7c-1.2-1.5-2.2-3.1-3-4.6
		c-0.6-1.4-1.1-2.7-1.4-3.9c-0.5-2.4-0.4-4.9,0.1-7.2c0.3-1.2,0.7-2.2,1.4-3.3c0.5-1,1.3-1.9,2-2.8c0.9-1,1.7-1.7,3-2.6
		c1.2-0.7,2.8-1.5,4.4-2c0.3-1.1,0.6-2.2,1-3.1c0.3-1,0.5-1.7,0.7-2.3c0.3-1.2,0.6-2.1,1-3.2c0.2-0.5,0.3-1.1,0.5-1.7
		c0.3-0.7,0.5-1.6,0.8-2.6c-2.4-0.2-4.8-0.3-7.1-0.3c-2.2,0.1-4.4,0.4-6.4,0.6c-1.9,6.3-3.8,12.6-5.4,18.3c-1.6,5.5-3,10.5-3.9,13.9
		c-1,3.5-1.6,5.5-2.8,10c-1.3,4.5-3,11.3-4.7,18.2l-1,3.8c-0.3,1.3-0.7,2.6-1.1,4.4c-0.4,1.7-0.9,4-1,6.1c-0.1,2,0,3.7,0.4,5.3
		l0.3,1.7c0.5,2,1,4.2,1,6.1c0,1.8-0.3,3.4-0.8,4.8c-0.4,1.4-1.2,2.6-2,3.8c-1,1.3-2.1,2.3-3.6,3.3c-1.5,1.1-3.2,1.9-5.2,2.7
		c-1.9,0.6-4.1,1.2-6.4,1.4c-2.2,0.2-4.5,0.2-6.6,0c-2.1-0.3-4-0.8-6-1.6c-1.9-0.7-3.8-1.7-5.6-3.1c-1.8-1.4-3.6-3.1-5.1-4.8
		c-1.5-1.7-2.7-3.4-3.6-5.2c-1.8-1.7-3.3-3.7-4.4-5.8c-1.1-2.1-1.7-4.4-2.2-6.8c-0.4-2.5-0.6-5.3-0.1-10.3
		c0.6-5.1,2.1-12.5,4.5-22.5c2.4-10.1,5.7-22.8,9.4-35.4c-2.2-0.7-4.3-1.7-6.3-3c-1.9-1.3-3.7-2.8-5.3-4.4c-1.5-1.7-2.9-3.5-3.8-5.5
		c-1.2-1.2-2.2-2.4-3.1-3.8c-1-1.4-1.8-2.9-2.4-4.5c-0.7-1.7-1.3-3.5-1.8-5.7c-0.5-2.2-1-5-1.2-7c-0.3-2-0.2-3.3-0.1-4.5
		c0.2-1.3,0.4-2.3,0.8-3.3c0.4-1.1,1-2,1.6-2.8c0.6-0.8,1.4-1.6,2.2-2.3c0.8-0.6,1.8-1.2,2.8-1.5c1-0.4,2-0.7,3.1-0.9
		c1.1-0.1,2.1-0.1,3.1,0c0.8,0,1.6,0.2,2.4,0.4c0.7,0.2,1.7,0.4,2.7,0.4c1.1,0,2.1-0.2,2.9-0.3s1-0.2,1.3-0.2l41.6-7.1
		c4.9-0.8,9.9-1.6,13.8-1.6c3.9,0,6.8,0.6,9.5,1.4c2.6,0.8,5,2,7.2,3.5c2.1,1.6,4.1,3.5,5.8,5.7c1.6-1,3.2-1.9,5.7-2.7
		c2.7-0.7,6.3-1.4,9.9-2l24.3-3.9c4.9-0.8,9.8-1.4,13.6-1.5c3.7-0.1,6.4,0.3,8.8,0.9c2.4,0.6,4.6,1.5,6.5,2.6c2,1,3.7,2.3,5.3,3.9
		c1.6,1.7,3.1,3.7,4.3,6c1.2,1.4,2.4,2.8,3.5,4.5c1.1,1.7,2.1,3.8,3.1,6c3.9-4.5,8.4-8.5,12.6-11.6c4.3-3.2,8.4-5.4,12.3-7
		c3.8-1.6,7.4-2.4,11-2.8c3.5-0.2,6.8,0.1,10.1,1c3.3,0.8,6.5,2.3,9.5,4.3c3.1,1.9,5.7,4.5,8.3,7.3c2.6,2.9,5,6,7.1,9.6
		C865.2,30.8,867.2,34.6,868.6,38.7L868.6,38.7L868.6,38.7z M825.8,70.9c-3,5.1-6,10.3-8.2,15.2c-2.2,4.9-3.7,9.6-5.2,14.4
		c2.7-2.9,5.3-5.6,6.7-7.3c1.5-1.6,1.7-2.1,2.9-3.5c1.2-1.4,3.3-3.7,5.1-5.3c1.9-1.7,3.7-2.7,5.6-3.3c-0.4-0.5-0.8-1.1-1.2-1.6
		c-0.4-0.5-0.7-1.2-1.1-1.8c-0.8-1-1.8-1.9-2.5-3.1C827,73.5,826.4,72.2,825.8,70.9L825.8,70.9L825.8,70.9z M756.2,54.1
		c2.5,0.7,5,1.5,7.2,3c2.1,1.4,3.9,3.5,5.7,5.6c0.6-1.5,1.3-3,2.1-4.6c0.7-1.7,1.7-3.4,2.6-5.1c-0.6-0.2-1.4-0.3-2-0.3
		c-0.6-0.1-1.2-0.1-1.8-0.1l-3.1,0.2c-2,0.1-3.9,0.3-5.7,0.5C759.4,53.6,757.8,53.8,756.2,54.1L756.2,54.1z"/>
	<path class="st1" d="M867.6,53.3c0.2-0.7,0.4-1.5,1.2-3.6c0.7-2,2-5.5,3-8.1c1-2.7,1.7-4.5,2.4-6.9c0.8-2.3,1.7-5.5,2.5-8.7
		c-0.1-0.4-0.1-1-0.1-1.8c0-0.7,0-1.9,0.1-3.1c0.2-1.1,0.6-2.2,1.2-3.3c0.6-1.1,1.5-2.1,2.6-3.1c1.1-1.1,2.3-2,3.9-3
		c1.6-0.9,3.4-1.7,5.1-2.2c1.6-0.6,3.2-0.8,4.6-1c1.5-0.1,3,0,4.4,0.3c1.4,0.4,2.9,1,4.4,1.7c1.4,0.8,3,2,4.8,3.6
		c1.9,1.6,3.9,3.7,5.4,5.5c1.5,1.7,2.4,3.1,3.1,4.6c1.4,1.3,2.5,2.9,3.4,4.1c0.8,1.3,1.4,2.4,1.7,3.5c0.3,1.2,0.4,2.2,0.4,3.3
		c0,1.2-0.2,2.2-0.6,3.3c-0.3,1.2-1,2.2-1.4,2.9c-0.3,0.6-0.4,0.8-1.5,3.3c-1.2,2.4-3.3,7.2-5.4,12c1.3-0.1,2.6-0.3,3.9-0.4
		c3.2-9,6.4-18,8-23.1c1.7-5,1.9-6,2.1-7c0-0.5-0.1-1.2-0.1-1.9c0-0.9,0-1.9,0.2-3c0.2-1.1,0.5-2.2,1.2-3.3c0.5-1.1,1.4-2.1,2.5-3.2
		c1.1-1,2.3-1.9,3.9-2.9c1.6-0.8,3.4-1.7,5.1-2.3c1.7-0.5,3.2-0.8,4.7-0.8c1.4-0.1,2.9,0,4.2,0.3c1.4,0.4,2.9,1,4.4,1.8
		c1.5,0.7,3.1,1.9,4.9,3.6c1.9,1.7,4,3.9,5.5,5.6c1.5,1.8,2.3,3.1,3,4.5c1.4,1.5,2.7,3,3.5,4.4c0.8,1.4,1.3,2.5,1.6,3.6
		c0.2,1.2,0.3,2.2,0.3,3.3c-0.1,1.2-0.3,2.2-0.7,3.3c-0.4,1-1.1,1.8-1.6,2.9c-0.5,1-1,2.1-1.4,3.1c-0.5,1.1-1,2-1.4,3
		c-0.4,0.9-0.7,1.7-1.9,4.3c-1.1,2.6-3,6.9-5.1,12.8c-2.1,6-4.5,13.5-6.5,20.5c-2,7-3.6,13.6-4.9,19.8c-1.2,6.3-2.1,12.1-2.6,16.6
		c-0.5,4.4-0.6,7.3-0.5,9.6c0.2,2.1,0.7,3.5,1.1,4.8c0.3,1.2,0.5,2.2,0.5,3.3c0.1,1.2,0,2.3-0.2,3.4c-0.2,1.1-0.6,2-1.2,2.9
		c-0.5,0.8-1.3,1.7-2.2,2.5c-1,0.7-2,1.5-3.4,2.1c-1.4,0.6-3,1.2-4.6,1.5c-1.7,0.3-3.5,0.5-5.3,0.5c-1.8,0-3.6-0.2-5.2-0.5
		c-1.6-0.3-3.1-0.9-4.5-1.6c-1.5-0.7-2.9-1.6-4.3-2.9c-1.5-1.2-2.9-2.5-4-3.9c-1.1-1.4-1.9-2.7-2.6-4c-1.5-1.5-2.9-3.1-3.7-4.8
		c-1-1.6-1.6-3.2-2-5.1c-0.4-1.8-0.6-3.8-0.5-7c0.2-3.2,0.8-7.5,1.3-10.3c0.4-2.8,0.6-3.9,0.8-5.1c0.5-2.9,1-5.6,1.5-8.5
		c-1.7,0.3-3.4,0.5-4.6,0.7c-1.2,0.3-1.9,0.5-2.6,0.9l0,0c0,0,0,0-0.3,1.1c-0.2,1.1-0.7,3.2-1.1,4.6c-0.3,1.4-0.4,2.1-0.6,3.2
		c-0.2,1.2-0.5,2.8-1.1,5.2c-0.4,2.4-1,5.7-1.4,8.5c-0.4,2.8-0.8,5-0.6,6.8c0,1.8,0.4,3.3,0.7,4.3c0.3,1.1,0.4,1.7,0.6,2.7
		c0.2,0.8,0.4,2.2,0.4,3.3c0,1.2-0.1,2.2-0.4,3.2c-0.4,1.8-1.5,3.4-3.1,4.9c-0.8,0.6-1.9,1.4-3.1,2c-1.2,0.5-2.6,1.1-3.9,1.5
		c-1.5,0.4-3.1,0.7-4.7,0.8c-1.6,0.1-3.2,0-4.8-0.1c-3-0.3-5.6-1.3-8.2-2.8c-1.3-0.7-2.5-1.7-3.8-2.9c-1.3-1.2-2.5-2.6-3.5-3.8
		c-1-1.2-1.6-2.2-2.1-3.4c-1.3-1.5-2.7-2.9-3.5-4.4c-0.9-1.5-1.4-3-1.9-4.5c-3.7,4-7.9,7.7-12.2,10.7c-4.4,3.2-9,5.7-13.4,7.5
		c-4.4,1.8-8.4,2.8-12.3,3.2c-3.8,0.5-7.5,0.3-11.2-0.4c-3.6-0.7-7.1-2-10.5-3.9c-3.4-1.9-6.8-4.4-9.8-7.3c-3-2.9-5.6-6.2-7.9-9.8
		c0.1,1.3,0,2.6-0.1,3.8c-0.2,1.2-0.5,2.3-1,3.4c-0.3,1-0.8,1.8-1.5,2.5c-0.5,0.8-1.3,1.4-2,1.9c-0.7,0.5-1.6,0.8-2.4,1.2l-2,0.5
		l-1.9-0.5c-2.1-0.6-4.4-1.2-6-1.4c-1.5-0.2-2.3-0.2-3.7,0c-1.4,0.3-3.3,0.8-4.5,1.2c-1.2,0.3-1.5,0.4-1.8,0.5l-13.1,3.6
		c-1.1,0.3-2.1,0.7-3.6,1.3c-1.6,0.5-3.5,1.3-5.5,1.8c-1.9,0.5-3.8,1-5.5,1.1c-1.7,0.1-3.2-0.1-4.8-0.5c-1.6-0.4-3.3-1-5.3-2.2
		c-2-1.2-4.4-2.9-6.7-4.7c-2.3-1.8-4.6-3.7-6.2-5.4c-1.5-1.6-2.4-3.1-3.1-4.7c-1.5-1.3-2.7-2.9-3.7-4.7c-1-1.7-1.7-3.7-2.2-5.8
		c-0.5-2.2-0.8-4.7-0.6-8.1c0.2-3.4,1.1-7.9,2-12.2l3-13.4c-1.5-1.8-2.8-3.8-3.5-5.2c-0.7-1.5-1.1-2.4-1.3-3.5
		c-0.1-1-0.2-1.9-0.2-2.8c0.1-1,0.2-1.9,0.4-2.8c0.3-0.9,0.6-1.6,1.2-2.3c0.4-0.7,1-1.5,1.6-2.1c0.6-0.6,1.4-1.2,2.3-1.7
		c1-0.5,2.2-1.1,3.1-1.4c0.8-0.3,1.4-0.5,1.8-0.7c0.6-2,1.3-4.1,1.8-5.6c0.5-1.6,0.9-2.7,1.1-3.5c0.3-0.8,0.5-1.6,1.1-3.2
		c0.5-1.6,1.4-4.1,2.2-6.7c-0.7-0.2-1.6-0.3-2.8-0.5c-1.2-0.1-2.9-0.4-5-0.5c-2.1-0.1-4.9,0-7.1,0.1c-2.1,0.2-3.8,0.4-4.9,0.6
		c-1.2,0.3-1.7,0.5-2.1,1.2c-0.4,0.6-0.8,1.7-2.1,5.6c-1.2,3.9-3.1,10.8-4.7,16.4c-1.5,5.4-2.7,9.5-3.4,12.3
		c-0.9,2.9-1.4,4.5-2.7,9.5c-1.4,5.1-3.5,13.5-4.7,18.3c-1.3,4.7-1.5,5.8-1.7,6.8c-0.3,1.1-0.5,2-0.8,3.6c-0.3,1.7-0.6,4-0.6,6.1
		c-0.1,1.9,0.2,3.5,0.5,5l0.4,1.7c0.4,1.6,0.7,3.3,0.7,4.7c0.1,1.4-0.1,2.4-0.4,3.5c-0.5,2-1.7,3.6-3.7,5.2c-1,0.7-2.2,1.4-3.6,2
		c-1.5,0.6-3.1,1.1-4.8,1.4c-1.6,0.3-3.3,0.5-5.1,0.4c-1.7,0-3.4-0.2-4.9-0.6c-1.6-0.3-3.1-0.8-4.5-1.7c-1.4-0.7-2.8-1.6-4.2-2.9
		c-1.4-1.2-2.8-2.7-3.9-4c-1.1-1.4-1.8-2.5-2.4-3.8c-1.7-1.6-3.1-3.4-4-5.3c-1-1.9-1.6-3.9-1.9-6.2c-0.4-2.3-0.6-5,0.1-10.5
		c0.8-5.5,2.6-14,5.1-24.4c2.6-10.4,6-22.8,9.7-35.1c-1.9-0.3-3.7-0.7-5.5-1.5c-1.7-0.7-3.3-1.6-4.8-2.8c-1.5-1.1-2.9-2.2-4-3.6
		c-1.2-1.4-2.1-2.9-3-4.6c-1-0.8-1.9-1.9-2.7-3.1c-0.9-1.2-1.6-2.4-2.2-3.8c-0.5-1.4-1.1-2.9-1.6-4.9c-0.4-2-1-4.5-1.2-6.4
		c-0.3-1.8-0.3-3-0.2-4c0.1-1,0.3-1.8,0.5-2.5c0.3-0.8,0.7-1.5,1.3-2.1c0.4-0.6,1.1-1.2,1.7-1.6c0.6-0.4,1.4-0.9,2.1-1.1
		c0.7-0.2,1.6-0.4,2.3-0.4c0.9,0,1.7,0.2,2.4,0.3c0.6,0.1,1.2,0.2,1.9,0.3c0.7,0.2,1.7,0.4,2.8,0.4c1.2,0,2.3-0.3,3.1-0.4
		c0.7-0.1,1.2-0.2,1.5-0.2l41.5-7.1c4.4-0.7,8.7-1.4,12-1.5c3.4-0.1,5.7,0.2,7.9,0.7c2.1,0.5,4,1.3,5.9,2.2c1.8,1.1,3.4,2.2,5,3.8
		c1.6,1.6,3.1,3.6,4.5,5.8c0.6-1.1,1.6-1.9,2.7-2.7c1.2-0.8,2.5-1.6,4.9-2.2c2.4-0.7,5.8-1.4,9.2-1.9l24.3-3.9
		c4.6-0.7,9.1-1.4,12.7-1.4c3.5-0.1,5.8,0.2,8.1,0.6c2.1,0.5,4,1.3,5.7,2.1c1.6,1,3.1,2,4.5,3.5c1.4,1.5,2.7,3.4,3.7,5.3
		c1.8,2.2,3.5,4.4,4.9,7c1.4,2.7,2.3,5.9,3.3,9c3.7-4.7,7.9-9.1,11.9-12.6c4-3.5,8-6.2,11.7-8.2c3.7-1.9,7.2-3.2,10.4-3.9
		c3.2-0.7,6.2-0.8,9-0.4c2.9,0.3,5.9,1.2,8.6,2.6c2.8,1.4,5.5,3.2,7.9,5.4c2.4,2.2,4.7,5,6.4,8.1c2.8,3.7,5.6,7.4,7.4,12.1
		S866.7,47.7,867.6,53.3L867.6,53.3L867.6,53.3z M833.7,75.2c-1.7-1.8-3.3-3.6-4.4-5.8c-1.1-2.1-1.6-4.7-2.2-7.2
		c-3.9,5.3-7.5,11-10.5,16.9c-3.1,6-5.5,12.1-7.1,17.2c-1.6,5-2.3,9-2.4,13.1c1.6-0.8,3.2-1.9,5.1-3.5c2-1.6,4.5-3.7,6.4-5.7
		c1.9-1.9,3.3-3.8,4.7-5.5c1.4-1.8,2.7-3.4,3.9-4.7c1.2-1.4,2.5-2.5,3.7-3.4c1.3-0.8,2.6-1.5,3.9-1.9c1.3-0.4,2.7-0.6,4-0.6
		c1.4,0,2.8,0.2,4.3,0.6c1.5,0.5,3.2,1.2,4.8,2.1c1.7,1,3.4,2.2,4.9,3.6c1.6,1.4,2.9,2.8,4,4.4c0.3-1.5,0.6-3,1-4.4
		c-0.6-1-1.2-1.8-1.6-2.7c-0.4-0.8-0.7-1.7-1.2-2.4c-2.3,0.4-4.7,0.5-6.9,0.3c-2.2-0.2-4.4-0.8-6.2-1.7c-1.8-0.9-3.3-1.9-4.7-3.4
		c-1.4-1.4-2.6-3.2-3.5-5.1V75.2L833.7,75.2z M734.4,104.7l2.8-0.6c3.5-1,7.2-1.5,10.3-1.6c3.1-0.1,5.6,0.2,8,1
		c2.2,0.6,4.4,1.6,6.2,2.9c1.8,1.4,3.4,3,4.7,4.9c-0.3-1.7-0.7-3.5-1-5.3c-0.3-1.8-0.4-3.8-0.5-5.7c-0.6,0-1.3-0.1-2-0.3
		c-0.6-0.2-1.4-0.5-1.7-0.7c-0.3-0.1-0.4-0.1-0.4-0.1c-1.9-0.2-3.9-0.2-5.6-0.2c-1.7,0.1-3,0.3-4.3,0.4c-1.3,0.1-2.6,0.2-4.1,0.3
		c-1.6,0.1-3.6,0.2-5.5,0.5c-1.9,0.3-3.8,0.7-5.6,1.3c-0.2,0.5-0.3,1.1-0.5,1.6C734.8,103.5,734.7,104.1,734.4,104.7L734.4,104.7
		L734.4,104.7z M748.5,57.5c2.2-0.2,4.6,0,6.6,0.3c1.9,0.4,3.6,1.1,5.1,1.9c1.6,0.8,2.9,1.9,4.3,3.4c1.3,1.4,2.5,3.2,3.6,5.1
		c0.3,0.4,0.7,0.7,1.1,1.2c0.4,0.5,0.7,1,1.2,1.4c1.3-3.2,2.6-6.5,4-9.8c1.6-3.3,3.4-6.7,5.2-10c-0.4-0.1-0.9-0.2-1.3-0.4
		c-0.4-0.2-0.8-0.4-1.2-0.6c-0.4-0.2-0.7-0.3-1-0.5c-1.1-0.2-2.1-0.5-3.2-0.6c-1.1-0.1-2-0.2-3.1-0.1l-3.2,0.2
		c-3,0.2-6.1,0.5-8.3,0.8c-2.1,0.2-3.4,0.4-4.3,0.7c-0.8,0.2-1.3,0.5-1.8,1.1c-0.4,0.5-1.1,1.3-1.8,2.2
		C749.9,54.9,749.1,56.2,748.5,57.5L748.5,57.5z"/>
	<path class="st2" d="M645.6,42.3c-8.3,3-16.9,3.2-23.1-3.3c-2-2.2-3.5-4.9-4.3-8.8c0-0.1-0.5-2.5-0.8-4.4c-0.4-3.1-0.6-5.1,2.2-4.3
		c6,1.3,6.7,0.8,11.5,0.1l41.5-7.1c6.9-1.2,18.3-3.8,25.1,3.9c1.8,2,4,5.1,5,8.5c0.4,1.7,0.9,3.2,1.1,4.7c0.4,2.2-0.3,3.9-2.2,3.6
		c-7.7-1.4-12.4-1.4-19.8-0.6c-9.6,1.4-9.8,6.4-12.3,14.7c-3.1,10-4.6,15.8-7.4,26.4c-4,13.2-9,34.4-9,34.4c-1,3.5-1.7,7.5-1.8,12.6
		c-0.1,4.7,3.2,10.5,1.2,12.6c-1.9,2-6.2,3.2-9.5,3.2c-4.5,0-8.3-1.2-13.2-7.1c-3.9-4.9-2.4-13.7-0.7-20.8c3-14.4,4.8-22.4,8.5-36.2
		c3.4-11.8,6.1-20.1,9.6-30.2C647.5,42.3,646.1,42.2,645.6,42.3L645.6,42.3z M733,63c1.5-6.6,6.4-23.2,15-25.1
		c2.7-0.7,9.8-1.7,14.5-1.8c4.4-0.3,4.6-0.3,7.4,0c1.4,0.2,2.4,0.5,3.8,0.8c1.4,0.3,3,1.7,3.6,1.5c2.1-0.4,2.3-2.3,2.5-3.8
		c0.7-5.2-3.4-14.2-6.7-17.2c-5.9-5.6-17.9-3.3-24.1-2.3L724.5,19c-7,1.2-11.8,2-12.8,4.9c-0.9,2.2,0.7,5.5,5.5,10.6
		c0,0-5.3,14.6-8.3,24c-1.1,3.7-3.1,9.6-3.2,9.9c-0.7,2.9-0.3,3.4-2.8,4.6c-1.3,0.7-3.2,1.4-4.8,2c-3.6,1.5-3.1,5.1-1.4,7.4
		c1.9,2.8,4,5.7,4,5.7l-3.5,16.4c-1.4,6.3-4.6,18.3,2.8,24.7c15.6,13.5,15.4,9.8,29.4,5.5l13.1-3.6c8.9-2.7,10.4-2.9,19.8-0.3
		c1.6-0.4,2-2.3,2.1-4.4c0.1-0.8,0-2.2-0.6-4.4c-1.2-4.3-3.1-7.1-5.1-9.1c-5.5-5-13.6-3.6-20-2.1l-6,1.5c-4,1-8.1,1.7-10.2,0.9
		c-2.1-0.9-1.6-3.1-1.5-5.3c0.3-2,1.4-6.7,2.2-10.7c1.4-5.1,1.9-7.1,6.2-8.5C735,87,741,86.7,746,86.4c3.2-0.3,4.8-0.5,8.1-0.5
		c1.5,0,2.9,0,4.3,0.5c1.6,0.3,2.1,1.7,4.3,0.3c2-1.2,2.2-4.1,1.9-7.3c-0.6-4.2-3.4-11.2-7.9-13.6c-3.1-1.7-7.7-1.5-12.2-0.8
		c-3.3,0.4-8.8,1.3-8.8,1.3C733.7,66.4,732.2,65.8,733,63L733,63z M826.7,16.3c-27.1,5.5-53.6,52.2-55.1,78.6
		c-0.4,10.9,2.3,26,14.5,36.4c9.9,8.5,19.7,9.2,27.6,7.4c15.2-3.4,34.7-19.1,38.3-33.1c0.9-3.3,1-5-1.9-8.3
		c-3.5-3.8-8.5-6.7-11.8-6.4c-4.1,0.3-6.6,4.1-10.7,9.3c-5,6.1-5.7,6.6-11.3,11.3c-4.7,3.7-9.5,6.5-13.8,4.7c-3.4-1.4-5-3.9-6-6.6
		C792,95,807.6,62.8,819.4,49.5c3.3-3.6,10.5-10.3,13.3-10c1.9,0.2,3.1,1.4,3.2,3.3c0.3,3.8-1.8,11.9-1.9,16.8
		c0,5.4,3.4,11.1,7.1,12.2c2.9,1.1,5.1,1.2,8.7,0.5c6.4-1.2,6.6-6.6,6.9-18.5c0.1-9.4-2.4-23.5-11.7-31.9
		C838.5,16.2,831.5,15.3,826.7,16.3L826.7,16.3z M913.6,98.6c-0.8,5.1-1.8,11-2.1,13.2c-1.3,7.4-3.2,15.8,0.9,20.8
		c4.6,5.8,8.6,7.1,13.1,7.1c3.3,0,7.6-1,9.5-3.2c1.8-2.2-1.5-8.1-1.3-12.7c1.2-18.4,5.3-37.7,12.6-60c3-8.9,5.1-14.9,8.9-23.2
		c1.4-2.9,3.1-7,3.9-8.4c1.9-2.9,1.8-4.6-1.8-8.4c-7.3-8.4-11.3-9.7-17-7.2c-2.3,1.1-4.8,2.6-6,4.3c-1.4,1.8-0.3,4.1-0.6,6.3
		c-0.5,3.3-2.7,8.4-4.1,13.1c-2.2,6.3-6.2,17.8-7.9,22.3c-7.2,0.8-16.4,1.9-22.9,2.8c-2.1,0.3-2.8-1.7-2.2-3.4
		c3-7.5,5.1-13.3,8.6-21.4c1.4-3.1,3.3-7.1,4-8.5c1.8-2.9,1.7-4.6-1.8-8.4c-7.5-8.3-11.3-9.7-17.1-7.2c-2.2,1.1-4.9,2.6-6,4.3
		c-1.4,1.8-0.4,4.3-0.7,6.3c-0.5,3.4-2.1,8.1-3.7,12.8c-2.2,6.3-4,10.3-6.1,16.9c-1.4,4-2.7,8.1-3.7,10.6c-1.2,2.3-2,3.4-3.5,3.9
		c-1.4,0.4-4.1,1.2-5.3,2.4c-1.3,1.7-1.4,3.2-0.9,5.4c0.7,3.7,2.6,6.8,4.7,9.7c-0.3,1.4-1.6,7.2-2.2,11.5c-0.8,4.4-1.8,9.1-2.1,11.3
		c-1.3,7.4-3,15.9,0.8,20.8c4.8,6,8.7,7.1,13.1,7.1c3.5,0,7.5-1.2,9.5-3.2c2.2-2.1-1.3-7.9-1.2-12.6c0.1-5.1,1.5-13.5,3.3-21.6
		c2.3-11.2,1.8-13.5,10.4-15.4c2-0.4,13.7-1.9,18.2-1.9c1.8,0,1.2,2.6,0.7,4C915.6,88.8,914.3,94.9,913.6,98.6L913.6,98.6z"/>
</g>
<g>
	<path class="st0" d="M518.9,52.1c-2.2,7.2-4.3,14.5-6,20.4c-1.7,5.9-3,10.6-3.9,13.9c-1,3.3-1.6,5.2-2.9,10.2
		c-1.3,4.9-3.2,12.8-4.3,17.1c-1.1,4.4-1.3,5.3-1.6,6.4c-0.3,1.3-0.6,2.7-0.8,4.8c-0.1,1.9-0.3,4.4,0.3,6.8l0.3,1.7
		c0.5,2,0.8,4.1,0.9,6c0,1.8-0.3,3.3-0.8,4.8c-0.4,1.4-1.2,2.6-2.1,3.8c-0.8,1.2-2.1,2.3-3.5,3.3c-1.5,1.1-3.2,1.9-5.2,2.5
		c-1.9,0.7-4.1,1.3-6.3,1.5c-2.2,0.2-4.4,0.2-6.5-0.1c-2.1-0.2-4.1-0.7-5.9-1.5c-1.9-0.7-3.8-1.8-5.6-3.1c-1.8-1.4-3.6-3.1-5.1-4.8
		c-1.5-1.7-2.6-3.4-3.6-5.2c-1.8-1.7-3.3-3.7-4.3-5.8c-1.1-2.1-1.7-4.3-2.2-6.8c-0.4-2.5-0.7-5.3-0.1-10.3
		c0.6-5.1,2.1-12.5,4.4-22.4c2.4-10,5.7-22.6,9.3-35.2c-2.1-0.8-4.2-1.7-6.1-3c-1.9-1.2-3.6-2.7-5.3-4.2c-1,0.6-2.1,1.2-3.3,1.5
		c-1.1,0.4-2.2,0.6-3.4,0.6c-1.1,0-2.2-0.1-3.4-0.4c-1.2-0.3-2.3-1-3-1.3c-0.6-0.3-0.7-0.3-0.8-0.4c-0.7-0.1-1.6-0.3-2.3-0.4
		c-0.7-0.1-1.5-0.1-2.2-0.1l-3.1,0.2c-2,0.1-3.9,0.3-5.7,0.5c-1.8,0.2-3.4,0.4-5,0.7c2,0.4,4,1.1,5.8,2.1c1.8,1,3.4,2.2,5,3.9
		c1.5,1.6,3,3.6,4.1,5.7c1.6,1.7,3,3.6,4.2,5.8c1.3,2.2,2.3,4.8,3.1,7.2c0.7,2.4,1.2,4.9,1.4,7.1c0.1,2.2-0.1,4.4-0.5,6.2
		c-0.4,1.9-1.2,3.5-2,4.9c-0.8,1.4-1.9,2.6-3.2,3.6c-1.3,1.1-2.7,1.9-4.2,2.4c-1.6,0.5-3.1,0.8-4.7,0.8c1.2,1,2.2,2,3.3,3.3
		c0.9,1.3,1.9,2.8,2.9,4.2c1.6,1.7,3.1,3.7,4.3,5.9c1.2,2.2,2.2,4.8,2.9,7.1c0.7,2.3,1.1,4.5,1.2,6.6c0.1,2.1-0.2,4.1-0.7,5.8
		c-0.4,1.7-1.1,3.3-2,4.5c-0.8,1.3-1.9,2.4-3.1,3.3c-1.3,1-2.6,1.6-4,2l-2,0.6c-0.3,0.1-0.7,0.2-1.1,0.2c-0.4,0-0.7-0.1-1.2-0.2
		l-1.9-0.5c-2-0.5-3.9-1.1-5.2-1.3c-1.4-0.2-2-0.2-3.1,0.1c-1.2,0.2-2.7,0.6-3.7,1c-1.1,0.2-1.4,0.4-1.8,0.5l-13,3.6
		c-1.2,0.3-2.2,0.8-4,1.5c-1.9,0.6-4.4,1.5-6.8,2c-2.4,0.6-4.6,0.8-6.8,0.7c-2.1-0.1-4.2-0.5-6.4-1.5c-2.2-0.8-4.5-2.1-7.4-4.1
		c-3-2.1-6.5-4.9-8.8-7.2c-2.4-2.3-3.7-4.1-4.7-6.1c-1.6-1.6-2.9-3.4-4-5.4c-1.1-2-1.9-4.2-2.4-6.7c-0.6-2.5-1-5.2-0.7-8.8
		c0.2-3.7,0.8-8.3,2-12.8c-4.2,3-8.7,5.6-13.1,7.8c-4.5,2.1-9,3.8-12.8,5c-3.8,1-7,1.6-10,1.8c-1,3.4-1.5,6.9-1.5,9.4
		c-0.1,2.5,0.3,4.2,0.5,5.3c0.3,1,0.4,1.4,0.6,2.4c0.2,1.1,0.5,2.9,0.6,4.3c0,1.6-0.2,2.9-0.5,4.1c-0.3,1.3-0.8,2.4-1.5,3.6
		c-0.6,1.1-1.5,2.1-2.5,3.1c-1.1,1-2.2,1.8-3.7,2.6c-1.5,0.7-3.1,1.4-4.8,1.9c-1.8,0.5-3.7,1-5.7,1.1c-1.9,0.2-3.8,0.1-5.7-0.1
		c-3.7-0.4-6.9-1.6-10.1-3.5c-1.6-1.1-3.1-2.2-4.5-3.6c-1.8,1.9-3.9,3.5-6.2,4.8c-2.3,1.2-4.9,2-7.6,2.5c-2.7,0.4-5.7,0.4-8.5,0
		c-2.9-0.3-5.5-1.1-7.9-2.1c-2.5-1.2-4.8-2.7-7-4.9c-2.1-2.1-4.1-4.7-5.8-7.4c-0.5-0.6-1.2-1.3-1.7-2.1c-0.6-0.7-1.3-1.7-1.9-2.6
		c0.3,1.6,0.3,3.2,0.1,4.7c-0.2,1.5-0.6,2.9-1.2,4.1c-0.6,1.3-1.4,2.4-2.4,3.5c-1.1,1.2-2.3,2.1-3.8,3.1c-1.5,0.8-3.2,1.7-5.1,2.2
		c-2,0.6-4,1.1-6.1,1.2c-2.2,0.2-4.3,0.1-6.3-0.2c-2-0.2-3.8-0.7-5.6-1.5c-1.8-0.7-3.6-1.7-5.2-2.9c-1,1.3-2,2.4-3.3,3.5
		c-1.3,1-2.6,1.7-4.1,2.3c-1.5,0.5-3.2,0.8-5,0.9c-1.8,0.1-3.8,0-5.9-0.4c-2.2-0.5-4.5-1.3-7-2.3c-2.4-1.2-5-2.6-7.2-4.2
		c-2.2-1.6-4.1-3.3-5.7-5.1c-1.7-1.7-3-3.5-3.9-5.4c-2-2.4-3.9-4.9-5.2-7.6c-1.3-2.9-1.9-5.9-2.5-9.1c-1.5,0.1-2.9,0.3-3.9,0.4
		c-1,0.1-1.5,0.3-2,0.4c-1.4,2.6-2.6,5.3-3.5,7.5c-0.8,2.1-1.3,3.6-1.5,5.1c-0.2,1.5-0.2,2.9-0.3,4.1c0,1.3-0.1,2.4-0.4,3.7
		c-0.2,1.3-0.7,2.6-1.3,3.8c-0.6,1.3-1.5,2.3-2.3,3.3c-1,1-1.9,1.7-3.1,2.3c-1.2,0.6-2.3,1.2-3.7,1.5c-1.4,0.3-2.7,0.4-4.3,0.3
		c-1.6,0-3.3-0.3-5.2-0.8c-1.8-0.6-3.8-1.4-5.8-2.4c-2-1.2-4.1-2.4-5.9-3.9c-1.8-1.4-3.4-2.9-4.8-4.3c-1.3-1.6-2.2-3.1-3.1-4.6
		c-0.4-0.4-1-1-1.4-1.5c-0.3-0.4-0.7-1-1.2-1.5c-3.7,3.4-7.7,6.5-11.7,9.1c-4.1,2.5-8.2,4.7-12.2,6.1c-3.9,1.4-7.6,2.3-11.2,2.7
		c-3.6,0.4-7,0.4-10.4,0c-3.3-0.4-6.7-1.4-9.8-2.7c-3.3-1.3-6.5-3.1-9.4-5.3c-3.1-2.3-5.8-5-7.7-7c-1.8-2.1-2.8-3.5-3.6-4.8
		c-0.8-1.3-1.7-2.3-2.5-3.4c-0.8-1.1-1.8-2.2-3.2-4.4c-1.4-2.3-3.3-5.8-4.7-9.6c-1.5-3.7-2.5-7.8-3.1-12.1
		c-0.6-4.2-0.9-8.7-0.5-13.2c0.3-4.5,1.2-9.3,2.6-14.7c1.6-5.4,3.7-11.5,6.6-17.7c2.8-6.1,6.1-12.3,9.7-18
		c3.7-5.7,7.6-10.8,11.5-15.2c3.9-4.4,7.8-8.1,11.5-11c3.8-3,7.4-5.2,11-6.9c3.5-1.8,6.9-2.9,10-3.5c3.2-0.7,6-0.8,8.9-0.5
		c2.9,0.3,5.8,1,8.7,2.1c2.7,1.1,5.5,2.6,8,4.5c2.5,2,4.8,4.4,7,7c2.1,2.6,4.2,5.4,6.1,8.5c1.9,3.1,3.7,6.5,5.1,10.3
		c1.4,3.7,2.4,7.9,3.1,12.6c0.5,4.7,0.7,9.8,0.4,15c4-7.2,8.6-14.1,13.9-21.4c5.3-7.3,11.4-14.9,16.4-20.6
		c4.9-5.7,8.7-9.4,11.9-12.3c3.3-2.9,6.1-4.8,8.7-6.1c2.4-1.5,4.7-2.2,6.8-2.7c2.1-0.5,4-0.6,6-0.4c2,0.1,4,0.6,5.8,1.4
		c1.9,0.7,3.5,1.8,5.3,3.3c1.7,1.6,3.4,3.6,4.3,4.8c0.8,1.2,1,1.4,1.7,2.2c0.8,0.8,2.3,2.2,3.2,3.1c1,0.8,1.3,1.2,1.6,1.5
		c2-2.1,4.2-3.8,7.4-5.6c3.1-1.8,7-3.6,10.9-4.9c3.9-1.4,7.8-2.1,12.1-2.5c4.2-0.4,8.9-0.5,13.3-0.2c4.3,0.3,8.5,1.1,12.3,2.1
		c3.8,1.2,7.2,2.5,10.3,4.2c3.1,1.8,5.9,3.9,8.5,6.3c2.4,2.4,4.7,5.2,5.9,6.8c1.3,1.6,1.6,1.9,1.8,2.4c0.3-1.9,0.9-3.7,1.9-5.4
		c1-1.7,2.3-3.4,4.1-5c1.7-1.5,3.9-3,6.9-4.4c3-1.4,6.7-2.6,11-3.8c4.3-1.1,9.3-2.1,13.7-2.5c4.4-0.4,8.2-0.2,11.9,0.2
		c3.7,0.5,7.3,1.4,10.7,2.6c3.4,1.2,6.7,2.7,9.7,4.8c3.1,1.9,5.9,4.2,8.4,6.7c2.4,2.4,4.4,5,5.7,6.7c1.2,1.7,1.7,2.3,2.2,3.1
		c-0.4-2.4-0.3-5,0.5-7.4c0.3-1.2,0.8-2.2,1.6-3.3c0.6-1.1,1.4-2,2.3-2.9c1-0.8,2-1.6,3.3-2.2c1.3-0.7,2.7-1.4,5.1-2
		c2.3-0.6,5.7-1.3,9-1.8l24.2-3.9c5.2-0.8,10.4-1.5,14.4-1.5c4,0,6.9,0.5,9.5,1.3c2.5,0.8,4.8,1.8,6.8,3.2c2,1.4,3.7,3.1,5.1,5
		c0.8-0.4,1.7-0.6,2.5-0.8c0.8-0.2,1.8-0.2,2.7-0.2c0.8,0,1.8,0.1,2.5,0.2c0.6,0.2,1.1,0.2,1.7,0.4c0.6,0.1,1.5,0.3,2.4,0.3
		c1,0,2-0.2,2.6-0.3c0.6-0.2,1-0.2,1.2-0.2l41.2-7.1c4.6-0.8,9.4-1.5,13.1-1.6c3.7-0.1,6.2,0.3,8.8,1.1c2.4,0.6,4.7,1.5,6.7,2.6
		c2.1,1.2,3.9,2.6,5.7,4.5c1.8,1.9,3.6,4.2,5.1,6.8c1.5,1.6,2.7,3.4,3.9,5.1c1.1,1.8,2,3.5,2.7,5.5c0.6,2,1.3,4.2,1.7,6.1
		c0.3,1.9,0.5,3.4,0.5,4.8c-0.1,1.4-0.2,2.6-0.6,3.8c-0.3,1.2-0.7,2.2-1.4,3.3c-0.5,1-1.3,1.9-2.1,2.6c-0.9,0.8-1.8,1.5-2.8,2
		c-1.1,0.5-2.1,1-3.2,1.2c-1.2,0.2-2.3,0.3-3.4,0.2c-1.2,0-2.2-0.2-3.2-0.4c-1.1-0.2-2.1-0.3-3.8-0.4c-1.7-0.2-4-0.2-6.1-0.2
		C522.8,51.6,520.8,51.8,518.9,52.1L518.9,52.1L518.9,52.1z M71.4,79.2c-0.3-0.6-0.7-1.2-1.1-1.7c-0.4-0.5-0.7-1.2-1.1-1.8
		c-0.9-1-1.8-1.9-2.5-3.1c-0.8-1.1-1.5-2.3-2.1-3.6c-3,5.2-5.9,10.3-8.1,15.1c-2.2,4.9-3.7,9.5-5.2,14.3c2.7-3,5.4-5.9,7.1-7.7
		c1.6-1.9,2.1-2.6,3.3-4c1.1-1.3,2.7-3.2,4.5-4.5C67.9,80.8,69.6,79.8,71.4,79.2L71.4,79.2L71.4,79.2z M264.4,111.1
		c0.1-0.4,0.1-0.8,0.2-1.4c0.1-0.4,0.2-1.1,0.3-1.6c-0.6,0.1-1.2,0.3-1.8,0.3C263.5,109.3,264,110.2,264.4,111.1L264.4,111.1z"/>
	<path class="st1" d="M536.6,16c-1.6-2.1-4.3-4.7-6.5-5.8c-3-1.6-5.5-2.4-8.6-3c-1.6-0.2-3.4-0.3-5.2-0.3c-0.9,0-1.6,0.1-2.4,0.1
		c-1,0.1-2,0.2-3.7,0.4c-1.7,0.2-3.9,0.6-6.1,1l-41.2,7.1c-0.4,0.1-0.8,0.2-1.6,0.3c-1.2,0.2-2.6,0.4-3.5,0.3
		c-0.4,0-1.3-0.1-2.1-0.3c-0.6-0.1-1.2-0.2-1.6-0.3c-0.2,0-2.1-0.3-2.6-0.3c-1.8,0-4,0.4-6,2.6c-1.3-2.3-3.6-5.4-6.6-7.3
		c-3.4-2.2-6.3-3-9.8-3.4c-1.6-0.3-3.5-0.3-5.3-0.3c-1,0.1-1.8,0.1-2.9,0.2c-1.2,0.1-2.4,0.2-4,0.4c-1.7,0.2-3.6,0.5-5.6,0.8
		l-24.2,3.9c-1.7,0.2-3.4,0.5-4.6,0.7c-2.1,0.4-2.7,0.6-3.8,0.8c-2.6,0.7-5.9,1.8-8.4,5.1c-3.8,5.6-1.9,11.3,2.7,17
		c-0.5,1.4-0.9,2.7-1.3,3.7c-0.7,1.9-0.8,2.3-1.4,3.7c-0.2,0.7-0.5,1.5-0.8,2.3c-0.5-1.8-1.2-3.7-2-5.5c-0.6-1.5-1.3-2.6-1.9-3.7
		c-0.3-0.5-0.6-1-1.3-1.9c-0.5-1-1.5-2.3-2.4-3.6c-1-1.4-1.8-2.6-2.5-3.6c-1.5-2-1.5-2-2.3-3.1c-1.5-1.7-3.8-4.1-5.8-5.8
		c-10.6-8.6-20.8-11-32-10.8c-2.1,0.1-3.9,0.2-6.2,0.6c-2.3,0.3-5.4,0.8-8,1.5c-5.1,1.3-9.3,2.4-14.1,5.1c-2.3,1.3-4.9,3.2-6.7,5.7
		c-3.7,5.9-2.6,11.6,2.6,17.7c-0.6,2.1-1.3,4.1-1.8,5.9c-1.4-3.4-3-6.7-5.1-10.2c-2-3.4-4.1-6.2-6.9-9.5c-0.9-1.3-2.1-2.4-3.1-3.5
		c-3.1-3.4-4.9-4.8-7.4-6.6c-8.4-5.5-17.2-7.1-25.8-7.5c-6-0.3-14.7,0.3-21,2.5c-2.2,0.7-5.1,1.9-7.7,3.2c-1.3,0.6-2.3,1.3-3.3,1.8
		c-2.4,1.5-4.1,2.6-6.3,4.9c-1.1,1.2-1.8,2.3-2.4,3.6c-0.6-1.1-1.6-2.4-2.6-3.6c-0.8-0.8-2.4-2-4.1-3.8c-0.5-0.5-1-1-1.3-1.4
		c-0.3-0.3-0.8-1-1.3-1.7c-0.5-0.6-1.1-1.3-1.5-1.8c-1.5-1.7-2.1-2.3-3.4-3.4c-6.7-5-13.9-3.8-20.3,0.4c-3.9,2.4-7.6,5.6-11.4,9.5
		c-1.2,1.2-2.4,2.5-3.7,3.9c-1.4,1.5-2.7,3.1-4.3,4.9c-3.2,3.8-6.8,8.3-10,12.5c-1.6,2.2-3.3,4.4-4.9,6.6c-1.6,2.2-3.1,4.3-4.4,6.3
		c-2.5,3.8-4.5,6.8-6.1,9.5c-0.8,1.3-1.7,2.6-2.7,4.5c-1.1,1.8-2.3,4.1-3.4,6c-1.1,1.9-1.8,3.4-2.4,4.5c-1.3,2.4-2.1,4-3.1,5.9
		c-1.6,0.6-3.4,1.4-5.1,2.2c-2,1.1-3.9,2-5.4,4.4c-0.4,0.5-0.7,1.2-1.1,1.7c-7.6-7.6-15.8-10.8-23.6-5.9c-1.5,1.1-2.1,1.7-3.3,2.9
		C65.8,88,65,89,64.3,89.7c-0.3,0.3-0.5,0.7-1.1,1.3c-0.4,0.5-1,1.3-1.7,2.1c-0.7,0.9-1.6,2-2.2,2.9c-1.3,1.5-1.7,1.9-2.5,2.7
		c-1.7,1.7-3.6,3.5-5.9,5.3c-1.9,1.5-3.3,2.4-4.9,3.3c0.2-4.8,1.1-8.7,2.4-13.1c2.2-7.1,5.7-15.2,10.3-22.8c2.1-3.7,4.5-7.4,7.3-11
		c0.3,1.4,0.6,2.9,1,3.9c0.5,1.7,0.8,2.3,1.3,3.3c0.2,0.4,0.4,0.8,0.6,1.3c0.6,1,2,2.7,3.7,4.7c1.1,2.1,2.9,4.9,5.3,6.8
		c2.7,2,4.9,2.5,7.7,3.2c4.1,0.6,7.8,0.4,12.3-1.3c1.7-0.7,3.9-2.4,5.3-4.4c1.4-2.1,2.1-4.4,2.5-6.6c0.2-0.7,0.3-1.6,0.4-2.5
		c0.6-6.2,0.8-14.4-0.3-21.6c-1.5-7.5-3.8-15.5-10.6-23.3c-1.5-2.6-3.4-5.3-6.2-7.9c-11.5-10.4-23.5-10-35-4.1
		C47.4,15,41.2,19.8,34.6,27c-1.4,1.5-2.6,3-4,4.7c-5.9,7.3-11,15.3-14.8,23c-3.2,6.1-5.9,12.6-8,19c-2.2,7-3.7,14-3.8,20.2
		c-0.2,8.4,1.3,17.2,5.2,25.3c1.2,2.4,2.3,4.5,3.6,6.5c1.4,2,3.2,4.5,5.2,7c1.2,1.4,2.3,2.8,3.3,3.9c2.1,2.2,3.3,3.3,4.9,4.6
		c2.8,2.3,5.9,4.3,9.2,5.7c15,6.6,29.2,2.7,44.3-7.6c3.9-2.7,7.7-5.9,11.5-10c0.3,0.7,0.6,1.5,1,2c0.6,1.3,1,1.7,1.5,2.4
		c0.4,0.5,1.4,1.6,2.4,2.7c2.1,5,8.7,10.1,14.1,12.5c5.1,2.1,10.3,3.8,15.4-0.6c1.7-1.8,2.4-3.5,2.9-5.4c0.1-0.4,0.2-1.5,0.3-2.4
		c0-0.5,0-1.1,0.1-2c0-0.7,0.1-1.5,0.1-2.1c0.2-2,0.3-2.5,0.7-3.9c0.2-1.2,1.4-3.9,2.1-5.5c0.4-1.1,1.3-2.7,2-4.3
		c0.4-0.6,0.6-1.3,1-1.6c0.4-1,0.7-1,1.2-1.3c0.6-0.3,1.7-0.4,3-0.6c2.4-0.3,5.8-0.6,8.6-1c0.1,4.4,0.8,9.3,3.5,13.7
		c1.1,1.7,2.2,3.3,3.8,4.9c1.6,3.4,5.1,7.1,8.4,9.4c7.1,4.9,14.4,8.1,21.8,5.7c2.4-0.7,5.6-3.6,6.6-6c0.3-0.8,0.6-1.7,0.8-2.5
		c7.8,8,15.4,8.2,23.5,6.1c1.7-0.5,3.3-1.2,4.9-2.2c1.1-0.7,2.1-1.6,3.1-2.7c2.1-2.9,2.1-6.3,1.6-9c-0.1-0.6-0.4-2-0.7-3.3
		c-0.3-1.3-0.3-1.2-0.4-1.8c-0.3-1.5-0.4-3.2-0.3-4.7c0.1-2,0.4-4.5,0.8-7c0.2,0.2,0.3,0.5,0.5,0.8c0.1,0.3,0.3,0.7,0.7,1.5
		c0.4,0.7,1,2,1.7,3.4c0.7,1.4,1.6,3.1,2.2,4.1c1.3,2.4,1.5,2.7,2.1,3.9c1.1,1.7,2.4,3.7,4.1,5.5c1.6,2.8,4.1,6.2,7.3,8.6
		c5.8,4.4,10.9,4.9,16.9,4.4c4.3-0.5,8.7-1.9,13.1-6.6c0.8-1,1.7-2,2.3-3c3.3,4,7.2,7,10.9,8.2c5.9,1.8,12.1,1.7,18.4-1.6
		c1.5-0.8,3.2-2.1,4.3-3.9c1.5-2.1,1.8-5,1.6-6.9c-0.3-2.2-0.5-3.1-1-4.5c-0.2-0.6-0.4-1.5-0.5-2c-0.4-1.9-0.3-2.2-0.3-3.4
		c0-1.2,0.2-3,0.5-5c0.5-3.1,1.2-6.7,1.9-9.9c3.9,0.8,7,0,10.9-1c4.4-1.3,8.5-2.7,12.9-4.9c7.2-3.5,14.4-7.9,21.6-14.8l-2.4,10.8
		c-0.4,2.3-1,4.7-1.2,6.3c-0.6,3.2-0.7,4.2-0.8,6c-0.3,5.2,0.5,11.5,5.2,17c0.4,0.4,0.8,1,1.4,1.4c0.6,1.6,1.5,3,3.1,4.7
		c0.4,0.4,0.8,0.8,1.3,1.3c0.5,0.4,1.1,1,1.9,1.7c0.8,0.7,1.9,1.6,3,2.4c1.1,0.9,2.1,1.6,3.1,2.2c2.4,1.8,3.6,2.5,5.3,3.4
		c3,1.4,6.9,2.1,9.7,1.6c0.8-0.1,2.4-0.4,3.9-0.8c1.7-0.4,1.7-0.5,3-0.8c0.7-0.3,1.7-0.6,2.6-1c0.9-0.3,1.6-0.5,2-0.7
		c1-0.3,1.2-0.4,1.7-0.5c4.7-1.4,9.5-2.6,14.2-4c0.2,0,0.4-0.1,1.1-0.2c0.5-0.2,1.5-0.4,2.1-0.6c1.6-0.4,2.1-0.5,3.2-0.6
		c2.6-0.1,5.3,0.7,8.4,1.6l1.9,0.5c2.2-0.6,4.8-1.3,6.8-4c3.7-5.9,2.4-11.9-0.3-18.4c-1.2-2.4-2.6-4.9-5.1-7.3
		c-1.3-2.4-3.7-5.9-6.8-7.9c-6.9-4.5-13.9-4-20.5-2.9c-2,0.4-4.1,1-6.2,1.5c0.3-1.3,0.6-2.1,0.8-2.8c0-0.1,0.1-0.4,0.2-0.6
		c1.3-0.4,2.5-0.7,3.8-1c1.2-0.2,2.1-0.4,3-0.5c1-0.1,2.6-0.2,4.3-0.4c0.8,0,1.8-0.1,2.3-0.1c0.6-0.1,0.8-0.1,1.2-0.1
		c0.2,0,1.6-0.1,2.9-0.3c1.3-0.1,1.4-0.1,2.1-0.1c1.6,0,3.6,0,5.6,0.1c0.1,0.1,2.2,1.1,3.3,1.2c2.7,0.4,5.8-0.3,9-3.6
		c3.2-4.1,3.1-8,2.5-12.4c-0.8-4.7-2.6-10.4-7.7-15.6c-1.2-2.3-3.4-5.5-6.2-7.5c-4.4-3.1-8.5-3.4-13.1-3.2c0.8-1.8,2.1-4.1,3.8-5.9
		c1-1.1,1.7-1.1,2.3-1.3c0.3-0.1,0.6-0.1,1.3-0.2c0.6-0.1,1.5-0.2,2.9-0.4c1.3-0.1,2.9-0.3,4-0.4c2-0.2,2.7-0.3,3.8-0.3
		c2.2-0.1,3.7-0.4,6.1-0.1c1,0.1,1,0.1,1.6,0.2c0.5,0.2,1.7,0.3,2.1,0.6c0.3,0.2,1.8,1.1,2.2,1.2c3.2,1.1,6.6,0.5,9.8-3
		c0.1-0.2,0.2-0.4,0.4-0.5c1.9,3.1,5.3,6,8.2,7.5c2.5,1.4,5.2,2.2,7.7,2.6c-3.3,11.1-6.7,23.5-9.5,34.9c-0.8,3.7-1.8,7.6-2.5,10.8
		c-0.6,3.3-1.2,5.9-1.6,8c-0.4,2.1-0.6,3.8-0.9,5.3c-0.5,4.1-0.7,7.1-0.2,10.6c0.8,4.4,2,7.5,6,11.4c1.3,2.7,3.5,5.4,6.4,7.9
		c7.3,6,14.3,6.1,21.9,3.9c1.7-0.6,3.4-1.4,5.1-2.6c4-3.1,4.3-6.3,4-9.6c-0.1-1.3-0.5-3.4-1.1-5.3c-0.4-1.7-0.6-3.4-0.6-4.3
		c0-0.9,0.1-2,0.2-3.3c0.1-1.2,0.3-2.4,0.5-3.3c0.1-1.1,0.3-1.9,0.6-3.2c0.2-0.7,0.4-1.7,0.6-2.6c0.2-0.9,0.5-1.8,1-3.8
		c0.5-2,1.3-5.1,1.8-7.2c1-3.8,1.2-4.8,1.7-6.7c0.2-0.8,0.5-1.8,0.7-2.8c0.2-0.9,0.5-2,1-3.5c0.8-3,2.2-7.9,3.4-12.2
		c0.6-2,1-3.7,1.9-6.4c0.7-2.7,1.8-6.5,2.4-8.8c0.6-2.4,0.9-3.5,1.4-4.9c0.4-1.4,0.9-3.1,1.3-4.3c0.4-1.3,0.6-2.1,0.9-2.7
		c0.5-1.3,0.6-2.2,1.6-3.5c2.4-1.6,5.2-1.4,8.4-1.6c1.9-0.1,3.8-0.1,6.1,0c1.7,0.1,2.9,0.3,4.4,0.5c0.9,0.2,1.4,0.3,2.2,0.4
		c1.3,0.2,3.6,0.2,5.4-0.7c1.8-0.7,3.9-3.2,4.4-5.1c0.5-1.5,0.6-3.5,0.4-5c-0.2-1.9-0.7-4.3-1.6-7.2c-1.2-3.4-3.3-6.8-6.3-10.4
		C538.7,18.8,537.7,17.3,536.6,16L536.6,16L536.6,16z M326.8,55c0.7-1.9,1.3-3.4,3.2-5.1c0.8-0.4,1.8-0.4,2.9-0.4
		c-0.4,0.7-0.9,1.6-1.2,2.1c-1,1.4-1.5,2-2.2,2.9c-0.2,0.2-0.5,0.6-1.2,1.3c-0.6,0.5-1.6,1.5-2.5,2.3C326,57.1,326.4,56,326.8,55
		L326.8,55L326.8,55z M239.1,59.1c0.1-0.4,0.3-1.1,0.5-1.8c0.2-0.6,0.4-1.5,0.5-2c0.4-1.3,0.4-1.2,0.6-1.9c0.3-1,0.8-2.5,1.4-3.8
		c0.7-1.6,2.5-1.2,3.9-1.4c0.2,0,0.4,0,0.7,0c-0.4,1.2-1,2.3-1.3,3.1c-1,2-1.6,3-2.5,4.1c-0.3,0.4-0.6,1-1.4,1.8
		c-0.7,0.8-1.8,2-3,3.2C238.9,59.7,238.9,59.7,239.1,59.1L239.1,59.1L239.1,59.1z M260,111.1c-0.4-1-0.7-1.6-1.2-2.4
		c-0.2-0.5-0.4-1.1-0.8-2.1c-0.4-1-1-2.4-1.6-3.9c4-2.5,8-5.1,10.1-6.6c2.2-1.5,2.6-1.8,3-2c1.2-1.1,1.4-1.2,2-1.8
		c0.3-0.2,0.7-0.5,1.1-1c-1,4.2-1.8,8.4-2.4,11.1c-0.5,2.7-0.9,4.1-1.1,5.3c-0.4,2.1-0.7,3.8-1.1,5.7c-0.3,2.1-0.6,4.5-0.8,7.3
		c-0.6-0.7-1.4-1.4-1.9-2c-0.7-0.7-1.1-1.1-1.6-1.7c-0.8-0.7-2.1-3-2.7-4.2C260.5,112.1,260.2,111.7,260,111.1L260,111.1L260,111.1z
		 M196.5,52c0.5-1.7,0.8-3,1.3-4.1c0.5-1.8,1.1-3.5,1.6-5.1c-0.4,1.5-0.8,3-1.2,4.1c-0.3,1.2-0.6,1.9-0.8,2.5
		c-0.1,0.7-0.3,1.3-0.6,2.3c-0.3,1.1-0.7,2.6-1.2,4.1C195.9,54.7,196.2,53.4,196.5,52L196.5,52z"/>
	<path class="st2" d="M65.6,14.7c4.8-1,11.7-0.1,18.2,5.7C93,28.7,95.5,42.7,95.4,52c-0.3,11.9-0.5,17.2-6.9,18.4
		c-3.6,0.7-5.8,0.5-8.7-0.5c-3.7-1.2-7.1-6.8-7.1-12.1c0.1-5,2.2-13,1.9-16.8c-0.1-1.9-1.3-3.1-3.2-3.3c-2.7-0.3-9.9,6.3-13.2,9.9
		C46.6,60.9,31,92.9,35.6,107.4c1,2.6,2.5,5.2,5.9,6.6c4.3,1.9,9.1-1,13.7-4.7c5.5-4.7,6.2-5.2,11.2-11.2c4.1-5.1,6.4-8.9,10.7-9.2
		c3.3-0.3,8.2,2.5,11.7,6.5c2.9,3.2,2.8,4.9,1.9,8.2c-3.6,13.7-22.9,29.5-38.1,32.8c-7.9,1.8-17.7,1.1-27.5-7.3
		c-12.1-10.4-14.8-25.3-14.4-36.3C12.3,66.6,38.6,20.2,65.6,14.7L65.6,14.7z M154.2,104.5L154.2,104.5c0,0-0.2,2.3-0.1,3.9
		c0,13.2-0.8,20.6,11.4,27.9c4.5,2.9,10.3,4.4,13,2.9c3.6-1.9,3.1-6.3,2-10.6c-0.9-4.5-2-7.8-2.6-12.9c-3.1-24.1,0.4-40.8,4.5-58.5
		c2.2-9.7,3.4-14.9,6.9-25.1c1.2-3.5,1.7-5.4-0.3-7.5c-0.7-0.8-3.1-2.5-4.2-3.9c-1.4-1.4-2.4-2.6-3.6-4.2c-3.3-4.3-5-5.1-7.5-5.6
		c-8.1-1.5-22.3,14.3-30.3,24.4c-11.2,14.3-17.4,22.6-26.3,38.6c-2.7,4.9-5.8,11.2-7,13.2c-1.7,0.8-8.5,3.7-9.1,4.4
		c-2.7,2.6-2.1,6.9,0.2,11.2c1.2,2,1.2,1.9-0.1,4.9c-0.5,1.5-0.8,2.7-1.8,5.2c-2.4,5.3-2.6,8.1-2.5,10.2c0.4,4.5,2.2,7.5,7.8,11.4
		c4.5,3.1,8.6,4,10.5,3.6c3.3-0.7,2.1-5.9,2.7-9.6c0.7-4.9,2.3-8,3.5-10.9c4-8.8,5.2-10.3,12.9-11.4c1.3-0.1,10.3-1.1,16.4-1.4
		C151.9,104.7,154.2,104.5,154.2,104.5L154.2,104.5z M139.9,82.8c-0.4,0.6,0.2,1.8,1.3,1.7c5.1-0.8,13.5-1.5,13.5-1.5
		s0.7-6.2,2.2-12.8c1.4-7.1,3.8-14.6,4.2-16.1c0.4-1.4-1.2-2.1-1.9-1.4C153.2,59.1,146.4,69.4,139.9,82.8L139.9,82.8z M208.5,36.8
		L208.5,36.8c0,0-5.3,16.6-9.8,34.3c-4.2,16.8-7.6,34.4-8.5,38.8c-1.3,7-2.9,15.8,0.8,20.6c4.9,5.9,8.7,7.1,13.1,7.1
		c3.5,0.1,7.5-1.1,9.4-3.1c2.1-2.2-1.3-7.9-1.2-12.7c0.1-5,0.7-8.2,1.5-13.1c1.1-4.4,1.5-6.9,1.9-8.6c0.4-1.6,0.6-3.7,2.1-3.8
		c1.2-0.2,2.5,1.2,3.2,2c1.3,2,3.5,5.4,4.7,7.6c2.6,5.1,6.2,11.7,6.2,11.7c4.3,9,8.4,18.4,16.8,20.1c7,1.4,13.1-0.3,17-6.4
		c0.5-0.8,0.3-2.2-0.4-2.9c-13.4-11.8-17.4-22.4-20.8-32.4c-0.3-1.1-1.1-2.5,1.4-3.9l2.5-1.4c22.3-11.9,28.3-25.6,27.8-40.7
		c-0.4-9.9-6.4-22-16.8-29.6c-12.5-8.8-32.5-7.7-42.1-4.3c-3.2,1.2-14.7,5.6-15.5,11.2C201.6,30.6,204.6,33.4,208.5,36.8L208.5,36.8
		z M252.2,53.4c2.2-4.9,2.6-9.9,0.1-13.4c-3-3.9-7-4.8-10.8-4.5c-10.6,0.4-10.1,5.8-13.7,16.9l-5.4,17.1c-1.4,4.3-1.2,6.6,0.8,6.3
		C232.8,75.4,247,65.3,252.2,53.4L252.2,53.4z M299.5,109L299.5,109c1-4.5,1.7-7,3-11.2c0.5-1.9,1.8-1.4,2.7-0.3
		c3.3,2.9,4.3,2.6,7.4,2.2c15.3-2.9,41.6-17.3,46.7-37.6c3-10.5,0.2-24.8-8.5-34.5c-11.4-12.5-26-14.1-35.6-12.8
		c-11.3,1.7-24,5.3-26,11c-1.1,3.1,1,6.2,5.5,10.5c0,0-5.9,18.5-10.8,37.6c-3.9,14.7-7,29.8-8.4,36.3c-1.5,7-3,15.8,0.8,20.6
		c4.8,5.9,8.7,7.1,13,7.1c3.5,0.1,7.6-1.1,9.4-3.1c2.2-2.2-1.2-7.9-1.1-12.7C297.8,117.2,298.7,113.9,299.5,109L299.5,109z
		 M313.8,73.8c3.7-1.5,6.5-3,9.8-5.3c9.1-6.2,17.3-14.8,16.9-22.8c-0.1-2.9-1.3-5.1-3.5-6.8c-3.3-2.6-9.2-2.5-12.1-1.9
		c-7.5,1.5-9.8,11.7-12.3,20l-3.2,10.8c-1,2.9-1.3,5-0.4,6C310.2,75.2,312.4,74.4,313.8,73.8L313.8,73.8z M396.6,62.7
		c1.5-6.6,6.3-23,14.9-25c2.6-0.7,9.7-1.7,14.4-1.8c4.3-0.4,4.4-0.3,7.4,0c1.4,0.1,2.4,0.5,3.8,0.8c1.4,0.3,3,1.7,3.6,1.5
		c2.1-0.4,2.3-2.3,2.4-3.8c0.7-5.2-3.4-14.2-6.7-17.2c-5.9-5.5-17.8-3.2-24-2.2l-24.3,3.9c-7,1.2-11.7,2-12.7,4.9
		c-0.8,2.2,0.7,5.5,5.5,10.6c0,0-5.3,14.5-8.2,23.9c-1.1,3.7-3.1,9.5-3.2,9.8c-0.7,2.9-0.3,3.4-2.7,4.5c-1.3,0.7-3.2,1.4-4.8,2
		c-3.6,1.5-3.1,5.1-1.4,7.4c1.9,2.6,4,5.7,4,5.7l-3.5,16.3c-1.4,6.2-4.5,18.2,2.7,24.5c15.6,13.4,15.3,9.7,29.3,5.5l13-3.6
		c8.9-2.6,10.4-2.9,19.7-0.3c1.6-0.4,2-2.3,2.1-4.3c0.1-0.8,0-2.2-0.6-4.3c-1.2-4.2-3.1-7.1-5.1-9.1c-5.5-5-13.5-3.6-19.9-2.1
		l-5.9,1.5c-4,1-8,1.7-10.2,0.8c-2.1-0.8-1.7-3.1-1.5-5.3c0.3-2,1.3-6.7,2.2-10.7c1.4-5.1,1.9-7.1,6.1-8.5
		c5.4-1.6,11.4-1.9,16.4-2.2c3.2-0.3,4.8-0.5,8-0.5c1.5,0,2.9,0,4.2,0.5c1.6,0.3,2.1,1.7,4.2,0.3c2-1.2,2.2-4.1,1.9-7.3
		c-0.6-4.1-3.4-11.1-7.8-13.5c-3.1-1.7-7.6-1.5-12.2-0.8c-3.3,0.4-8.8,1.3-8.8,1.3C397.3,66.1,395.8,65.6,396.6,62.7L396.6,62.7z
		 M478.4,42.8c0.5-0.2,1.9,0,1.4,1.8c-3.5,10.2-6.1,18.4-9.5,30.1c-3.7,13.7-5.5,21.8-8.6,36.1c-1.6,7.1-3.1,15.8,0.8,20.7
		c4.9,5.8,8.7,7.1,13.1,7.1c3.3,0,7.5-1.2,9.4-3.2c2-2.2-1.3-7.9-1.2-12.6c0.1-5.1,0.8-9.1,1.8-12.6c0,0,5-21.1,9-34.3
		c2.9-10.5,4.3-16.3,7.3-26.2c2.6-8.2,2.9-13.3,12.4-14.6c7.3-0.8,11.9-0.7,19.6,0.6c1.9,0.3,2.6-1.4,2.3-3.6
		c-0.2-1.5-0.6-3-1.1-4.7c-0.9-3.4-3.2-6.5-5-8.5c-6.8-7.7-18.1-5.1-25-3.9l-41.2,7.1c-4.8,0.7-5.5,1.1-11.4-0.1
		c-2.9-0.8-2.7,1.2-2.2,4.2c0.3,1.8,0.8,4.2,0.8,4.3c0.7,3.9,2.2,6.6,4.2,8.8C461.6,46,470.2,45.8,478.4,42.8L478.4,42.8z"/>
</g>
</svg>
