<?xml version="1.0" encoding="UTF-8"?>
<svg width="80" height="43" viewBox="0 0 80 43" fill="none" xmlns="http://www.w3.org/2000/svg">
    <g clip-path="url(#clip0_15458_32732)">
        <path d="M78.6184 6.26857C80.2293 3.47774 77.6213 0.145149 74.528 1.03369L34.9756 12.3754L9.36294 5.03214C6.90559 4.32751 4.65875 6.65412 5.44869 9.08488L8.91313 19.7263C9.12092 20.3641 9.19231 21.0383 9.12264 21.7054C9.05297 22.3725 8.84382 23.0175 8.50874 23.5985L1.32948 36.0558C-0.110807 38.5409 2.21581 41.5101 4.97007 40.719L36.6098 31.6464L69.5967 41.1035C72.3554 41.8945 74.8781 39.2821 73.9918 36.5522L70.0299 24.3319C69.8238 23.695 69.7535 23.0219 69.8236 22.3561C69.8936 21.6903 70.1024 21.0466 70.4365 20.4664L78.6184 6.26857Z" fill="white"/>
        <path d="M70.6149 42.1371C70.1886 42.1359 69.7647 42.0751 69.3552 41.9565L36.6098 32.5725L5.21495 41.571C4.43456 41.8044 3.6016 41.7945 2.82694 41.5428C2.05229 41.291 1.37268 40.8093 0.878585 40.1617C0.369548 39.5257 0.0663428 38.7496 0.00934086 37.937C-0.0476611 37.1243 0.144245 36.3135 0.559507 35.6126L7.74098 23.1553C8.01382 22.6818 8.18437 22.1564 8.24162 21.6129C8.29887 21.0694 8.24155 20.5199 8.07336 20L4.60781 9.36404C4.37826 8.66039 4.34459 7.90753 4.51041 7.18619C4.67622 6.46486 5.03527 5.80227 5.54904 5.26948C6.06281 4.7367 6.71192 4.35382 7.42675 4.16191C8.14159 3.97 8.89518 3.9763 9.6067 4.18013L34.9779 11.4536L74.2843 0.181683C75.1396 -0.0745536 76.0527 -0.064005 76.9019 0.211923C77.751 0.487851 78.4959 1.01605 79.0372 1.72611C79.5952 2.42319 79.9275 3.27374 79.9898 4.16444C80.0522 5.05514 79.8416 5.94369 79.3862 6.71171L71.2043 20.9096C70.9323 21.3824 70.7621 21.9068 70.7049 22.4493C70.6477 22.9918 70.7046 23.5402 70.8719 24.0594L74.8338 36.2807C75.0499 36.9494 75.1056 37.6595 74.9965 38.3537C74.8874 39.0478 74.6165 39.7066 74.2056 40.2767C73.7948 40.8468 73.2557 41.3123 72.6317 41.6355C72.0077 41.9586 71.3165 42.1305 70.6138 42.1371H70.6149ZM36.6098 30.7257L36.8547 30.7955L69.8405 40.2537C70.3108 40.3885 70.8089 40.3929 71.2815 40.2663C71.754 40.1397 72.1833 39.8869 72.5232 39.5351C72.8631 39.1832 73.1009 38.7455 73.2111 38.2688C73.3213 37.7921 73.2997 37.2945 73.1487 36.8291L69.1868 24.6056C68.943 23.8506 68.8599 23.053 68.9429 22.264C69.0259 21.475 69.2732 20.7121 69.6687 20.0244L77.8507 5.82538C78.1243 5.36164 78.2506 4.82578 78.213 4.28867C78.1754 3.75156 77.9757 3.23851 77.6402 2.8174C77.313 2.38971 76.8637 2.07142 76.3517 1.90465C75.8397 1.73787 75.2892 1.73048 74.7729 1.88343L34.9723 13.2949L9.11812 5.8841C8.71621 5.76899 8.29056 5.76539 7.88676 5.87367C7.48296 5.98195 7.11623 6.19804 6.82584 6.49879C6.53545 6.79954 6.33234 7.17362 6.23827 7.58096C6.1442 7.98831 6.16272 8.41357 6.29184 8.81119L9.75627 19.4471C10.0025 20.2039 10.087 21.0039 10.0044 21.7953C9.92171 22.5868 9.67376 23.3521 9.27655 24.0416L2.09507 36.499C1.86521 36.8967 1.75945 37.354 1.79139 37.8123C1.82333 38.2706 1.99149 38.7088 2.2743 39.0708C2.55711 39.4328 2.94166 39.702 3.37857 39.8439C3.81549 39.9858 4.28483 39.9938 4.72636 39.867L36.6098 30.7257Z" fill="#008AD8"/>
        <path d="M31.4934 15.3479C27.7941 15.3479 24.2743 18.3979 23.6461 22.1493C23.0179 25.9007 25.514 28.9497 29.2133 28.9497C32.9126 28.9497 36.4347 25.8985 37.0629 22.1493C37.6911 18.4002 35.1938 15.3479 31.4934 15.3479ZM29.6709 26.1921C27.7642 26.1921 26.52 24.3773 26.9011 22.1493C27.2823 19.9213 29.1358 18.1055 31.0414 18.1055C32.947 18.1055 34.1923 19.9191 33.8112 22.1493C33.43 24.3796 31.5754 26.1921 29.6709 26.1921Z" fill="#E40046"/>
        <path d="M20.9395 21.4458L16.8402 18.9153C16.8066 18.8862 16.7804 18.8495 16.7636 18.8083C16.7469 18.7671 16.7401 18.7226 16.7438 18.6783C16.7509 18.5946 16.7889 18.5165 16.8503 18.4592C16.9117 18.4019 16.9922 18.3694 17.0762 18.368H22.4185L23.994 15.6426H16.9687C15.2282 15.6426 13.7137 17.0529 13.5851 18.7935C13.536 19.3399 13.6432 19.8891 13.8943 20.377C14.1454 20.8648 14.53 21.2713 15.0033 21.5488L19.1735 24.1868C19.302 24.2645 19.406 24.3767 19.4738 24.5107C19.5416 24.6447 19.5703 24.795 19.5568 24.9446C19.5376 25.1643 19.4433 25.3706 19.2897 25.5289C19.1361 25.6871 18.9327 25.7875 18.7137 25.8132C18.7137 25.8132 18.6494 25.8132 18.6184 25.8132H11.8923L10.2548 28.6561H18.553C20.6758 28.6561 22.5238 26.9344 22.68 24.8116C22.7399 24.1432 22.6079 23.4715 22.2997 22.8754C21.9914 22.2792 21.5195 21.7833 20.9395 21.4458Z" fill="#E40046"/>
        <path d="M50.9794 28.655H54.1923L56.3472 15.6426H53.1343L50.9794 28.655Z" fill="#E40046"/>
        <path d="M66.4802 27.3455C65.2781 28.4201 63.6949 28.9497 62.0242 28.9497C57.9991 28.9497 55.8875 26.0991 56.55 22.094C57.2402 17.9282 60.6858 15.3523 64.5092 15.3523C65.8708 15.3523 67.1571 15.698 67.9138 16.3927L66.4392 18.9408C65.8963 18.3603 65.1008 18.0999 64.0993 18.0999C62.0563 18.0999 60.1108 19.651 59.7164 22.0231C59.3054 24.5026 60.5362 26.1866 62.8108 26.1866C63.7459 26.1866 64.9324 25.8254 65.7024 24.9435L66.4802 27.3455Z" fill="#E40046"/>
        <path d="M46.9433 24.0151L43.2451 16.3195C43.1472 16.1164 42.9941 15.945 42.8032 15.825C42.6123 15.7051 42.3914 15.6415 42.166 15.6415H39.4139L37.2601 28.655H40.3999L41.7594 20.4376L45.2194 27.6102C45.7534 28.7359 46.6596 28.9397 47.464 28.9397C48.7935 28.9397 49.3995 28.2174 49.6399 26.6729L51.4658 15.6437H48.3259L46.9433 24.0151Z" fill="#E40046"/>
        <path d="M76.4924 39.7064C76.7444 39.6996 76.9928 39.7681 77.2057 39.9031C77.4186 40.0382 77.5864 40.2336 77.6876 40.4645C77.7888 40.6955 77.8188 40.9513 77.7739 41.1994C77.7289 41.4475 77.611 41.6765 77.4352 41.8572C77.2594 42.0379 77.0337 42.1621 76.7869 42.2138C76.5402 42.2656 76.2836 42.2426 76.05 42.1477C75.8164 42.0529 75.6163 41.8905 75.4755 41.6814C75.3346 41.4723 75.2594 41.226 75.2593 40.9738C75.2548 40.6423 75.3822 40.3225 75.6135 40.0849C75.8447 39.8472 76.1608 39.7111 76.4924 39.7064ZM76.4924 41.9222C76.6818 41.9293 76.869 41.8796 77.0299 41.7795C77.1909 41.6793 77.3182 41.5334 77.3956 41.3604C77.473 41.1874 77.4969 40.9952 77.4642 40.8085C77.4316 40.6218 77.3438 40.4491 77.2123 40.3126C77.0808 40.1761 76.9114 40.0821 76.7261 40.0426C76.5407 40.0031 76.3477 40.0199 76.172 40.0908C75.9962 40.1618 75.8457 40.2837 75.7397 40.4408C75.6337 40.598 75.5772 40.7832 75.5772 40.9727C75.5743 41.0954 75.5957 41.2174 75.6402 41.3318C75.6847 41.4461 75.7515 41.5505 75.8366 41.6389C75.9217 41.7273 76.0234 41.7979 76.136 41.8468C76.2486 41.8956 76.3697 41.9216 76.4924 41.9233V41.9222ZM76.7539 41.109L77.0264 41.643H76.694L76.4603 41.16H76.3351V41.643H76.0116V40.2969H76.5112C76.8015 40.2969 77.012 40.4786 77.012 40.7467C77.0117 40.8265 76.9868 40.9043 76.9406 40.9694C76.8944 41.0344 76.8291 41.0836 76.7539 41.1101V41.109ZM76.3328 40.5805V40.904H76.4702C76.5999 40.904 76.6741 40.8586 76.6741 40.7456C76.6741 40.6326 76.5999 40.5805 76.4702 40.5805H76.3328Z" fill="#008AD8"/>
    </g>
    <defs>
        <clipPath id="clip0_15458_32732">
            <rect width="80" height="42.2413" fill="white"/>
        </clipPath>
    </defs>
</svg>